<svg width="256" height="67" viewBox="0 0 256 67" fill="none" xmlns="http://www.w3.org/2000/svg">
<path d="M13.4326 0.499999H16.3076V18H13.6826V4.875H13.4326L4.93262 18H2.05762V0.499999H4.68262V13.625H4.93262L13.4326 0.499999ZM20.3066 0.499999H34.4316V18H31.8066V2.875H22.9316V18H20.3066V0.499999ZM39.3086 18V21H36.6836V15.625H38.5586L42.1836 0.499999H49.8086L53.4336 15.625H55.3086V21H52.6836V18H39.3086ZM44.1836 2.875L41.1836 15.625H50.8086L47.8086 2.875H44.1836ZM68.4115 9.775C69.1782 9.04167 69.5615 8.075 69.5615 6.875C69.5615 5.675 69.1782 4.70833 68.4115 3.975C67.6449 3.24167 66.5699 2.875 65.1865 2.875H60.1865V10.875H65.1865C66.5699 10.875 67.6449 10.5083 68.4115 9.775ZM72.1865 6.875C72.1865 7.75833 72.0115 8.58333 71.6615 9.35C71.3282 10.1167 70.8532 10.7917 70.2365 11.375C69.6199 11.9583 68.8782 12.4167 68.0115 12.75C67.1615 13.0833 66.2199 13.25 65.1865 13.25H60.1865V18H57.5615V0.499999H65.1865C66.2199 0.499999 67.1615 0.666666 68.0115 1C68.8782 1.33333 69.6199 1.79167 70.2365 2.375C70.8532 2.95833 71.3282 3.64167 71.6615 4.425C72.0115 5.19167 72.1865 6.00833 72.1865 6.875ZM86.8193 0.499999H89.6943V18H87.0693V4.875H86.8193L78.3193 18H75.4443V0.499999H78.0693V13.625H78.3193L86.8193 0.499999ZM105.068 0.499999H107.943V18H105.318V4.875H105.068L96.5684 18H93.6934V0.499999H96.3184V13.625H96.5684L105.068 0.499999Z" fill="white"/>
<g clip-path="url(#clip0_458_6720)">
<path fill-rule="evenodd" clip-rule="evenodd" d="M210.387 41.6391H211.688L211.214 39.9197H210.918L210.387 41.6391ZM211.955 42.5335H210.131L209.742 43.8518H208.761L210.279 38.9627H211.83L213.359 43.8518H212.355L211.955 42.5335ZM215.053 39.8621V43.8399H214.039V38.9508H217.552V39.8621H215.053ZM222.018 42.9286V43.8399H218.361V38.9508H221.944V39.8621H219.371V40.8945H221.373V41.7829H219.371V42.9286H222.018ZM227.158 38.9508V43.8399H226.142V41.7939H223.981V43.8399H222.965V38.9508H223.981V40.8598H226.142V38.95H227.158V38.9508ZM231.755 39.8511H230.238V43.8399H229.217V39.8511H227.699V38.95H231.755V39.8503V39.8511ZM236.489 42.3388C236.424 42.8182 236.18 43.2547 235.806 43.5592C235.432 43.8638 234.956 44.0135 234.476 43.9778C232.999 43.9778 232.16 42.9455 232.16 41.4673C232.16 39.9882 233.005 38.9508 234.476 38.9508C234.93 38.9155 235.381 39.0489 235.744 39.3257C236.107 39.6026 236.356 40.0036 236.444 40.4528H235.389C235.324 40.2669 235.199 40.1087 235.033 40.0045C234.867 39.9002 234.67 39.8563 234.476 39.8799C233.609 39.8799 233.198 40.5848 233.198 41.4901C233.198 42.3955 233.609 43.0953 234.476 43.0953C234.699 43.1163 234.921 43.0527 235.1 42.9169C235.278 42.7811 235.4 42.583 235.44 42.3617L236.489 42.3388V42.3388ZM240.957 39.8511H239.434V43.8399H238.419V39.8511H236.895V38.95H240.957V39.8503V39.8511ZM244.636 42.3668C244.636 41.9606 244.385 41.7482 243.86 41.7482H242.656V42.9692H243.843C244.356 42.9692 244.636 42.7797 244.636 42.3955V42.3668V42.3668ZM244.499 40.3724C244.499 40.0111 244.265 39.8334 243.803 39.8334H242.662V40.9224H243.803C244.265 40.9224 244.493 40.7388 244.493 40.3495L244.499 40.3724V40.3724ZM245.685 42.4302C245.685 43.2442 245.155 43.8458 243.974 43.8458H241.607V38.95H243.889C244.978 38.95 245.502 39.5228 245.502 40.2446C245.516 40.4406 245.476 40.6366 245.385 40.8107C245.295 40.9848 245.158 41.1301 244.989 41.2304V41.3691C245.188 41.4627 245.356 41.612 245.472 41.799C245.589 41.9861 245.649 42.2029 245.645 42.4235M250.061 41.4673C250.061 40.567 249.644 39.8562 248.731 39.8562C247.819 39.8562 247.408 40.567 247.408 41.4673C247.408 42.3668 247.83 43.0716 248.731 43.0716C249.633 43.0716 250.061 42.3608 250.061 41.4673ZM251.099 41.4673C251.099 42.8888 250.271 43.9778 248.731 43.9778C247.192 43.9778 246.364 42.8888 246.364 41.4673C246.364 40.0458 247.197 38.9508 248.731 38.9508C250.266 38.9508 251.099 40.0398 251.099 41.4673ZM210.097 47.915V51.3318H210.233L212.041 47.915H213.359V52.799H212.413V49.3069H212.281L210.427 52.7981H209.161V47.9141H210.097V47.915ZM218.767 47.915V52.799H217.752V50.7521H215.596V52.799H214.574V47.915H215.596V49.8188H217.752V47.915H218.767ZM224.043 47.915V52.799H223.027V50.7521H220.866V52.799H219.85V47.915H220.866V49.8188H223.027V47.915H224.043ZM228.55 50.4255C228.55 49.532 228.133 48.8153 227.226 48.8153C226.319 48.8153 225.897 49.532 225.897 50.4255C225.897 51.3199 226.319 52.0366 227.226 52.0366C228.133 52.0366 228.55 51.3199 228.55 50.4255ZM229.593 50.4255C229.593 51.853 228.76 52.9361 227.226 52.9361C225.692 52.9361 224.859 51.853 224.859 50.4255C224.859 48.9989 225.686 47.9438 227.226 47.9438C228.766 47.9438 229.593 49.0268 229.593 50.4543M233.546 51.3318C233.546 50.9188 233.289 50.7065 232.765 50.7065H231.561V51.9562H232.753C233.261 51.9562 233.546 51.7616 233.546 51.3834V51.3318V51.3318ZM233.404 49.3543C233.404 48.993 233.17 48.8153 232.707 48.8153H231.567V49.9043H232.707C233.17 49.9043 233.392 49.7266 233.392 49.3315L233.404 49.3543ZM234.601 51.3834C234.601 52.1965 234.071 52.799 232.89 52.799H230.529V47.9438H232.81C233.9 47.9438 234.43 48.5175 234.43 49.2333C234.444 49.4299 234.403 49.6263 234.311 49.8005C234.219 49.9747 234.081 50.1197 233.912 50.2191V50.357C234.112 50.4437 234.284 50.5865 234.406 50.7685C234.529 50.9504 234.596 51.1639 234.601 51.3834ZM236.632 50.5863H237.933L237.431 48.8669H237.134L236.632 50.5863ZM238.2 51.4807H236.376L235.987 52.799H235L236.524 47.9438H238.069L239.598 52.8269H238.595L238.2 51.4807V51.4807ZM244.036 52.8218H240.277V47.915H241.281V51.9046H243.323V47.915H244.327V51.9046H245.011V54.0251H244.036V52.8218ZM246.763 47.915V51.3318H246.894L248.703 47.915H250.02V52.799H249.074V49.3069H248.942L247.089 52.7981H245.822V47.9141H246.763V47.915ZM254.6 46.6889C254.554 46.9072 254.452 47.1099 254.305 47.2776C254.158 47.4453 253.971 47.5724 253.762 47.6469C253.552 47.7214 253.327 47.7407 253.108 47.7031C252.889 47.6654 252.683 47.572 252.51 47.4318C252.279 47.2436 252.119 46.9814 252.056 46.6889H252.797C252.813 46.815 252.877 46.93 252.976 47.0096C253.025 47.0483 253.082 47.0768 253.142 47.0935C253.203 47.1102 253.266 47.1147 253.328 47.1069C253.453 47.1202 253.579 47.084 253.678 47.0059C253.777 46.9279 253.842 46.8142 253.859 46.6889H254.6V46.6889ZM252.17 47.9725V51.3487H252.285L254.099 47.9725H255.411V52.7981H254.469V49.3594H254.333L252.484 52.7981H251.218V47.9725H252.17V47.9725ZM209.161 57.012H210.753L211.545 58.9607H211.683L212.469 57.012H214.032V61.9011H213.085V58.0832H212.948L212.065 60.2612H211.134L210.25 58.0832H210.114V61.9011H209.161V57.012V57.012ZM218.538 59.4075C218.538 58.5131 218.127 57.8023 217.215 57.8023C216.302 57.8023 215.885 58.5131 215.885 59.4075C215.885 60.301 216.308 61.0177 217.215 61.0177C218.122 61.0177 218.538 60.3069 218.538 59.4075ZM219.582 59.4075C219.582 60.8341 218.749 61.9231 217.215 61.9231C215.681 61.9231 214.848 60.8341 214.848 59.4075C214.848 57.98 215.675 56.8969 217.215 56.8969C218.755 56.8969 219.582 57.9859 219.582 59.4075ZM224.586 60.2612C224.521 60.7405 224.276 61.1769 223.902 61.4814C223.528 61.7859 223.053 61.9357 222.573 61.9002C221.095 61.9002 220.256 60.8679 220.256 59.3838C220.256 57.8996 221.107 56.8741 222.573 56.8741C223.027 56.8381 223.478 56.9712 223.841 57.248C224.204 57.5248 224.453 57.9259 224.541 58.3751H223.485C223.421 58.1892 223.296 58.0308 223.13 57.9265C222.964 57.8223 222.767 57.7784 222.573 57.8023C221.705 57.8023 221.294 58.5071 221.294 59.4066C221.294 60.3069 221.705 61.0177 222.573 61.0177C222.795 61.0389 223.018 60.9753 223.197 60.8394C223.375 60.7036 223.496 60.5054 223.536 60.2841L224.586 60.2612V60.2612ZM225.532 57.012H226.552V58.9201H227.683L228.606 57.012H229.661L228.538 59.3846L229.725 61.9011H228.669L227.688 59.8432H226.552V61.9011H225.532V57.012V57.012ZM233.41 60.4271C233.41 60.015 233.153 59.8026 232.633 59.8026H231.43V61.0295H232.616C233.13 61.0295 233.41 60.8349 233.41 60.4558V60.4271ZM233.272 58.4268C233.272 58.0663 233.038 57.8886 232.577 57.8886H231.436V58.9776H232.577C233.038 58.9776 233.267 58.7999 233.267 58.4039L233.272 58.4268ZM234.453 60.4846C234.453 61.2986 233.928 61.9061 232.742 61.9061H230.375V57.0171H232.656C233.746 57.0171 234.27 57.5899 234.27 58.3117C234.283 58.5069 234.242 58.7017 234.151 58.8749C234.061 59.0481 233.925 59.1928 233.757 59.2932V59.4075C233.955 59.5023 234.121 59.652 234.236 59.8389C234.351 60.0258 234.411 60.242 234.408 60.4618M239.667 61.8951H240.682V57.012H239.667V61.8943V61.8951ZM238.076 60.2841C238.076 59.8263 237.83 59.5623 237.151 59.5623H236.312V61.0008H237.174C237.853 61.0008 238.099 60.7486 238.099 60.2841H238.076V60.2841ZM235.298 61.8951V57.012H236.312V58.6679H237.334C238.475 58.6679 239.142 59.2755 239.142 60.2731C239.142 61.2698 238.475 61.8951 237.334 61.8951H235.298ZM168.826 62.7083C168.751 62.8248 168.635 62.9096 168.502 62.9467C168.369 62.9837 168.226 62.9706 168.102 62.9097C168.019 62.8215 167.97 62.7063 167.965 62.5851C167.96 62.4638 167.998 62.3448 168.073 62.2497C167.952 62.2781 167.844 62.3496 167.771 62.4511C167.704 62.6021 167.692 62.7717 167.737 62.9308C167.781 63.0898 167.879 63.2284 168.014 63.3226C168.149 63.4168 168.313 63.4609 168.477 63.4471C168.64 63.4334 168.794 63.3627 168.912 63.2473C168.974 63.153 169.008 63.0423 169.008 62.9291C169.008 62.816 168.974 62.7053 168.912 62.611C168.894 62.6468 168.871 62.6797 168.843 62.7083H168.826V62.7083ZM179.579 44.0751C179.464 43.9234 179.381 43.7494 179.336 43.5641C179.291 43.3788 179.284 43.186 179.316 42.998C179.185 43.2325 179.114 43.4961 179.109 43.7652C179.104 44.0343 179.165 44.3004 179.288 44.5397C179.676 45.1125 180.029 45.1701 180.338 45.7666C180.36 45.6074 180.327 45.4455 180.246 45.3071C180.126 45.0668 180.075 44.8604 180.365 44.78C181.17 44.5397 181.923 45.7141 182.368 45.6913C182.542 45.6772 182.707 45.6113 182.844 45.502C182.98 45.3927 183.081 45.245 183.133 45.0778C182.915 45.2141 182.664 45.2818 182.408 45.2725C181.78 45.1929 181.484 44.4821 180.776 44.3391C180.326 44.2469 179.944 44.4365 179.561 44.0692L179.579 44.0751V44.0751ZM179.133 57.1144C178.923 57.4241 179.082 57.859 179.641 58.0257C180.045 58.1188 180.416 58.3159 180.719 58.5994C181.079 58.9598 181.25 59.0055 181.336 59.0055L165.934 37.5361L165.729 37.685C165.729 37.685 174.627 50.0769 178.58 55.5896C178.728 55.7961 179.328 56.8681 179.151 57.1431L179.133 57.1144V57.1144ZM179.088 58.123C178.518 58.123 177.833 58.3472 177.155 57.7168C176.924 57.4856 176.627 57.3329 176.306 57.2804C175.985 57.2279 175.655 57.2781 175.363 57.4241C175.363 57.4241 175.933 57.9969 175.62 58.2381C175.095 58.6273 175.483 59.0859 175.432 59.2636C175.38 59.4413 174.861 59.476 173.977 59.069C173.584 58.886 173.144 58.8261 172.717 58.8972C172.488 58.9311 172.563 59.1037 172.614 59.1494C172.665 59.1951 172.984 59.4878 173.127 59.5851C173.27 59.6825 173.538 59.9067 173.652 59.8255C173.766 59.7451 173.527 59.3093 173.527 59.3093C174.289 59.5734 175.074 59.7655 175.871 59.883C176.579 59.883 175.917 58.7026 176.47 58.6451C176.755 58.6451 177.103 59.0571 177.679 59.1375C178.085 59.1494 178.488 59.0775 178.866 58.926C179.288 58.8228 179.436 59.344 179.505 59.8085C179.513 59.9498 179.55 60.0878 179.613 60.2147C179.75 59.5505 179.933 58.0891 179.088 58.112V58.123V58.123ZM183.491 59.476C183.263 58.8566 182.824 59.1265 182.631 59.0571C182.436 58.9895 182.179 58.7424 182.094 58.0832C182.008 57.4241 181.455 57.7795 181.455 57.7795C181.455 57.7795 182.1 59.0808 182.362 59.7738C182.625 60.4677 182.841 59.9287 183.161 60.3069C183.48 60.6851 183.44 62.6338 183.258 63.2651C183.05 63.9809 182.626 64.6139 182.043 65.0758C182.493 65.0242 183.326 64.1366 183.565 63.557C183.726 63.1508 183.766 62.7066 183.68 62.2793L184.056 62.2446L183.822 61.6709L184.188 61.6142C184.188 61.6142 183.72 60.1241 183.491 59.5048V59.476V59.476ZM168.507 60.7368C168.034 60.6134 167.542 60.5844 167.058 60.6513C166.617 60.7623 166.166 60.8295 165.712 60.8518C165.509 60.8516 165.308 60.8086 165.122 60.7255C164.936 60.6424 164.77 60.5212 164.633 60.3695C164.521 60.2304 164.433 60.0738 164.371 59.9058C164.67 59.3629 165.128 58.9263 165.683 58.6561C168.159 57.2692 167.337 55.7106 167.183 53.9049C167.116 53.522 167.132 53.1289 167.231 52.7529C167.329 52.3769 167.508 52.0268 167.754 51.7269C168.268 51.3488 168.897 51.1624 169.533 51.1998C168.687 50.7484 167.707 50.618 166.773 50.8325C165.552 51.1879 165.33 52.0764 165.118 52.7068C165.025 53.0842 164.839 53.4322 164.578 53.7194C164.317 54.0066 163.989 54.2239 163.624 54.3517C161.81 55.1141 161.912 56.5525 161.912 56.5525C161.912 56.5525 161.256 55.131 163.019 53.9396C165.256 52.4199 164.394 51.2514 165.141 50.5516C165.712 50.0135 166.424 50.0989 167.497 50.3908C167.303 50.1624 164.468 48.9642 164.137 51.5035C163.858 53.6638 161.805 53.36 161.451 55.3958C161.2 56.8343 162.557 58.0435 162.557 58.0435C162.557 58.0435 161.474 55.8595 163.607 54.977C165.079 54.3695 165.923 53.6638 166.14 52.9708V53.6866C166.14 54.6673 166.624 55.4068 166.482 56.7996C166.408 57.5561 165.033 58.3125 164.263 59.0927C164.284 58.7523 164.385 58.4219 164.559 58.1289C164.805 57.8285 165.021 57.5036 165.204 57.1601C165.349 56.8436 165.395 56.4899 165.336 56.1464C165.295 55.9444 165.222 55.7505 165.118 55.5727L165.016 55.6125C165.12 55.8438 165.17 56.0965 165.16 56.3504C165.15 56.6043 165.081 56.8523 164.958 57.0746C164.758 57.3925 164.527 57.69 164.269 57.9631C163.995 58.3438 163.837 58.7948 163.812 59.2636C163.804 59.4235 163.815 59.5835 163.847 59.74C163.741 60.1391 163.715 60.5554 163.771 60.9646C163.827 61.3738 163.963 61.7678 164.172 62.1236C164.514 62.6973 164.839 63.1441 164.674 63.8438C164.508 64.5428 165.09 64.2847 165.512 64.2965H165.906C166.179 64.2965 166.288 64.096 166.122 63.8261C165.81 63.2907 165.427 62.8009 164.982 62.3707C164.723 62.1549 164.515 61.8842 164.373 61.5779C164.231 61.2717 164.158 60.9376 164.16 60.5997C164.342 60.8269 164.568 61.0154 164.824 61.1542C165.079 61.2929 165.36 61.3791 165.649 61.4078C166.138 61.3993 166.623 61.3231 167.092 61.1844C167.513 61.1187 167.943 61.1343 168.359 61.2301C168.739 61.3215 169.091 61.5 169.391 61.7513C169.648 61.984 169.829 62.2903 169.91 62.6288C169.949 62.9094 169.914 63.1955 169.808 63.4581C169.702 63.7207 169.528 63.9504 169.305 64.1239L169.373 64.1874C169.666 64.0177 169.9 63.7618 170.043 63.4542C170.186 63.1466 170.231 62.8023 170.173 62.468C170.078 62.0535 169.867 61.6754 169.563 61.3794C169.259 61.0833 168.877 60.8822 168.461 60.8002L168.507 60.7368V60.7368ZM167.976 49.3078C168.707 50.082 169.488 49.7731 169.836 49.8121C170.184 49.8527 170.589 50.7521 170.378 51.6296C170.254 52.06 170.105 52.4829 169.933 52.8963C169.75 53.5901 170.6 54.0826 170.406 54.7189C170.349 54.8966 170.229 55.1488 170.378 55.3434C170.605 55.6531 170.977 55.2461 171.45 55.3434C171.744 55.3857 172.043 55.3265 172.3 55.1775C172.243 54.9076 171.187 55.0743 170.948 54.6385C170.845 54.4439 170.566 52.4605 171.182 51.578C171.798 50.6955 171.222 50.5059 170.834 49.8586C171.421 49.5453 172.013 49.2395 172.608 48.9414C172.991 49.3221 173.315 49.7588 173.566 50.236C173.706 50.5135 173.779 50.8198 173.778 51.1304C173.773 51.4519 173.667 51.7633 173.475 52.0188C173.731 51.9791 173.971 51.5145 174.045 51.1591C174.102 50.8007 174.075 50.4339 173.965 50.0879C173.712 49.3735 173.303 48.7251 172.768 48.19C172.019 48.4574 171.291 48.7798 170.589 49.1538C170.258 48.5285 169.922 48.6435 169.511 48.6774C169.376 48.6726 169.244 48.6333 169.128 48.5631C169.012 48.4929 168.916 48.3942 168.849 48.2763C169.301 48.4004 169.781 48.3599 170.206 48.1621C170.375 48.1225 170.534 48.0462 170.671 47.9384C170.807 47.8307 170.919 47.6941 170.997 47.5384C171.075 47.3827 171.119 47.2116 171.124 47.0372C171.13 46.8628 171.097 46.6893 171.028 46.529C171.035 46.7494 170.961 46.9647 170.82 47.1337C170.679 47.3027 170.481 47.4137 170.264 47.4454C169.657 47.4311 169.053 47.3445 168.467 47.1873C168.467 47.1873 169.511 47.0671 169.722 46.4655C169.776 46.2959 169.883 46.1481 170.027 46.0441C170.171 45.9401 170.345 45.8852 170.522 45.8876C170.64 45.8893 170.756 45.9164 170.862 45.9663C170.72 45.8088 170.525 45.7099 170.314 45.6888C170.103 45.6677 169.893 45.7259 169.722 45.8521C169.417 46.0039 169.077 46.0747 168.737 46.0577C168.396 46.0406 168.066 45.9364 167.777 45.7548C166.932 45.3249 166.636 46.0357 166.459 46.0526C166.282 46.0695 166.157 45.7945 166.253 45.4789C166.35 45.1641 167.315 44.9061 168.769 44.8545C169.333 44.7868 169.904 44.8866 170.412 45.1413C170.412 45.0609 170.155 44.7055 169.363 44.5109C168.569 44.3163 168.621 43.9888 168.661 43.4278C168.701 42.866 167.885 43.0894 167.685 43.0208C167.485 42.9515 167.685 42.5106 167.685 42.5106C167.54 42.5447 167.412 42.6287 167.322 42.7481C167.233 42.8674 167.188 43.0145 167.195 43.1638C167.195 43.3923 167.423 43.559 167.64 43.6681C167.857 43.7773 167.891 43.9719 167.503 44.2012C167.055 44.4551 166.595 44.6852 166.122 44.8891C164.765 45.462 166.459 46.4765 165.86 46.7862C165.665 46.8653 165.492 46.9912 165.357 47.1531C165.221 47.3149 165.128 47.5077 165.084 47.7145C165.065 47.8697 165.078 48.0271 165.122 48.177C165.167 48.3269 165.241 48.4661 165.341 48.586C166.51 47.9497 167.286 48.3965 168.01 49.1588L167.976 49.3078V49.3078ZM174.907 47.3768C174.907 46.8776 175.038 46.6373 175.175 46.6314C175.592 46.6314 175.683 47.2042 175.688 47.3709C175.695 47.5067 175.669 47.6422 175.611 47.7652C175.553 47.8882 175.466 47.9949 175.357 48.0758C175.654 48.1045 175.894 47.6865 175.928 47.4225C175.956 47.287 175.957 47.1472 175.93 47.0113C175.904 46.8754 175.851 46.7462 175.773 46.6314C176.26 47.1052 176.543 47.7508 176.561 48.4311C176.453 49.5032 175.249 50.0701 175.249 50.0701C175.633 50.1336 176.026 50.0902 176.387 49.9448C176.748 49.7994 177.063 49.5574 177.297 49.2451C177.662 48.7806 177.821 48.0986 177.377 46.9521C176.978 45.9375 176.236 45.0778 177.029 43.1291C177.181 42.7393 177.419 42.3894 177.725 42.106C178.032 41.8225 178.398 41.6131 178.797 41.4935C179.197 41.3736 179.618 41.3466 180.029 41.4144C180.44 41.4823 180.83 41.6433 181.17 41.8853C181.242 41.9345 181.298 42.0044 181.33 42.0858C181.41 42.3101 180.822 42.6079 181.079 42.7399C181.291 42.8118 181.495 42.9041 181.689 43.0149C181.872 43.152 181.906 43.273 182.003 43.3585C182.024 43.3837 182.05 43.4041 182.079 43.418C182.109 43.4319 182.142 43.439 182.174 43.4388C181.693 42.7909 181.427 42.0067 181.416 41.1982C180.812 40.9554 180.19 40.7635 179.555 40.6245C178.679 40.5108 177.789 40.6499 176.989 41.0256C175.785 41.5993 174.514 42.745 174.514 45.451C174.492 46.111 174.625 46.7659 174.901 47.365L174.907 47.3768V47.3768ZM161.525 53.6756C161.699 53.6499 161.858 53.5623 161.973 53.4287C162.088 53.2952 162.152 53.1246 162.152 52.9479C162.251 53.0812 162.3 53.2456 162.289 53.4116C162.362 53.2961 162.408 53.1656 162.424 53.0298C162.44 52.8939 162.425 52.7562 162.381 52.6268C162.336 52.4975 162.264 52.3798 162.168 52.2826C162.072 52.1854 161.956 52.1112 161.827 52.0654C161.827 52.0654 161.867 52.8785 161.348 53.1654C160.829 53.4522 160.721 53.6528 160.692 53.9506C160.679 54.0945 160.711 54.2383 160.783 54.3635C160.856 54.47 160.963 54.5487 161.085 54.5869C160.925 54.3695 160.892 53.8474 161.525 53.6756V53.6756ZM174.479 42.2695C172.962 42.3558 172.431 41.8058 171.393 41.3065C170.355 40.8073 169.459 41.1695 169.305 41.4098C170.058 41.5209 170.771 41.8228 171.376 42.2872C173.48 43.6106 174.479 42.2872 174.479 42.2872V42.2703V42.2695ZM173.8 39.0481C173.578 39.1116 173.048 39.1971 173.293 40.4358C173.538 41.6738 174.211 41.37 174.387 41.2143C174.119 41.1712 173.877 41.0305 173.705 40.819C173.534 40.6076 173.446 40.3402 173.458 40.0678C173.458 38.9915 174.667 39.192 174.667 39.192C174.404 39.0426 174.094 38.9994 173.8 39.071V39.0481ZM187.325 54.8103C186.85 53.3292 186.211 51.9066 185.42 50.5694C184.764 49.5777 184.433 50.2885 184.17 50.5118C183.908 50.7352 183.144 52.0307 182.808 50.3629C182.471 48.6951 180.754 47.2508 180.754 47.2508C181.022 48.2205 181.08 49.2367 180.925 50.2309C180.9 50.7588 180.937 51.2878 181.033 51.8073C181.033 52.2938 179.579 52.6154 179.505 52.9877C179.43 53.36 181.667 54.9025 183.8 53.36C184.439 52.8963 184.838 54.6961 185.043 55.1835C185.249 55.67 184.838 55.8248 185.323 56.3867C185.808 56.9485 185.437 57.4241 185.437 57.7744C185.437 58.123 186.401 58.9201 186.578 58.7475C186.892 58.4386 186.189 56.5931 185.91 55.9509C185.631 55.3087 185.18 53.2517 184.867 52.6898C184.684 52.3683 183.725 52.5925 183.725 52.5925L183.657 52.3463C183.657 52.3463 183.789 52.1796 183.908 52.0535C184.883 51.039 184.803 51.4807 185.813 52.6898C186.823 53.8998 185.608 54.4092 186.481 55.0506C187.353 55.6937 187.622 55.8765 187.308 54.8103H187.325ZM171.336 38.1885C171.522 38.2392 171.714 38.2621 171.907 38.2578C172.015 38.2533 172.121 38.2208 172.214 38.1635C172.307 38.1062 172.384 38.0259 172.437 37.9304C172.022 37.9423 171.616 37.8018 171.296 37.5352C171.296 37.5352 172.129 37.4955 172.546 37.4379C172.962 37.3804 173.732 37.1739 173.732 37.1739C173.732 37.1739 173.704 37.8618 173.698 38.2629C173.692 38.6648 174.205 38.5785 174.376 38.521C174.547 38.4635 174.627 37.6554 174.662 36.9734C174.69 36.4572 174.308 36.4521 174.091 36.5435C173.573 36.7906 173.042 37.0089 172.499 37.1968C171.936 37.3152 171.357 37.3327 170.788 37.2484L170.731 37.4667L171.598 37.9998L171.336 38.1885ZM172.762 41.4614L173.001 41.3581C172.894 41.0375 172.829 40.7041 172.808 40.3665C172.832 39.8605 172.891 39.357 172.984 38.8595H172.762C172.762 38.8595 172.665 39.621 172.534 40.2861C172.403 40.9511 172.055 40.8251 171.884 40.8141C171.713 40.8022 170.36 40.6017 170.36 40.6017V40.8022L171.131 40.9173C171.695 41.0426 172.243 41.2349 172.762 41.4901V41.4614V41.4614ZM173.606 44.4305C173.145 44.6478 172.628 44.7121 172.129 44.6141C172.463 44.8502 172.861 44.9797 173.27 44.9865C173.418 44.9836 173.564 44.9489 173.698 44.8847C173.832 44.8204 173.95 44.7282 174.045 44.6141C174.216 44.393 174.323 44.1286 174.353 43.8503C174.383 43.572 174.336 43.2907 174.216 43.0378C174.216 43.0378 174.165 44.0811 173.618 44.4305H173.606V44.4305ZM172.328 60.6682C171.045 59.3846 171.512 59.5217 172.328 58.3751C172.933 57.5273 175.876 56.7759 177.36 56.4442V56.3063C176.606 56.3401 175.477 56.3808 174.348 56.3808C172.408 56.3808 171.627 55.6361 171.125 55.7275C169.197 56.0939 170.555 58.3125 168.307 58.0206C166.06 57.7278 166.093 59.9803 166.093 59.9803C166.733 58.6738 167.395 58.8338 167.907 58.8338C168.421 58.8338 169.077 59.2467 169.904 58.5478C170.087 58.3929 170.914 57.0518 170.794 57.7219C170.664 58.1543 170.431 58.5478 170.115 58.8685C169.927 59.0918 169.813 59.2577 170.206 59.4819L170.777 59.8035C171.695 60.3298 171.541 60.9491 170.942 60.9035C170.52 60.9035 170.019 60.6682 169.597 60.6276C169.425 60.6276 169.231 60.6792 169.505 60.8112C169.667 60.8874 169.816 60.9898 169.944 61.1158C170.617 61.7919 169.813 61.522 171.736 61.4188C172.04 61.4078 172.343 61.3733 172.643 61.3155C173.406 61.1497 172.505 60.7943 172.34 60.6217L172.328 60.6682V60.6682ZM182.226 61.7682C182.068 61.4824 181.927 61.1878 181.803 60.8857C181.496 60.2384 181.803 60.3645 181.609 59.9921C181.416 59.6198 181.29 59.9921 180.754 59.1604C180.651 58.9996 180.44 59.069 180.412 59.465C180.383 59.8601 181.039 60.2265 181.341 61.1844C181.644 62.1405 181.912 62.2505 181.644 62.8344C181.375 63.4191 180.211 63.4081 180.211 63.4081C181.142 64.3769 183.03 63.0527 182.226 61.797" fill="#D2D6E3"/>
<path d="M203.213 34.6321L191.837 66.0862L192.223 66.2275L203.598 34.7725L203.213 34.6321ZM0.227356 58.9776C0.227356 61.6802 2.04293 63.3607 5.00546 63.3607H7.83999C8.64122 63.328 9.44096 63.4549 10.1932 63.734C10.9454 64.0131 11.6353 64.439 12.2231 64.987L12.4623 65.2205L12.7006 64.987C13.2826 64.4426 13.9658 64.0188 14.7109 63.7399C15.4561 63.461 16.2487 63.3324 17.0434 63.3615H19.8829C22.7983 63.3615 24.6071 61.6802 24.6071 58.9776V35.6534H0.227356V58.9785V58.9776ZM0.737672 36.1882H24.0943V58.9785C24.0943 61.4002 22.517 62.8479 19.8812 62.8479H17.0417C15.3476 62.7808 13.6936 63.3758 12.4269 64.5081C11.1552 63.3788 9.4998 62.7844 7.80378 62.8479H4.97178C2.32251 62.8479 0.738514 61.4002 0.738514 58.9785V36.1882H0.737672Z" fill="#D2D6E3"/>
<path d="M4.18694 50.6159C4.30146 50.7039 4.42273 50.7852 4.54904 50.8554C4.66441 50.9239 4.67199 50.9316 4.61641 51.0542L4.56925 51.1304C4.38209 51.4585 4.2686 51.8238 4.23674 52.2006C4.20489 52.5774 4.25543 52.9567 4.38483 53.3118C4.43283 53.4489 4.49431 53.5859 4.56167 53.7577C4.63073 53.4353 4.68546 53.1603 4.74694 52.8929C4.77628 52.7116 4.84157 52.538 4.93892 52.3825C5.03627 52.227 5.16371 52.0927 5.31367 51.9876C5.41557 51.9156 5.5141 51.8378 5.60673 51.7549C5.63485 51.7359 5.66475 51.7198 5.69599 51.7066C5.80326 51.8343 5.86779 51.9927 5.88041 52.1593C5.91672 52.5003 5.85011 52.8443 5.68925 53.1468C5.57304 53.3668 5.45683 53.5868 5.36083 53.833C5.25319 54.0528 5.2108 54.2991 5.23872 54.5425C5.26664 54.7859 5.3637 55.016 5.51831 55.2055C5.62778 55.3493 5.75073 55.4729 5.88041 55.6235L5.72967 55.8088C5.68468 55.8571 5.65965 55.9207 5.65965 55.9869C5.65965 56.053 5.68468 56.1167 5.72967 56.165C5.77178 56.2192 5.81725 56.2691 5.8661 56.3165C5.9402 56.3952 6.00083 56.4857 6.04378 56.5839C6.15494 56.8428 6.1861 57.1296 6.13304 57.4072C6.10974 57.4606 6.10655 57.5206 6.12406 57.5762C6.14156 57.6318 6.17858 57.6791 6.2282 57.7092C6.44715 57.8345 6.70315 57.8802 6.95241 57.8396C7.06188 57.8396 7.07452 57.7981 7.05431 57.6746C7.03771 57.525 6.98094 57.3829 6.8901 57.2633L6.53557 56.7962C6.4468 56.673 6.3951 56.5267 6.38659 56.3747C6.37809 56.2228 6.41313 56.0716 6.48757 55.9391C6.83366 56.1094 7.20468 56.2228 7.58652 56.275C7.59001 56.3093 7.59001 56.3439 7.58652 56.3782C7.56125 56.6067 7.56125 56.836 7.58652 57.0636C7.60558 57.2403 7.67141 57.4086 7.77715 57.551C7.8829 57.6934 8.02469 57.8047 8.18778 57.8734C8.52823 57.9707 8.893 57.9313 9.20504 57.7634C9.37905 57.6791 9.52032 57.5391 9.60672 57.3655C9.69312 57.1919 9.71977 56.9943 9.68252 56.8039C9.65583 56.6648 9.62182 56.5272 9.58062 56.3918C9.66231 56.2818 9.78525 56.3097 9.9082 56.2953C9.96383 56.2879 10.0203 56.3003 10.0677 56.3305C10.1151 56.3607 10.1505 56.4066 10.1676 56.4603C10.2223 56.5974 10.2703 56.7277 10.3309 56.858C10.3481 56.886 10.3571 56.9182 10.3571 56.9511C10.3571 56.984 10.3481 57.0162 10.3309 57.0442C10.229 57.2286 10.1474 57.4275 10.0446 57.6128C10.0181 57.6577 10.0084 57.7106 10.0172 57.7621C10.026 57.8136 10.0527 57.8602 10.0926 57.8937C10.1541 57.9487 10.2223 57.9834 10.277 58.0376C10.3309 58.0934 10.3722 58.2169 10.2358 58.244C10.1192 58.2715 9.99785 58.2715 9.88125 58.244C9.79333 58.2155 9.69783 58.2226 9.61499 58.2636C9.53214 58.3047 9.46847 58.3766 9.43746 58.464C9.42568 58.4956 9.40654 58.524 9.38164 58.5466C9.35673 58.5693 9.32679 58.5857 9.29431 58.5943C9.21078 58.612 9.13386 58.6529 9.07225 58.7123C9.01063 58.7716 8.96679 58.8471 8.94567 58.9302V59.0402L9.13683 58.9506C9.51578 58.8118 9.92841 58.7949 10.3175 58.9023C10.725 58.9971 11.1133 59.1612 11.4644 59.3897C11.4871 59.3982 11.5107 59.3982 11.5326 59.3897C11.5617 59.3093 11.5605 59.221 11.5292 59.1415C11.4978 59.0619 11.4385 58.9967 11.3625 58.9582C11.3136 58.9322 11.2633 58.909 11.2118 58.8888C10.9667 58.8067 10.7141 58.7382 10.4682 58.6629C10.4 58.6629 10.325 58.6629 10.3107 58.519C10.4573 58.4843 10.6088 58.4843 10.7545 58.519C11.1301 58.6011 11.5057 58.7035 11.8813 58.7932C11.9975 58.7932 12.1137 58.8685 12.2358 58.9091V58.7991C12.225 58.6291 12.1785 58.4632 12.0994 58.3126C12.032 58.2026 11.9697 58.079 11.9015 57.9699C11.8626 57.9008 11.8421 57.8228 11.8421 57.7435C11.8421 57.6642 11.8626 57.5862 11.9015 57.5172C12.2147 57.5307 12.5229 57.5933 12.8168 57.7025C13.1234 57.7846 13.4173 57.8937 13.7448 57.9969V57.6128C13.7901 57.5885 13.8382 57.57 13.888 57.5578C14.0522 57.496 14.0522 57.496 14.1827 57.6407C14.5145 58.013 14.949 58.2804 15.4316 58.409C15.5431 58.4403 15.6611 58.4403 15.7726 58.409C15.6968 58.3472 15.6362 58.3058 15.5882 58.2576C15.5402 58.2102 15.4653 58.1552 15.472 58.0722C15.4787 57.9902 15.472 58.0722 15.52 58.0722L16.0665 58.244C16.2164 58.2855 16.2577 58.244 16.3191 58.1205C16.3798 57.98 16.4034 57.8269 16.3865 57.6746C16.3831 57.6267 16.3831 57.5786 16.3865 57.5307C16.5021 57.5507 16.6105 57.6002 16.7015 57.6746C16.9474 57.8184 16.9474 57.8184 17.1655 57.6196C17.1865 57.5953 17.2093 57.5727 17.2337 57.5519C17.621 57.1144 17.8846 56.5813 17.9983 56.0076C18.0151 55.923 18.0404 55.8401 18.0741 55.7606C18.2097 55.7606 18.3326 55.8223 18.4278 55.7606C18.4278 55.6506 18.2577 55.637 18.2922 55.5067C18.4758 55.5211 18.661 55.4898 18.8311 55.4179C18.8096 55.3934 18.7843 55.3725 18.7562 55.3561C18.5142 55.2265 18.313 55.0316 18.1751 54.7934L17.7322 53.9769C17.616 53.7645 17.541 53.7509 17.3566 53.8745H17.2884C17.2067 53.7374 17.1116 53.5792 17.0223 53.4218C16.9648 53.3161 16.932 53.1986 16.9263 53.0782C16.9225 52.9814 16.8893 52.8881 16.8311 52.8109C16.7697 52.722 16.7149 52.722 16.6122 52.8109L16.4893 52.887C16.4893 52.7491 16.4893 52.6332 16.4421 52.4952H16.2164C16.1805 52.4994 16.1441 52.4933 16.1114 52.4775C16.0788 52.4618 16.0513 52.4372 16.032 52.4064C15.9646 52.2896 15.8888 52.1796 15.8274 52.0629C15.7659 51.9461 15.8274 51.919 15.909 51.8987H15.9848C16.6149 51.9002 17.2358 51.7472 17.7937 51.4528C18.0286 51.2734 18.2855 51.1262 18.5583 51.0128C18.6094 50.9912 18.6657 50.985 18.7202 50.9949C18.7748 51.0048 18.8253 51.0304 18.8657 51.0686L19.4114 51.6516C19.4551 51.6987 19.4872 51.7555 19.5051 51.8174C19.5229 51.8793 19.526 51.9445 19.5141 52.0079C19.5071 52.0587 19.5128 52.1104 19.5307 52.1585C19.5487 52.2065 19.5783 52.2492 19.6168 52.2829C19.6977 52.381 19.7726 52.4842 19.8417 52.5917C19.8817 52.6528 19.9063 52.7228 19.9135 52.7956C19.9207 52.8684 19.9102 52.9419 19.8829 53.0097C19.8493 53.1062 19.8282 53.195 19.7869 53.2839C19.7708 53.3104 19.7601 53.3399 19.7555 53.3707C19.7509 53.4015 19.7525 53.4329 19.7602 53.463C19.7679 53.4931 19.7816 53.5214 19.8003 53.5462C19.8191 53.5709 19.8426 53.5916 19.8695 53.6071C20.0177 53.7196 20.1751 53.8212 20.3402 53.9083C20.4631 53.9769 20.5314 53.9083 20.5516 53.7916C20.5868 53.5557 20.5436 53.3148 20.4286 53.1062C20.2667 52.8397 20.1816 52.5333 20.1827 52.2211C20.1751 51.933 20.055 51.6594 19.8484 51.4596C19.6964 51.2871 19.5573 51.1036 19.4324 50.9104C19.3523 50.7808 19.2814 50.6456 19.2202 50.5059C19.0973 50.3003 18.9541 50.1286 18.6813 50.1556C18.5539 50.1626 18.4263 50.1626 18.2989 50.1556H18.1962V50.1218C18.4084 50.0329 18.592 49.8882 18.7293 49.7029C18.9128 49.4973 19.0973 49.2985 19.2884 49.1064C19.4796 48.9143 19.4114 49.0032 19.5141 49.1064C19.5469 49.1326 19.5764 49.1622 19.6025 49.1952C19.7457 49.3535 19.8888 49.5109 20.0404 49.6623C20.0878 49.7001 20.1246 49.7496 20.1472 49.806C20.1698 49.8623 20.1774 49.9236 20.1693 49.9839C20.159 50.0448 20.1725 50.1075 20.207 50.1587C20.2415 50.2099 20.2943 50.2458 20.3545 50.2589C20.405 50.2792 20.4471 50.3156 20.4766 50.3621C20.5131 50.4018 20.5409 50.4487 20.558 50.4999C20.5752 50.5511 20.5814 50.6054 20.5762 50.6591C20.571 50.7129 20.5546 50.765 20.528 50.8119C20.5014 50.8589 20.4653 50.8996 20.4219 50.9316L20.3739 50.9857C20.3251 51.0314 20.2937 51.0927 20.2851 51.1591C20.2765 51.2255 20.2912 51.2929 20.3267 51.3496C20.3665 51.4386 20.4239 51.5185 20.4955 51.5846C20.567 51.6506 20.6511 51.7013 20.7427 51.7337C20.9002 51.7887 20.9819 51.7337 20.9954 51.5899C21.0198 51.4536 21.0198 51.314 20.9954 51.1786C20.9072 50.8687 20.8727 50.5458 20.8935 50.2242C20.9022 50.1362 20.89 50.0474 20.8578 49.9651C20.8256 49.8829 20.7743 49.8095 20.7082 49.7512C20.5096 49.5433 20.3161 49.3306 20.128 49.1132C19.9272 48.9111 19.7816 48.6605 19.7053 48.3855C19.6923 48.3381 19.6739 48.2924 19.6505 48.2492C19.6318 48.1967 19.5948 48.1527 19.5464 48.1254C19.498 48.098 19.4414 48.0891 19.3869 48.1003C19.351 48.1076 19.3172 48.1232 19.2884 48.146C19.1798 48.2196 19.0813 48.3068 18.9954 48.4066C18.8589 48.5785 18.6833 48.7149 18.4834 48.8043C18.4626 48.8197 18.4383 48.8296 18.4128 48.8334C18.3872 48.8371 18.3612 48.8345 18.3369 48.8257C18.3126 48.8169 18.2908 48.8023 18.2735 48.783C18.2561 48.7638 18.2438 48.7406 18.2375 48.7155C18.2068 48.6481 18.1861 48.5765 18.176 48.5031C18.1182 48.1577 17.98 47.831 17.7726 47.5495C17.6842 47.4259 17.5815 47.3159 17.493 47.1924C17.3119 46.9875 17.1623 46.7565 17.0493 46.507C16.8724 45.9917 16.6804 45.4916 16.5036 44.9763C16.4613 44.8693 16.427 44.7593 16.4008 44.6472H16.7217C16.9474 44.6616 17.1638 44.7377 17.3499 44.8672C17.4383 44.9349 17.5208 45.0178 17.616 45.0796C17.6876 45.1303 17.7693 45.1659 17.8551 45.1828C17.8817 45.1866 17.9088 45.1836 17.9338 45.174C17.9589 45.1643 17.9811 45.1484 17.9983 45.1278C17.9983 45.1278 17.9983 45.0449 17.957 45.0042C17.9561 44.9837 17.9561 44.9631 17.957 44.9425C18.0127 44.955 18.0645 44.9812 18.1078 45.0186C18.133 45.049 18.1675 45.0701 18.2059 45.0785C18.2444 45.0869 18.2845 45.0822 18.32 45.0652C18.3434 45.054 18.3641 45.0379 18.3806 45.0178C18.4183 44.9582 18.4395 44.8895 18.4421 44.8189V44.4762C18.4426 44.4205 18.4266 44.3659 18.3962 44.3194C18.3658 44.2728 18.3222 44.2364 18.2711 44.2148C18.1969 44.1739 18.1318 44.118 18.08 44.0506C17.8484 43.735 17.6295 43.4059 17.3979 43.0835C17.3525 43.0246 17.3198 42.9569 17.3019 42.8846C17.2786 42.7473 17.2143 42.6204 17.1175 42.5208V42.4446H17.3154C17.2635 42.3168 17.2018 42.1931 17.1309 42.0749C17.0755 41.9897 16.9943 41.9247 16.8994 41.8896C16.7825 41.862 16.6609 41.862 16.544 41.8896C16.4434 41.9149 16.3378 41.9118 16.2389 41.8804C16.1401 41.849 16.0518 41.7907 15.984 41.7119C15.8888 41.6292 15.7861 41.5556 15.6775 41.4919C15.6437 41.4837 15.6085 41.4837 15.5747 41.4919V41.7119L14.9533 41.6357C14.9533 41.8007 15.1107 41.8489 15.1385 41.986C15.0862 41.9926 15.0333 41.9926 14.981 41.986C14.7219 41.9801 14.4629 42.0054 14.2097 42.0613C14.2097 42.0613 14.1204 42.0613 14.08 42.0199C14.0222 41.976 13.955 41.9464 13.8838 41.9333C13.8126 41.9202 13.7394 41.9241 13.6699 41.9446C13.4472 42.0015 13.2351 42.0941 13.0417 42.2187C12.9929 42.2507 12.9403 42.2763 12.885 42.2949C12.8707 42.1901 12.8707 42.084 12.885 41.9792C13.0079 41.5932 13.0079 41.1782 12.885 40.7921C12.837 40.6271 12.7554 40.4697 12.6939 40.2912C12.7076 40.2712 12.7234 40.2528 12.741 40.2362C12.8151 40.1725 12.8748 40.0937 12.9161 40.005C12.9573 39.9162 12.9792 39.8196 12.9802 39.7217C12.9784 39.6127 12.9479 39.5062 12.8918 39.4129C12.8505 39.3308 12.7486 39.4129 12.6728 39.4129C12.5899 39.4051 12.5092 39.3822 12.4345 39.3452C12.3395 39.2848 12.2294 39.2527 12.117 39.2527C12.0046 39.2527 11.8945 39.2848 11.7996 39.3452C11.5318 39.4865 11.2438 39.5863 10.9457 39.6396C10.7228 39.7036 10.4865 39.7036 10.2636 39.6396C10.2088 39.6396 10.1474 39.6396 10.0648 39.5914C10.1384 39.8371 10.3017 40.0457 10.5221 40.1752C10.4615 40.2912 10.3385 40.1752 10.277 40.2497C10.2156 40.3259 10.277 40.2497 10.277 40.292C10.3679 40.3774 10.4755 40.4428 10.593 40.484C10.7104 40.5253 10.8351 40.5414 10.9591 40.5315C11.0153 40.5175 11.074 40.5175 11.1301 40.5315C11.1989 40.5621 11.2733 40.578 11.3486 40.578C11.4239 40.578 11.4983 40.5621 11.5671 40.5315C11.6219 40.5315 11.6699 40.4832 11.7103 40.5315V40.5797C11.5959 40.6748 11.5059 40.796 11.4477 40.9332C11.3895 41.0704 11.365 41.2196 11.376 41.3683C11.3818 41.5336 11.3489 41.6979 11.28 41.8481C11.28 41.9099 11.28 41.9792 11.2261 42.0402C11.2124 42.0857 11.1941 42.1296 11.1714 42.1713C11.0484 42.1713 10.9255 42.0952 10.8093 42.0816C10.7286 42.061 10.644 42.061 10.5634 42.0816C10.5234 42.1065 10.4773 42.1197 10.4303 42.1197C10.3833 42.1197 10.3372 42.1065 10.2973 42.0816C10.2092 42.02 10.1044 41.987 9.99704 41.987C9.8897 41.987 9.78493 42.02 9.69683 42.0816C9.56631 42.1578 9.4442 42.2466 9.31367 42.3287C9.18399 42.4108 9.1301 42.4726 9.0341 42.5276C8.93894 42.5826 8.89094 42.5758 8.84967 42.4793C8.80925 42.3837 8.69304 42.1155 8.61052 41.931C8.52883 41.7449 8.48841 41.6086 8.26946 41.6154C8.17431 41.6154 8.14652 41.5604 8.14652 41.4716V41.3336C8.0514 41.2422 7.98919 41.1217 7.96967 40.9909C7.96967 40.9224 7.91494 40.8809 7.85346 40.9089C7.79199 40.9359 7.85346 41.0527 7.85346 41.0798C7.85346 41.1077 7.92083 41.2719 7.96294 41.3683C8.04462 41.3683 8.0581 41.4572 8.00336 41.5054C7.93781 41.5761 7.86166 41.636 7.77767 41.6831C7.72964 41.7028 7.67581 41.7028 7.62778 41.6831C7.52504 41.5739 7.37515 41.4783 7.47788 41.2795C7.46767 41.2428 7.46538 41.2044 7.47115 41.1667C7.47693 41.1291 7.49064 41.0931 7.51137 41.0612C7.5321 41.0293 7.55937 41.0023 7.59136 40.9818C7.62334 40.9614 7.6593 40.948 7.69683 40.9427L7.53262 40.7303C7.30694 40.4282 7.09473 40.1194 6.84967 39.8114C6.80092 39.7522 6.74324 39.7011 6.67873 39.6599C6.64587 39.6331 6.60484 39.6185 6.56252 39.6185C6.5202 39.6185 6.47917 39.6331 6.44631 39.6599C6.41938 39.6902 6.40449 39.7294 6.40449 39.7699C6.40449 39.8105 6.41938 39.8497 6.44631 39.8799C6.47662 39.9324 6.51115 39.9832 6.54904 40.0306C6.79494 40.3876 7.04083 40.7506 7.3002 41.1077C7.3002 41.1627 7.37599 41.2177 7.34146 41.2854C7.30694 41.3548 7.34146 41.4572 7.34146 41.5333C7.34146 41.6086 7.47115 41.6839 7.52504 41.7592C7.58807 41.8321 7.63257 41.9192 7.65473 42.0131C7.69936 42.1959 7.77262 42.3693 7.87367 42.5276C7.92841 42.6172 7.97641 42.7052 8.02357 42.8017C8.06812 42.868 8.08594 42.9489 8.07343 43.0279C8.06093 43.1069 8.01903 43.1782 7.9562 43.2273C7.87134 43.2975 7.79117 43.3733 7.7162 43.4541C7.62121 43.5761 7.53456 43.7045 7.45683 43.8382C7.42266 43.8809 7.40403 43.9341 7.40403 43.9889C7.40403 44.0436 7.42266 44.0968 7.45683 44.1395C7.57473 44.1166 7.69094 44.087 7.80546 44.0506C7.84543 44.0336 7.88944 44.0285 7.9322 44.0361C7.97496 44.0436 8.01463 44.0635 8.04642 44.0932C8.0782 44.1229 8.10076 44.1612 8.11135 44.2035C8.12194 44.2458 8.12011 44.2903 8.1061 44.3316C8.0995 44.3927 8.07527 44.4506 8.03637 44.4981C7.99747 44.5456 7.94561 44.5807 7.88715 44.5989C7.82483 44.6159 7.76252 44.6362 7.70273 44.6616C7.47788 44.7436 7.25894 44.8189 7.02062 44.9078C6.95166 44.9402 6.89078 44.9878 6.8424 45.0469C6.79403 45.1059 6.75938 45.1751 6.74099 45.2494C6.72259 45.3236 6.72092 45.4011 6.73608 45.4761C6.75124 45.5511 6.78285 45.6217 6.82862 45.6829C6.97936 45.869 6.95157 45.9714 6.76125 46.1288C6.67199 46.1982 6.58357 46.2523 6.49431 46.3149C6.44237 46.3462 6.40057 46.392 6.37396 46.4466C6.34736 46.5013 6.3371 46.5625 6.34441 46.6229C6.34842 46.6593 6.343 46.6961 6.32869 46.7298C6.31438 46.7634 6.29166 46.7928 6.26273 46.815C6.15073 46.9166 6.0682 47.0477 6.02357 47.1924C6.00337 47.2228 5.99258 47.2586 5.99258 47.2952C5.99258 47.3318 6.00337 47.3676 6.02357 47.398C6.08504 47.453 6.13978 47.398 6.19452 47.398C6.31999 47.3405 6.44967 47.2922 6.58357 47.2542C6.90694 47.1755 7.24041 47.1408 7.57304 47.1518C7.84673 47.145 8.11536 47.222 8.34441 47.3709C8.51536 47.5012 8.67957 47.6451 8.84294 47.7889C8.90946 47.8524 8.98273 47.9074 9.06188 47.9539C9.15031 47.9954 9.27241 47.9539 9.3482 48.0301C9.42399 48.1046 9.45767 48.201 9.51241 48.2839C9.54302 48.3133 9.56346 48.3517 9.57073 48.3936C9.57801 48.4355 9.57173 48.4786 9.55283 48.5166C9.55283 48.5987 9.45767 48.5919 9.3962 48.5987C9.03947 48.6344 8.68715 48.7055 8.34441 48.8111C8.32043 48.8278 8.29193 48.8368 8.26273 48.8368C8.23353 48.8368 8.20502 48.8278 8.18104 48.8111L7.90062 48.6055C7.53928 48.3368 7.1125 48.1711 6.66525 48.1257C6.50522 48.1131 6.34432 48.1339 6.19271 48.1869C6.0411 48.24 5.90207 48.324 5.78441 48.4337C5.49725 48.7121 5.26483 49.0429 5.10231 49.4085C5.01437 49.5812 4.95196 49.7659 4.91704 49.9568C4.87662 50.1556 4.82188 50.3477 4.76715 50.5406C4.71241 50.7327 4.69136 50.6709 4.61052 50.6159C4.39436 50.5057 4.20536 50.3484 4.05725 50.1556C3.88631 49.8815 3.88041 49.7444 4.14567 49.4702C4.19356 49.4345 4.24669 49.4066 4.30315 49.3873C4.35115 49.5041 4.30315 49.6141 4.39831 49.6962C4.46988 49.7689 4.53136 49.8485 4.58357 49.9365C4.63899 49.8961 4.68325 49.8422 4.71216 49.7798C4.74107 49.7175 4.75368 49.6487 4.74879 49.5801C4.7439 49.5115 4.72167 49.4453 4.68422 49.3877C4.64676 49.3301 4.59531 49.2831 4.53473 49.2511C4.48325 49.2386 4.42957 49.2386 4.3781 49.2511C4.2391 49.2434 4.10198 49.2862 3.99175 49.3716C3.88153 49.457 3.80555 49.5794 3.77767 49.7165C3.70815 49.9006 3.69979 50.1023 3.75382 50.2916C3.80786 50.4809 3.92139 50.6475 4.07746 50.7666L4.18694 50.6159V50.6159ZM7.3002 40.8539L6.6181 39.8385C6.56925 39.7767 6.49431 39.6946 6.56925 39.6329C6.64504 39.5711 6.6922 39.6946 6.72673 39.7496L7.40883 40.6956C7.44925 40.7549 7.48294 40.8166 7.51157 40.8818C7.4021 40.9359 7.35494 40.8818 7.32041 40.8818L7.30104 40.8539H7.3002ZM6.14652 55.1285C6.00926 54.9504 5.89232 54.7574 5.79789 54.5531L5.92757 54.6622L6.11873 54.8679C6.21473 54.9779 6.22146 54.9711 6.11873 55.1556L6.14652 55.1285V55.1285ZM6.55578 57.2692L6.40588 57.3166C6.36462 57.4131 6.40588 57.4605 6.46736 57.5231C6.47464 57.5639 6.47464 57.6058 6.46736 57.6466C6.42438 57.6532 6.38065 57.6532 6.33767 57.6466C6.30655 57.633 6.27869 57.6128 6.25593 57.5875C6.23317 57.5621 6.21604 57.5322 6.20569 57.4997C6.19533 57.4672 6.19198 57.4329 6.19586 57.399C6.19974 57.3651 6.21077 57.3324 6.2282 57.3031C6.2657 57.2086 6.2657 57.1032 6.2282 57.0086C6.17599 56.8786 6.17599 56.7333 6.2282 56.6033C6.38736 56.8022 6.49346 57.0382 6.53557 57.2896L6.55578 57.2692V57.2692ZM6.2762 54.7308C6.20295 54.7034 6.13602 54.6613 6.07955 54.6071C6.02307 54.5528 5.97823 54.4875 5.94778 54.4152C5.94254 54.3548 5.95735 54.2944 5.98988 54.2434C6.07157 54.0513 6.17346 53.8669 6.24841 53.668C6.43283 53.1756 6.49346 52.645 6.4261 52.1238C6.37458 51.8274 6.23686 51.553 6.03031 51.3352C6.00228 51.313 5.98192 51.2825 5.9721 51.248C5.96228 51.2135 5.96349 51.1768 5.97557 51.1431C6.08504 50.786 6.1802 50.4577 6.28967 50.0795C6.34981 49.8671 6.46488 49.6746 6.62316 49.5215C6.78144 49.3684 6.97728 49.2602 7.19073 49.2079C7.38609 49.1402 7.59409 49.1191 7.79873 49.147C7.83963 49.1433 7.88078 49.1433 7.92167 49.147C7.90146 49.1919 7.87873 49.235 7.85346 49.2773C7.58736 49.6589 7.42315 50.1032 7.37515 50.5669C7.32041 50.962 7.29936 51.3622 7.31367 51.7599V52.2338C7.33773 52.4319 7.33773 52.6322 7.31367 52.8303C7.30118 52.9392 7.26627 53.0442 7.21118 53.1387C7.15609 53.2333 7.08202 53.3153 6.99367 53.3795C6.88739 53.4629 6.77539 53.5387 6.65852 53.6062C6.60194 53.6418 6.55329 53.6887 6.51561 53.744C6.47794 53.7994 6.45205 53.8619 6.43957 53.9278C6.39241 54.1749 6.3301 54.4152 6.26946 54.6969L6.2762 54.7308V54.7308ZM7.44336 55.9179C7.15681 55.8452 6.88285 55.7294 6.63073 55.5744C6.52883 55.5126 6.52883 55.4788 6.63073 55.3206L7.70946 55.6844C7.70946 55.8562 7.5941 55.9518 7.4501 55.9179H7.4442H7.44336ZM12.4067 51.534L12.8985 52.1449C12.9659 52.2287 13.0248 52.3176 13.0754 52.4123C13.0754 52.4597 13.1175 52.5359 13.0754 52.5629C13.0567 52.5841 13.0335 52.6006 13.0076 52.6113C12.9816 52.622 12.9535 52.6266 12.9255 52.6247C12.7878 52.6171 12.6541 52.5764 12.5354 52.506C12.4167 52.4356 12.3165 52.3376 12.2434 52.2202C12.1886 52.117 12.1339 52.0552 12.0042 52.0899C11.9706 52.0994 11.9351 52.0994 11.9015 52.0899L11.6699 51.8911C11.6539 51.8757 11.643 51.8559 11.6385 51.8341C11.6339 51.8124 11.6361 51.7897 11.6446 51.7692C11.7129 51.6741 11.7716 51.5723 11.8198 51.4655C11.9234 51.2438 12.0101 51.0145 12.0791 50.7801C12.1819 50.3951 12.256 50.0042 12.3453 49.5929L12.96 49.4212C12.965 49.4922 12.965 49.5633 12.96 49.6336C12.8303 50.0456 12.6871 50.4501 12.5499 50.8546C12.496 51.006 12.448 51.1634 12.3933 51.3216C12.3734 51.3534 12.3628 51.3903 12.3628 51.4278C12.3628 51.4654 12.3734 51.5022 12.3933 51.534H12.4067V51.534ZM13.0004 51.006C13.1166 50.6286 13.2328 50.2512 13.349 49.8468L13.4653 49.9424C13.5882 50.0727 13.7179 50.2166 13.8408 50.3612C13.8923 50.4381 13.9144 50.5309 13.9031 50.6228C13.8918 50.7147 13.8479 50.7994 13.7794 50.8613C13.5326 50.9654 13.2674 51.0136 13.0004 51.0052V51.006ZM11.5537 51.2049C11.2463 51.2599 10.9389 51.3284 10.6316 51.3969C10.3242 51.4655 10.2358 51.4384 10.1945 51.0881C10.1945 50.9713 10.1945 50.8546 10.1474 50.7454C10.2088 50.3401 10.2627 49.9289 10.3309 49.5244C10.352 49.3975 10.3798 49.2706 10.4135 49.147C10.4471 49.0302 10.4749 49.0167 10.5979 49.0302L11.9082 49.202C11.9483 49.2113 11.9872 49.2249 12.0244 49.2426C12.0559 49.252 12.0829 49.2725 12.1005 49.3004C12.1182 49.3282 12.1252 49.3615 12.1204 49.3941C12.0561 49.9234 11.958 50.448 11.8265 50.9646C11.8165 51.0287 11.7856 51.0877 11.7387 51.1324C11.6917 51.1771 11.6314 51.205 11.5671 51.2116L11.5537 51.2049V51.2049ZM12.448 48.9541C11.9948 48.848 11.5533 48.6966 11.1301 48.5022C11.0543 48.5022 10.9533 48.4329 10.9591 48.3372C10.9667 48.2408 11.0821 48.2069 11.1579 48.2069C11.3485 48.1931 11.5399 48.1931 11.7305 48.2069C11.7743 48.212 11.8147 48.2315 11.8467 48.2619C12.112 48.4498 12.3427 48.6816 12.5297 48.9473H12.448V48.9549V48.9541ZM11.3078 47.5757C11.0821 47.6925 10.8707 47.8092 10.6257 47.9116C10.5078 47.9675 10.384 48.0089 10.256 48.0352C10.1796 48.0495 10.1008 48.0431 10.0276 48.0166C9.95451 47.9901 9.88974 47.9446 9.83999 47.8846C9.7642 47.8084 9.7642 47.7407 9.83999 47.6789C9.9202 47.6011 10.0181 47.5441 10.1253 47.513C10.2324 47.4818 10.3455 47.4775 10.4547 47.5004C10.551 47.534 10.6538 47.5441 10.7547 47.5298C10.8556 47.5155 10.9517 47.4773 11.0349 47.4183L11.1301 47.3566C11.3145 47.233 11.3415 47.2398 11.4509 47.4733C11.3971 47.5124 11.3399 47.5467 11.28 47.5757H11.3078ZM10.2493 53.2703C10.3924 53.0842 10.4884 53.0639 10.693 53.1942L10.7613 53.2492V53.2974C10.5297 53.5986 10.1541 53.7154 9.88041 53.9828C9.79873 53.8389 9.80546 53.7772 9.88041 53.6748L10.2156 53.2695H10.2493V53.2703ZM9.70357 53.6401C9.62104 53.7501 9.51831 53.8322 9.43746 53.9354C9.38612 53.9814 9.34712 54.0397 9.32407 54.1048C9.30102 54.17 9.29465 54.2399 9.30556 54.3082C9.31646 54.3765 9.34429 54.4409 9.38647 54.4955C9.42865 54.5501 9.48383 54.5932 9.54694 54.6208C9.67669 54.6884 9.7782 54.8003 9.83325 54.9364C9.84374 54.9769 9.84374 55.0194 9.83325 55.0599H9.23873C8.82862 55.0409 8.42286 55.1513 8.07831 55.3756C8.03363 55.4036 7.98075 55.4156 7.92841 55.4094C7.6224 55.3766 7.32437 55.2907 7.04757 55.1556L6.74694 55.0117C6.78567 54.7858 6.89346 54.5776 7.05431 54.4152C7.27912 54.2058 7.56304 54.0715 7.86694 54.031C8.05178 53.9986 8.23252 53.9458 8.40589 53.8736C8.85082 53.7227 9.28052 53.5297 9.68925 53.2974C9.71174 53.2904 9.73582 53.2904 9.75831 53.2974H9.8122C9.8602 53.448 9.76504 53.558 9.68252 53.6672L9.70357 53.6401V53.6401ZM8.91788 57.0975C8.83333 57.1305 8.73998 57.1328 8.65391 57.104C8.56784 57.0753 8.49442 57.0173 8.44631 56.9401C8.43653 56.9186 8.43147 56.8952 8.43147 56.8716C8.43147 56.8479 8.43653 56.8245 8.44631 56.803C8.49683 56.7286 8.55662 56.6617 8.62483 56.6033C8.75704 56.5018 8.91115 56.4341 9.07536 56.4045C9.11058 56.4607 9.13398 56.5236 9.1441 56.5892C9.15422 56.6549 9.15085 56.7219 9.1342 56.7862C9.11756 56.8505 9.08798 56.9107 9.0473 56.9631C9.00662 57.0154 8.9557 57.0589 8.89767 57.0907L8.91788 57.0975V57.0975ZM11.7928 58.3599C11.6522 58.4027 11.5043 58.4157 11.3584 58.3979C11.2126 58.3801 11.072 58.332 10.9457 58.2567C10.8074 58.1845 10.6875 58.0814 10.5952 57.9552C10.5029 57.829 10.4407 57.6832 10.4135 57.529C10.6307 57.5375 10.8429 57.6001 11.0282 57.7152C11.2261 57.859 11.4029 58.0172 11.5941 58.1679C11.664 58.2279 11.7297 58.2922 11.7928 58.3599V58.3599ZM13.1579 57.1728H13.0349C12.828 57.1038 12.6113 57.0692 12.3933 57.0704H11.5394C11.3089 57.0847 11.0777 57.0566 10.8573 56.9875C10.6562 56.9164 10.4836 56.7816 10.3655 56.6033C10.3105 56.5149 10.2781 56.4142 10.2709 56.3102C10.2637 56.2062 10.282 56.102 10.3242 56.0068C10.3789 55.8418 10.3663 55.7868 10.1945 55.7462C10.0239 55.7069 9.85044 55.6814 9.67578 55.67C9.36255 55.6388 9.04631 55.6623 8.74104 55.7394C8.46678 55.8155 8.22613 55.9825 8.0581 56.2132C7.93469 56.3955 7.8593 56.6062 7.83897 56.8256C7.81865 57.0451 7.85406 57.2661 7.94188 57.4681V57.5781C7.90062 57.5299 7.84588 57.5019 7.80546 57.4546C7.69711 57.3065 7.62361 57.1357 7.59049 56.955C7.55738 56.7743 7.56552 56.5883 7.61431 56.4112C7.65641 56.2369 7.72546 56.0702 7.81894 55.9179C8.0042 55.6362 8.28631 55.4339 8.61052 55.3485C8.9541 55.2046 9.3322 55.1691 9.69683 55.2452C9.87367 55.2452 10.0514 55.3214 10.229 55.3485C10.5221 55.3959 10.8219 55.3823 11.1099 55.307H11.1916C11.2752 55.2717 11.3685 55.2675 11.455 55.2951C11.5414 55.3227 11.6152 55.3803 11.6631 55.4576C11.8274 55.6294 12 55.7919 12.1819 55.945L12.277 56.0339V56.0762H12.0657C12.0791 56.1126 12.0951 56.1498 12.1137 56.1853C12.3074 56.4688 12.5802 56.6888 12.8985 56.8166L13.0551 56.8919C13.2328 56.9739 13.2328 56.9875 13.1983 57.2007L13.1579 57.1728V57.1728ZM15.1031 56.7412C14.9533 57.0349 14.7326 57.287 14.4623 57.4749H14.373L14.6939 56.7895C14.5976 56.8552 14.4972 56.9146 14.3933 56.9672C14.2854 57.0201 14.1705 57.0571 14.0522 57.0772C14.2097 56.8402 14.3166 56.5746 14.3663 56.2945C14.2256 56.3727 14.0768 56.4351 13.9225 56.4806C13.6834 56.5179 13.4408 56.539 13.1983 56.5416C13.2029 56.5284 13.2029 56.5141 13.1983 56.5009C13.1983 56.5009 13.2606 56.4324 13.301 56.418C13.4653 56.3359 13.6354 56.2606 13.813 56.1853L13.9427 56.1092L13.5335 56.0618C13.4104 56.0544 13.2887 56.0313 13.1714 55.9932C13.3297 55.9306 13.4846 55.8596 13.6354 55.78C13.7886 55.6861 13.9343 55.5803 14.0733 55.4652H13.9495C13.4727 55.5057 12.9926 55.4519 12.5364 55.307C12.4677 55.2833 12.4032 55.2487 12.3453 55.2046C12.8126 55.2171 13.2775 55.133 13.7111 54.9576C13.4814 54.9675 13.2514 54.9444 13.0282 54.889C12.7985 54.8207 12.571 54.7451 12.3461 54.6622V54.6208C12.3865 54.6141 12.4278 54.6141 12.4682 54.6208C12.8733 54.6462 13.28 54.6022 13.6699 54.4905C13.861 54.4431 14.0589 54.4016 14.2509 54.3331C14.6391 54.2028 14.8034 54.559 14.7688 54.8129C14.7351 55.0667 14.7074 55.307 14.6737 55.5541C14.6616 55.623 14.6717 55.694 14.7024 55.7569C14.7331 55.8197 14.7829 55.871 14.8446 55.9036C14.9945 55.9992 15.109 56.1413 15.1722 56.3089C15.2123 56.3874 15.2332 56.4744 15.2332 56.5627C15.2332 56.651 15.2123 56.738 15.1722 56.8166L15.104 56.7404L15.1031 56.7412ZM15.0762 54.6826C15.1175 54.5184 15.1579 54.3466 15.1924 54.1749C15.2414 54.1684 15.2911 54.1784 15.3337 54.2034C15.3764 54.2284 15.4096 54.2668 15.4282 54.3128C15.4406 54.3431 15.4464 54.3757 15.445 54.4084C15.4589 54.4902 15.4589 54.5737 15.445 54.6555C15.3741 54.8489 15.2943 55.0389 15.2059 55.2249C15.2059 55.2656 15.1511 55.2926 15.104 55.3485C15.0461 55.1234 15.0461 54.8873 15.104 54.6622L15.0762 54.6826V54.6826ZM17.3019 56.4527C17.1268 56.8042 16.8237 57.0745 16.4556 57.2075C16.3617 57.2085 16.2679 57.2017 16.1751 57.1872C16.1078 57.4131 16.0387 57.6322 15.9646 57.8726C15.7835 57.83 15.6178 57.7374 15.4863 57.6052C15.4606 57.5803 15.4401 57.5505 15.4261 57.5175C15.4122 57.4845 15.405 57.449 15.405 57.4131C15.405 57.3772 15.4122 57.3417 15.4261 57.3087C15.4401 57.2757 15.4606 57.2459 15.4863 57.221C15.621 57.0831 15.7693 56.9587 15.9293 56.8504C16.2779 56.6583 16.6122 56.4942 16.9945 56.3156L17.2951 56.165C17.3499 56.2403 17.2951 56.2877 17.2951 56.3427L17.3019 56.4527V56.4527ZM16.8581 53.2356C17.0349 53.4962 17.077 53.8051 17.2539 54.0649L17.4316 53.9489C17.4556 53.9265 17.4872 53.914 17.52 53.914C17.5528 53.914 17.5844 53.9265 17.6084 53.9489C17.6186 53.9579 17.6268 53.969 17.6324 53.9814C17.638 53.9938 17.6409 54.0072 17.6409 54.0209C17.6409 54.0345 17.638 54.0479 17.6324 54.0603C17.6268 54.0727 17.6186 54.0838 17.6084 54.0928C17.4998 54.2578 17.568 54.4016 17.7802 54.4152C17.8205 54.4148 17.86 54.4271 17.893 54.4505C17.9259 54.4739 17.9507 54.5071 17.9638 54.5455C18.0253 54.724 18.0943 54.9026 18.1693 55.0946L18.0396 55.1496V55.4035C18.0396 55.4856 17.9234 55.4035 17.8821 55.4035C17.7255 55.252 17.5621 55.1014 17.4181 54.9432C17.2749 54.7858 17.2539 54.7376 17.1587 54.6216C17.1587 54.5793 17.2135 54.559 17.2261 54.5319C17.3288 54.3881 17.3019 54.2916 17.1309 54.2163C17.0834 54.1974 17.0408 54.1677 17.0065 54.1295C16.9721 54.0914 16.947 54.0458 16.933 53.9963C16.933 53.8525 16.8379 53.7222 16.7966 53.5851C16.7622 53.5372 16.7436 53.4796 16.7436 53.4205C16.7436 53.3614 16.7622 53.3038 16.7966 53.2559L16.8581 53.2356ZM16.3739 53.5995C16.4282 53.629 16.4727 53.6739 16.5018 53.7287C16.5309 53.7835 16.5432 53.8457 16.5373 53.9075L16.4143 53.8398C16.3745 53.8082 16.3252 53.791 16.2745 53.791C16.2238 53.791 16.1745 53.8082 16.1347 53.8398C16.1194 53.8435 16.1053 53.8513 16.0939 53.8623C16.0825 53.8733 16.0742 53.8871 16.0699 53.9024C16.0655 53.9178 16.0654 53.9342 16.0696 53.9497C16.0737 53.9652 16.082 53.9792 16.0935 53.9904C16.1541 54.0945 16.2198 54.1952 16.2914 54.2916C16.4909 54.5066 16.6341 54.7689 16.7082 55.0532C16.7149 55.1674 16.7149 55.2816 16.7082 55.3959C16.7057 55.4694 16.7261 55.542 16.7663 55.6035C16.8066 55.665 16.8648 55.7125 16.933 55.7394C16.933 55.7394 16.9667 55.7394 17.0088 55.7944C16.9398 55.8832 16.8859 55.9721 16.8101 56.055C16.727 56.1605 16.6381 56.2614 16.544 56.3571C16.4631 56.4362 16.3594 56.4874 16.2477 56.5034C16.136 56.5194 16.0221 56.4992 15.9225 56.4459C15.8128 56.4078 15.7183 56.335 15.653 56.2385C15.5878 56.142 15.5553 56.0269 15.5604 55.9103L15.6025 55.4373C15.6429 55.0667 15.6699 54.6893 15.712 54.3119C15.7219 54.2531 15.7219 54.1931 15.712 54.1342C15.7136 54.0773 15.7027 54.0207 15.6802 53.9684C15.6577 53.9161 15.6241 53.8693 15.5818 53.8314C15.5394 53.7936 15.4893 53.7654 15.435 53.749C15.3807 53.7327 15.3235 53.7284 15.2674 53.7366C15.0643 53.7501 14.8631 53.7844 14.6669 53.8389C14.5373 53.8389 14.4143 53.9151 14.2846 53.9422C14.2225 53.9626 14.1556 53.9626 14.0935 53.9422C13.888 53.8254 13.6901 53.6883 13.4922 53.5648L12.8101 53.1671H12.7621C12.816 53.316 12.8547 53.47 12.8783 53.6266C12.8648 53.7873 12.8328 53.9464 12.7823 54.1004C12.7823 54.1004 12.8236 54.141 12.837 54.1681C12.8505 54.196 12.9128 54.2713 12.8985 54.2781C12.8616 54.3224 12.8114 54.3536 12.7554 54.3669C12.6238 54.3806 12.4911 54.3806 12.3596 54.3669C12.0311 54.3119 11.6766 54.2366 11.3827 54.1749C11.2261 54.1749 11.0754 54.1275 10.9111 54.1131C11.1958 54.3805 11.44 54.6885 11.6354 55.0261H11.5874C11.3232 55.0485 11.0635 55.1083 10.816 55.2038C10.7778 55.2205 10.7348 55.222 10.6955 55.208C10.6563 55.1941 10.6238 55.1656 10.6046 55.1285L10.3789 54.779C10.3262 54.6924 10.3055 54.5898 10.3206 54.4893C10.3357 54.3889 10.3856 54.297 10.4615 54.2299C10.5231 54.155 10.5939 54.0882 10.672 54.031C10.9187 53.8389 11.1309 53.6071 11.301 53.3456C11.3381 53.2839 11.3819 53.2272 11.4307 53.1739C11.4649 53.1319 11.5137 53.1047 11.5671 53.0977C12.0209 53.0192 12.476 52.9487 12.9322 52.8862C13.6095 52.7654 14.2698 52.5625 14.8985 52.282C14.9294 52.2639 14.9661 52.2588 15.0008 52.2676C15.0354 52.2765 15.0652 52.2987 15.0838 52.3294C15.1848 52.4597 15.2876 52.5832 15.4038 52.7068C15.4337 52.7396 15.4503 52.7824 15.4503 52.8269C15.4503 52.8714 15.4337 52.9143 15.4038 52.9471C15.3154 53.1053 15.3221 53.1121 15.4796 53.1874C15.7524 53.338 16.0387 53.4827 16.3191 53.6189L16.373 53.5986L16.3739 53.5995ZM17.8686 49.5041C17.8901 49.4185 17.9326 49.3397 17.9921 49.2748C18.0517 49.2099 18.1265 49.161 18.2097 49.1326C18.4008 49.0573 18.5853 48.9549 18.7697 48.872C18.9549 48.7899 18.8926 48.817 19.056 48.872C18.9474 49.0023 18.8589 49.1326 18.7495 49.2494C18.6199 49.3983 18.476 49.5341 18.32 49.6547C18.2353 49.7126 18.1352 49.7435 18.0328 49.7436C17.8821 49.7436 17.8206 49.6336 17.8686 49.4965V49.5032V49.5041ZM14.1213 44.0566C14.1614 43.7222 14.2785 43.4019 14.4633 43.1209C14.648 42.84 14.8954 42.6061 15.1857 42.4379C15.253 42.4023 15.3246 42.3719 15.397 42.3482C15.4528 42.3227 15.5134 42.3095 15.5747 42.3095C15.636 42.3095 15.6966 42.3227 15.7524 42.3482C15.8139 42.3482 15.8888 42.3482 15.957 42.4032C15.9846 42.4165 16.0149 42.4234 16.0455 42.4234C16.0761 42.4234 16.1063 42.4165 16.1339 42.4032C16.1694 42.3762 16.2127 42.3616 16.2573 42.3616C16.3018 42.3616 16.3451 42.3762 16.3806 42.4032C16.5036 42.4996 16.6467 42.5817 16.7697 42.6706C16.8429 42.7239 16.9095 42.7856 16.9676 42.8567C17.056 42.9523 17.0223 43.0344 16.8994 43.0759H16.7217C16.7217 43.0759 16.6804 43.0759 16.6333 43.1376H16.8168C16.8497 43.2021 16.891 43.2619 16.9398 43.3153H17.152C17.1899 43.3238 17.2278 43.3373 17.2615 43.3576C17.2876 43.384 17.3102 43.4135 17.3288 43.4456C17.4914 43.7756 17.7246 44.0633 18.0118 44.2901L18.0665 44.3451C18.0634 44.3584 18.0634 44.3723 18.0665 44.3857C18.0665 44.4542 17.9916 44.4475 17.9368 44.4475C17.7867 44.4353 17.6357 44.454 17.493 44.5025C17.4373 44.5195 17.3778 44.5195 17.3221 44.5025L16.5103 44.2419C16.4076 44.2419 16.2914 44.1801 16.1819 44.1386C16.1016 44.119 16.0272 44.08 15.9652 44.0251C15.9032 43.9702 15.8554 43.901 15.826 43.8234C15.7965 43.7458 15.7862 43.6622 15.7959 43.5798C15.8057 43.4973 15.8353 43.4185 15.8821 43.35L15.9638 43.1723V43.1385C15.8776 43.193 15.8046 43.2662 15.7503 43.3527C15.6959 43.4393 15.6616 43.5369 15.6497 43.6386C15.6362 43.9051 15.7002 44.1699 15.8341 44.4001C15.9688 44.6218 16.0893 44.8502 16.1962 45.0863C16.3394 45.4366 16.4421 45.8064 16.565 46.1635C16.597 46.2549 16.6223 46.3496 16.64 46.4444C16.7453 46.8977 16.7311 47.3708 16.5987 47.8169C16.544 48.0492 16.4757 48.278 16.3941 48.5022C16.3183 48.6808 16.2914 48.6808 16.1002 48.6334C15.909 48.5852 15.7246 48.5302 15.5402 48.4955C15.39 48.4445 15.2273 48.4445 15.077 48.4955C15.1831 48.5733 15.3078 48.6224 15.4383 48.6393C15.696 48.6833 15.9461 48.762 16.1827 48.8729C16.2277 48.8916 16.2677 48.9207 16.2996 48.9577C16.3315 48.9947 16.3543 49.0387 16.3663 49.0861C16.3933 49.2223 16.4278 49.3569 16.469 49.4906C16.4783 49.5063 16.4835 49.5242 16.4841 49.5426C16.4847 49.5609 16.4807 49.5791 16.4724 49.5955C16.4642 49.6116 16.4521 49.6255 16.4373 49.6358C16.4225 49.6462 16.4053 49.6526 16.3874 49.6547C16.2299 49.6547 16.0665 49.7173 15.9023 49.7309C15.7228 49.7412 15.5429 49.7412 15.3634 49.7309V49.7723C15.3927 49.8032 15.4272 49.8287 15.4653 49.8476C15.7794 49.9636 16.0935 50.0676 16.4084 50.1768C16.4438 50.1937 16.4758 50.2166 16.5036 50.2445C16.5391 50.2902 16.5846 50.327 16.6366 50.3521C16.6886 50.3772 16.7457 50.3899 16.8034 50.3892C17.1663 50.4086 17.5301 50.39 17.8897 50.3342C18.1465 50.2936 18.4093 50.2936 18.6678 50.3342C18.7336 50.3442 18.7966 50.3677 18.8529 50.4032C18.9093 50.4387 18.9578 50.4855 18.9954 50.5406C19.0358 50.6159 19.0838 50.6912 19.1183 50.7666C19.1243 50.7794 19.1274 50.7934 19.1274 50.8076C19.1274 50.8218 19.1243 50.8358 19.1183 50.8486C19.1058 50.856 19.0915 50.8599 19.077 50.8599C19.0625 50.8599 19.0483 50.856 19.0358 50.8486C18.9896 50.8157 18.9462 50.7789 18.9061 50.7386C18.8462 50.703 18.7778 50.6843 18.7082 50.6843C18.6386 50.6843 18.5702 50.703 18.5103 50.7386L17.5958 51.1363C17.301 51.2632 16.9794 51.3132 16.6602 51.281C16.2483 51.2583 15.8404 51.187 15.445 51.0686C15.131 50.9751 14.8524 50.7884 14.6459 50.533C14.3596 50.1556 14.0733 49.7791 13.7928 49.3949C13.7105 49.2898 13.6541 49.1667 13.628 49.0356C13.602 48.9044 13.6071 48.769 13.6429 48.6402C13.7271 48.2112 13.7895 47.7788 13.8265 47.3439C13.888 46.8979 13.9638 46.452 14.0253 46.0129C14.0253 45.8064 14.0253 45.6008 14.0724 45.3952C14.0724 44.9289 14.1271 44.4762 14.2021 44.0227L14.1204 44.0574L14.1213 44.0566ZM14.1271 43.5692C14.1751 43.6242 14.1271 43.6859 14.1271 43.7409C13.7961 44.2738 13.6408 44.898 13.6834 45.5246C13.6834 45.792 13.717 46.0594 13.717 46.3276C13.7214 46.502 13.671 46.6732 13.573 46.8172C13.4751 46.9612 13.3346 47.0705 13.1714 47.1298C13.0699 47.1684 12.9646 47.1959 12.8573 47.2119C12.7899 47.2119 12.741 47.2119 12.7621 47.1019C12.7848 46.8201 12.9145 46.5578 13.1242 46.3682C13.1659 46.3375 13.1978 46.2952 13.2159 46.2465C13.234 46.1978 13.2376 46.1448 13.2261 46.0941C13.2261 45.9638 13.1848 45.8199 13.1714 45.682C13.1545 45.4823 13.1823 45.2801 13.2539 45.0922C13.3078 44.9069 13.397 44.736 13.4644 44.5575C13.4671 44.5347 13.4671 44.5117 13.4644 44.4889C13.2876 44.5507 13.1714 44.7013 12.9667 44.736C12.9605 44.7042 12.9605 44.6714 12.9667 44.6396C13.1116 44.3332 13.3053 44.0532 13.5402 43.8103C13.6514 43.7088 13.7726 43.6191 13.9023 43.5421C13.9138 43.5289 13.928 43.5184 13.9439 43.5112C13.9598 43.504 13.9771 43.5003 13.9945 43.5003C14.012 43.5003 14.0292 43.504 14.0451 43.5112C14.061 43.5184 14.0752 43.5289 14.0867 43.5421L14.1271 43.5692ZM13.6977 42.2458H13.7516C13.7389 42.2748 13.7231 42.3023 13.7044 42.3279C13.5697 42.4607 13.4627 42.6198 13.3903 42.7941C13.363 42.8619 13.3183 42.9212 13.2606 42.9659C12.9208 43.2068 12.6785 43.5623 12.5777 43.9677C12.4749 44.3036 12.4413 44.6531 12.352 45.0034C12.3099 45.1472 12.2484 45.2826 12.1676 45.4079C12.1262 45.4603 12.0712 45.5002 12.0086 45.5232C11.946 45.5462 11.8783 45.5514 11.813 45.5382C11.8804 45.6871 11.984 45.8174 12.1137 45.9156C12.2383 45.9993 12.368 46.0746 12.5027 46.1423C12.4202 46.3065 12.3385 46.4918 12.2434 46.6839L11.4855 45.6617C11.6488 45.4214 11.7928 45.2158 11.936 44.9763C12.1156 44.6851 12.2145 44.3509 12.2223 44.0083C12.2324 43.8467 12.2745 43.6876 12.3453 43.5421C12.6332 42.9543 13.1163 42.486 13.7111 42.2179L13.6968 42.2458H13.6977ZM12.0994 41.436C12.2501 41.436 12.2703 41.436 12.2358 41.6137C12.2021 41.7931 12.1886 41.7719 12.3318 41.7999L12.373 41.4842C12.7276 41.4292 12.789 41.4842 12.7006 41.7999C12.648 41.9738 12.5721 42.1398 12.4749 42.2932C12.4135 42.4099 12.352 42.4032 12.2358 42.2932C12.0746 42.1556 11.9601 41.9711 11.9082 41.7652C11.861 41.6349 11.8408 41.491 11.7928 41.3607C11.7769 41.322 11.7736 41.2793 11.7832 41.2386C11.7929 41.1978 11.8151 41.1612 11.8467 41.1339C11.9019 41.0784 11.9674 41.0344 12.0395 41.0043C12.1116 40.9743 12.1889 40.9588 12.2669 40.9588C12.345 40.9588 12.4223 40.9743 12.4944 41.0043C12.5665 41.0344 12.632 41.0784 12.6871 41.1339C12.6372 41.193 12.5688 41.2333 12.4931 41.2484C12.4174 41.2634 12.3389 41.2523 12.2703 41.2169C12.1954 41.1816 12.1139 41.1629 12.0311 41.1619C11.9831 41.1619 11.936 41.2101 11.888 41.2372C11.9042 41.2791 11.9336 41.3146 11.9718 41.3382C12.01 41.3617 12.0548 41.372 12.0994 41.3675V41.436V41.436ZM12.448 40.1465C12.5053 40.2649 12.5549 40.3859 12.5979 40.5103C12.5979 40.5992 12.6459 40.688 12.6737 40.8048H12.2703C12.2424 40.8064 12.2146 40.8012 12.1893 40.7894C12.1639 40.7777 12.1418 40.7599 12.1249 40.7376C12.108 40.7153 12.0968 40.6891 12.0924 40.6614C12.0879 40.6338 12.0903 40.6054 12.0994 40.5789C12.1196 40.4274 12.1751 40.2836 12.2636 40.16C12.3394 40.0568 12.3933 40.05 12.448 40.16V40.1465V40.1465ZM10.7613 40.2015V40.16L11.3827 39.8859C11.3258 39.993 11.2381 40.0804 11.131 40.1368C11.0239 40.1931 10.9024 40.2156 10.7823 40.2015H10.7613V40.2015ZM11.5604 39.6388C11.3751 39.7615 11.173 39.8546 10.9591 39.9129C10.8004 39.9368 10.6388 39.8973 10.5086 39.8029C10.5086 39.8029 10.4682 39.742 10.4269 39.687H10.741C10.9164 39.7155 11.096 39.6788 11.2463 39.5838L11.7928 39.2614C11.8551 39.2246 11.9245 39.2019 11.9963 39.1947C12.0681 39.1876 12.1406 39.1962 12.2088 39.2199C12.238 39.2404 12.2653 39.2633 12.2905 39.2885C12.2905 39.2885 12.2905 39.3367 12.2501 39.3367C12.0042 39.3739 11.7701 39.4679 11.5671 39.6117L11.5604 39.6388ZM10.2493 42.3549C10.4547 42.5132 10.6526 42.6849 10.8438 42.8559C11.0097 43.0344 11.2126 43.1749 11.4375 43.2679C11.5697 43.3035 11.7044 43.328 11.84 43.3432C11.7176 43.4264 11.5716 43.4674 11.424 43.46C11.2803 43.4403 11.1385 43.408 11.0004 43.3636C11.1436 43.4997 11.3161 43.6008 11.5045 43.659C11.6929 43.7173 11.8921 43.7311 12.0867 43.6995C12.097 43.754 12.097 43.81 12.0867 43.8645C12.0345 43.9939 11.9705 44.1183 11.8947 44.2351C11.8391 44.323 11.7559 44.3897 11.6582 44.4245C11.5605 44.4593 11.4541 44.4602 11.3558 44.4272C10.9601 44.3319 10.5916 44.1461 10.279 43.8842C9.96641 43.6224 9.7182 43.2916 9.55367 42.9176C9.51946 42.8389 9.49623 42.7557 9.48462 42.6706C9.48343 42.6135 9.46857 42.5575 9.4413 42.5075C9.41404 42.4574 9.37517 42.4146 9.32799 42.3829C9.32799 42.3829 9.28673 42.3279 9.25978 42.2864C9.41649 42.2107 9.59008 42.1773 9.76353 42.1893C9.93698 42.2013 10.1044 42.2584 10.2493 42.3549V42.3549ZM8.26273 41.7516L8.64504 42.2729L11.1031 45.7032L12.8573 48.1452C13.472 49.0023 14.1002 49.8536 14.7217 50.7039L15.8888 52.337C15.9102 52.3828 15.9427 52.4224 15.9833 52.4523C16.024 52.4821 16.0714 52.5013 16.1213 52.5079C16.2029 52.5079 16.2307 52.5765 16.2366 52.645C16.2442 52.7136 16.2703 52.9674 16.2981 53.1739L15.6977 53.0706C15.7109 53.0252 15.7292 52.9815 15.7524 52.9403C15.7841 52.9031 15.8016 52.8557 15.8016 52.8066C15.8016 52.7576 15.7841 52.7102 15.7524 52.6729C15.3288 52.0832 14.9128 51.4926 14.4893 50.9096C13.9293 50.1142 13.3625 49.3256 12.8025 48.5361C12.3391 47.8996 11.884 47.2571 11.4375 46.6086L8.45388 42.4311L8.26273 42.1705C8.24547 42.1564 8.23157 42.1385 8.22202 42.1183C8.21246 42.0981 8.20751 42.0761 8.20751 42.0537C8.20751 42.0313 8.21246 42.0093 8.22202 41.9891C8.23157 41.9689 8.24547 41.9511 8.26273 41.9369V41.7516V41.7516ZM9.02736 46.8074C8.6225 46.7662 8.22648 46.662 7.85346 46.4986C7.65681 46.4167 7.44382 46.3821 7.23151 46.3977C7.0192 46.4133 6.81346 46.4785 6.63073 46.5882H6.57683C6.50104 46.5053 6.52883 46.4368 6.57683 46.3682C6.70652 46.2151 6.87999 46.1051 7.07452 46.0526L8.52883 45.6067L8.80925 45.4967C8.85701 45.4744 8.90082 45.4444 8.93894 45.4079C8.3171 45.304 7.67878 45.3752 7.09473 45.6135C6.93136 45.3326 6.95915 45.1955 7.2042 45.0169C7.40546 44.879 7.64378 44.8071 7.88715 44.8113C8.2442 44.8071 8.60041 44.8502 8.94567 44.9416L9.88041 45.2293C9.79199 45.3326 9.65557 45.3393 9.55283 45.4011C9.45094 45.4629 9.33388 45.5179 9.23283 45.5729L8.89094 45.737L8.56252 45.8885C8.44715 45.9359 8.3242 45.9706 8.20883 46.0323C8.2981 46.0662 8.39746 46.0662 8.48841 46.0323H8.79494L9.10231 45.9841L9.40294 45.9164C9.3482 46.0941 9.23873 46.1626 8.80252 46.3479H8.86988C9.19831 46.364 9.52336 46.2904 9.81304 46.1356C9.88883 46.0848 9.96799 46.0416 10.0514 46.0044H10.1474C10.1542 46.0195 10.1577 46.036 10.1577 46.0526C10.1577 46.0693 10.1542 46.0857 10.1474 46.1009C10.0766 46.2819 9.95283 46.4376 9.79199 46.5468C9.53852 46.716 9.23452 46.7913 8.9322 46.7592L9.02736 46.8074V46.8074ZM8.76125 49.2156C9.04971 49.0984 9.35295 49.0221 9.66231 48.9888C9.79199 48.9888 9.8122 48.9888 9.82652 49.1402C9.83999 49.2909 9.8602 49.5997 9.88041 49.8256C9.90794 50.3955 9.73933 50.9576 9.40294 51.4172C9.2151 51.7261 8.96071 51.9886 8.65852 52.1856C8.5392 52.2647 8.42527 52.3518 8.31746 52.4462C8.26946 52.4876 8.23578 52.5359 8.16757 52.6044C8.38483 52.6907 8.61557 52.7398 8.84967 52.7482C8.85742 52.7619 8.86198 52.7771 8.86299 52.7928C8.86401 52.8084 8.86145 52.8241 8.85553 52.8386C8.8496 52.8532 8.84046 52.8661 8.82879 52.8766C8.81712 52.887 8.80324 52.8946 8.7882 52.8989C8.65852 52.9471 8.52883 53.0021 8.39915 53.0427C8.26946 53.085 7.94188 53.1942 7.71704 53.283C7.29135 53.4659 6.93989 53.7883 6.71999 54.1977C6.66525 54.3001 6.60378 54.3966 6.54904 54.5057C6.49431 54.6157 6.47325 54.6157 6.41262 54.5819C6.37618 54.5452 6.35432 54.4965 6.35115 54.4448C6.36017 54.2563 6.41377 54.0728 6.5075 53.9093C6.60122 53.7458 6.73238 53.6071 6.8901 53.5047C7.06723 53.3935 7.21658 53.2428 7.32666 53.0644C7.43674 52.8861 7.50461 52.6847 7.52504 52.4758C7.58062 51.7227 7.69515 50.9747 7.86694 50.2394C7.92185 50.0138 8.02808 49.8041 8.17726 49.6268C8.32645 49.4494 8.51453 49.3092 8.72673 49.2172H8.76041L8.76125 49.2156ZM4.90441 51.7058C5.08785 51.5154 5.20918 51.2734 5.2522 51.0119C5.27157 50.533 5.39704 50.0642 5.6202 49.6412L5.9621 49.0167C5.9263 49.0316 5.89191 49.0497 5.85936 49.0709L5.43662 49.4415C5.39283 49.4728 5.34736 49.5007 5.29936 49.5244V49.4347C5.54736 48.9416 5.93772 48.5352 6.41936 48.2687C6.55206 48.1931 6.70439 48.1595 6.85641 48.1722C7.32125 48.2112 7.75325 48.4269 8.06483 48.7764C8.08952 48.7932 8.10731 48.8184 8.1149 48.8473C8.12249 48.8762 8.11936 48.907 8.1061 48.9338C8.09255 48.9687 8.06758 48.998 8.03528 49.0167C8.00299 49.0355 7.96529 49.0426 7.92841 49.037C7.73052 49.037 7.53936 48.9956 7.33388 48.982C7.09701 48.9655 6.8608 49.0224 6.65708 49.1449C6.45336 49.2675 6.29192 49.4498 6.19452 49.6674C5.99494 49.9906 5.86273 50.3494 5.80462 50.7251C5.73725 51.1651 5.51157 51.5653 5.16967 51.8496C5.13192 51.8799 5.09063 51.9055 5.04673 51.9258C5.04376 51.8982 5.04376 51.8704 5.04673 51.8429" fill="#D2D6E3"/>
<path d="M12.475 42.0469C12.379 41.9445 12.2695 41.9648 12.1331 41.9928C12.2291 42.1984 12.331 42.2119 12.475 42.0469ZM30.7242 39.8723H33.1545V40.7235H33.9267V39.1446H33.408V35.9208H30.9836V36.6061C30.9836 38.0404 30.7107 38.7401 30.2055 39.1581H29.9057V40.7227H30.704V39.8723H30.7242V39.8723ZM31.776 36.6764H32.6358V39.1446H31.1133C31.6168 38.4254 31.8577 37.553 31.7962 36.6755M37.5099 39.1455H35.6051V38.1512H36.9499V37.4718H35.6051V36.6764H37.4349V35.9487H34.8126V39.8731H37.5091V39.1455H37.5099ZM39.2514 36.6764H40.8497V39.8723H41.6413V35.9487H38.4531V39.8731H39.2522V36.6764H39.2514ZM43.4846 39.3511H45.0821L45.3069 39.8655H46.2147L44.4741 35.8666H44.1667L42.4194 39.8655H43.2792L43.4846 39.3511ZM44.2829 37.3685L44.8017 38.6928H43.7642L44.2829 37.3685V37.3685ZM47.7575 38.4871H48.4404C48.6173 38.5055 48.796 38.4864 48.965 38.431C49.134 38.3756 49.2896 38.2851 49.4216 38.1655C49.5536 38.0458 49.6591 37.8996 49.7314 37.7364C49.8036 37.5732 49.841 37.3966 49.841 37.2179C49.841 37.0393 49.8036 36.8626 49.7314 36.6994C49.6591 36.5362 49.5536 36.39 49.4216 36.2704C49.2896 36.1507 49.134 36.0603 48.965 36.0049C48.796 35.9494 48.6173 35.9303 48.4404 35.9487H46.9726V39.8723H47.771V38.5015L47.7575 38.488V38.4871ZM47.7575 36.6552H48.4404C48.5196 36.6465 48.5997 36.6547 48.6755 36.6791C48.7513 36.7036 48.8211 36.7439 48.8804 36.7973C48.9397 36.8507 48.9871 36.9161 49.0196 36.9891C49.0521 37.0622 49.0689 37.1413 49.0689 37.2213C49.0689 37.3013 49.0521 37.3804 49.0196 37.4535C48.9871 37.5265 48.9397 37.5919 48.8804 37.6453C48.8211 37.6987 48.7513 37.739 48.6755 37.7635C48.5997 37.7879 48.5196 37.7961 48.4404 37.7874H47.7583V36.6552H47.7575ZM51.691 39.8723H52.4893V36.6772H53.7389V35.9495H50.4413V36.6772H51.691V39.8723V39.8723ZM54.5651 39.8723L54.7899 39.3578H56.3874L56.6063 39.8723H57.4594L55.7255 35.8725H55.4594L53.7246 39.8723H54.5651V39.8723ZM55.5891 37.3753L56.1078 38.6995H55.0905L55.5891 37.3753ZM59.0366 37.7798L60.0202 39.0151H60.2796L61.2623 37.7798V39.8723H62.0615V35.8801H61.8021L60.1499 37.9998L58.5044 35.8801H58.2451V39.8723H59.0366V37.7798ZM65.9192 39.1455H64.0143V38.1512H65.3592V37.4718H64.0143V36.6764H65.8434V35.9487H63.216V39.8731H65.9192V39.1455V39.1455ZM67.659 38.1783H69.3861V39.8731H70.1844V35.9487H69.3861V37.4523H67.659V35.9487H66.8598V39.8731H67.659V38.1783ZM72.2131 39.8723H73.0122V36.6772H74.2678V35.9495H70.9642V36.6772H72.2139V39.8723H72.2131ZM33.4408 47.0071V43.0758H30.2459V47.0071H31.0518V43.8103H32.6425V47.0071H33.4408V47.0071ZM35.387 45.6219H36.0699C36.2472 45.6383 36.4259 45.6176 36.5949 45.5611C36.7638 45.5046 36.9192 45.4135 37.0514 45.2936C37.1835 45.1737 37.2895 45.0276 37.3626 44.8645C37.4357 44.7014 37.4744 44.5248 37.4762 44.3459C37.4751 44.1674 37.4368 43.9911 37.3637 43.8283C37.2906 43.6656 37.1843 43.5201 37.0518 43.4011C36.9193 43.2822 36.7635 43.1925 36.5944 43.1377C36.4252 43.083 36.2466 43.0645 36.0699 43.0835H34.6088V47.0011H35.408V45.6287L35.387 45.6219ZM35.387 43.79H36.0699C36.146 43.7821 36.2229 43.7909 36.2954 43.8155C36.3679 43.8402 36.4342 43.8803 36.4899 43.9331C36.5456 43.9858 36.5893 44.05 36.6181 44.1212C36.6469 44.1925 36.6601 44.2691 36.6568 44.3459C36.662 44.4241 36.6503 44.5024 36.6224 44.5756C36.5946 44.6487 36.5513 44.7149 36.4955 44.7696C36.4397 44.8243 36.3727 44.8662 36.2992 44.8924C36.2258 44.9186 36.1475 44.9284 36.0699 44.9213H35.3878V43.79H35.387ZM40.9928 46.2726H39.0947V45.2851H40.4396V44.5989H39.0947V43.8103H40.9246V43.0758H38.2956V47.0071H40.9928V46.2726V46.2726ZM42.4867 47.0003H44.9179V47.8371H45.7162V46.2726H45.1975V43.0758H42.8008V43.7206C42.8008 45.1616 42.528 45.8538 42.0227 46.2726H41.7221V47.8371H42.5213V46.9995H42.4876L42.4867 47.0003ZM43.5385 43.8027H44.3992V46.2735H42.8766C43.3802 45.5534 43.6219 44.681 43.5587 43.8027M47.3684 43.8103H48.9659V47.0071H49.7651V43.0758H46.5768V47.0071H47.3684V43.8103ZM52.3587 43.0758H50.8909V46.9995H51.6901V45.6278H52.3722C52.5491 45.6462 52.7278 45.6271 52.8968 45.5717C53.0658 45.5162 53.2213 45.4258 53.3534 45.3061C53.4854 45.1865 53.5909 45.0403 53.6632 44.8771C53.7354 44.7139 53.7727 44.5372 53.7727 44.3586C53.7727 44.18 53.7354 44.0033 53.6632 43.8401C53.5909 43.6769 53.4854 43.5307 53.3534 43.4111C53.2213 43.2914 53.0658 43.201 52.8968 43.1456C52.7278 43.0901 52.5491 43.071 52.3722 43.0894L52.3587 43.0758V43.0758ZM52.3731 44.9348H51.6901V43.79H52.3722C52.452 43.7802 52.5329 43.7875 52.6096 43.8115C52.6864 43.8354 52.7572 43.8755 52.8174 43.929C52.8775 43.9825 52.9257 44.0482 52.9587 44.1219C52.9917 44.1955 53.0088 44.2753 53.0088 44.3561C53.0088 44.4368 52.9917 44.5166 52.9587 44.5903C52.9257 44.6639 52.8775 44.7296 52.8174 44.7831C52.7572 44.8367 52.6864 44.8767 52.6096 44.9007C52.5329 44.9246 52.452 44.932 52.3722 44.9221M55.4181 43.0767H54.619V47.0756H54.8783L57.2 44.5921V47.0071H57.9992V43.0081H57.739L55.4181 45.4705V43.0758V43.0767ZM61.6716 44.5854H59.9453V43.0758H59.1528V47.0071H59.9444V45.3122H61.6716V47.0071H62.4707V43.0758H61.6716V44.5854ZM64.416 45.4705V43.0758H63.6177V47.0756H63.8838L66.2046 44.5921V47.0071H67.0038V43.0081H66.7377L64.416 45.4705V45.4705ZM70.0632 45.1345L68.4101 43.0073H68.1507V47.0003H68.9499V44.9078L69.9335 46.1431H70.192L71.1756 44.9078V47.0003H71.9672V43.0073H71.7078L70.0632 45.1354V45.1345ZM73.6126 47.0003L73.8307 46.4926H75.4282L75.6472 47.0003H76.507L74.7663 43.0073H74.507L72.7579 47.0003H73.6118H73.6126ZM74.6291 44.5033L75.1486 45.8275H74.1044L74.6299 44.5033H74.6291ZM77.7297 47.0071H78.528V43.8103H79.7777V43.0758H76.48V43.8103H77.7297V47.0071V47.0071ZM83.259 46.2726H81.3541V45.2851H82.699V44.5989H81.3541V43.8103H83.184V43.0758H80.5558V47.0071H83.259V46.2726V46.2726ZM86.5575 47.0003H87.3625V43.0826H84.8227V43.8103C84.8227 45.5255 84.5162 46.2049 83.8947 46.2794V47.0341C84.8775 46.9665 85.5604 46.3488 85.5806 43.8103H86.5575V47.0003V47.0003ZM91.5335 45.7108C91.5329 45.5294 91.4943 45.3502 91.4204 45.1848C91.3465 45.0194 91.2388 44.8714 91.1043 44.7504C90.9698 44.6295 90.8115 44.5383 90.6397 44.4828C90.4679 44.4272 90.2864 44.4086 90.107 44.428H89.3078V43.0555H88.5432V46.9732H90.1406C90.4118 47.0018 90.685 46.9435 90.9212 46.8067C91.1574 46.67 91.3446 46.4617 91.456 46.2117C91.5301 46.045 91.568 45.8648 91.568 45.6828L91.5335 45.7108ZM90.1406 46.2658H89.3423V45.0998H90.1406C90.2946 45.1003 90.4421 45.1619 90.551 45.2713C90.6599 45.3807 90.7212 45.529 90.7217 45.6837C90.7212 45.8382 90.6598 45.9863 90.5509 46.0954C90.442 46.2046 90.2945 46.2658 90.1406 46.2658V46.2658ZM94.3326 47.0756C94.6806 47.0819 95.0239 46.9942 95.3266 46.8215C95.6292 46.6488 95.8802 46.3976 96.0531 46.0941L95.4526 45.6693C95.3466 45.8759 95.1859 46.0491 94.9884 46.17C94.7908 46.2909 94.564 46.3548 94.3326 46.3547C94.0792 46.3654 93.8288 46.2959 93.6167 46.1561C93.4046 46.0163 93.2415 45.8132 93.1503 45.5754C93.0895 45.4175 93.062 45.2487 93.0695 45.0795C93.0616 44.9091 93.0887 44.739 93.1491 44.5796C93.2096 44.4202 93.302 44.275 93.4206 44.153C93.539 44.0309 93.6809 43.9344 93.8378 43.8695C93.9946 43.8046 94.163 43.7727 94.3326 43.7756C94.5638 43.7769 94.7902 43.8415 94.9875 43.9624C95.1848 44.0833 95.3456 44.256 95.4526 44.4618L96.0531 44.0303C95.8789 43.7284 95.6275 43.4788 95.325 43.3074C95.0225 43.136 94.6799 43.0491 94.3326 43.0555C94.0408 43.0107 93.7428 43.0297 93.4589 43.1113C93.1751 43.1929 92.9122 43.3351 92.6881 43.5283C92.464 43.7215 92.2841 43.961 92.1607 44.2305C92.0373 44.4999 91.9733 44.793 91.9731 45.0897C91.9726 45.3864 92.0362 45.6798 92.1595 45.9494C92.2828 46.2191 92.4628 46.4587 92.6872 46.6517C92.9113 46.845 93.1744 46.9872 93.4585 47.0687C93.7425 47.1502 94.0407 47.169 94.3326 47.1238M96.7023 43.8103H97.9512V47.0071H98.7436V43.8103H100V43.0758H96.7023V43.8103V43.8103ZM103.803 45.8478C103.811 45.6335 103.748 45.4224 103.625 45.2474C103.501 45.0724 103.324 44.9432 103.12 44.8798C103.302 44.6988 103.405 44.4517 103.407 44.1945C103.405 44.0401 103.372 43.8878 103.309 43.7468C103.247 43.6058 103.156 43.4791 103.043 43.3745C102.93 43.2703 102.797 43.1905 102.651 43.1403C102.506 43.0901 102.352 43.0704 102.199 43.0826H100.833V47.0003H102.567C102.728 47.0164 102.89 46.9986 103.044 46.9483C103.198 46.8979 103.34 46.8159 103.461 46.7075C103.582 46.5992 103.679 46.4668 103.746 46.3189C103.813 46.1709 103.849 46.0105 103.851 45.8478H103.803V45.8478ZM101.597 43.7891H102.151C102.478 43.7891 102.656 43.9609 102.656 44.2351C102.656 44.5101 102.478 44.681 102.151 44.681H101.597V43.79V43.7891ZM101.597 46.3344V45.3266H102.513C102.582 45.3168 102.653 45.3223 102.721 45.3427C102.788 45.3631 102.85 45.398 102.903 45.4449C102.955 45.4919 102.997 45.5497 103.025 45.6144C103.053 45.6792 103.067 45.7493 103.065 45.8199C103.065 46.1288 102.861 46.3141 102.513 46.3141L101.597 46.3344V46.3344ZM106.035 43.0081L104.287 47.0003H105.147L105.366 46.4926H106.977L107.195 47.0003H108.056L106.294 43.0073H106.035V43.0081ZM105.645 45.8275L106.164 44.5033L106.683 45.8275H105.645ZM33.6387 54.1342V50.1421H33.3659L31.0518 52.5976V50.2106H30.2459V54.2028H30.512L32.8337 51.7269V54.1342H33.6387V54.1342ZM36.8143 50.2106V54.2028H37.0737L39.3945 51.7269V54.1342H40.1937V50.1421H39.9267L37.6126 52.5976V50.2106H36.8143ZM42.139 52.4402H43.8661V54.1351H44.6653V50.2106H43.8661V51.7134H42.1398V50.2106H41.3398V54.1351H42.1398V52.4402H42.139ZM49.1368 54.1351V50.2106H48.3385V51.7134H46.6105V50.2106H45.8114V54.1351H46.6105V52.4402H48.3368V54.1351H49.1368ZM54.2029 52.1728C54.2085 51.899 54.1596 51.6269 54.0591 51.3723C53.9587 51.1177 53.8087 50.8858 53.6179 50.6902C53.4271 50.4946 53.1994 50.3392 52.9482 50.2331C52.6969 50.1271 52.4271 50.0724 52.1545 50.0724C51.882 50.0724 51.6122 50.1271 51.3609 50.2331C51.1096 50.3392 50.8819 50.4946 50.6912 50.6902C50.5004 50.8858 50.3504 51.1177 50.2499 51.3723C50.1495 51.6269 50.1006 51.899 50.1061 52.1728C50.117 52.7115 50.3376 53.2244 50.7205 53.6015C51.1035 53.9786 51.6183 54.1898 52.1545 54.1898C52.6907 54.1898 53.2056 53.9786 53.5885 53.6015C53.9715 53.2244 54.1921 52.7115 54.2029 52.1728V52.1728ZM50.8783 52.1728C50.8836 51.9242 50.962 51.6827 51.1034 51.4787C51.2449 51.2746 51.4433 51.1172 51.6736 51.0261C51.9038 50.9349 52.1558 50.9142 52.3977 50.9666C52.6397 51.0189 52.8609 51.1419 53.0335 51.3201C53.2061 51.4983 53.3224 51.7238 53.3678 51.9683C53.4133 52.2127 53.3858 52.4652 53.2889 52.694C53.192 52.9229 53.0299 53.1178 52.823 53.2543C52.6162 53.3909 52.3738 53.463 52.1263 53.4615C51.9583 53.4656 51.7912 53.4348 51.6355 53.3709C51.4799 53.3071 51.3391 53.2117 51.2218 53.0906C51.1046 52.9696 51.0135 52.8255 50.9542 52.6674C50.895 52.5093 50.8688 52.3407 50.8775 52.172L50.8783 52.1728ZM57.4451 52.0146C57.537 51.9257 57.6104 51.8194 57.661 51.7017C57.7116 51.584 57.7384 51.4574 57.7398 51.3292C57.736 51.1739 57.7002 51.0211 57.6348 50.8804C57.5693 50.7397 57.4756 50.6141 57.3594 50.5116C57.2433 50.4091 57.1073 50.3318 56.96 50.2847C56.8127 50.2375 56.6573 50.2215 56.5036 50.2377H55.1377V54.1621H56.8792C57.0402 54.1782 57.2028 54.1605 57.3567 54.1101C57.5105 54.0597 57.6523 53.9777 57.7729 53.8694C57.8936 53.761 57.9905 53.6286 58.0576 53.4806C58.1247 53.3327 58.1604 53.1723 58.1625 53.0097C58.1688 52.795 58.1057 52.5841 57.9827 52.4084C57.8598 52.2327 57.6836 52.1017 57.4804 52.0349L57.4459 52.0146H57.4451ZM55.9158 50.9171H56.4556C56.784 50.9171 56.9608 51.0948 56.9608 51.3631C56.9624 51.4278 56.95 51.4921 56.9244 51.5514C56.8988 51.6108 56.8606 51.6639 56.8125 51.707C56.7645 51.7501 56.7076 51.7821 56.646 51.8009C56.5843 51.8197 56.5194 51.8247 56.4556 51.8158H55.9023L55.9158 50.9171V50.9171ZM56.8312 53.4615H55.9158V52.4529H56.8312C57.179 52.4529 57.3912 52.645 57.3912 52.9471C57.3912 53.2483 57.179 53.4404 56.8312 53.4404M60.368 50.1421L58.6198 54.1342H59.4804L59.6994 53.6265H61.296L61.5217 54.1342H62.3747L60.6408 50.1421H60.368V50.1421ZM59.9789 52.9615L60.4977 51.6372L61.0164 52.9615H59.9789ZM66.3284 50.2106H65.5293V53.4074H63.952V50.2106H63.1537V54.1351H66.048V54.9719H66.8472V53.4074H66.3284V50.2106ZM67.7204 50.2106V54.2028H67.9798L70.3006 51.7269V54.1342H71.0998V50.1421H70.8337L68.5187 52.5976V50.2106H67.7204V50.2106ZM74.0775 50.1421C73.8085 50.1465 73.5431 50.2041 73.2963 50.3117C73.0495 50.4192 72.8262 50.5745 72.6392 50.7687C72.4521 50.963 72.305 51.1923 72.2062 51.4437C72.1073 51.6951 72.0587 51.9635 72.0632 52.2338C72.0676 52.504 72.1249 52.7707 72.2319 53.0187C72.339 53.2667 72.4935 53.491 72.6868 53.679C72.8801 53.8669 73.1084 54.0148 73.3585 54.1141C73.6087 54.2134 73.8759 54.2622 74.1448 54.2578C74.688 54.2488 75.2054 54.0234 75.5831 53.6311C75.9609 53.2388 76.1681 52.7118 76.1592 52.1661C76.1502 51.6203 75.9259 51.1004 75.5355 50.7209C75.1451 50.3413 74.6206 50.1331 74.0775 50.1421V50.1421ZM74.0775 53.4624C73.8221 53.4694 73.5704 53.3998 73.3545 53.2623C73.1387 53.1249 72.9686 52.9259 72.866 52.6907C72.7634 52.4556 72.7329 52.1951 72.7785 51.9424C72.824 51.6898 72.9435 51.4566 73.1217 51.2726C73.2999 51.0886 73.5287 50.9622 73.7788 50.9095C74.0289 50.8569 74.2889 50.8804 74.5256 50.9771C74.7623 51.0737 74.965 51.2391 75.1076 51.4522C75.2502 51.6652 75.3264 51.9161 75.3263 52.1728C75.3347 52.3415 75.3084 52.51 75.249 52.668C75.1897 52.8259 75.0986 52.9699 74.9814 53.0909C74.8642 53.2119 74.7235 53.3074 74.568 53.3713C74.4124 53.4352 74.2455 53.4662 74.0775 53.4624V53.4624ZM80.3924 54.1351V50.2106H79.5933V51.7134H77.8661V50.2106H77.067V54.1351H77.8661V52.4402H79.5933V54.1351H80.3924ZM84.0657 51.7134H82.3377V50.2106H81.5394V54.1351H82.3377V52.4402H84.0657V54.1351H84.864V50.2106H84.0657V51.7134ZM87.8611 50.1421C87.5922 50.1421 87.326 50.1953 87.0776 50.2986C86.8293 50.402 86.6036 50.5535 86.4135 50.7446C86.2234 50.9356 86.0726 51.1623 85.9697 51.4119C85.8669 51.6615 85.8139 51.9289 85.8139 52.1991C85.8139 52.4692 85.8669 52.7367 85.9697 52.9862C86.0726 53.2358 86.2234 53.4626 86.4135 53.6536C86.6036 53.8446 86.8293 53.9961 87.0776 54.0995C87.326 54.2029 87.5922 54.2561 87.8611 54.2561C88.404 54.2561 88.9247 54.0394 89.3086 53.6536C89.6925 53.2678 89.9082 52.7446 89.9082 52.1991C89.9082 51.6535 89.6925 51.1303 89.3086 50.7446C88.9247 50.3588 88.404 50.1421 87.8611 50.1421V50.1421ZM87.8611 53.4624C87.6924 53.4627 87.5254 53.4296 87.3695 53.3649C87.2137 53.3002 87.0721 53.2052 86.9528 53.0854C86.8336 52.9656 86.7391 52.8233 86.6747 52.6667C86.6103 52.5101 86.5774 52.3423 86.5777 52.1728C86.5775 51.9178 86.6526 51.6684 86.7936 51.4562C86.9345 51.244 87.1349 51.0786 87.3694 50.9809C87.6038 50.8831 87.8619 50.8575 88.1109 50.9071C88.3599 50.9568 88.5887 51.0795 88.7682 51.2599C88.9478 51.4402 89.0701 51.6699 89.1197 51.9201C89.1693 52.1703 89.1439 52.4296 89.0468 52.6653C88.9497 52.901 88.7852 53.1024 88.5741 53.2441C88.3631 53.3859 88.1149 53.4615 87.8611 53.4615V53.4624ZM90.8446 54.1351H91.643V50.9383H93.3566V50.2106H90.8446V54.1351V54.1351ZM95.9369 50.1421C95.668 50.1421 95.4018 50.1953 95.1534 50.2986C94.9051 50.402 94.6794 50.5535 94.4893 50.7446C94.2992 50.9356 94.1484 51.1623 94.0455 51.4119C93.9426 51.6615 93.8897 51.9289 93.8897 52.1991C93.8897 52.4692 93.9426 52.7367 94.0455 52.9862C94.1484 53.2358 94.2992 53.4626 94.4893 53.6536C94.6794 53.8446 94.9051 53.9961 95.1534 54.0995C95.4018 54.2029 95.668 54.2561 95.9369 54.2561C96.4798 54.2561 97.0005 54.0394 97.3844 53.6536C97.7683 53.2678 97.984 52.7446 97.984 52.1991C97.984 51.6535 97.7683 51.1303 97.3844 50.7446C97.0005 50.3588 96.4798 50.1421 95.9369 50.1421V50.1421ZM95.9369 53.4624C95.5963 53.4624 95.2696 53.3264 95.0288 53.0844C94.7879 52.8424 94.6526 52.5142 94.6526 52.172C94.6526 51.8298 94.7879 51.5015 95.0288 51.2596C95.2696 51.0176 95.5963 50.8816 95.9369 50.8816C96.2774 50.8816 96.6041 51.0176 96.8449 51.2596C97.0858 51.5015 97.2211 51.8298 97.2211 52.172C97.2211 52.5142 97.0858 52.8424 96.8449 53.0844C96.6041 53.3264 96.2774 53.4624 95.9369 53.4624V53.4624ZM102.444 50.2106H100.976V54.1351H101.774V52.7626H102.457C102.634 52.7815 102.813 52.7627 102.982 52.7075C103.152 52.6523 103.308 52.5619 103.44 52.4422C103.572 52.3224 103.678 52.1761 103.75 52.0126C103.822 51.8491 103.859 51.6722 103.859 51.4934C103.859 51.3146 103.822 51.1376 103.75 50.9742C103.678 50.8107 103.572 50.6643 103.44 50.5446C103.308 50.4249 103.152 50.3345 102.982 50.2792C102.813 50.224 102.634 50.2053 102.457 50.2241L102.444 50.2106ZM102.457 52.0561H101.774V50.9171H102.457C102.531 50.9171 102.604 50.9317 102.672 50.96C102.74 50.9883 102.801 51.0297 102.853 51.082C102.905 51.1342 102.946 51.1962 102.975 51.2645C103.003 51.3328 103.017 51.4059 103.017 51.4798C103.017 51.5537 103.003 51.6269 102.975 51.6952C102.946 51.7634 102.905 51.8255 102.853 51.8777C102.801 51.93 102.74 51.9714 102.672 51.9997C102.604 52.028 102.531 52.0425 102.457 52.0425M105.748 50.1421L104.001 54.1342H104.861L105.08 53.6265H106.677L106.895 54.1342H107.756L106.014 50.1421H105.748V50.1421ZM105.352 52.9615L105.871 51.6372L106.39 52.9615H105.352ZM110.718 52.0628C110.833 51.973 110.926 51.8573 110.989 51.7251C111.052 51.5929 111.083 51.4478 111.08 51.3013C111.07 51.1337 111.027 50.9698 110.952 50.8197C110.877 50.6695 110.772 50.5363 110.644 50.4279C110.517 50.3195 110.368 50.2383 110.209 50.1892C110.049 50.14 109.881 50.124 109.715 50.1421C109.428 50.1474 109.149 50.2315 108.907 50.3851C108.666 50.5388 108.47 50.7562 108.343 51.0136L108.895 51.4113C108.984 51.2632 109.108 51.1395 109.255 51.0509C109.403 50.9623 109.57 50.9118 109.742 50.9036C110.077 50.9036 110.295 51.0957 110.295 51.3631C110.296 51.4275 110.283 51.4913 110.257 51.5502C110.231 51.6091 110.192 51.6616 110.144 51.7041C110.097 51.7474 110.04 51.7799 109.979 51.7992C109.918 51.8184 109.853 51.8241 109.789 51.8158H109.189V52.5011H109.954C110.022 52.4911 110.092 52.496 110.159 52.5155C110.226 52.535 110.287 52.5687 110.34 52.6143C110.392 52.6599 110.434 52.7163 110.463 52.7797C110.492 52.8431 110.507 52.912 110.507 52.9818C110.507 53.3185 110.193 53.5106 109.824 53.5106C109.626 53.5104 109.431 53.4576 109.26 53.3576C109.088 53.2576 108.946 53.114 108.848 52.9411L108.281 53.3388C108.428 53.6211 108.652 53.8559 108.926 54.0161C109.2 54.1763 109.514 54.2554 109.831 54.2442C110.189 54.2768 110.545 54.1662 110.823 53.9363C111.1 53.7064 111.276 53.3759 111.312 53.0165C111.316 52.8246 111.264 52.6358 111.162 52.4736C111.06 52.3113 110.913 52.1829 110.739 52.1043M114.548 52.0146C114.64 51.9256 114.713 51.8191 114.763 51.7015C114.814 51.5838 114.841 51.4573 114.842 51.3292C114.838 51.174 114.802 51.0213 114.737 50.8807C114.671 50.7401 114.577 50.6147 114.461 50.5122C114.345 50.4097 114.209 50.3324 114.062 50.2852C113.915 50.238 113.76 50.2218 113.606 50.2377H112.241V54.1621H113.981C114.143 54.1787 114.305 54.1614 114.46 54.1112C114.614 54.061 114.756 53.979 114.876 53.8706C114.997 53.7621 115.094 53.6295 115.161 53.4813C115.228 53.3331 115.263 53.1724 115.265 53.0097C115.272 52.7947 115.21 52.5831 115.087 52.4071C114.964 52.2312 114.787 52.1005 114.583 52.0349L114.548 52.0146ZM113.026 50.9171H113.572C113.907 50.9171 114.084 51.0948 114.084 51.3631C114.084 51.6305 113.907 51.8158 113.572 51.8158H113.026V50.9171ZM113.934 53.4615H112.985V52.4529H113.9C113.97 52.4428 114.041 52.4481 114.108 52.4685C114.176 52.4888 114.238 52.5238 114.291 52.5708C114.343 52.6179 114.385 52.6759 114.413 52.7409C114.441 52.8059 114.455 52.8763 114.453 52.9471C114.453 53.2627 114.248 53.4404 113.9 53.4404M116.931 52.5985V50.2106H116.139V54.2028H116.398L118.719 51.7269V54.1342H119.518V50.1421H119.252L116.931 52.5976V52.5985ZM120.297 50.9383H121.547V54.1351H122.345V50.9383H123.595V50.2106H120.297V50.9383V50.9383ZM125.172 52.5985V50.2106H124.38V54.2028H124.639L126.961 51.7269V54.1342H127.766V50.1421H127.493L125.172 52.5976V52.5985ZM130.374 50.2106C130.183 50.1905 129.99 50.2111 129.807 50.271C129.625 50.3309 129.457 50.4288 129.314 50.5583C129.172 50.6878 129.058 50.846 128.981 51.0225C128.903 51.1991 128.864 51.3901 128.865 51.5831C128.861 51.8106 128.917 52.0351 129.027 52.2337C129.138 52.4324 129.298 52.5983 129.493 52.7144L128.565 54.1486H129.459L130.251 52.9344H130.934V54.1418H131.732V50.2106H130.374V50.2106ZM130.954 52.2211H130.367C130.277 52.231 130.185 52.2215 130.098 52.1935C130.011 52.1654 129.931 52.1192 129.863 52.058C129.796 51.9969 129.741 51.922 129.704 51.8383C129.667 51.7547 129.648 51.6641 129.648 51.5725C129.648 51.4809 129.667 51.3903 129.704 51.3066C129.741 51.223 129.796 51.1481 129.863 51.0869C129.931 51.0258 130.011 50.9796 130.098 50.9515C130.185 50.9234 130.277 50.914 130.367 50.9239H130.954V52.2211ZM30.2459 61.269H31.0518V58.0722H32.7646V57.3445H30.2459V61.269ZM35.3465 57.2692C35.0776 57.2692 34.8113 57.3225 34.5628 57.4259C34.3143 57.5293 34.0885 57.6809 33.8984 57.872C33.7082 58.063 33.5573 58.2899 33.4544 58.5396C33.3515 58.7892 33.2985 59.0568 33.2985 59.3271C33.2985 59.5973 33.3515 59.8649 33.4544 60.1146C33.5573 60.3642 33.7082 60.5911 33.8984 60.7822C34.0885 60.9733 34.3143 61.1249 34.5628 61.2283C34.8113 61.3317 35.0776 61.3849 35.3465 61.3849C35.8824 61.374 36.3926 61.1524 36.7678 60.7678C37.1429 60.3831 37.353 59.866 37.353 59.3275C37.353 58.7889 37.1429 58.2719 36.7678 57.8872C36.3926 57.5026 35.8824 57.281 35.3465 57.2701V57.2692ZM35.3465 60.5895C35.0231 60.5659 34.7205 60.4202 34.4997 60.1816C34.2788 59.943 34.1561 59.6292 34.1561 59.3034C34.1561 58.9775 34.2788 58.6638 34.4997 58.4252C34.7205 58.1866 35.0231 58.0408 35.3465 58.0172C35.67 58.0408 35.9725 58.1866 36.1934 58.4252C36.4142 58.6638 36.537 58.9775 36.537 59.3034C36.537 59.6292 36.4142 59.943 36.1934 60.1816C35.9725 60.4202 35.67 60.5659 35.3465 60.5895V60.5895ZM39.8038 57.3454H38.336V61.3028H39.1352V59.9321H39.8173C40.0834 59.9589 40.3512 59.9006 40.5826 59.7656C40.8139 59.6307 40.997 59.4258 41.1057 59.1802C41.2145 58.9347 41.2434 58.6609 41.1884 58.3978C41.1333 58.1348 40.9971 57.8959 40.7992 57.7151C40.667 57.5954 40.5114 57.5049 40.3422 57.4496C40.1731 57.3942 39.9942 57.3751 39.8173 57.3936L39.8038 57.3454V57.3454ZM39.8173 59.2247H39.1352V58.0925H39.8173C39.8957 58.0851 39.9749 58.0941 40.0497 58.1192C40.1244 58.1442 40.1932 58.1847 40.2515 58.238C40.3098 58.2913 40.3564 58.3562 40.3882 58.4287C40.4201 58.5011 40.4366 58.5794 40.4366 58.6586C40.4366 58.7378 40.4201 58.8161 40.3882 58.8886C40.3564 58.961 40.3098 59.0259 40.2515 59.0792C40.1932 59.1325 40.1244 59.173 40.0497 59.198C39.9749 59.2231 39.8957 59.2322 39.8173 59.2247V59.2247ZM43.9823 57.2692C43.7134 57.2692 43.4471 57.3225 43.1986 57.4259C42.9501 57.5293 42.7243 57.6809 42.5342 57.872C42.344 58.063 42.1931 58.2899 42.0902 58.5396C41.9873 58.7892 41.9343 59.0568 41.9343 59.3271C41.9343 59.5973 41.9873 59.8649 42.0902 60.1146C42.1931 60.3642 42.344 60.5911 42.5342 60.7822C42.7243 60.9733 42.9501 61.1249 43.1986 61.2283C43.4471 61.3317 43.7134 61.3849 43.9823 61.3849C44.5182 61.374 45.0284 61.1524 45.4036 60.7678C45.7787 60.3831 45.9888 59.866 45.9888 59.3275C45.9888 58.7889 45.7787 58.2719 45.4036 57.8872C45.0284 57.5026 44.5182 57.281 43.9823 57.2701V57.2692ZM43.9823 60.5895C43.6589 60.5659 43.3563 60.4202 43.1355 60.1816C42.9146 59.943 42.7919 59.6292 42.7919 59.3034C42.7919 58.9775 42.9146 58.6638 43.1355 58.4252C43.3563 58.1866 43.6589 58.0408 43.9823 58.0172C44.3058 58.0408 44.6083 58.1866 44.8292 58.4252C45.05 58.6638 45.1728 58.9775 45.1728 59.3034C45.1728 59.6292 45.05 59.943 44.8292 60.1816C44.6083 60.4202 44.3058 60.5659 43.9823 60.5895V60.5895ZM50.0859 57.3454H47.6623V57.9901C47.6623 59.4235 47.3886 60.1233 46.8766 60.5421H46.5768V62.0991H47.3752V61.3037H49.8055V62.1329H50.6046V60.576H50.0859V57.3454ZM49.2943 60.5421H47.771C48.2762 59.8229 48.5179 58.9497 48.4539 58.0722H49.3213V60.5421H49.2935H49.2943ZM52.9878 57.2692L51.2463 61.3037H52.1069L52.3183 60.7892H53.9158L54.1415 61.3037H55.0013L53.2606 57.3039L52.9878 57.2701V57.2692ZM52.5987 60.0954L53.1175 58.772L53.6295 60.0962H52.5979L52.5987 60.0954ZM59.7187 59.3965L58.0665 57.2692H57.8072V61.269H58.6063V59.1705L59.5891 60.4118H59.8484L60.832 59.1697V61.269H61.6236V57.2701H61.3642L59.7187 59.3965V59.3965ZM64.6484 57.2692C64.3795 57.2692 64.1132 57.3225 63.8647 57.4259C63.6162 57.5293 63.3904 57.6809 63.2003 57.872C63.0101 58.063 62.8592 58.2899 62.7563 58.5396C62.6534 58.7892 62.6004 59.0568 62.6004 59.3271C62.6004 59.5973 62.6534 59.8649 62.7563 60.1146C62.8592 60.3642 63.0101 60.5911 63.2003 60.7822C63.3904 60.9733 63.6162 61.1249 63.8647 61.2283C64.1132 61.3317 64.3795 61.3849 64.6484 61.3849C65.1843 61.374 65.6945 61.1524 66.0697 60.7678C66.4448 60.3831 66.6549 59.866 66.6549 59.3275C66.6549 58.7889 66.4448 58.2719 66.0697 57.8872C65.6945 57.5026 65.1843 57.281 64.6484 57.2701V57.2692ZM64.6484 60.5895C64.325 60.5659 64.0224 60.4202 63.8016 60.1816C63.5807 59.943 63.458 59.6292 63.458 59.3034C63.458 58.9775 63.5807 58.6638 63.8016 58.4252C64.0224 58.1866 64.325 58.0408 64.6484 58.0172C64.9719 58.0408 65.2744 58.1866 65.4953 58.4252C65.7161 58.6638 65.8389 58.9775 65.8389 59.3034C65.8389 59.6292 65.7161 59.943 65.4953 60.1816C65.2744 60.4202 64.9719 60.5659 64.6484 60.5895V60.5895ZM69.5301 58.0172C69.7613 58.0175 69.9881 58.0816 70.1856 58.2024C70.3831 58.3233 70.5437 58.4963 70.6501 58.7026L71.2505 58.2778C71.0785 57.9736 70.8277 57.7218 70.5249 57.549C70.222 57.3762 69.8783 57.2889 69.5301 57.2963C69.2371 57.2481 68.9371 57.2644 68.6509 57.3443C68.3648 57.4241 68.0994 57.5655 67.8731 57.7587C67.6467 57.9519 67.4649 58.1922 67.3402 58.463C67.2156 58.7339 67.151 59.0287 67.151 59.3271C67.151 59.6255 67.2156 59.9203 67.3402 60.1911C67.4649 60.4619 67.6467 60.7022 67.8731 60.8954C68.0994 61.0886 68.3648 61.23 68.6509 61.3099C68.9371 61.3897 69.2371 61.4061 69.5301 61.3578C69.8783 61.3658 70.2223 61.2797 70.5261 61.1085C70.8299 60.9374 71.0824 60.6874 71.2573 60.3848L70.6568 59.9515C70.5501 60.1576 70.3893 60.3304 70.1919 60.4513C69.9945 60.5723 69.768 60.6367 69.5368 60.6378C69.2134 60.6142 68.9109 60.4684 68.69 60.2298C68.4692 59.9912 68.3464 59.6775 68.3464 59.3516C68.3464 59.0258 68.4692 58.712 68.69 58.4734C68.9109 58.2348 69.2134 58.089 69.5368 58.0655M75.36 57.3454H74.411L72.923 59.1629V57.3454H72.1238V61.269H72.923V59.2179L74.5954 61.269H75.5579L73.8653 59.1976L75.36 57.3445V57.3454ZM78.6653 59.1426C78.7576 59.0539 78.8311 58.9474 78.8814 58.8295C78.9318 58.7116 78.9579 58.5847 78.9583 58.4564C78.9546 58.3011 78.919 58.1483 78.8536 58.0076C78.7882 57.8669 78.6946 57.7413 78.5785 57.6388C78.4625 57.5362 78.3265 57.459 78.1793 57.4118C78.032 57.3647 77.8767 57.3487 77.723 57.3648H76.3571V61.3028H78.0985C78.2593 61.3187 78.4215 61.3011 78.5752 61.2512C78.7288 61.2013 78.8706 61.1201 78.9916 61.0126C79.1127 60.9052 79.2104 60.7739 79.2787 60.6269C79.347 60.4798 79.3844 60.3202 79.3886 60.158C79.3963 59.9422 79.334 59.7297 79.2109 59.5526C79.0879 59.3756 78.9108 59.2435 78.7065 59.1765L78.6644 59.1426H78.6653ZM77.1495 58.0655H77.7027C78.0303 58.0655 78.208 58.2372 78.208 58.5114C78.2095 58.576 78.1969 58.6403 78.1713 58.6996C78.1456 58.7589 78.1074 58.8119 78.0594 58.8549C78.0114 58.898 77.9546 58.93 77.893 58.9489C77.8314 58.9677 77.7665 58.9729 77.7027 58.9641H77.1495V58.0646V58.0655ZM78.064 60.6107H77.1495V59.5877H78.0632C78.1527 59.5721 78.2448 59.5814 78.3294 59.6147C78.4141 59.6481 78.4879 59.7041 78.5431 59.7767C78.5982 59.8493 78.6325 59.9357 78.6422 60.0265C78.6518 60.1173 78.6365 60.209 78.5979 60.2917C78.5519 60.3912 78.4747 60.4728 78.3781 60.524C78.2815 60.5752 78.1709 60.5931 78.0632 60.5751M81.8392 58.6967H81.0341V57.3242H80.235V61.3037H81.8324C82.0146 61.3277 82.1997 61.3123 82.3755 61.2587C82.5512 61.205 82.7136 61.1143 82.8517 60.9925C82.9897 60.8708 83.1004 60.7208 83.1761 60.5527C83.2519 60.3846 83.2911 60.2021 83.2911 60.0175C83.2911 59.833 83.2519 59.6505 83.1761 59.4824C83.1004 59.3142 82.9897 59.1643 82.8517 59.0425C82.7136 58.9208 82.5512 58.8301 82.3755 58.7764C82.1997 58.7227 82.0146 58.7074 81.8324 58.7314L81.8392 58.6967ZM81.8324 60.5895H81.0341V59.4303H81.8324C81.9127 59.4227 81.9937 59.4321 82.0702 59.4578C82.1467 59.4835 82.217 59.5249 82.2766 59.5795C82.3362 59.6341 82.3838 59.7005 82.4164 59.7746C82.449 59.8488 82.4658 59.9289 82.4658 60.0099C82.4658 60.0909 82.449 60.1711 82.4164 60.2452C82.3838 60.3193 82.3362 60.3858 82.2766 60.4403C82.217 60.4949 82.1467 60.5363 82.0702 60.562C81.9937 60.5877 81.9127 60.5971 81.8324 60.5895V60.5895ZM84.7411 57.3454H83.9419V61.269H84.7411V57.3454Z" fill="#D2D6E3"/>
</g>
<defs>
<clipPath id="clip0_458_6720">
<rect width="256" height="33" fill="white" transform="translate(0 34)"/>
</clipPath>
</defs>
</svg>
