<svg width="144" height="28" viewBox="0 0 144 28" fill="none" xmlns="http://www.w3.org/2000/svg">
<path d="M0 22.56V0H4.79921V15.68H3.96601L16.6973 0H20.5633V22.56H15.7307V6.88H16.5639L3.79937 22.56H0Z" fill="white"/>
<path d="M24.6548 22.56V0H45.7513V22.56H40.5855V4.032H29.7873V22.56H24.6548Z" fill="white"/>
<path d="M47.8632 28V18.72H50.3295C51.3738 17.504 52.1514 15.84 52.6624 13.728C53.1735 11.5947 53.429 9.00267 53.429 5.952V0H71.0594V18.72H74.4922V28H69.9929V22.56H52.3958V28H47.8632ZM55.462 18.72H65.8936V3.808H58.1615V6.432C58.1615 9.312 57.9393 11.7547 57.495 13.76C57.0506 15.7653 56.3729 17.4187 55.462 18.72Z" fill="white"/>
<path d="M76.9587 22.56V0H87.9236C90.5676 0 92.5672 0.618667 93.9226 1.856C95.3001 3.072 95.9889 4.74667 95.9889 6.88C95.9889 8.992 95.3001 10.6773 93.9226 11.936C92.5672 13.1733 90.5676 13.792 87.9236 13.792H82.1578V22.56H76.9587ZM82.1578 9.92H87.257C88.5012 9.92 89.4233 9.65333 90.0232 9.12C90.6453 8.58667 90.9564 7.84 90.9564 6.88C90.9564 5.92 90.6453 5.184 90.0232 4.672C89.4233 4.13867 88.5012 3.872 87.257 3.872H82.1578V9.92Z" fill="white"/>
<path d="M98.7819 22.56V0H103.581V15.68H102.748L115.479 0H119.345V22.56H114.513V6.88H115.346L102.581 22.56H98.7819Z" fill="white"/>
<path d="M123.437 22.56V0H128.236V15.68H127.403L140.134 0H144V22.56H139.167V6.88H140.001L127.236 22.56H123.437Z" fill="white"/>
</svg>
