<svg width="304" height="39" viewBox="0 0 304 39" fill="none" xmlns="http://www.w3.org/2000/svg">
<g clip-path="url(#clip0_456_2259)">
<path fill-rule="evenodd" clip-rule="evenodd" d="M249.835 9.02801H251.379L250.817 6.99601H250.465L249.835 9.02801ZM251.697 10.085H249.53L249.069 11.643H247.904L249.706 5.86501H251.548L253.364 11.643H252.172L251.697 10.085ZM255.376 6.92801V11.629H254.171V5.85101H258.343V6.92801H255.376ZM263.646 10.552V11.629H259.304V5.85101H263.558V6.92801H260.503V8.14801H262.881V9.19801H260.503V10.552H263.646ZM269.75 5.85101V11.629H268.544V9.21101H265.977V11.629H264.771V5.85101H265.977V8.10701H268.544V5.85001H269.75V5.85101ZM275.209 6.91501H273.408V11.629H272.195V6.91501H270.393V5.85001H275.209V6.91401V6.91501ZM280.831 9.85501C280.754 10.4216 280.464 10.9374 280.019 11.2973C279.575 11.6572 279.01 11.8341 278.44 11.792C276.686 11.792 275.69 10.572 275.69 8.82501C275.69 7.07701 276.693 5.85101 278.44 5.85101C278.979 5.80922 279.515 5.96688 279.946 6.29408C280.377 6.62127 280.673 7.09523 280.777 7.62601H279.524C279.448 7.40633 279.299 7.21937 279.101 7.0962C278.904 6.97303 278.671 6.92109 278.44 6.94901C277.411 6.94901 276.923 7.78201 276.923 8.85201C276.923 9.92201 277.411 10.749 278.44 10.749C278.705 10.7739 278.969 10.6986 279.181 10.5381C279.393 10.3776 279.537 10.1435 279.585 9.88201L280.831 9.85501ZM286.136 6.91501H284.328V11.629H283.122V6.91501H281.313V5.85001H286.136V6.91401V6.91501ZM290.505 9.88801C290.505 9.40801 290.207 9.15701 289.584 9.15701H288.154V10.6H289.563C290.173 10.6 290.505 10.376 290.505 9.92201V9.88801ZM290.342 7.53101C290.342 7.10401 290.065 6.89401 289.516 6.89401H288.161V8.18101H289.516C290.065 8.18101 290.336 7.96401 290.336 7.50401L290.342 7.53101ZM291.751 9.96301C291.751 10.925 291.121 11.636 289.719 11.636H286.908V5.85001H289.618C290.911 5.85001 291.534 6.52701 291.534 7.38001C291.551 7.61159 291.503 7.84326 291.395 8.04903C291.287 8.2548 291.125 8.42654 290.925 8.54501V8.70901C291.161 8.81957 291.36 8.99599 291.498 9.21703C291.637 9.43808 291.708 9.69435 291.704 9.95501M296.947 8.82501C296.947 7.76101 296.452 6.92101 295.368 6.92101C294.285 6.92101 293.797 7.76101 293.797 8.82501C293.797 9.88801 294.298 10.721 295.368 10.721C296.439 10.721 296.947 9.88101 296.947 8.82501ZM298.18 8.82501C298.18 10.505 297.197 11.792 295.368 11.792C293.54 11.792 292.557 10.505 292.557 8.82501C292.557 7.14501 293.546 5.85101 295.368 5.85101C297.191 5.85101 298.18 7.13801 298.18 8.82501ZM249.49 16.445V20.483H249.652L251.799 16.445H253.364V22.217H252.24V18.09H252.084L249.882 22.216H248.379V16.444H249.49V16.445ZM259.786 16.445V22.217H258.58V19.798H256.02V22.217H254.807V16.445H256.02V18.695H258.58V16.445H259.786ZM266.051 16.445V22.217H264.845V19.798H262.278V22.217H261.072V16.445H262.278V18.695H264.845V16.445H266.051ZM271.403 19.412C271.403 18.356 270.908 17.509 269.831 17.509C268.754 17.509 268.253 18.356 268.253 19.412C268.253 20.469 268.754 21.316 269.831 21.316C270.908 21.316 271.403 20.469 271.403 19.412ZM272.642 19.412C272.642 21.099 271.653 22.379 269.831 22.379C268.009 22.379 267.02 21.099 267.02 19.412C267.02 17.726 268.002 16.479 269.831 16.479C271.66 16.479 272.642 17.759 272.642 19.446M277.336 20.483C277.336 19.995 277.031 19.744 276.408 19.744H274.979V21.221H276.394C276.997 21.221 277.336 20.991 277.336 20.544V20.483ZM277.167 18.146C277.167 17.719 276.889 17.509 276.34 17.509H274.986V18.796H276.34C276.889 18.796 277.153 18.586 277.153 18.119L277.167 18.146ZM278.589 20.544C278.589 21.505 277.959 22.217 276.557 22.217H273.753V16.479H276.462C277.756 16.479 278.386 17.157 278.386 18.003C278.402 18.2353 278.353 18.4675 278.244 18.6734C278.135 18.8792 277.971 19.0505 277.77 19.168V19.331C278.008 19.4335 278.212 19.6023 278.358 19.8173C278.503 20.0324 278.583 20.2846 278.589 20.544ZM281.001 19.602H282.545L281.949 17.57H281.597L281.001 19.602ZM282.863 20.659H280.696L280.235 22.217H279.063L280.872 16.479H282.707L284.523 22.25H283.331L282.863 20.659ZM289.793 22.244H285.329V16.445H286.521V21.16H288.946V16.445H290.138V21.16H290.951V23.666H289.793V22.244ZM293.031 16.445V20.483H293.187L295.335 16.445H296.899V22.217H295.775V18.09H295.619L293.418 22.216H291.914V16.444H293.031V16.445ZM302.338 14.996C302.282 15.254 302.162 15.4935 301.987 15.6917C301.813 15.8899 301.591 16.0401 301.342 16.1282C301.093 16.2162 300.826 16.239 300.566 16.1945C300.306 16.1501 300.061 16.0397 299.856 15.874C299.581 15.6516 299.391 15.3417 299.317 14.996H300.197C300.216 15.145 300.292 15.2809 300.409 15.375C300.468 15.4207 300.535 15.4544 300.607 15.4741C300.678 15.4938 300.753 15.4992 300.827 15.49C300.976 15.5057 301.124 15.4629 301.242 15.3707C301.36 15.2784 301.437 15.1441 301.457 14.996H302.338ZM299.452 16.513V20.503H299.588L301.742 16.513H303.3V22.216H302.182V18.152H302.02L299.825 22.216H298.321V16.513H299.452ZM248.379 27.196H250.269L251.21 29.499H251.373L252.307 27.196H254.163V32.974H253.039V28.462H252.876L251.827 31.036H250.722L249.672 28.462H249.51V32.974H248.379V27.196ZM259.514 30.027C259.514 28.97 259.026 28.13 257.943 28.13C256.859 28.13 256.364 28.97 256.364 30.027C256.364 31.083 256.866 31.93 257.943 31.93C259.02 31.93 259.514 31.09 259.514 30.027ZM260.754 30.027C260.754 31.713 259.765 33 257.943 33C256.121 33 255.132 31.713 255.132 30.027C255.132 28.34 256.114 27.06 257.943 27.06C259.772 27.06 260.754 28.347 260.754 30.027ZM266.696 31.036C266.619 31.6025 266.328 32.1181 265.884 32.478C265.44 32.8379 264.875 33.0149 264.305 32.973C262.55 32.973 261.554 31.753 261.554 29.999C261.554 28.245 262.564 27.033 264.305 27.033C264.844 26.9905 265.38 27.1478 265.811 27.4749C266.242 27.802 266.538 28.2761 266.642 28.807H265.388C265.312 28.5872 265.163 28.4 264.966 28.2768C264.769 28.1536 264.536 28.1018 264.305 28.13C263.275 28.13 262.787 28.963 262.787 30.026C262.787 31.09 263.275 31.93 264.305 31.93C264.57 31.9551 264.834 31.8799 265.046 31.7193C265.258 31.5588 265.402 31.3246 265.449 31.063L266.696 31.036ZM267.819 27.196H269.031V29.451H270.373L271.47 27.196H272.723L271.389 30L272.798 32.974H271.544L270.379 30.542H269.031V32.974H267.819V27.196ZM277.174 31.232C277.174 30.745 276.869 30.494 276.252 30.494H274.823V31.944H276.232C276.842 31.944 277.174 31.714 277.174 31.266V31.232ZM277.011 28.868C277.011 28.442 276.733 28.232 276.185 28.232H274.83V29.519H276.185C276.733 29.519 277.004 29.309 277.004 28.841L277.011 28.868ZM278.413 31.3C278.413 32.262 277.79 32.98 276.381 32.98H273.57V27.202H276.279C277.573 27.202 278.196 27.879 278.196 28.732C278.211 28.9627 278.162 29.193 278.055 29.3976C277.947 29.6023 277.785 29.7733 277.587 29.892V30.027C277.821 30.1391 278.019 30.3161 278.156 30.5369C278.292 30.7578 278.363 31.0132 278.359 31.273M284.604 32.967H285.81V27.196H284.604V32.966V32.967ZM282.715 31.063C282.715 30.522 282.423 30.21 281.617 30.21H280.621V31.91H281.644C282.45 31.91 282.742 31.612 282.742 31.063H282.715ZM279.416 32.967V27.196H280.621V29.153H281.834C283.189 29.153 283.981 29.871 283.981 31.05C283.981 32.228 283.189 32.967 281.834 32.967H279.416ZM200.481 33.928C200.391 34.0657 200.254 34.1659 200.096 34.2097C199.938 34.2535 199.769 34.238 199.621 34.166C199.522 34.0618 199.465 33.9256 199.458 33.7823C199.452 33.6391 199.498 33.4984 199.587 33.386C199.443 33.4196 199.315 33.5041 199.228 33.624C199.149 33.8025 199.135 34.003 199.187 34.1909C199.24 34.3789 199.357 34.5426 199.517 34.654C199.677 34.7654 199.871 34.8174 200.066 34.8011C200.261 34.7849 200.443 34.7014 200.583 34.565C200.657 34.4536 200.696 34.3228 200.696 34.189C200.696 34.0552 200.657 33.9245 200.583 33.813C200.562 33.8554 200.534 33.8942 200.501 33.928H200.481ZM213.25 11.907C213.113 11.7277 213.015 11.5221 212.961 11.303C212.908 11.084 212.9 10.8562 212.938 10.634C212.782 10.9112 212.697 11.2227 212.691 11.5407C212.685 11.8587 212.758 12.1732 212.904 12.456C213.365 13.133 213.785 13.201 214.151 13.906C214.177 13.7179 214.139 13.5265 214.042 13.363C213.9 13.079 213.839 12.835 214.184 12.74C215.139 12.456 216.034 13.844 216.562 13.817C216.768 13.8004 216.965 13.7225 217.127 13.5933C217.289 13.4641 217.408 13.2896 217.47 13.092C217.212 13.253 216.913 13.333 216.609 13.322C215.864 13.228 215.512 12.388 214.672 12.219C214.137 12.11 213.683 12.334 213.229 11.9L213.25 11.907ZM212.721 27.317C212.471 27.683 212.66 28.197 213.324 28.394C213.803 28.504 214.244 28.737 214.604 29.072C215.031 29.498 215.234 29.552 215.336 29.552L197.047 4.17901L196.803 4.35501C196.803 4.35501 207.37 19 212.064 25.515C212.24 25.759 212.952 27.026 212.742 27.351L212.721 27.317ZM212.667 28.509C211.99 28.509 211.177 28.774 210.371 28.029C210.097 27.7557 209.745 27.5753 209.363 27.5132C208.982 27.4511 208.59 27.5105 208.244 27.683C208.244 27.683 208.921 28.36 208.549 28.645C207.925 29.105 208.386 29.647 208.325 29.857C208.264 30.067 207.648 30.108 206.598 29.627C206.131 29.4107 205.609 29.34 205.101 29.424C204.83 29.464 204.918 29.668 204.979 29.722C205.04 29.776 205.419 30.122 205.588 30.237C205.758 30.352 206.076 30.617 206.212 30.521C206.347 30.426 206.063 29.911 206.063 29.911C206.968 30.2231 207.9 30.4501 208.847 30.589C209.687 30.589 208.901 29.194 209.558 29.126C209.897 29.126 210.31 29.613 210.994 29.708C211.476 29.722 211.955 29.637 212.403 29.458C212.904 29.336 213.08 29.952 213.162 30.501C213.172 30.668 213.216 30.831 213.29 30.981C213.453 30.196 213.67 28.469 212.667 28.496V28.509ZM217.896 30.108C217.625 29.376 217.104 29.695 216.874 29.613C216.643 29.533 216.338 29.241 216.237 28.462C216.135 27.683 215.478 28.103 215.478 28.103C215.478 28.103 216.244 29.641 216.555 30.46C216.867 31.28 217.124 30.643 217.504 31.09C217.883 31.537 217.835 33.84 217.619 34.586C217.372 35.432 216.868 36.1801 216.176 36.726C216.711 36.665 217.7 35.616 217.984 34.931C218.175 34.451 218.222 33.926 218.12 33.421L218.567 33.38L218.289 32.702L218.723 32.635C218.723 32.635 218.167 30.874 217.896 30.142V30.108ZM200.102 31.598C199.54 31.4522 198.956 31.4179 198.381 31.497C197.857 31.6282 197.322 31.7076 196.783 31.734C196.542 31.7337 196.303 31.6829 196.082 31.5847C195.861 31.4865 195.664 31.3432 195.502 31.164C195.369 30.9996 195.264 30.8145 195.191 30.616C195.545 29.9744 196.089 29.4584 196.749 29.139C199.689 27.5 198.713 25.658 198.53 23.524C198.45 23.0715 198.469 22.6069 198.586 22.1625C198.703 21.7181 198.915 21.3044 199.208 20.95C199.819 20.5031 200.566 20.2829 201.321 20.327C200.316 19.7936 199.152 19.6395 198.043 19.893C196.593 20.313 196.329 21.363 196.078 22.108C195.967 22.554 195.747 22.9654 195.437 23.3048C195.127 23.6442 194.737 23.901 194.303 24.052C192.149 24.953 192.271 26.653 192.271 26.653C192.271 26.653 191.492 24.973 193.585 23.565C196.241 21.769 195.218 20.388 196.105 19.561C196.783 18.925 197.629 19.026 198.903 19.371C198.672 19.101 195.306 17.685 194.913 20.686C194.581 23.239 192.143 22.88 191.723 25.286C191.425 26.986 193.037 28.415 193.037 28.415C193.037 28.415 191.75 25.834 194.283 24.791C196.031 24.073 197.033 23.239 197.291 22.42V23.266C197.291 24.425 197.866 25.299 197.697 26.945C197.609 27.839 195.977 28.733 195.062 29.655C195.087 29.2527 195.208 28.8622 195.414 28.516C195.706 28.161 195.963 27.777 196.18 27.371C196.352 26.997 196.406 26.579 196.336 26.173C196.288 25.9343 196.201 25.7052 196.078 25.495L195.956 25.542C196.08 25.8154 196.139 26.114 196.127 26.4141C196.115 26.7141 196.033 27.0073 195.888 27.27C195.65 27.6457 195.375 27.9973 195.069 28.32C194.744 28.77 194.556 29.303 194.527 29.857C194.517 30.046 194.53 30.235 194.568 30.42C194.442 30.8917 194.412 31.3837 194.478 31.8673C194.544 32.3509 194.706 32.8165 194.954 33.237C195.36 33.915 195.746 34.443 195.55 35.27C195.353 36.096 196.044 35.791 196.546 35.805H197.013C197.338 35.805 197.467 35.568 197.27 35.249C196.9 34.6162 196.444 34.0375 195.916 33.529C195.609 33.274 195.362 32.954 195.193 32.5921C195.024 32.2302 194.938 31.8353 194.94 31.436C195.157 31.7046 195.424 31.9273 195.728 32.0913C196.032 32.2552 196.365 32.3571 196.708 32.391C197.289 32.381 197.865 32.291 198.422 32.127C198.922 32.0494 199.433 32.0678 199.926 32.181C200.377 32.289 200.796 32.5 201.152 32.797C201.457 33.072 201.672 33.434 201.768 33.834C201.815 34.1657 201.773 34.5038 201.647 34.8141C201.521 35.1244 201.315 35.3959 201.05 35.601L201.131 35.676C201.478 35.4755 201.756 35.173 201.926 34.8095C202.095 34.446 202.149 34.0392 202.08 33.644C201.968 33.1542 201.717 32.7073 201.356 32.3574C200.995 32.0076 200.541 31.7699 200.048 31.673L200.102 31.598ZM199.472 18.091C200.339 19.006 201.267 18.641 201.68 18.687C202.093 18.735 202.574 19.798 202.324 20.835C202.176 21.3437 202 21.8435 201.795 22.332C201.578 23.152 202.588 23.734 202.357 24.486C202.29 24.696 202.147 24.994 202.324 25.224C202.594 25.59 203.035 25.109 203.597 25.224C203.946 25.274 204.301 25.204 204.606 25.028C204.539 24.709 203.285 24.906 203.001 24.391C202.879 24.161 202.547 21.817 203.279 20.774C204.01 19.731 203.326 19.507 202.865 18.742C203.563 18.3717 204.265 18.0104 204.972 17.658C205.427 18.108 205.811 18.624 206.11 19.188C206.276 19.516 206.362 19.878 206.361 20.245C206.356 20.625 206.23 20.993 206.002 21.295C206.306 21.248 206.591 20.699 206.679 20.279C206.746 19.8554 206.714 19.4219 206.584 19.013C206.283 18.1687 205.797 17.4024 205.162 16.77C204.273 17.086 203.408 17.467 202.574 17.909C202.181 17.17 201.782 17.306 201.294 17.346C201.133 17.3404 200.977 17.2939 200.839 17.211C200.702 17.128 200.588 17.0114 200.508 16.872C201.044 17.0187 201.615 16.9708 202.12 16.737C202.321 16.6903 202.509 16.6001 202.671 16.4727C202.833 16.3454 202.966 16.184 203.059 16C203.152 15.8159 203.203 15.6137 203.21 15.4076C203.216 15.2015 203.177 14.9965 203.096 14.807C203.104 15.0675 203.016 15.3219 202.849 15.5217C202.681 15.7214 202.446 15.8525 202.188 15.89C201.467 15.8731 200.751 15.7708 200.054 15.585C200.054 15.585 201.294 15.443 201.545 14.732C201.609 14.5315 201.736 14.3569 201.907 14.234C202.078 14.111 202.284 14.0462 202.495 14.049C202.635 14.051 202.773 14.083 202.899 14.142C202.73 13.9558 202.498 13.839 202.248 13.814C201.998 13.7891 201.747 13.8578 201.545 14.007C201.182 14.1865 200.779 14.2701 200.375 14.25C199.971 14.2299 199.578 14.1066 199.235 13.892C198.232 13.384 197.88 14.224 197.67 14.244C197.46 14.264 197.311 13.939 197.426 13.566C197.541 13.194 198.686 12.889 200.413 12.828C201.083 12.748 201.761 12.866 202.364 13.167C202.364 13.072 202.059 12.652 201.118 12.422C200.176 12.192 200.237 11.805 200.285 11.142C200.332 10.478 199.363 10.742 199.126 10.661C198.889 10.579 199.126 10.058 199.126 10.058C198.954 10.0983 198.802 10.1976 198.695 10.3386C198.589 10.4797 198.535 10.6536 198.544 10.83C198.544 11.1 198.815 11.297 199.072 11.426C199.33 11.555 199.37 11.785 198.91 12.056C198.378 12.356 197.831 12.628 197.27 12.869C195.658 13.546 197.67 14.745 196.959 15.111C196.727 15.2044 196.522 15.3533 196.361 15.5446C196.2 15.7358 196.089 15.9636 196.037 16.208C196.015 16.3914 196.03 16.5774 196.083 16.7546C196.135 16.9318 196.223 17.0963 196.342 17.238C197.731 16.486 198.652 17.014 199.512 17.915L199.472 18.091ZM207.702 15.809C207.702 15.219 207.858 14.935 208.02 14.928C208.515 14.928 208.623 15.605 208.63 15.802C208.638 15.9625 208.607 16.1226 208.538 16.268C208.47 16.4133 208.366 16.5394 208.237 16.635C208.589 16.669 208.874 16.175 208.914 15.863C208.948 15.7028 208.949 15.5376 208.917 15.377C208.886 15.2163 208.823 15.0637 208.731 14.928C209.309 15.488 209.645 16.251 209.666 17.055C209.538 18.322 208.108 18.992 208.108 18.992C208.564 19.067 209.031 19.0157 209.46 18.8439C209.889 18.672 210.262 18.386 210.54 18.017C210.974 17.468 211.163 16.662 210.635 15.307C210.161 14.108 209.28 13.092 210.222 10.789C210.402 10.3283 210.685 9.91477 211.049 9.57981C211.412 9.24484 211.848 8.9973 212.322 8.85601C212.796 8.71428 213.296 8.68231 213.784 8.76254C214.272 8.84276 214.735 9.03306 215.139 9.31901C215.225 9.37715 215.291 9.45973 215.329 9.55601C215.424 9.82101 214.726 10.173 215.031 10.329C215.283 10.414 215.525 10.523 215.756 10.654C215.973 10.816 216.013 10.959 216.128 11.06C216.153 11.0899 216.184 11.1139 216.219 11.1303C216.255 11.1468 216.293 11.1552 216.332 11.155C215.76 10.3893 215.445 9.46254 215.431 8.50701C214.715 8.22007 213.976 7.99328 213.222 7.82901C212.182 7.6946 211.124 7.859 210.174 8.30301C208.745 8.98101 207.235 10.335 207.235 13.533C207.209 14.313 207.367 15.087 207.695 15.795L207.702 15.809ZM191.811 23.253C192.018 23.2226 192.206 23.1191 192.343 22.9613C192.48 22.8034 192.555 22.6018 192.556 22.393C192.674 22.5505 192.731 22.7449 192.718 22.941C192.805 22.8045 192.86 22.6503 192.878 22.4897C192.897 22.3292 192.88 22.1664 192.827 22.0135C192.775 21.8607 192.688 21.7216 192.574 21.6068C192.461 21.4919 192.322 21.4041 192.17 21.35C192.17 21.35 192.217 22.311 191.601 22.65C190.984 22.989 190.856 23.226 190.822 23.578C190.806 23.748 190.844 23.918 190.93 24.066C191.017 24.1918 191.143 24.2848 191.289 24.33C191.099 24.073 191.059 23.456 191.811 23.253ZM207.194 9.77301C205.392 9.87501 204.762 9.22501 203.529 8.63501C202.296 8.04501 201.233 8.47301 201.05 8.75701C201.944 8.8883 202.791 9.24518 203.509 9.79401C206.008 11.358 207.194 9.79401 207.194 9.79401V9.77401V9.77301ZM206.388 5.96601C206.124 6.04101 205.494 6.14201 205.785 7.60601C206.076 9.06901 206.875 8.71001 207.085 8.52601C206.767 8.47502 206.478 8.30876 206.275 8.05889C206.071 7.80902 205.967 7.493 205.981 7.17101C205.981 5.89901 207.417 6.13601 207.417 6.13601C207.105 5.9595 206.737 5.90838 206.388 5.99301V5.96601ZM222.448 24.594C221.885 22.8436 221.126 21.1623 220.186 19.582C219.407 18.41 219.014 19.25 218.702 19.514C218.391 19.778 217.483 21.309 217.084 19.338C216.684 17.367 214.645 15.66 214.645 15.66C214.963 16.8061 215.033 18.007 214.848 19.182C214.819 19.8059 214.862 20.4311 214.977 21.045C214.977 21.62 213.25 22 213.162 22.44C213.073 22.88 215.729 24.703 218.262 22.88C219.021 22.332 219.495 24.459 219.739 25.035C219.983 25.61 219.495 25.793 220.071 26.457C220.647 27.121 220.206 27.683 220.206 28.097C220.206 28.509 221.351 29.451 221.561 29.247C221.934 28.882 221.1 26.701 220.768 25.942C220.437 25.183 219.901 22.752 219.529 22.088C219.312 21.708 218.174 21.973 218.174 21.973L218.093 21.682C218.093 21.682 218.249 21.485 218.391 21.336C219.549 20.137 219.454 20.659 220.653 22.088C221.852 23.518 220.409 24.12 221.446 24.878C222.482 25.638 222.801 25.854 222.428 24.594H222.448ZM203.462 4.95001C203.682 5.01001 203.91 5.03701 204.139 5.03201C204.268 5.02665 204.394 4.98827 204.504 4.92053C204.615 4.85279 204.706 4.75793 204.769 4.64501C204.276 4.65908 203.794 4.49308 203.414 4.17801C203.414 4.17801 204.403 4.13101 204.898 4.06301C205.392 3.99501 206.307 3.75101 206.307 3.75101C206.307 3.75101 206.273 4.56401 206.266 5.03801C206.259 5.51301 206.869 5.41101 207.072 5.34301C207.275 5.27501 207.37 4.32001 207.411 3.51401C207.444 2.90401 206.991 2.89801 206.733 3.00601C206.118 3.29801 205.487 3.55601 204.843 3.77801C204.175 3.91802 203.487 3.93867 202.811 3.83901L202.743 4.09701L203.773 4.72701L203.462 4.95001ZM205.155 8.81801L205.439 8.69601C205.312 8.31702 205.234 7.92302 205.209 7.52401C205.238 6.92601 205.308 6.33101 205.419 5.74301H205.155C205.155 5.74301 205.04 6.64301 204.884 7.42901C204.728 8.21501 204.315 8.06601 204.112 8.05301C203.909 8.03901 202.303 7.80201 202.303 7.80201V8.03901L203.218 8.17501C203.888 8.32311 204.538 8.55038 205.155 8.85201V8.81801ZM206.157 12.327C205.61 12.5838 204.996 12.6598 204.403 12.544C204.8 12.823 205.272 12.976 205.758 12.984C205.934 12.9806 206.107 12.9396 206.266 12.8637C206.425 12.7878 206.566 12.6788 206.679 12.544C206.882 12.2827 207.008 11.9701 207.044 11.6412C207.08 11.3123 207.024 10.9799 206.882 10.681C206.882 10.681 206.821 11.914 206.171 12.327H206.157ZM204.64 31.517C203.116 30 203.671 30.162 204.64 28.807C205.358 27.805 208.853 26.917 210.615 26.525V26.362C209.72 26.402 208.379 26.45 207.038 26.45C204.735 26.45 203.807 25.57 203.211 25.678C200.921 26.111 202.534 28.733 199.865 28.388C197.196 28.042 197.236 30.704 197.236 30.704C197.995 29.16 198.781 29.349 199.39 29.349C200 29.349 200.779 29.837 201.761 29.011C201.978 28.828 202.96 27.243 202.818 28.035C202.664 28.546 202.387 29.011 202.012 29.39C201.788 29.654 201.653 29.85 202.12 30.115L202.798 30.495C203.888 31.117 203.705 31.849 202.994 31.795C202.493 31.795 201.897 31.517 201.396 31.469C201.192 31.469 200.962 31.53 201.287 31.686C201.48 31.776 201.656 31.897 201.809 32.046C202.608 32.845 201.653 32.526 203.936 32.404C204.298 32.3911 204.658 32.3503 205.013 32.282C205.92 32.086 204.85 31.666 204.654 31.462L204.64 31.517ZM216.393 32.817C216.206 32.4792 216.038 32.131 215.891 31.774C215.526 31.009 215.891 31.158 215.661 30.718C215.431 30.278 215.282 30.718 214.645 29.735C214.523 29.545 214.272 29.627 214.239 30.095C214.205 30.562 214.984 30.995 215.343 32.127C215.702 33.257 216.02 33.387 215.702 34.077C215.383 34.768 214.001 34.755 214.001 34.755C215.106 35.9 217.348 34.335 216.393 32.851" fill="#D2D6E3"/>
<path d="M241.315 0.747009L227.806 37.92L228.265 38.087L241.773 0.913009L241.315 0.747009ZM0.269989 29.519C0.269989 32.713 2.42599 34.699 5.94399 34.699H9.30999C10.2614 34.6604 11.2111 34.8104 12.1044 35.1402C12.9977 35.4701 13.817 35.9733 14.515 36.621L14.799 36.897L15.082 36.621C15.7731 35.9776 16.5844 35.4768 17.4693 35.1471C18.3541 34.8175 19.2953 34.6656 20.239 34.7H23.611C27.073 34.7 29.221 32.713 29.221 29.519V1.95401H0.269989V29.52V29.519ZM0.875989 2.58601H28.612V29.52C28.612 32.382 26.739 34.093 23.609 34.093H20.237C18.2253 34.0136 16.2611 34.7169 14.757 36.055C13.2468 34.7204 11.281 34.0179 9.26699 34.093H5.90399C2.75799 34.093 0.876989 32.382 0.876989 29.52V2.58601H0.875989Z" fill="#D2D6E3"/>
<path d="M4.97201 19.637C5.10801 19.741 5.25201 19.837 5.40201 19.92C5.53901 20.001 5.54801 20.01 5.48201 20.155L5.42601 20.245C5.20375 20.6328 5.06899 21.0644 5.03116 21.5098C4.99333 21.9551 5.05335 22.4033 5.20701 22.823C5.26401 22.985 5.33701 23.147 5.41701 23.35C5.49901 22.969 5.56401 22.644 5.63701 22.328C5.67186 22.1137 5.74938 21.9085 5.86499 21.7247C5.98059 21.5409 6.13192 21.3822 6.31001 21.258C6.43101 21.173 6.54801 21.081 6.65801 20.983C6.69141 20.9606 6.72691 20.9415 6.76401 20.926C6.8914 21.0769 6.96802 21.2641 6.98301 21.461C7.02612 21.864 6.94703 22.2706 6.75601 22.628C6.61801 22.888 6.48001 23.148 6.36601 23.439C6.23818 23.6988 6.18784 23.9899 6.221 24.2775C6.25416 24.5651 6.36942 24.8371 6.55301 25.061C6.68301 25.231 6.82901 25.377 6.98301 25.555L6.80401 25.774C6.75058 25.8311 6.72085 25.9063 6.72085 25.9845C6.72085 26.0627 6.75058 26.1379 6.80401 26.195C6.85401 26.259 6.90801 26.318 6.96601 26.374C7.05401 26.467 7.12601 26.574 7.17701 26.69C7.30901 26.996 7.34601 27.335 7.28301 27.663C7.25534 27.7261 7.25155 27.7971 7.27234 27.8628C7.29313 27.9284 7.33708 27.9843 7.39601 28.02C7.65601 28.168 7.96001 28.222 8.25601 28.174C8.38601 28.174 8.40101 28.125 8.37701 27.979C8.3573 27.8023 8.28989 27.6343 8.18201 27.493L7.76101 26.941C7.6556 26.7953 7.59421 26.6224 7.5841 26.4428C7.574 26.2633 7.61561 26.0846 7.70401 25.928C8.11499 26.1292 8.55558 26.2633 9.00901 26.325C9.01316 26.3656 9.01316 26.4064 9.00901 26.447C8.97901 26.717 8.97901 26.988 9.00901 27.257C9.03165 27.4658 9.10982 27.6646 9.23539 27.8329C9.36096 28.0013 9.52934 28.1328 9.72301 28.214C10.1273 28.329 10.5605 28.2824 10.931 28.084C11.1376 27.9843 11.3054 27.8189 11.408 27.6137C11.5106 27.4085 11.5423 27.1751 11.498 26.95C11.4663 26.7856 11.4259 26.6231 11.377 26.463C11.474 26.333 11.62 26.366 11.766 26.349C11.8321 26.3402 11.8991 26.3549 11.9554 26.3906C12.0117 26.4262 12.0537 26.4805 12.074 26.544C12.139 26.706 12.196 26.86 12.268 27.014C12.2884 27.0471 12.2991 27.0852 12.2991 27.124C12.2991 27.1628 12.2884 27.2009 12.268 27.234C12.147 27.452 12.05 27.687 11.928 27.906C11.8966 27.9591 11.885 28.0217 11.8955 28.0825C11.9059 28.1433 11.9377 28.1984 11.985 28.238C12.058 28.303 12.139 28.344 12.204 28.408C12.268 28.474 12.317 28.62 12.155 28.652C12.0166 28.6844 11.8725 28.6844 11.734 28.652C11.6296 28.6183 11.5162 28.6267 11.4178 28.6752C11.3194 28.7237 11.2438 28.8087 11.207 28.912C11.193 28.9494 11.1703 28.9828 11.1407 29.0096C11.1111 29.0364 11.0756 29.0558 11.037 29.066C10.9378 29.0869 10.8465 29.1352 10.7733 29.2054C10.7001 29.2755 10.6481 29.3648 10.623 29.463V29.593L10.85 29.487C11.3 29.323 11.79 29.303 12.252 29.43C12.736 29.542 13.197 29.736 13.614 30.006C13.641 30.016 13.669 30.016 13.695 30.006C13.7296 29.911 13.7281 29.8066 13.6909 29.7126C13.6537 29.6186 13.5833 29.5415 13.493 29.496C13.435 29.4653 13.3752 29.4379 13.314 29.414C13.023 29.317 12.723 29.236 12.431 29.147C12.35 29.147 12.261 29.147 12.244 28.977C12.418 28.936 12.598 28.936 12.771 28.977C13.217 29.074 13.663 29.195 14.109 29.301C14.247 29.301 14.385 29.39 14.53 29.438V29.308C14.5172 29.107 14.462 28.9111 14.368 28.733C14.288 28.603 14.214 28.457 14.133 28.328C14.0868 28.2464 14.0625 28.1542 14.0625 28.0605C14.0625 27.9667 14.0868 27.8746 14.133 27.793C14.505 27.809 14.871 27.883 15.22 28.012C15.584 28.109 15.933 28.238 16.322 28.36V27.906C16.3757 27.8773 16.4329 27.8555 16.492 27.841C16.687 27.768 16.687 27.768 16.842 27.939C17.236 28.379 17.752 28.695 18.325 28.847C18.4575 28.8839 18.5975 28.8839 18.73 28.847C18.64 28.774 18.568 28.725 18.511 28.668C18.454 28.612 18.365 28.547 18.373 28.449C18.381 28.352 18.373 28.449 18.43 28.449L19.079 28.652C19.257 28.701 19.306 28.652 19.379 28.506C19.451 28.34 19.479 28.159 19.459 27.979C19.4549 27.9224 19.4549 27.8656 19.459 27.809C19.5962 27.8326 19.725 27.8911 19.833 27.979C20.125 28.149 20.125 28.149 20.384 27.914C20.409 27.8853 20.436 27.8586 20.465 27.834C20.925 27.317 21.238 26.687 21.373 26.009C21.393 25.909 21.423 25.811 21.463 25.717C21.624 25.717 21.77 25.79 21.883 25.717C21.883 25.587 21.681 25.571 21.722 25.417C21.94 25.434 22.16 25.397 22.362 25.312C22.3365 25.283 22.3064 25.2584 22.273 25.239C21.9856 25.0858 21.7467 24.8555 21.583 24.574L21.057 23.609C20.919 23.358 20.83 23.342 20.611 23.488H20.53C20.433 23.326 20.32 23.139 20.214 22.953C20.1458 22.828 20.1068 22.6892 20.1 22.547C20.0955 22.4326 20.0561 22.3223 19.987 22.231C19.914 22.126 19.849 22.126 19.727 22.231L19.581 22.321C19.581 22.158 19.581 22.021 19.525 21.858H19.257C19.2143 21.8629 19.1711 21.8557 19.1324 21.8371C19.0936 21.8185 19.0609 21.7894 19.038 21.753C18.958 21.615 18.868 21.485 18.795 21.347C18.722 21.209 18.795 21.177 18.892 21.153H18.982C19.7302 21.1548 20.4676 20.9739 21.13 20.626C21.409 20.414 21.714 20.24 22.038 20.106C22.0987 20.0805 22.1655 20.0731 22.2303 20.0848C22.2951 20.0966 22.3551 20.1268 22.403 20.172L23.051 20.861C23.103 20.9167 23.1411 20.9838 23.1623 21.0569C23.1835 21.1301 23.1872 21.2072 23.173 21.282C23.1647 21.342 23.1715 21.4032 23.1928 21.46C23.2141 21.5167 23.2492 21.5673 23.295 21.607C23.391 21.723 23.48 21.845 23.562 21.972C23.6095 22.0442 23.6387 22.1269 23.6473 22.213C23.6558 22.299 23.6434 22.3858 23.611 22.466C23.571 22.58 23.546 22.685 23.497 22.79C23.4778 22.8214 23.4652 22.8563 23.4597 22.8926C23.4543 22.929 23.4562 22.9661 23.4653 23.0017C23.4744 23.0373 23.4906 23.0707 23.5129 23.1C23.5352 23.1292 23.5631 23.1537 23.595 23.172C23.771 23.305 23.958 23.425 24.154 23.528C24.3 23.609 24.381 23.528 24.405 23.39C24.4468 23.1113 24.3955 22.8266 24.259 22.58C24.0668 22.2651 23.9657 21.903 23.967 21.534C23.958 21.1935 23.8154 20.8702 23.57 20.634C23.3895 20.4302 23.2243 20.2133 23.076 19.985C22.9809 19.8318 22.8967 19.6721 22.824 19.507C22.678 19.264 22.508 19.061 22.184 19.093C22.0328 19.1012 21.8812 19.1012 21.73 19.093H21.608V19.053C21.86 18.948 22.078 18.777 22.241 18.558C22.459 18.315 22.678 18.08 22.905 17.853C23.132 17.626 23.051 17.731 23.173 17.853C23.212 17.884 23.247 17.919 23.278 17.958C23.448 18.145 23.618 18.331 23.798 18.51C23.8543 18.5546 23.898 18.6131 23.9248 18.6797C23.9516 18.7464 23.9607 18.8188 23.951 18.89C23.9388 18.9621 23.9549 19.0361 23.9958 19.0966C24.0368 19.1571 24.0996 19.1995 24.171 19.215C24.231 19.239 24.281 19.282 24.316 19.337C24.3594 19.3839 24.3923 19.4394 24.4127 19.4999C24.4331 19.5604 24.4404 19.6245 24.4343 19.6881C24.4281 19.7516 24.4086 19.8131 24.3771 19.8686C24.3455 19.9241 24.3025 19.9723 24.251 20.01L24.194 20.074C24.1361 20.1279 24.0988 20.2004 24.0886 20.2789C24.0783 20.3574 24.0958 20.437 24.138 20.504C24.1853 20.6092 24.2535 20.7037 24.3384 20.7817C24.4233 20.8598 24.5232 20.9197 24.632 20.958C24.819 21.023 24.916 20.958 24.932 20.788C24.961 20.627 24.961 20.462 24.932 20.302C24.8273 19.9357 24.7864 19.5542 24.811 19.174C24.8214 19.07 24.8069 18.9651 24.7686 18.8679C24.7304 18.7707 24.6695 18.684 24.591 18.615C24.3552 18.3694 24.1254 18.118 23.902 17.861C23.6635 17.6222 23.4906 17.326 23.4 17.001C23.3846 16.945 23.3628 16.891 23.335 16.84C23.3128 16.7779 23.2689 16.7259 23.2114 16.6936C23.1539 16.6612 23.0866 16.6507 23.022 16.664C22.9793 16.6725 22.9392 16.691 22.905 16.718C22.776 16.805 22.659 16.908 22.557 17.026C22.395 17.2292 22.1864 17.3904 21.949 17.496C21.9243 17.5141 21.8955 17.5259 21.8652 17.5303C21.8349 17.5347 21.8039 17.5316 21.7751 17.5212C21.7462 17.5109 21.7204 17.4936 21.6998 17.4708C21.6792 17.4481 21.6645 17.4207 21.657 17.391C21.6206 17.3113 21.596 17.2268 21.584 17.14C21.5154 16.7318 21.3512 16.3457 21.105 16.013C21 15.867 20.878 15.737 20.773 15.591C20.5579 15.3488 20.3803 15.0758 20.246 14.781C20.036 14.172 19.808 13.581 19.598 12.972C19.5478 12.8455 19.5071 12.7155 19.476 12.583H19.857C20.125 12.6 20.382 12.69 20.603 12.843C20.708 12.923 20.806 13.021 20.919 13.094C21.004 13.154 21.101 13.196 21.203 13.216C21.2345 13.2205 21.2667 13.2169 21.2965 13.2056C21.3262 13.1942 21.3526 13.1754 21.373 13.151C21.373 13.151 21.373 13.053 21.324 13.005C21.3229 12.9807 21.3229 12.9563 21.324 12.932C21.3902 12.9468 21.4516 12.9778 21.503 13.022C21.5329 13.0579 21.5739 13.0828 21.6196 13.0927C21.6652 13.1027 21.7129 13.0972 21.755 13.077C21.7828 13.0638 21.8074 13.0447 21.827 13.021C21.8718 12.9505 21.897 12.8694 21.9 12.786V12.381C21.9006 12.3152 21.8816 12.2506 21.8455 12.1956C21.8094 12.1406 21.7577 12.0976 21.697 12.072C21.6088 12.0237 21.5315 11.9576 21.47 11.878C21.195 11.505 20.935 11.116 20.66 10.735C20.6061 10.6655 20.5672 10.5854 20.546 10.5C20.5184 10.3377 20.442 10.1877 20.327 10.07V9.97999H20.562C20.5004 9.82888 20.4272 9.68277 20.343 9.54299C20.2772 9.44237 20.1808 9.36558 20.068 9.324C19.9292 9.29144 19.7848 9.29144 19.646 9.324C19.5266 9.35399 19.4012 9.35024 19.2838 9.31316C19.1664 9.27608 19.0615 9.20713 18.981 9.114C18.8679 9.01634 18.7461 8.92931 18.617 8.85399C18.5769 8.84432 18.5351 8.84432 18.495 8.85399V9.114L17.757 9.02399C17.757 9.21899 17.944 9.27599 17.977 9.43799C17.9149 9.44575 17.8521 9.44575 17.79 9.43799C17.4822 9.43102 17.1747 9.4609 16.874 9.527C16.874 9.527 16.768 9.52699 16.72 9.47799C16.6514 9.4262 16.5716 9.39117 16.4871 9.37572C16.4025 9.36027 16.3155 9.36481 16.233 9.38899C15.9686 9.45632 15.7167 9.56572 15.487 9.713C15.4291 9.75082 15.3666 9.78107 15.301 9.803C15.284 9.67924 15.284 9.55375 15.301 9.43C15.4469 8.97371 15.4469 8.48328 15.301 8.027C15.244 7.832 15.147 7.64599 15.074 7.43499C15.0903 7.41141 15.1091 7.38962 15.13 7.36999C15.218 7.29479 15.2889 7.20162 15.3378 7.09675C15.3868 6.99188 15.4128 6.87774 15.414 6.76199C15.4118 6.63319 15.3756 6.50727 15.309 6.39699C15.26 6.29999 15.139 6.39699 15.049 6.39699C14.9506 6.38782 14.8547 6.36071 14.766 6.31699C14.6532 6.24562 14.5225 6.20773 14.389 6.20773C14.2555 6.20773 14.1248 6.24562 14.012 6.31699C13.694 6.48399 13.352 6.60199 12.998 6.66499C12.7333 6.74058 12.4527 6.74058 12.188 6.66499C12.123 6.66499 12.05 6.66499 11.952 6.60799C12.0393 6.89833 12.2333 7.14485 12.495 7.29799C12.423 7.43499 12.277 7.29799 12.204 7.38599C12.131 7.47599 12.204 7.38599 12.204 7.43599C12.3119 7.53691 12.4397 7.61421 12.5792 7.66294C12.7186 7.71167 12.8667 7.73076 13.014 7.71899C13.0807 7.70248 13.1504 7.70248 13.217 7.71899C13.2987 7.75524 13.3871 7.77396 13.4765 7.77396C13.5659 7.77396 13.6543 7.75524 13.736 7.71899C13.801 7.71899 13.858 7.66199 13.906 7.71899V7.77599C13.7702 7.88832 13.6633 8.03157 13.5942 8.19372C13.5251 8.35588 13.4959 8.53223 13.509 8.70799C13.5159 8.90331 13.4768 9.0975 13.395 9.27499C13.395 9.34799 13.395 9.42999 13.331 9.50199C13.3148 9.55577 13.293 9.60772 13.266 9.65699C13.12 9.65699 12.974 9.56699 12.836 9.55099C12.7402 9.52661 12.6398 9.52661 12.544 9.55099C12.4966 9.5804 12.4418 9.59597 12.386 9.59597C12.3302 9.59597 12.2755 9.5804 12.228 9.55099C12.1234 9.47817 11.999 9.43913 11.8715 9.43913C11.744 9.43913 11.6196 9.47817 11.515 9.55099C11.36 9.64099 11.215 9.746 11.06 9.843C10.906 9.94 10.842 10.013 10.728 10.078C10.615 10.143 10.558 10.135 10.509 10.021C10.461 9.90799 10.323 9.59099 10.225 9.37299C10.128 9.15299 10.08 8.99199 9.82001 8.99999C9.70701 8.99999 9.67401 8.93499 9.67401 8.82999V8.66699C9.56106 8.559 9.48719 8.41654 9.46401 8.26199C9.46401 8.18099 9.39901 8.13199 9.32601 8.16499C9.25301 8.19699 9.32601 8.33499 9.32601 8.36699C9.32601 8.39999 9.40601 8.59399 9.45601 8.70799C9.55301 8.70799 9.56901 8.81299 9.50401 8.86999C9.42617 8.95354 9.33575 9.0244 9.23601 9.07999C9.17897 9.10333 9.11505 9.10333 9.05801 9.07999C8.93601 8.95099 8.75801 8.83799 8.88001 8.60299C8.86789 8.55965 8.86516 8.51421 8.87202 8.46972C8.87888 8.42524 8.89516 8.38273 8.91978 8.34505C8.94439 8.30737 8.97678 8.27538 9.01476 8.25122C9.05274 8.22707 9.09545 8.21131 9.14001 8.20499L8.94501 7.95399C8.67701 7.59699 8.42501 7.23199 8.13401 6.86799C8.07612 6.79808 8.00762 6.73768 7.93101 6.68899C7.89199 6.65733 7.84327 6.64004 7.79301 6.64004C7.74276 6.64004 7.69403 6.65733 7.65501 6.68899C7.62303 6.72475 7.60536 6.77103 7.60536 6.81899C7.60536 6.86696 7.62303 6.91324 7.65501 6.94899C7.69101 7.01099 7.73201 7.07099 7.77701 7.12699C8.06901 7.54899 8.36101 7.97799 8.66901 8.39999C8.66901 8.46499 8.75901 8.52999 8.71801 8.60999C8.67701 8.69199 8.71801 8.81299 8.71801 8.90299C8.71801 8.99199 8.87201 9.08099 8.93601 9.16999C9.01086 9.25606 9.0637 9.35901 9.09001 9.47C9.14301 9.686 9.23001 9.89099 9.35001 10.078C9.41501 10.184 9.47201 10.288 9.52801 10.402C9.58091 10.4804 9.60208 10.5759 9.58723 10.6693C9.57237 10.7627 9.52261 10.8469 9.44801 10.905C9.34724 10.988 9.25204 11.0775 9.16301 11.173C9.05021 11.3172 8.94731 11.4689 8.85501 11.627C8.81443 11.6774 8.79231 11.7402 8.79231 11.805C8.79231 11.8697 8.81443 11.9325 8.85501 11.983C8.99501 11.956 9.13301 11.921 9.26901 11.878C9.31647 11.8579 9.36874 11.8519 9.41951 11.8608C9.47028 11.8697 9.51739 11.8932 9.55514 11.9283C9.59289 11.9634 9.61967 12.0087 9.63225 12.0586C9.64482 12.1086 9.64266 12.1612 9.62601 12.21C9.61819 12.2823 9.58941 12.3507 9.54321 12.4068C9.49702 12.463 9.43543 12.5044 9.36601 12.526C9.29201 12.546 9.21801 12.57 9.14701 12.6C8.88001 12.697 8.62001 12.786 8.33701 12.891C8.25512 12.9294 8.18282 12.9855 8.12538 13.0553C8.06793 13.1252 8.02679 13.207 8.00495 13.2947C7.9831 13.3825 7.98111 13.474 7.99911 13.5626C8.01712 13.6512 8.05466 13.7347 8.10901 13.807C8.28801 14.027 8.25501 14.148 8.02901 14.334C7.92301 14.416 7.81801 14.48 7.71201 14.554C7.65033 14.591 7.60069 14.645 7.5691 14.7096C7.53751 14.7742 7.52532 14.8466 7.53401 14.918C7.53877 14.961 7.53234 15.0045 7.51535 15.0442C7.49835 15.084 7.47137 15.1187 7.43701 15.145C7.30401 15.265 7.20601 15.42 7.15301 15.591C7.12902 15.627 7.11622 15.6692 7.11622 15.7125C7.11622 15.7557 7.12902 15.798 7.15301 15.834C7.22601 15.899 7.29101 15.834 7.35601 15.834C7.50501 15.766 7.65901 15.709 7.81801 15.664C8.20201 15.571 8.59801 15.53 8.99301 15.543C9.31801 15.535 9.63701 15.626 9.90901 15.802C10.112 15.956 10.307 16.126 10.501 16.296C10.58 16.371 10.667 16.436 10.761 16.491C10.866 16.54 11.011 16.491 11.101 16.581C11.191 16.669 11.231 16.783 11.296 16.881C11.3324 16.9157 11.3566 16.9611 11.3653 17.0106C11.3739 17.0601 11.3665 17.111 11.344 17.156C11.344 17.253 11.231 17.245 11.158 17.253C10.7344 17.2951 10.316 17.3792 9.90901 17.504C9.88053 17.5238 9.84669 17.5344 9.81201 17.5344C9.77734 17.5344 9.74349 17.5238 9.71501 17.504L9.38201 17.261C8.95292 16.9435 8.44611 16.7476 7.91501 16.694C7.72497 16.6791 7.5339 16.7037 7.35386 16.7664C7.17383 16.829 7.00873 16.9283 6.86901 17.058C6.52801 17.387 6.25201 17.778 6.05901 18.21C5.95458 18.4142 5.88047 18.6325 5.83901 18.858C5.79101 19.093 5.72601 19.32 5.66101 19.548C5.59601 19.775 5.57101 19.702 5.47501 19.637C5.21833 19.5067 4.99389 19.3209 4.81801 19.093C4.61501 18.769 4.60801 18.607 4.92301 18.283C4.97987 18.2408 5.04296 18.2077 5.11001 18.185C5.16701 18.323 5.11001 18.453 5.22301 18.55C5.30801 18.636 5.38101 18.73 5.44301 18.834C5.50883 18.7863 5.56138 18.7226 5.59571 18.6489C5.63004 18.5752 5.64501 18.494 5.63921 18.4129C5.6334 18.3318 5.60701 18.2535 5.56253 18.1855C5.51805 18.1174 5.45695 18.0618 5.38501 18.024C5.32389 18.0093 5.26014 18.0093 5.19901 18.024C5.03395 18.0149 4.87112 18.0654 4.74023 18.1664C4.60934 18.2674 4.51911 18.412 4.48601 18.574C4.40346 18.7916 4.39352 19.03 4.45769 19.2537C4.52185 19.4774 4.65668 19.6743 4.84201 19.815L4.97201 19.637ZM8.66901 8.1L7.85901 6.89999C7.80101 6.82699 7.71201 6.72999 7.80101 6.65699C7.89101 6.58399 7.94701 6.72999 7.98801 6.79499L8.79801 7.91299C8.84601 7.98299 8.88601 8.05599 8.92001 8.133C8.79001 8.197 8.73401 8.133 8.69301 8.133L8.67001 8.1H8.66901ZM7.29901 24.97C7.13602 24.7595 6.99715 24.5314 6.88501 24.29L7.03901 24.419L7.26601 24.662C7.38001 24.792 7.38801 24.784 7.26601 25.002L7.29901 24.97ZM7.78501 27.5L7.60701 27.556C7.55801 27.67 7.60701 27.726 7.68001 27.8C7.68866 27.8483 7.68866 27.8977 7.68001 27.946C7.62897 27.9538 7.57705 27.9538 7.52601 27.946C7.48906 27.9298 7.45596 27.906 7.42894 27.8761C7.40191 27.8461 7.38157 27.8108 7.36927 27.7724C7.35698 27.734 7.353 27.6934 7.35761 27.6533C7.36222 27.6132 7.37531 27.5746 7.39601 27.54C7.44054 27.4283 7.44054 27.3037 7.39601 27.192C7.33401 27.0383 7.33401 26.8666 7.39601 26.713C7.58501 26.948 7.71101 27.227 7.76101 27.524L7.78501 27.5ZM7.45301 24.5C7.36602 24.4677 7.28655 24.4179 7.21949 24.3538C7.15242 24.2896 7.09917 24.2125 7.06301 24.127C7.05679 24.0557 7.07437 23.9843 7.11301 23.924C7.21001 23.697 7.33101 23.479 7.42001 23.244C7.63901 22.662 7.71101 22.035 7.63101 21.419C7.56984 21.0687 7.40629 20.7444 7.16101 20.487C7.12774 20.4608 7.10356 20.4247 7.09189 20.384C7.08022 20.3432 7.08167 20.2999 7.09601 20.26C7.22601 19.838 7.33901 19.45 7.46901 19.003C7.54042 18.7521 7.67706 18.5245 7.86502 18.3436C8.05298 18.1627 8.28554 18.0348 8.53901 17.973C8.77101 17.893 9.01801 17.868 9.26101 17.901C9.30958 17.8966 9.35844 17.8966 9.40701 17.901C9.38301 17.954 9.35601 18.005 9.32601 18.055C9.01001 18.506 8.81501 19.031 8.75801 19.579C8.69301 20.046 8.66801 20.519 8.68501 20.989V21.549C8.71358 21.7831 8.71358 22.0199 8.68501 22.254C8.67017 22.3826 8.62872 22.5067 8.5633 22.6185C8.49788 22.7302 8.40992 22.8271 8.30501 22.903C8.1788 23.0016 8.0458 23.0911 7.90701 23.171C7.83983 23.213 7.78206 23.2684 7.73731 23.3338C7.69257 23.3992 7.66183 23.4732 7.64701 23.551C7.59101 23.843 7.51701 24.127 7.44501 24.46L7.45301 24.5ZM8.83901 25.903C8.49874 25.817 8.17341 25.6801 7.87401 25.497C7.75301 25.424 7.75301 25.384 7.87401 25.197L9.15501 25.627C9.15501 25.83 9.01801 25.943 8.84701 25.903H8.84001H8.83901ZM14.733 20.722L15.317 21.444C15.397 21.543 15.467 21.648 15.527 21.76C15.527 21.816 15.577 21.906 15.527 21.938C15.5049 21.963 15.4774 21.9825 15.4465 21.9952C15.4156 22.0078 15.3823 22.0133 15.349 22.011C15.1856 22.002 15.0267 21.9539 14.8858 21.8707C14.7448 21.7875 14.6259 21.6717 14.539 21.533C14.474 21.411 14.409 21.338 14.255 21.379C14.2151 21.3902 14.1729 21.3902 14.133 21.379L13.858 21.144C13.8391 21.1258 13.826 21.1023 13.8207 21.0766C13.8153 21.0509 13.8179 21.0242 13.828 21C13.9091 20.8876 13.9788 20.7673 14.036 20.641C14.159 20.379 14.262 20.108 14.344 19.831C14.466 19.376 14.554 18.914 14.66 18.428L15.39 18.225C15.396 18.309 15.396 18.393 15.39 18.476C15.236 18.963 15.066 19.441 14.903 19.919C14.839 20.098 14.782 20.284 14.717 20.471C14.6934 20.5086 14.6809 20.5521 14.6809 20.5965C14.6809 20.6409 14.6934 20.6844 14.717 20.722H14.733ZM15.438 20.098C15.576 19.652 15.714 19.206 15.852 18.728L15.99 18.841C16.136 18.995 16.29 19.165 16.436 19.336C16.4971 19.4268 16.5234 19.5365 16.5099 19.6451C16.4965 19.7537 16.4444 19.8538 16.363 19.927C16.07 20.05 15.755 20.107 15.438 20.097V20.098ZM13.72 20.333C13.355 20.398 12.99 20.479 12.625 20.56C12.26 20.641 12.155 20.609 12.106 20.195C12.106 20.057 12.106 19.919 12.05 19.79C12.123 19.311 12.187 18.825 12.268 18.347C12.293 18.197 12.326 18.047 12.366 17.901C12.406 17.763 12.439 17.747 12.585 17.763L14.141 17.966C14.1886 17.977 14.2349 17.9931 14.279 18.014C14.3164 18.0251 14.3485 18.0493 14.3694 18.0822C14.3903 18.1151 14.3987 18.1544 14.393 18.193C14.3167 18.8185 14.2001 19.4385 14.044 20.049C14.0321 20.1248 13.9954 20.1946 13.9397 20.2474C13.884 20.3002 13.8124 20.3331 13.736 20.341L13.72 20.333ZM14.782 17.673C14.2439 17.5476 13.7196 17.3687 13.217 17.139C13.127 17.139 13.007 17.057 13.014 16.944C13.023 16.83 13.16 16.79 13.25 16.79C13.4764 16.7736 13.7036 16.7736 13.93 16.79C13.982 16.796 14.03 16.819 14.068 16.855C14.383 17.077 14.657 17.351 14.879 17.665H14.782V17.674V17.673ZM13.428 16.044C13.16 16.182 12.909 16.32 12.618 16.441C12.478 16.507 12.331 16.556 12.179 16.587C12.0883 16.6039 11.9947 16.5964 11.9078 16.5651C11.821 16.5338 11.7441 16.4799 11.685 16.409C11.595 16.319 11.595 16.239 11.685 16.166C11.7803 16.074 11.8966 16.0066 12.0238 15.9698C12.151 15.9331 12.2854 15.928 12.415 15.955C12.5293 15.9947 12.6514 16.0066 12.7712 15.9897C12.891 15.9729 13.0051 15.9277 13.104 15.858L13.217 15.785C13.436 15.639 13.468 15.647 13.598 15.923C13.534 15.9692 13.4661 16.0097 13.395 16.044H13.428ZM12.171 22.774C12.341 22.554 12.455 22.53 12.698 22.684L12.779 22.749V22.806C12.504 23.162 12.058 23.3 11.733 23.616C11.636 23.446 11.644 23.373 11.733 23.252L12.131 22.773H12.171V22.774ZM11.523 23.211C11.425 23.341 11.303 23.438 11.207 23.56C11.146 23.6144 11.0997 23.6833 11.0724 23.7603C11.045 23.8372 11.0374 23.9199 11.0504 24.0006C11.0633 24.0812 11.0964 24.1574 11.1465 24.2219C11.1965 24.2865 11.2621 24.3374 11.337 24.37C11.4911 24.4499 11.6116 24.5822 11.677 24.743C11.6895 24.7909 11.6895 24.8411 11.677 24.889H10.971C10.484 24.8665 10.0022 24.9969 9.59301 25.262C9.53996 25.2952 9.47717 25.3093 9.41501 25.302C9.05162 25.2632 8.69771 25.1617 8.36901 25.002L8.01201 24.832C8.05801 24.565 8.18601 24.319 8.37701 24.127C8.64398 23.8795 8.98113 23.7209 9.34201 23.673C9.56152 23.6346 9.77614 23.5723 9.98201 23.487C10.5104 23.3086 11.0206 23.0806 11.506 22.806C11.5327 22.7977 11.5613 22.7977 11.588 22.806H11.652C11.709 22.984 11.596 23.114 11.498 23.243L11.523 23.211ZM10.59 27.297C10.4896 27.336 10.3788 27.3387 10.2765 27.3048C10.1743 27.2708 10.0871 27.2023 10.03 27.111C10.0184 27.0856 10.0124 27.0579 10.0124 27.03C10.0124 27.002 10.0184 26.9744 10.03 26.949C10.09 26.861 10.161 26.782 10.242 26.713C10.399 26.593 10.582 26.513 10.777 26.478C10.8188 26.5444 10.8466 26.6187 10.8586 26.6963C10.8707 26.7739 10.8667 26.8531 10.8469 26.9291C10.8271 27.0051 10.792 27.0762 10.7437 27.1381C10.6954 27.2 10.6349 27.2514 10.566 27.289L10.59 27.297ZM14.004 28.789C13.837 28.8396 13.6614 28.8549 13.4882 28.8339C13.315 28.8129 13.148 28.756 12.998 28.667C12.8338 28.5817 12.6914 28.4598 12.5818 28.3106C12.4722 28.1615 12.3984 27.9892 12.366 27.807C12.624 27.817 12.876 27.891 13.096 28.027C13.331 28.197 13.541 28.384 13.768 28.562C13.851 28.633 13.929 28.709 14.004 28.789ZM15.625 27.386H15.479C15.2333 27.3045 14.9759 27.2636 14.717 27.265H13.703C13.4293 27.2819 13.1548 27.2487 12.893 27.167C12.6543 27.083 12.4493 26.9237 12.309 26.713C12.2438 26.6085 12.2052 26.4895 12.1967 26.3666C12.1881 26.2437 12.2099 26.1205 12.26 26.008C12.325 25.813 12.31 25.748 12.106 25.7C11.9034 25.6536 11.6974 25.6235 11.49 25.61C11.1181 25.5732 10.7425 25.6009 10.38 25.692C10.0543 25.782 9.76855 25.9793 9.56901 26.252C9.42247 26.4673 9.33294 26.7163 9.3088 26.9757C9.28467 27.2351 9.32672 27.4963 9.43101 27.735V27.865C9.38201 27.808 9.31701 27.775 9.26901 27.719C9.14034 27.544 9.05306 27.3422 9.01373 27.1286C8.97441 26.915 8.98408 26.6953 9.04201 26.486C9.09201 26.28 9.17401 26.083 9.28501 25.903C9.50501 25.57 9.84001 25.331 10.225 25.23C10.633 25.06 11.082 25.018 11.515 25.108C11.725 25.108 11.936 25.198 12.147 25.23C12.495 25.286 12.851 25.27 13.193 25.181H13.29C13.3893 25.1393 13.5002 25.1343 13.6028 25.1669C13.7054 25.1995 13.7931 25.2676 13.85 25.359C14.045 25.562 14.25 25.754 14.466 25.935L14.579 26.04V26.09H14.328C14.344 26.133 14.363 26.177 14.385 26.219C14.615 26.554 14.939 26.814 15.317 26.965L15.503 27.054C15.714 27.151 15.714 27.167 15.673 27.419L15.625 27.386ZM17.935 26.876C17.757 27.223 17.495 27.521 17.174 27.743H17.068L17.449 26.933C17.3347 27.0107 17.2155 27.0808 17.092 27.143C16.9639 27.2055 16.8275 27.2493 16.687 27.273C16.874 26.993 17.001 26.679 17.06 26.348C16.893 26.4405 16.7162 26.5142 16.533 26.568C16.249 26.612 15.961 26.637 15.673 26.64C15.6784 26.6245 15.6784 26.6075 15.673 26.592C15.673 26.592 15.747 26.511 15.795 26.494C15.99 26.397 16.192 26.308 16.403 26.219L16.557 26.129L16.071 26.073C15.9248 26.0642 15.7804 26.037 15.641 25.992C15.829 25.918 16.013 25.834 16.192 25.74C16.374 25.629 16.547 25.504 16.712 25.368H16.565C15.9988 25.4158 15.4288 25.3523 14.887 25.181C14.8054 25.153 14.7288 25.1121 14.66 25.06C15.215 25.0748 15.767 24.9754 16.282 24.768C16.0092 24.7798 15.7361 24.7525 15.471 24.687C15.1982 24.6063 14.9281 24.5169 14.661 24.419V24.37C14.709 24.3621 14.758 24.3621 14.806 24.37C15.287 24.4 15.77 24.348 16.233 24.216C16.46 24.16 16.695 24.111 16.923 24.03C17.384 23.876 17.579 24.297 17.538 24.597C17.498 24.897 17.465 25.181 17.425 25.473C17.4107 25.5545 17.4226 25.6384 17.4591 25.7126C17.4956 25.7869 17.5547 25.8476 17.628 25.886C17.806 25.999 17.942 26.167 18.017 26.365C18.0647 26.4578 18.0895 26.5607 18.0895 26.665C18.0895 26.7693 18.0647 26.8722 18.017 26.965L17.936 26.875L17.935 26.876ZM17.903 24.443C17.952 24.249 18 24.046 18.041 23.843C18.0991 23.8354 18.1582 23.8472 18.2088 23.8767C18.2595 23.9062 18.2989 23.9517 18.321 24.006C18.3358 24.0418 18.3426 24.0803 18.341 24.119C18.3574 24.2156 18.3574 24.3144 18.341 24.411C18.2568 24.6396 18.162 24.8642 18.057 25.084C18.057 25.132 17.992 25.164 17.936 25.23C17.8673 24.964 17.8673 24.685 17.936 24.419L17.903 24.443ZM20.546 26.535C20.338 26.9504 19.9782 27.2698 19.541 27.427C19.4295 27.4282 19.3182 27.4202 19.208 27.403C19.128 27.67 19.046 27.929 18.958 28.213C18.7429 28.1628 18.5461 28.0533 18.39 27.897C18.3595 27.8676 18.3352 27.8323 18.3186 27.7933C18.302 27.7543 18.2934 27.7124 18.2934 27.67C18.2934 27.6276 18.302 27.5856 18.3186 27.5466C18.3352 27.5076 18.3595 27.4724 18.39 27.443C18.55 27.28 18.726 27.133 18.916 27.005C19.33 26.778 19.727 26.584 20.181 26.373L20.538 26.195C20.603 26.284 20.538 26.34 20.538 26.405L20.546 26.535ZM20.019 22.733C20.229 23.041 20.279 23.406 20.489 23.713L20.7 23.576C20.7285 23.5494 20.766 23.5346 20.805 23.5346C20.844 23.5346 20.8815 23.5494 20.91 23.576C20.9221 23.5866 20.9318 23.5997 20.9385 23.6143C20.9451 23.629 20.9486 23.6449 20.9486 23.661C20.9486 23.6771 20.9451 23.693 20.9385 23.7077C20.9318 23.7223 20.9221 23.7354 20.91 23.746C20.781 23.941 20.862 24.111 21.114 24.127C21.1619 24.1265 21.2088 24.1411 21.2479 24.1688C21.287 24.1964 21.3165 24.2357 21.332 24.281C21.405 24.492 21.487 24.703 21.576 24.93L21.422 24.995V25.295C21.422 25.392 21.284 25.295 21.235 25.295C21.049 25.116 20.855 24.938 20.684 24.751C20.514 24.565 20.489 24.508 20.376 24.371C20.376 24.321 20.441 24.297 20.456 24.265C20.578 24.095 20.546 23.981 20.343 23.892C20.2865 23.8696 20.2359 23.8345 20.1952 23.7894C20.1544 23.7443 20.1246 23.6905 20.108 23.632C20.108 23.462 19.995 23.308 19.946 23.146C19.9051 23.0894 19.8831 23.0213 19.8831 22.9515C19.8831 22.8817 19.9051 22.8136 19.946 22.757L20.019 22.733ZM19.444 23.163C19.5086 23.1979 19.5614 23.251 19.5959 23.3157C19.6304 23.3805 19.6451 23.454 19.638 23.527L19.492 23.447C19.4447 23.4097 19.3862 23.3894 19.326 23.3894C19.2658 23.3894 19.2073 23.4097 19.16 23.447C19.1418 23.4514 19.125 23.4606 19.1115 23.4736C19.098 23.4866 19.0881 23.5029 19.083 23.521C19.0779 23.5392 19.0777 23.5585 19.0827 23.5769C19.0876 23.5952 19.0974 23.6118 19.111 23.625C19.183 23.748 19.261 23.867 19.346 23.981C19.583 24.235 19.753 24.545 19.841 24.881C19.849 25.016 19.849 25.151 19.841 25.286C19.8381 25.373 19.8622 25.4587 19.91 25.5314C19.9578 25.6041 20.027 25.6602 20.108 25.692C20.108 25.692 20.148 25.692 20.198 25.757C20.116 25.862 20.052 25.967 19.962 26.065C19.8633 26.1897 19.7578 26.3089 19.646 26.422C19.55 26.5155 19.4268 26.576 19.2941 26.5949C19.1615 26.6138 19.0263 26.59 18.908 26.527C18.7777 26.4819 18.6655 26.3959 18.588 26.2818C18.5105 26.1678 18.4719 26.0317 18.478 25.894L18.528 25.335C18.576 24.897 18.608 24.451 18.658 24.005C18.6697 23.9355 18.6697 23.8645 18.658 23.795C18.6599 23.7277 18.647 23.6608 18.6203 23.599C18.5936 23.5371 18.5537 23.4819 18.5034 23.4371C18.4531 23.3924 18.3936 23.3591 18.3291 23.3398C18.2646 23.3204 18.1967 23.3153 18.13 23.325C17.8888 23.341 17.6499 23.3815 17.417 23.446C17.263 23.446 17.117 23.536 16.963 23.568C16.8893 23.5922 16.8097 23.5922 16.736 23.568C16.492 23.43 16.257 23.268 16.022 23.122L15.212 22.652H15.155C15.219 22.828 15.265 23.01 15.293 23.195C15.277 23.385 15.239 23.573 15.179 23.755C15.179 23.755 15.228 23.803 15.244 23.835C15.26 23.868 15.334 23.957 15.317 23.965C15.2731 24.0174 15.2135 24.0542 15.147 24.07C14.9908 24.0862 14.8333 24.0862 14.677 24.07C14.287 24.005 13.866 23.916 13.517 23.843C13.331 23.843 13.152 23.787 12.957 23.77C13.295 24.086 13.585 24.45 13.817 24.849H13.76C13.4463 24.8755 13.1379 24.9462 12.844 25.059C12.7987 25.0787 12.7476 25.0805 12.701 25.064C12.6544 25.0475 12.6158 25.0139 12.593 24.97L12.325 24.557C12.2623 24.4546 12.2378 24.3334 12.2557 24.2146C12.2737 24.0959 12.3329 23.9873 12.423 23.908C12.4962 23.8196 12.5802 23.7406 12.673 23.673C12.966 23.446 13.218 23.172 13.42 22.863C13.464 22.79 13.516 22.723 13.574 22.66C13.6146 22.6104 13.6725 22.5782 13.736 22.57C14.2749 22.4773 14.8153 22.3939 15.357 22.32C16.1613 22.1772 16.9454 21.9375 17.692 21.606C17.7287 21.5846 17.7723 21.5785 17.8135 21.589C17.8546 21.5995 17.89 21.6257 17.912 21.662C18.032 21.816 18.154 21.962 18.292 22.108C18.3276 22.1467 18.3473 22.1974 18.3473 22.25C18.3473 22.3026 18.3276 22.3533 18.292 22.392C18.187 22.579 18.195 22.587 18.382 22.676C18.706 22.854 19.046 23.025 19.379 23.186L19.443 23.162L19.444 23.163ZM21.219 18.323C21.2445 18.2218 21.2949 18.1287 21.3657 18.052C21.4364 17.9753 21.5252 17.9176 21.624 17.884C21.851 17.795 22.07 17.674 22.289 17.576C22.509 17.479 22.435 17.511 22.629 17.576C22.5 17.73 22.395 17.884 22.265 18.022C22.1111 18.198 21.9403 18.3584 21.755 18.501C21.6544 18.5694 21.5356 18.6059 21.414 18.606C21.235 18.606 21.162 18.476 21.219 18.314V18.322V18.323ZM16.769 11.885C16.8167 11.4899 16.9558 11.1113 17.1752 10.7793C17.3946 10.4472 17.6883 10.1708 18.033 9.97199C18.113 9.92999 18.198 9.894 18.284 9.86599C18.3503 9.83588 18.4222 9.8203 18.495 9.8203C18.5678 9.8203 18.6397 9.83588 18.706 9.86599C18.779 9.86599 18.868 9.86599 18.949 9.93099C18.9818 9.9467 19.0177 9.95485 19.054 9.95485C19.0904 9.95485 19.1262 9.9467 19.159 9.93099C19.2012 9.89912 19.2526 9.88187 19.3055 9.88187C19.3584 9.88187 19.4098 9.89912 19.452 9.93099C19.598 10.045 19.768 10.142 19.914 10.247C20.001 10.31 20.08 10.383 20.149 10.467C20.254 10.58 20.214 10.677 20.068 10.726H19.857C19.857 10.726 19.808 10.726 19.752 10.799H19.97C20.009 10.8752 20.0581 10.9459 20.116 11.009H20.368C20.413 11.019 20.458 11.035 20.498 11.059C20.529 11.0901 20.5559 11.1251 20.578 11.163C20.771 11.553 21.048 11.893 21.389 12.161L21.454 12.226C21.4503 12.2418 21.4503 12.2582 21.454 12.274C21.454 12.355 21.365 12.347 21.3 12.347C21.1218 12.3326 20.9424 12.3547 20.773 12.412C20.7069 12.4322 20.6362 12.4322 20.57 12.412L19.606 12.104C19.484 12.104 19.346 12.031 19.216 11.982C19.1207 11.9588 19.0324 11.9127 18.9587 11.8478C18.8851 11.7829 18.8284 11.7011 18.7933 11.6095C18.7583 11.5178 18.7461 11.419 18.7577 11.3215C18.7693 11.2241 18.8044 11.1309 18.86 11.05L18.957 10.84V10.8C18.8547 10.8644 18.768 10.9509 18.7035 11.0532C18.639 11.1555 18.5981 11.2709 18.584 11.391C18.568 11.706 18.644 12.019 18.803 12.291C18.963 12.553 19.106 12.823 19.233 13.102C19.403 13.516 19.525 13.953 19.671 14.375C19.709 14.483 19.739 14.595 19.76 14.707C19.8851 15.2427 19.8682 15.8018 19.711 16.329C19.646 16.6035 19.5649 16.874 19.468 17.139C19.378 17.35 19.346 17.35 19.119 17.294C18.892 17.237 18.673 17.172 18.454 17.131C18.2756 17.0708 18.0824 17.0708 17.904 17.131C18.03 17.223 18.178 17.281 18.333 17.301C18.639 17.353 18.936 17.446 19.217 17.577C19.2704 17.5992 19.318 17.6335 19.3558 17.6772C19.3936 17.721 19.4208 17.7729 19.435 17.829C19.467 17.99 19.508 18.149 19.557 18.307C19.568 18.3257 19.5742 18.3468 19.5749 18.3685C19.5756 18.3902 19.5708 18.4117 19.561 18.431C19.5513 18.4501 19.5369 18.4665 19.5193 18.4787C19.5017 18.4909 19.4813 18.4986 19.46 18.501C19.273 18.501 19.079 18.575 18.884 18.591C18.6709 18.6032 18.4572 18.6032 18.244 18.591V18.64C18.2788 18.6765 18.3198 18.7066 18.365 18.729C18.738 18.866 19.111 18.989 19.485 19.118C19.527 19.138 19.565 19.165 19.598 19.198C19.6402 19.252 19.6943 19.2955 19.756 19.3252C19.8178 19.3548 19.8855 19.3698 19.954 19.369C20.385 19.392 20.817 19.37 21.244 19.304C21.549 19.256 21.861 19.256 22.168 19.304C22.2461 19.3158 22.321 19.3436 22.3879 19.3856C22.4548 19.4275 22.5124 19.4828 22.557 19.548C22.605 19.637 22.662 19.726 22.703 19.815C22.7101 19.8302 22.7138 19.8467 22.7138 19.8635C22.7138 19.8803 22.7101 19.8968 22.703 19.912C22.6881 19.9207 22.6712 19.9253 22.654 19.9253C22.6368 19.9253 22.6199 19.9207 22.605 19.912C22.5501 19.8731 22.4986 19.8296 22.451 19.782C22.3798 19.7399 22.2987 19.7178 22.216 19.7178C22.1333 19.7178 22.0522 19.7399 21.981 19.782L20.895 20.252C20.545 20.402 20.163 20.461 19.784 20.423C19.2948 20.3961 18.8105 20.3119 18.341 20.172C17.9681 20.0615 17.6373 19.8408 17.392 19.539C17.052 19.093 16.712 18.648 16.379 18.194C16.2813 18.0698 16.2143 17.9243 16.1833 17.7693C16.1524 17.6143 16.1585 17.4542 16.201 17.302C16.301 16.795 16.375 16.284 16.419 15.77C16.492 15.243 16.582 14.716 16.655 14.197C16.655 13.953 16.655 13.71 16.711 13.467C16.711 12.916 16.776 12.381 16.865 11.845L16.768 11.886L16.769 11.885ZM16.776 11.309C16.833 11.374 16.776 11.447 16.776 11.512C16.3829 12.1417 16.1985 12.8794 16.249 13.62C16.249 13.936 16.289 14.252 16.289 14.569C16.2941 14.775 16.2343 14.9774 16.118 15.1476C16.0017 15.3177 15.8348 15.447 15.641 15.517C15.5205 15.5626 15.3955 15.5951 15.268 15.614C15.188 15.614 15.13 15.614 15.155 15.484C15.182 15.151 15.336 14.841 15.585 14.617C15.6346 14.5807 15.6725 14.5307 15.694 14.4731C15.7155 14.4155 15.7196 14.3529 15.706 14.293C15.706 14.139 15.657 13.969 15.641 13.806C15.621 13.57 15.654 13.331 15.739 13.109C15.803 12.89 15.909 12.688 15.989 12.477C15.9922 12.4501 15.9922 12.4229 15.989 12.396C15.779 12.469 15.641 12.647 15.398 12.688C15.3906 12.6504 15.3906 12.6116 15.398 12.574C15.57 12.212 15.8 11.881 16.079 11.594C16.211 11.474 16.355 11.368 16.509 11.277C16.5227 11.2615 16.5396 11.249 16.5584 11.2405C16.5773 11.232 16.5978 11.2276 16.6185 11.2276C16.6392 11.2276 16.6597 11.232 16.6786 11.2405C16.6975 11.249 16.7143 11.2615 16.728 11.277L16.776 11.309ZM16.266 9.74499H16.33C16.3149 9.77927 16.2962 9.8118 16.274 9.84199C16.114 9.99899 15.987 10.187 15.901 10.393C15.8686 10.4731 15.8155 10.5432 15.747 10.596C15.3435 10.8807 15.0557 11.3009 14.936 11.78C14.814 12.177 14.774 12.59 14.668 13.004C14.618 13.174 14.545 13.334 14.449 13.482C14.3999 13.544 14.3345 13.5912 14.2602 13.6184C14.1859 13.6455 14.1056 13.6516 14.028 13.636C14.108 13.812 14.231 13.966 14.385 14.082C14.533 14.181 14.687 14.27 14.847 14.35C14.749 14.544 14.652 14.763 14.539 14.99L13.639 13.782C13.833 13.498 14.004 13.255 14.174 12.972C14.3874 12.6278 14.5047 12.2328 14.514 11.828C14.526 11.637 14.576 11.449 14.66 11.277C15.0019 10.5823 15.5756 10.0288 16.282 9.71199L16.265 9.74499H16.266ZM14.368 8.78799C14.547 8.78799 14.571 8.78799 14.53 8.99799C14.49 9.20999 14.474 9.185 14.644 9.218L14.693 8.845C15.114 8.77999 15.187 8.845 15.082 9.218C15.0195 9.42358 14.9294 9.61971 14.814 9.80099C14.741 9.93899 14.668 9.93099 14.53 9.80099C14.3387 9.63847 14.2027 9.42036 14.141 9.17699C14.085 9.02299 14.061 8.853 14.004 8.699C13.9851 8.65327 13.9811 8.60275 13.9926 8.55463C14.0041 8.50651 14.0305 8.46324 14.068 8.43099C14.1335 8.36538 14.2113 8.31333 14.2969 8.27781C14.3825 8.2423 14.4743 8.22401 14.567 8.22401C14.6597 8.22401 14.7515 8.2423 14.8371 8.27781C14.9227 8.31333 15.0005 8.36538 15.066 8.43099C15.0067 8.50078 14.9255 8.54844 14.8356 8.56624C14.7457 8.58403 14.6525 8.5709 14.571 8.529C14.4821 8.48733 14.3852 8.46517 14.287 8.46399C14.23 8.46399 14.174 8.521 14.117 8.553C14.1362 8.6026 14.1712 8.64453 14.2165 8.67235C14.2619 8.70017 14.3151 8.71234 14.368 8.70699V8.78799ZM14.782 7.26399C14.85 7.40399 14.909 7.54699 14.96 7.69399C14.96 7.79899 15.017 7.90399 15.05 8.04199H14.571C14.5379 8.04394 14.5049 8.03772 14.4748 8.02387C14.4446 8.01003 14.4184 7.98898 14.3983 7.9626C14.3783 7.93622 14.365 7.90531 14.3597 7.87259C14.3544 7.83987 14.3573 7.80635 14.368 7.77499C14.392 7.59599 14.458 7.42599 14.563 7.27999C14.653 7.15799 14.717 7.14999 14.782 7.27999V7.26399ZM12.779 7.32899V7.27999L13.517 6.95599C13.4494 7.08263 13.3453 7.18596 13.2181 7.2525C13.0909 7.31904 12.9466 7.3457 12.804 7.32899H12.779ZM13.728 6.66399C13.508 6.80899 13.268 6.91899 13.014 6.98799C12.8255 7.01615 12.6335 6.96949 12.479 6.85799C12.479 6.85799 12.431 6.78599 12.382 6.72099H12.755C12.9632 6.75465 13.1765 6.71128 13.355 6.59899L14.004 6.21799C14.0779 6.17455 14.1603 6.14767 14.2456 6.13921C14.3309 6.13075 14.417 6.14091 14.498 6.16899C14.5326 6.19314 14.5651 6.22024 14.595 6.24999C14.595 6.24999 14.595 6.30699 14.547 6.30699C14.255 6.35099 13.977 6.46199 13.736 6.63199L13.728 6.66399ZM12.171 9.87399C12.415 10.061 12.65 10.264 12.877 10.466C13.074 10.677 13.315 10.843 13.582 10.953C13.739 10.995 13.899 11.024 14.06 11.042C13.9146 11.1403 13.7413 11.1887 13.566 11.18C13.3953 11.1567 13.227 11.1185 13.063 11.066C13.2331 11.2269 13.4379 11.3463 13.6616 11.4152C13.8854 11.4841 14.1219 11.5004 14.353 11.463C14.3652 11.5274 14.3652 11.5936 14.353 11.658C14.291 11.811 14.215 11.958 14.125 12.096C14.059 12.1999 13.9601 12.2787 13.8441 12.3198C13.7281 12.3609 13.6017 12.3621 13.485 12.323C13.0151 12.2104 12.5775 11.9908 12.2063 11.6813C11.8351 11.3719 11.5404 10.981 11.345 10.539C11.3044 10.4459 11.2768 10.3476 11.263 10.247C11.2616 10.1796 11.2439 10.1134 11.2116 10.0543C11.1792 9.99508 11.133 9.94456 11.077 9.90699C11.077 9.90699 11.028 9.842 10.996 9.79299C11.1821 9.70358 11.3882 9.66404 11.5942 9.67824C11.8002 9.69243 11.9989 9.75989 12.171 9.87399ZM9.81201 9.161L10.266 9.777L13.185 13.831L15.268 16.717C15.998 17.73 16.744 18.736 17.482 19.741L18.868 21.671C18.8934 21.7251 18.932 21.7719 18.9802 21.8072C19.0285 21.8425 19.0848 21.8651 19.144 21.873C19.241 21.873 19.274 21.954 19.281 22.035C19.29 22.116 19.321 22.416 19.354 22.66L18.641 22.538C18.6567 22.4843 18.6785 22.4326 18.706 22.384C18.7437 22.34 18.7644 22.2839 18.7644 22.226C18.7644 22.1681 18.7437 22.112 18.706 22.068C18.203 21.371 17.709 20.673 17.206 19.984C16.541 19.044 15.868 18.112 15.203 17.179C14.6527 16.4268 14.1123 15.6674 13.582 14.901L10.039 9.96399L9.81201 9.65599C9.79152 9.6393 9.77501 9.61826 9.76367 9.59439C9.75232 9.57052 9.74644 9.54442 9.74644 9.51799C9.74644 9.49157 9.75232 9.46547 9.76367 9.4416C9.77501 9.41773 9.79152 9.39669 9.81201 9.37999V9.161ZM10.72 15.136C10.2392 15.0873 9.76896 14.9641 9.32601 14.771C9.09248 14.6742 8.83956 14.6334 8.58744 14.6518C8.33533 14.6702 8.09101 14.7473 7.87401 14.877H7.81001C7.72001 14.779 7.75301 14.698 7.81001 14.617C7.96401 14.436 8.17001 14.306 8.40101 14.244L10.128 13.717L10.461 13.587C10.5177 13.5606 10.5697 13.5252 10.615 13.482C9.87658 13.3593 9.11858 13.4434 8.42501 13.725C8.23101 13.393 8.26401 13.231 8.55501 13.02C8.79401 12.857 9.07701 12.772 9.36601 12.777C9.79001 12.772 10.213 12.823 10.623 12.931L11.733 13.271C11.628 13.393 11.466 13.401 11.344 13.474C11.223 13.547 11.084 13.612 10.964 13.677L10.558 13.871L10.168 14.05C10.031 14.106 9.88501 14.147 9.74801 14.22C9.85401 14.26 9.97201 14.26 10.08 14.22H10.444L10.809 14.163L11.166 14.083C11.101 14.293 10.971 14.374 10.453 14.593H10.533C10.923 14.612 11.309 14.525 11.653 14.342C11.743 14.282 11.837 14.231 11.936 14.187H12.05C12.0581 14.2049 12.0623 14.2243 12.0623 14.244C12.0623 14.2637 12.0581 14.2831 12.05 14.301C11.966 14.515 11.819 14.699 11.628 14.828C11.327 15.028 10.966 15.117 10.607 15.079L10.72 15.136ZM10.404 17.982C10.7466 17.8436 11.1067 17.7534 11.474 17.714C11.628 17.714 11.652 17.714 11.669 17.893C11.685 18.071 11.709 18.436 11.733 18.703C11.7657 19.3765 11.5655 20.0407 11.166 20.584C10.943 20.949 10.6409 21.2592 10.282 21.492C10.1403 21.5856 10.005 21.6885 9.87701 21.8C9.82001 21.849 9.78001 21.906 9.69901 21.987C9.95701 22.089 10.231 22.147 10.509 22.157C10.5182 22.1731 10.5236 22.1911 10.5248 22.2096C10.526 22.2281 10.523 22.2467 10.516 22.2638C10.5089 22.281 10.4981 22.2963 10.4842 22.3086C10.4704 22.321 10.4539 22.33 10.436 22.335C10.282 22.392 10.128 22.457 9.97401 22.505C9.82001 22.555 9.43101 22.684 9.16401 22.789C8.6585 23.0051 8.24115 23.3862 7.98001 23.87C7.91501 23.991 7.84201 24.105 7.77701 24.234C7.71201 24.364 7.68701 24.364 7.61501 24.324C7.57174 24.2807 7.54578 24.2231 7.54201 24.162C7.55273 23.9393 7.61638 23.7223 7.72768 23.5291C7.83898 23.3359 7.99472 23.172 8.18201 23.051C8.39235 22.9195 8.56971 22.7415 8.70043 22.5307C8.83116 22.3199 8.91175 22.0819 8.93601 21.835C9.00201 20.945 9.13801 20.061 9.34201 19.192C9.40722 18.9254 9.53337 18.6776 9.71052 18.468C9.88768 18.2584 10.111 18.0927 10.363 17.984H10.403L10.404 17.982ZM5.82401 20.925C6.04185 20.7 6.18592 20.414 6.23701 20.105C6.26001 19.539 6.40901 18.985 6.67401 18.485L7.08001 17.747C7.0375 17.7646 6.99667 17.786 6.95801 17.811L6.45601 18.249C6.40401 18.286 6.35001 18.319 6.29301 18.347V18.241C6.58751 17.6582 7.05107 17.178 7.62301 16.863C7.78059 16.7736 7.96148 16.7339 8.14201 16.749C8.69401 16.795 9.20701 17.05 9.57701 17.463C9.60633 17.4828 9.62746 17.5126 9.63647 17.5468C9.64548 17.581 9.64177 17.6173 9.62601 17.649C9.60993 17.6903 9.58027 17.7248 9.54192 17.747C9.50357 17.7692 9.45881 17.7777 9.41501 17.771C9.18001 17.771 8.95301 17.722 8.70901 17.706C8.42773 17.6865 8.14723 17.7537 7.90531 17.8985C7.66339 18.0433 7.47168 18.2589 7.35601 18.516C7.11901 18.898 6.96201 19.322 6.89301 19.766C6.81301 20.286 6.54501 20.759 6.13901 21.095C6.09418 21.1308 6.04515 21.161 5.99301 21.185C5.98948 21.1524 5.98948 21.1196 5.99301 21.087" fill="#D2D6E3"/>
<path d="M14.814 9.50999C14.7 9.38899 14.57 9.41299 14.408 9.44599C14.522 9.68899 14.643 9.70499 14.814 9.50999ZM36.485 6.93999H39.371V7.94599H40.288V6.07999H39.672V2.26999H36.793V3.07999C36.793 4.77499 36.469 5.60199 35.869 6.09599H35.513V7.94499H36.461V6.93999H36.485ZM37.734 3.16299H38.755V6.07999H36.947C37.545 5.22999 37.831 4.19899 37.758 3.16199M44.543 6.08099H42.281V4.90599H43.878V4.10299H42.281V3.16299H44.454V2.30299H41.34V6.94099H44.542V6.08099H44.543ZM46.611 3.16299H48.509V6.93999H49.449V2.30299H45.663V6.94099H46.612V3.16299H46.611ZM51.638 6.32399H53.535L53.802 6.93199H54.88L52.813 2.20599H52.448L50.373 6.93199H51.394L51.638 6.32399ZM52.586 3.98099L53.202 5.54599H51.97L52.586 3.98099ZM56.712 5.30299H57.523C57.733 5.32471 57.9452 5.30209 58.1459 5.2366C58.3466 5.17111 58.5313 5.06421 58.6881 4.92281C58.8449 4.78142 58.9702 4.60868 59.056 4.41578C59.1418 4.22288 59.1861 4.01411 59.1861 3.80299C59.1861 3.59188 59.1418 3.38311 59.056 3.19021C58.9702 2.99731 58.8449 2.82457 58.6881 2.68317C58.5313 2.54178 58.3466 2.43487 58.1459 2.36938C57.9452 2.30389 57.733 2.28128 57.523 2.30299H55.78V6.93999H56.728V5.31999L56.712 5.30399V5.30299ZM56.712 3.13799H57.523C57.617 3.1277 57.7121 3.13733 57.8021 3.16626C57.8922 3.19518 57.9751 3.24276 58.0455 3.30588C58.1159 3.369 58.1722 3.44625 58.2108 3.53259C58.2493 3.61893 58.2693 3.71243 58.2693 3.80699C58.2693 3.90155 58.2493 3.99505 58.2108 4.0814C58.1722 4.16774 58.1159 4.24499 58.0455 4.30811C57.9751 4.37123 57.8922 4.41881 57.8021 4.44773C57.7121 4.47666 57.617 4.48629 57.523 4.47599H56.713V3.13799H56.712ZM61.383 6.93999H62.331V3.16399H63.815V2.30399H59.899V3.16399H61.383V6.93999ZM64.796 6.93999L65.063 6.33199H66.96L67.22 6.93999H68.233L66.174 2.21299H65.858L63.798 6.93999H64.796ZM66.012 3.98899L66.628 5.55399H65.42L66.012 3.98899ZM70.106 4.46699L71.274 5.92699H71.582L72.749 4.46699V6.93999H73.698V2.22199H73.39L71.428 4.72699L69.474 2.22199H69.166V6.93999H70.106V4.46699ZM78.279 6.08099H76.017V4.90599H77.614V4.10299H76.017V3.16299H78.189V2.30299H75.069V6.94099H78.279V6.08099ZM80.345 4.93799H82.396V6.94099H83.344V2.30299H82.396V4.07999H80.345V2.30299H79.396V6.94099H80.345V4.93799ZM85.753 6.93999H86.702V3.16399H88.193V2.30399H84.27V3.16399H85.754V6.93999H85.753ZM39.711 15.372V10.726H35.917V15.372H36.874V11.594H38.763V15.372H39.711ZM42.022 13.735H42.833C43.0435 13.7543 43.2558 13.7299 43.4564 13.6631C43.657 13.5963 43.8415 13.4887 43.9985 13.347C44.1554 13.2053 44.2812 13.0326 44.3681 12.8398C44.4549 12.6471 44.5008 12.4384 44.503 12.227C44.5017 12.016 44.4561 11.8076 44.3693 11.6153C44.2825 11.423 44.1564 11.251 43.9991 11.1104C43.8417 10.9699 43.6566 10.8638 43.4558 10.7992C43.255 10.7345 43.0428 10.7126 42.833 10.735H41.098V15.365H42.047V13.743L42.022 13.735ZM42.022 11.57H42.833C42.9234 11.5607 43.0147 11.571 43.1008 11.6002C43.1869 11.6294 43.2656 11.6767 43.3318 11.7391C43.3979 11.8014 43.4498 11.8772 43.484 11.9614C43.5182 12.0456 43.5339 12.1362 43.53 12.227C43.5362 12.3194 43.5222 12.412 43.4891 12.4984C43.456 12.5849 43.4046 12.6631 43.3383 12.7278C43.2721 12.7924 43.1926 12.8419 43.1053 12.8729C43.0181 12.9038 42.9252 12.9154 42.833 12.907H42.023V11.57H42.022ZM48.679 14.504H46.425V13.337H48.022V12.526H46.425V11.594H48.598V10.726H45.476V15.372H48.679V14.504ZM50.453 15.364H53.34V16.353H54.288V14.504H53.672V10.726H50.826V11.488C50.826 13.191 50.502 14.009 49.902 14.504H49.545V16.353H50.494V15.363H50.454L50.453 15.364ZM51.702 11.585H52.724V14.505H50.916C51.514 13.654 51.801 12.623 51.726 11.585M56.25 11.594H58.147V15.372H59.096V10.726H55.31V15.372H56.25V11.594ZM62.176 10.726H60.433V15.363H61.382V13.742H62.192C62.402 13.7637 62.6142 13.7411 62.8149 13.6756C63.0156 13.6101 63.2003 13.5032 63.3571 13.3618C63.5139 13.2204 63.6392 13.0477 63.725 12.8548C63.8108 12.6619 63.8551 12.4531 63.8551 12.242C63.8551 12.0309 63.8108 11.8221 63.725 11.6292C63.6392 11.4363 63.5139 11.2636 63.3571 11.1222C63.2003 10.9808 63.0156 10.8739 62.8149 10.8084C62.6142 10.7429 62.402 10.7203 62.192 10.742L62.176 10.726ZM62.193 12.923H61.382V11.57H62.192C62.2867 11.5584 62.3828 11.567 62.4739 11.5954C62.5651 11.6237 62.6492 11.671 62.7206 11.7343C62.7921 11.7975 62.8493 11.8752 62.8885 11.9622C62.9277 12.0492 62.9479 12.1436 62.9479 12.239C62.9479 12.3344 62.9277 12.4288 62.8885 12.5158C62.8493 12.6028 62.7921 12.6805 62.7206 12.7437C62.6492 12.807 62.5651 12.8543 62.4739 12.8826C62.3828 12.911 62.2867 12.9196 62.192 12.908M65.809 10.727H64.86V15.453H65.168L67.925 12.518V15.372H68.874V10.646H68.565L65.809 13.556V10.726V10.727ZM73.235 12.51H71.185V10.726H70.244V15.372H71.184V13.369H73.235V15.372H74.184V10.726H73.235V12.51ZM76.494 13.556V10.726H75.546V15.453H75.862L78.618 12.518V15.372H79.567V10.646H79.251L76.494 13.556ZM83.2 13.159L81.237 10.645H80.929V15.364H81.878V12.891L83.046 14.351H83.353L84.521 12.891V15.364H85.461V10.645H85.153L83.2 13.16V13.159ZM87.415 15.364L87.674 14.764H89.571L89.831 15.364H90.852L88.785 10.645H88.477L86.4 15.364H87.414H87.415ZM88.622 12.413L89.239 13.978H87.999L88.623 12.413H88.622ZM92.304 15.372H93.252V11.594H94.736V10.726H90.82V11.594H92.304V15.372ZM98.87 14.504H96.608V13.337H98.205V12.526H96.608V11.594H98.781V10.726H95.66V15.372H98.87V14.504ZM102.787 15.364H103.743V10.734H100.727V11.594C100.727 13.621 100.363 14.424 99.625 14.512V15.404C100.792 15.324 101.603 14.594 101.627 11.594H102.787V15.364ZM108.696 13.84C108.695 13.6257 108.65 13.4139 108.562 13.2184C108.474 13.0229 108.346 12.848 108.186 12.7051C108.027 12.5621 107.839 12.4544 107.635 12.3887C107.431 12.3231 107.215 12.301 107.002 12.324H106.053V10.702H105.145V15.332H107.042C107.364 15.3657 107.688 15.2969 107.969 15.1352C108.249 14.9736 108.472 14.7275 108.604 14.432C108.692 14.235 108.737 14.022 108.737 13.807L108.696 13.84ZM107.042 14.496H106.094V13.118H107.042C107.225 13.1185 107.4 13.1914 107.529 13.3207C107.659 13.45 107.731 13.6252 107.732 13.808C107.731 13.9906 107.659 14.1656 107.529 14.2946C107.4 14.4236 107.225 14.496 107.042 14.496ZM112.02 15.453C112.433 15.4605 112.841 15.3567 113.2 15.1527C113.56 14.9486 113.858 14.6517 114.063 14.293L113.35 13.791C113.224 14.0351 113.033 14.2398 112.799 14.3827C112.564 14.5256 112.295 14.6011 112.02 14.601C111.719 14.6136 111.422 14.5315 111.17 14.3663C110.918 14.2011 110.724 13.9611 110.616 13.68C110.544 13.4934 110.511 13.2939 110.52 13.094C110.511 12.8926 110.543 12.6915 110.615 12.5031C110.686 12.3147 110.796 12.1431 110.937 11.999C111.078 11.8547 111.246 11.7407 111.432 11.664C111.619 11.5873 111.819 11.5495 112.02 11.553C112.294 11.5545 112.563 11.6309 112.798 11.7737C113.032 11.9166 113.223 12.1207 113.35 12.364L114.063 11.854C113.856 11.4972 113.558 11.2023 113.198 10.9997C112.839 10.7971 112.432 10.6944 112.02 10.702C111.673 10.649 111.32 10.6715 110.982 10.7679C110.645 10.8643 110.333 11.0324 110.067 11.2607C109.801 11.489 109.587 11.7721 109.441 12.0906C109.294 12.409 109.218 12.7554 109.218 13.106C109.217 13.4567 109.293 13.8034 109.439 14.1221C109.586 14.4408 109.8 14.7239 110.066 14.952C110.332 15.1804 110.645 15.3485 110.982 15.4449C111.319 15.5412 111.673 15.5634 112.02 15.51M114.834 11.594H116.317V15.372H117.258V11.594H118.75V10.726H114.834V11.594ZM123.266 14.002C123.276 13.7486 123.201 13.4992 123.055 13.2924C122.908 13.0855 122.697 12.9329 122.455 12.858C122.671 12.644 122.794 12.352 122.796 12.048C122.794 11.8656 122.754 11.6855 122.68 11.5189C122.606 11.3523 122.498 11.2026 122.364 11.079C122.229 10.9558 122.071 10.8615 121.898 10.8022C121.726 10.7428 121.543 10.7196 121.361 10.734H119.739V15.364H121.798C121.989 15.383 122.182 15.362 122.365 15.3025C122.548 15.2429 122.716 15.1461 122.86 15.018C123.003 14.89 123.118 14.7335 123.198 14.5586C123.278 14.3838 123.32 14.1942 123.323 14.002H123.266ZM120.647 11.569H121.304C121.693 11.569 121.904 11.772 121.904 12.096C121.904 12.421 121.693 12.623 121.304 12.623H120.647V11.57V11.569ZM120.647 14.577V13.386H121.734C121.817 13.3744 121.901 13.3809 121.981 13.405C122.061 13.4292 122.134 13.4704 122.197 13.5258C122.259 13.5813 122.309 13.6496 122.342 13.7262C122.375 13.8027 122.392 13.8855 122.39 13.969C122.39 14.334 122.147 14.553 121.734 14.553L120.647 14.577ZM125.916 10.646L123.841 15.364H124.862L125.122 14.764H127.035L127.294 15.364H128.316L126.224 10.645H125.916V10.646ZM125.454 13.978L126.07 12.413L126.686 13.978H125.454ZM39.946 23.795V19.077H39.622L36.874 21.979V19.158H35.917V23.876H36.233L38.99 20.95V23.795H39.946ZM43.717 19.158V23.876H44.025L46.781 20.95V23.795H47.73V19.077H47.413L44.665 21.979V19.158H43.717ZM50.04 21.793H52.091V23.796H53.04V19.158H52.091V20.934H50.041V19.158H49.091V23.796H50.041V21.793H50.04ZM58.35 23.796V19.158H57.402V20.934H55.35V19.158H54.401V23.796H55.35V21.793H57.4V23.796H58.35ZM64.366 21.477C64.3725 21.1534 64.3145 20.8318 64.1952 20.5309C64.0759 20.23 63.8978 19.956 63.6712 19.7248C63.4447 19.4936 63.1743 19.31 62.8759 19.1846C62.5775 19.0592 62.2571 18.9947 61.9335 18.9947C61.6098 18.9947 61.2894 19.0592 60.991 19.1846C60.6926 19.31 60.4223 19.4936 60.1957 19.7248C59.9692 19.956 59.7911 20.23 59.6718 20.5309C59.5525 20.8318 59.4944 21.1534 59.501 21.477C59.5139 22.1136 59.7758 22.7198 60.2306 23.1654C60.6854 23.6111 61.2968 23.8607 61.9335 23.8607C62.5702 23.8607 63.1816 23.6111 63.6364 23.1654C64.0911 22.7198 64.3531 22.1136 64.366 21.477ZM60.418 21.477C60.4243 21.1832 60.5173 20.8978 60.6853 20.6566C60.8533 20.4155 61.0889 20.2294 61.3623 20.1217C61.6358 20.014 61.935 19.9896 62.2223 20.0514C62.5096 20.1132 62.7723 20.2586 62.9772 20.4692C63.1822 20.6798 63.3203 20.9463 63.3743 21.2352C63.4283 21.5241 63.3956 21.8225 63.2805 22.093C63.1654 22.3634 62.973 22.5938 62.7273 22.7551C62.4817 22.9165 62.1939 23.0017 61.9 23C61.7004 23.0048 61.502 22.9683 61.3172 22.8929C61.1324 22.8175 60.9651 22.7047 60.8259 22.5616C60.6867 22.4186 60.5785 22.2483 60.5081 22.0615C60.4378 21.8747 60.4067 21.6754 60.417 21.476L60.418 21.477ZM68.216 21.29C68.3252 21.185 68.4124 21.0593 68.4725 20.9202C68.5325 20.7811 68.5643 20.6315 68.566 20.48C68.5615 20.2965 68.519 20.1159 68.4413 19.9496C68.3635 19.7833 68.2522 19.6349 68.1143 19.5137C67.9764 19.3925 67.8149 19.3012 67.64 19.2455C67.4651 19.1898 67.2806 19.1709 67.098 19.19H65.476V23.828H67.544C67.7352 23.847 67.9283 23.826 68.111 23.7665C68.2937 23.7069 68.4621 23.61 68.6054 23.482C68.7486 23.3539 68.8638 23.1975 68.9434 23.0226C69.023 22.8477 69.0655 22.6581 69.068 22.466C69.0754 22.2123 69.0005 21.963 68.8545 21.7553C68.7085 21.5477 68.4992 21.3929 68.258 21.314L68.217 21.29H68.216ZM66.4 19.993H67.041C67.431 19.993 67.641 20.203 67.641 20.52C67.6429 20.5965 67.6281 20.6724 67.5977 20.7426C67.5673 20.8128 67.522 20.8755 67.4649 20.9264C67.4078 20.9773 67.3403 21.0152 67.2671 21.0374C67.1939 21.0596 67.1167 21.0656 67.041 21.055H66.384L66.4 19.993ZM67.487 23H66.4V21.808H67.487C67.9 21.808 68.152 22.035 68.152 22.392C68.152 22.748 67.9 22.975 67.487 22.975M71.687 19.077L69.611 23.795H70.633L70.893 23.195H72.789L73.057 23.795H74.07L72.011 19.077H71.687ZM71.225 22.409L71.841 20.844L72.457 22.409H71.225ZM78.765 19.158H77.816V22.936H75.943V19.158H74.995V23.796H78.432V24.785H79.381V22.936H78.765V19.158ZM80.418 19.158V23.876H80.726L83.482 20.95V23.795H84.431V19.077H84.115L81.366 21.979V19.158H80.418ZM87.967 19.077C87.6476 19.0822 87.3324 19.1504 87.0394 19.2774C86.7463 19.4045 86.4811 19.588 86.259 19.8176C86.0369 20.0471 85.8622 20.3182 85.7448 20.6153C85.6274 20.9123 85.5697 21.2296 85.575 21.549C85.5802 21.8684 85.6483 22.1836 85.7754 22.4766C85.9025 22.7697 86.086 23.0348 86.3156 23.257C86.5451 23.4791 86.8162 23.6538 87.1133 23.7712C87.4103 23.8885 87.7276 23.9462 88.047 23.941C88.692 23.9304 89.3064 23.664 89.755 23.2004C90.2035 22.7368 90.4496 22.114 90.439 21.469C90.4284 20.824 90.162 20.2096 89.6984 19.761C89.2348 19.3124 88.612 19.0664 87.967 19.077ZM87.967 23.001C87.6637 23.0093 87.3648 22.927 87.1085 22.7646C86.8522 22.6021 86.6503 22.3669 86.5284 22.089C86.4065 21.8112 86.3703 21.5033 86.4244 21.2047C86.4785 20.9061 86.6204 20.6305 86.8321 20.413C87.0437 20.1956 87.3153 20.0462 87.6123 19.984C87.9093 19.9218 88.2181 19.9495 88.4992 20.0638C88.7803 20.178 89.0209 20.3735 89.1903 20.6253C89.3596 20.877 89.4501 21.1736 89.45 21.477C89.4599 21.6763 89.4287 21.8755 89.3582 22.0622C89.2878 22.2488 89.1796 22.419 89.0404 22.562C88.9013 22.705 88.7341 22.8178 88.5494 22.8933C88.3648 22.9688 88.1665 23.0055 87.967 23.001ZM95.466 23.796V19.158H94.517V20.934H92.466V19.158H91.517V23.796H92.466V21.793H94.517V23.796H95.466ZM99.828 20.934H97.776V19.158H96.828V23.796H97.776V21.793H99.828V23.796H100.776V19.158H99.828V20.934ZM104.335 19.077C104.016 19.077 103.7 19.1399 103.405 19.262C103.11 19.3842 102.842 19.5633 102.616 19.789C102.39 20.0148 102.211 20.2827 102.089 20.5777C101.967 20.8726 101.904 21.1887 101.904 21.508C101.904 21.8272 101.967 22.1434 102.089 22.4383C102.211 22.7332 102.39 23.0012 102.616 23.227C102.842 23.4527 103.11 23.6318 103.405 23.7539C103.7 23.8761 104.016 23.939 104.335 23.939C104.98 23.939 105.598 23.6829 106.054 23.227C106.51 22.7711 106.766 22.1527 106.766 21.508C106.766 20.8633 106.51 20.2449 106.054 19.789C105.598 19.3331 104.98 19.077 104.335 19.077ZM104.335 23.001C104.135 23.0014 103.936 22.9622 103.751 22.8858C103.566 22.8093 103.398 22.6971 103.256 22.5555C103.115 22.4139 103.003 22.2458 102.926 22.0607C102.85 21.8756 102.811 21.6772 102.811 21.477C102.811 21.1755 102.9 20.8808 103.067 20.63C103.235 20.3793 103.473 20.1838 103.751 20.0683C104.03 19.9528 104.336 19.9225 104.632 19.9812C104.927 20.0398 105.199 20.1849 105.412 20.398C105.626 20.6111 105.771 20.8827 105.83 21.1783C105.889 21.474 105.858 21.7804 105.743 22.059C105.628 22.3375 105.432 22.5756 105.182 22.7431C104.931 22.9106 104.636 23 104.335 23V23.001ZM107.878 23.796H108.826V20.018H110.861V19.158H107.878V23.796ZM113.925 19.077C113.606 19.077 113.29 19.1399 112.995 19.262C112.7 19.3842 112.432 19.5633 112.206 19.789C111.98 20.0148 111.801 20.2827 111.679 20.5777C111.557 20.8726 111.494 21.1887 111.494 21.508C111.494 21.8272 111.557 22.1434 111.679 22.4383C111.801 22.7332 111.98 23.0012 112.206 23.227C112.432 23.4527 112.7 23.6318 112.995 23.7539C113.29 23.8761 113.606 23.939 113.925 23.939C114.57 23.939 115.188 23.6829 115.644 23.227C116.1 22.7711 116.356 22.1527 116.356 21.508C116.356 20.8633 116.1 20.2449 115.644 19.789C115.188 19.3331 114.57 19.077 113.925 19.077ZM113.925 23.001C113.521 23.001 113.133 22.8403 112.847 22.5543C112.561 22.2683 112.4 21.8804 112.4 21.476C112.4 21.0715 112.561 20.6836 112.847 20.3977C113.133 20.1117 113.521 19.951 113.925 19.951C114.329 19.951 114.717 20.1117 115.003 20.3977C115.289 20.6836 115.45 21.0715 115.45 21.476C115.45 21.8804 115.289 22.2683 115.003 22.5543C114.717 22.8403 114.329 23.001 113.925 23.001ZM121.652 19.158H119.909V23.796H120.857V22.174H121.668C121.878 22.1963 122.091 22.1741 122.292 22.1089C122.493 22.0436 122.678 21.9368 122.835 21.7953C122.992 21.6538 123.117 21.4808 123.203 21.2876C123.288 21.0944 123.332 20.8853 123.332 20.674C123.332 20.4627 123.288 20.2536 123.203 20.0604C123.117 19.8672 122.992 19.6942 122.835 19.5527C122.678 19.4112 122.493 19.3044 122.292 19.2391C122.091 19.1738 121.878 19.1517 121.668 19.174L121.652 19.158ZM121.668 21.339H120.857V19.993H121.668C121.755 19.993 121.842 20.0102 121.922 20.0436C122.003 20.077 122.076 20.126 122.138 20.1878C122.2 20.2495 122.249 20.3228 122.282 20.4035C122.316 20.4842 122.333 20.5707 122.333 20.658C122.333 20.7453 122.316 20.8318 122.282 20.9125C122.249 20.9932 122.2 21.0665 122.138 21.1282C122.076 21.19 122.003 21.239 121.922 21.2724C121.842 21.3058 121.755 21.323 121.668 21.323M125.576 19.077L123.501 23.795H124.522L124.782 23.195H126.679L126.938 23.795H127.96L125.892 19.077H125.576ZM125.106 22.409L125.722 20.844L126.338 22.409H125.106ZM131.478 21.347C131.615 21.2408 131.725 21.1041 131.799 20.9479C131.874 20.7916 131.911 20.6201 131.908 20.447C131.896 20.2489 131.844 20.0552 131.755 19.8778C131.666 19.7004 131.542 19.5429 131.39 19.4148C131.239 19.2867 131.063 19.1907 130.873 19.1327C130.683 19.0746 130.483 19.0557 130.286 19.077C129.946 19.0833 129.615 19.1827 129.327 19.3643C129.04 19.5459 128.808 19.8028 128.657 20.107L129.313 20.577C129.418 20.402 129.565 20.2557 129.741 20.1511C129.916 20.0464 130.115 19.9866 130.319 19.977C130.716 19.977 130.975 20.204 130.975 20.52C130.976 20.5961 130.961 20.6716 130.93 20.7412C130.899 20.8107 130.853 20.8728 130.796 20.923C130.74 20.9742 130.673 21.0126 130.6 21.0354C130.527 21.0582 130.451 21.0649 130.375 21.055H129.662V21.865H130.57C130.652 21.8531 130.735 21.8589 130.814 21.8819C130.893 21.905 130.966 21.9449 131.028 21.9987C131.091 22.0526 131.141 22.1193 131.175 22.1942C131.209 22.2692 131.227 22.3506 131.227 22.433C131.227 22.831 130.854 23.058 130.416 23.058C130.181 23.0577 129.95 22.9954 129.746 22.8772C129.543 22.759 129.374 22.5892 129.257 22.385L128.584 22.855C128.759 23.1886 129.024 23.4661 129.35 23.6554C129.675 23.8447 130.048 23.9382 130.424 23.925C130.849 23.9635 131.272 23.8327 131.602 23.5611C131.931 23.2894 132.14 22.8988 132.183 22.474C132.188 22.2473 132.126 22.0241 132.005 21.8324C131.884 21.6407 131.709 21.4889 131.502 21.396M136.026 21.29C136.135 21.1848 136.222 21.059 136.282 20.9199C136.342 20.7809 136.373 20.6314 136.375 20.48C136.37 20.2966 136.327 20.1161 136.25 19.95C136.172 19.7838 136.061 19.6355 135.923 19.5144C135.785 19.3933 135.624 19.302 135.449 19.2461C135.274 19.1903 135.09 19.1712 134.907 19.19H133.286V23.828H135.353C135.544 23.8476 135.738 23.8271 135.921 23.7678C136.104 23.7084 136.272 23.6116 136.416 23.4834C136.559 23.3552 136.674 23.1985 136.754 23.0234C136.833 22.8482 136.875 22.6583 136.877 22.466C136.886 22.2119 136.812 21.9619 136.666 21.7539C136.519 21.5459 136.309 21.3915 136.067 21.314L136.026 21.29ZM134.218 19.993H134.867C135.264 19.993 135.475 20.203 135.475 20.52C135.475 20.836 135.264 21.055 134.867 21.055H134.218V19.993ZM135.297 23H134.17V21.808H135.256C135.339 21.796 135.423 21.8023 135.503 21.8264C135.584 21.8504 135.658 21.8917 135.72 21.9473C135.783 22.0029 135.832 22.0716 135.866 22.1484C135.899 22.2252 135.915 22.3083 135.913 22.392C135.913 22.765 135.669 22.975 135.256 22.975M138.855 21.98V19.158H137.915V23.876H138.223L140.979 20.95V23.795H141.928V19.077H141.612L138.855 21.979V21.98ZM142.853 20.018H144.337V23.796H145.285V20.018H146.769V19.158H142.853V20.018ZM148.642 21.98V19.158H147.701V23.876H148.009L150.766 20.95V23.795H151.722V19.077H151.398L148.642 21.979V21.98ZM154.819 19.158C154.592 19.1342 154.363 19.1586 154.146 19.2294C153.929 19.3002 153.73 19.4158 153.561 19.5689C153.392 19.7219 153.257 19.9089 153.165 20.1175C153.073 20.3262 153.026 20.5519 153.027 20.78C153.022 21.0489 153.089 21.3142 153.22 21.549C153.351 21.7838 153.542 21.9798 153.773 22.117L152.671 23.812H153.733L154.673 22.377H155.484V23.804H156.432V19.158H154.819ZM155.508 21.534H154.811C154.703 21.5457 154.594 21.5346 154.491 21.5014C154.388 21.4682 154.293 21.4136 154.213 21.3413C154.132 21.269 154.068 21.1806 154.024 21.0817C153.98 20.9828 153.957 20.8758 153.957 20.7675C153.957 20.6592 153.98 20.5522 154.024 20.4533C154.068 20.3544 154.132 20.266 154.213 20.1937C154.293 20.1214 154.388 20.0668 154.491 20.0336C154.594 20.0004 154.703 19.9893 154.811 20.001H155.508V21.534ZM35.917 32.227H36.874V28.449H38.908V27.589H35.917V32.227ZM41.974 27.5C41.6546 27.5 41.3384 27.5629 41.0433 27.6851C40.7482 27.8073 40.4801 27.9865 40.2543 28.2123C40.0285 28.4381 39.8493 28.7062 39.7271 29.0013C39.6049 29.2964 39.542 29.6126 39.542 29.932C39.542 30.2514 39.6049 30.5676 39.7271 30.8627C39.8493 31.1577 40.0285 31.4258 40.2543 31.6517C40.4801 31.8775 40.7482 32.0567 41.0433 32.1789C41.3384 32.3011 41.6546 32.364 41.974 32.364C42.6103 32.3511 43.2162 32.0892 43.6617 31.6347C44.1072 31.1801 44.3567 30.569 44.3567 29.9325C44.3567 29.296 44.1072 28.6849 43.6617 28.2303C43.2162 27.7757 42.6103 27.5139 41.974 27.501V27.5ZM41.974 31.424C41.5899 31.3961 41.2306 31.2239 40.9684 30.9419C40.7061 30.6599 40.5603 30.2891 40.5603 29.904C40.5603 29.5189 40.7061 29.1481 40.9684 28.8661C41.2306 28.5841 41.5899 28.4119 41.974 28.384C42.3581 28.4119 42.7174 28.5841 42.9796 28.8661C43.2419 29.1481 43.3876 29.5189 43.3876 29.904C43.3876 30.2891 43.2419 30.6599 42.9796 30.9419C42.7174 31.2239 42.3581 31.3961 41.974 31.424ZM47.267 27.59H45.524V32.267H46.473V30.647H47.283C47.5991 30.6787 47.9171 30.6098 48.1918 30.4503C48.4665 30.2908 48.6839 30.0487 48.813 29.7585C48.9422 29.4682 48.9765 29.1447 48.9112 28.8338C48.8458 28.523 48.6841 28.2406 48.449 28.027C48.2921 27.8855 48.1072 27.7786 47.9064 27.7131C47.7055 27.6477 47.4931 27.6251 47.283 27.647L47.267 27.59ZM47.283 29.811H46.473V28.473H47.283C47.3762 28.4642 47.4702 28.4749 47.559 28.5045C47.6477 28.5341 47.7294 28.5819 47.7986 28.6449C47.8678 28.7079 47.9232 28.7846 47.961 28.8702C47.9989 28.9558 48.0184 29.0484 48.0184 29.142C48.0184 29.2356 47.9989 29.3282 47.961 29.4138C47.9232 29.4994 47.8678 29.5761 47.7986 29.6391C47.7294 29.7021 47.6477 29.7499 47.559 29.7795C47.4702 29.8091 47.3762 29.8198 47.283 29.811ZM52.229 27.5C51.9096 27.5 51.5934 27.5629 51.2983 27.6851C51.0032 27.8073 50.7351 27.9865 50.5093 28.2123C50.2835 28.4381 50.1043 28.7062 49.9821 29.0013C49.8599 29.2964 49.797 29.6126 49.797 29.932C49.797 30.2514 49.8599 30.5676 49.9821 30.8627C50.1043 31.1577 50.2835 31.4258 50.5093 31.6517C50.7351 31.8775 51.0032 32.0567 51.2983 32.1789C51.5934 32.3011 51.9096 32.364 52.229 32.364C52.8653 32.3511 53.4712 32.0892 53.9167 31.6347C54.3622 31.1801 54.6117 30.569 54.6117 29.9325C54.6117 29.296 54.3622 28.6849 53.9167 28.2303C53.4712 27.7757 52.8653 27.5139 52.229 27.501V27.5ZM52.229 31.424C51.8449 31.3961 51.4856 31.2239 51.2234 30.9419C50.9611 30.6599 50.8153 30.2891 50.8153 29.904C50.8153 29.5189 50.9611 29.1481 51.2234 28.8661C51.4856 28.5841 51.8449 28.4119 52.229 28.384C52.6131 28.4119 52.9723 28.5841 53.2346 28.8661C53.4969 29.1481 53.6426 29.5189 53.6426 29.904C53.6426 30.2891 53.4969 30.6599 53.2346 30.9419C52.9723 31.2239 52.6131 31.3961 52.229 31.424ZM59.477 27.59H56.599V28.352C56.599 30.046 56.274 30.873 55.666 31.368H55.31V33.208H56.258V32.268H59.144V33.248H60.093V31.408H59.477V27.59ZM58.537 31.368H56.728C57.328 30.518 57.615 29.486 57.539 28.449H58.569V31.368H58.536H58.537ZM62.923 27.5L60.855 32.268H61.877L62.128 31.66H64.025L64.293 32.268H65.314L63.247 27.541L62.923 27.501V27.5ZM62.461 30.84L63.077 29.276L63.685 30.841H62.46L62.461 30.84ZM70.916 30.014L68.954 27.5H68.646V32.227H69.595V29.747L70.762 31.214H71.07L72.238 29.746V32.227H73.178V27.501H72.87L70.916 30.014ZM76.77 27.5C76.4506 27.5 76.1344 27.5629 75.8393 27.6851C75.5442 27.8073 75.2761 27.9865 75.0503 28.2123C74.8245 28.4381 74.6453 28.7062 74.5231 29.0013C74.4009 29.2964 74.338 29.6126 74.338 29.932C74.338 30.2514 74.4009 30.5676 74.5231 30.8627C74.6453 31.1577 74.8245 31.4258 75.0503 31.6517C75.2761 31.8775 75.5442 32.0567 75.8393 32.1789C76.1344 32.3011 76.4506 32.364 76.77 32.364C77.4063 32.3511 78.0122 32.0892 78.4577 31.6347C78.9032 31.1801 79.1527 30.569 79.1527 29.9325C79.1527 29.296 78.9032 28.6849 78.4577 28.2303C78.0122 27.7757 77.4063 27.5139 76.77 27.501V27.5ZM76.77 31.424C76.3859 31.3961 76.0266 31.2239 75.7644 30.9419C75.5021 30.6599 75.3563 30.2891 75.3563 29.904C75.3563 29.5189 75.5021 29.1481 75.7644 28.8661C76.0266 28.5841 76.3859 28.4119 76.77 28.384C77.1541 28.4119 77.5134 28.5841 77.7756 28.8661C78.0379 29.1481 78.1836 29.5189 78.1836 29.904C78.1836 30.2891 78.0379 30.6599 77.7756 30.9419C77.5134 31.2239 77.1541 31.3961 76.77 31.424ZM82.567 28.384C82.8416 28.3843 83.1108 28.4601 83.3453 28.6029C83.5799 28.7457 83.7707 28.9502 83.897 29.194L84.61 28.692C84.4056 28.3324 84.1079 28.0348 83.7483 27.8306C83.3886 27.6264 82.9805 27.5232 82.567 27.532C82.219 27.475 81.8628 27.4943 81.523 27.5887C81.1832 27.6831 80.868 27.8502 80.5992 28.0785C80.3305 28.3068 80.1146 28.5908 79.9665 28.9109C79.8185 29.2309 79.7418 29.5794 79.7418 29.932C79.7418 30.2846 79.8185 30.6331 79.9665 30.9531C80.1146 31.2732 80.3305 31.5572 80.5992 31.7855C80.868 32.0138 81.1832 32.1809 81.523 32.2753C81.8628 32.3697 82.219 32.389 82.567 32.332C82.9805 32.3414 83.3889 32.2396 83.7497 32.0373C84.1105 31.8351 84.4103 31.5397 84.618 31.182L83.905 30.67C83.7782 30.9135 83.5873 31.1177 83.3529 31.2607C83.1185 31.4036 82.8495 31.4798 82.575 31.481C82.1909 31.4531 81.8316 31.2809 81.5694 30.9989C81.3071 30.7169 81.1613 30.3461 81.1613 29.961C81.1613 29.5759 81.3071 29.2051 81.5694 28.9231C81.8316 28.6411 82.1909 28.4689 82.575 28.441M89.49 27.59H88.363L86.596 29.738V27.59H85.647V32.227H86.596V29.803L88.582 32.227H89.725L87.715 29.779L89.49 27.589V27.59ZM93.415 29.714C93.5246 29.6092 93.6119 29.4833 93.6717 29.344C93.7315 29.2046 93.7625 29.0546 93.763 28.903C93.7586 28.7195 93.7163 28.539 93.6386 28.3727C93.561 28.2064 93.4498 28.0579 93.312 27.9367C93.1742 27.8156 93.0127 27.7242 92.8379 27.6685C92.663 27.6128 92.4785 27.5939 92.296 27.613H90.674V32.267H92.742C92.9328 32.2857 93.1255 32.265 93.308 32.206C93.4905 32.147 93.6588 32.051 93.8026 31.924C93.9463 31.7971 94.0624 31.6419 94.1435 31.4681C94.2246 31.2943 94.269 31.1057 94.274 30.914C94.2831 30.6589 94.2091 30.4078 94.0629 30.1986C93.9168 29.9893 93.7066 29.8333 93.464 29.754L93.414 29.714H93.415ZM91.615 28.441H92.272C92.661 28.441 92.872 28.644 92.872 28.968C92.8737 29.0444 92.8588 29.1203 92.8284 29.1904C92.7979 29.2605 92.7526 29.3232 92.6955 29.374C92.6385 29.4249 92.5711 29.4628 92.4979 29.485C92.4248 29.5073 92.3477 29.5134 92.272 29.503H91.615V28.44V28.441ZM92.701 31.449H91.615V30.24H92.7C92.8063 30.2215 92.9157 30.2326 93.0162 30.272C93.1167 30.3114 93.2044 30.3776 93.2699 30.4633C93.3354 30.5491 93.3761 30.6513 93.3876 30.7586C93.399 30.8659 93.3809 30.9743 93.335 31.072C93.2803 31.1896 93.1886 31.286 93.074 31.3465C92.9593 31.407 92.8279 31.4283 92.7 31.407M97.184 29.187H96.228V27.565H95.279V32.268H97.176C97.3923 32.2963 97.6121 32.2782 97.8209 32.2148C98.0296 32.1514 98.2224 32.0442 98.3863 31.9003C98.5503 31.7564 98.6817 31.5792 98.7717 31.3805C98.8617 31.1818 98.9082 30.9661 98.9082 30.748C98.9082 30.5299 98.8617 30.3142 98.7717 30.1155C98.6817 29.9168 98.5503 29.7396 98.3863 29.5957C98.2224 29.4518 98.0296 29.3446 97.8209 29.2812C97.6121 29.2178 97.3923 29.1996 97.176 29.228L97.184 29.187ZM97.176 31.424H96.228V30.054H97.176C97.2713 30.0451 97.3675 30.0561 97.4583 30.0865C97.5491 30.1169 97.6326 30.1658 97.7034 30.2303C97.7742 30.2948 97.8308 30.3733 97.8695 30.4609C97.9082 30.5485 97.9282 30.6432 97.9282 30.739C97.9282 30.8348 97.9082 30.9295 97.8695 31.0171C97.8308 31.1046 97.7742 31.1832 97.7034 31.2477C97.6326 31.3121 97.5491 31.3611 97.4583 31.3915C97.3675 31.4219 97.2713 31.4329 97.176 31.424ZM100.63 27.59H99.681V32.227H100.63V27.59Z" fill="#D2D6E3"/>
</g>
<defs>
<clipPath id="clip0_456_2259">
<rect width="304" height="39" fill="white"/>
</clipPath>
</defs>
</svg>
