<svg width="444" height="39" viewBox="0 0 444 39" fill="none" xmlns="http://www.w3.org/2000/svg">
<path d="M13.4326 8H16.3076V25.5H13.6826V12.375H13.4326L4.93262 25.5H2.05762V8H4.68262V21.125H4.93262L13.4326 8ZM20.3066 8H34.4316V25.5H31.8066V10.375H22.9316V25.5H20.3066V8ZM39.3086 25.5V28.5H36.6836V23.125H38.5586L42.1836 8H49.8086L53.4336 23.125H55.3086V28.5H52.6836V25.5H39.3086ZM44.1836 10.375L41.1836 23.125H50.8086L47.8086 10.375H44.1836ZM68.4115 17.275C69.1782 16.5417 69.5615 15.575 69.5615 14.375C69.5615 13.175 69.1782 12.2083 68.4115 11.475C67.6449 10.7417 66.5699 10.375 65.1865 10.375H60.1865V18.375H65.1865C66.5699 18.375 67.6449 18.0083 68.4115 17.275ZM72.1865 14.375C72.1865 15.2583 72.0115 16.0833 71.6615 16.85C71.3282 17.6167 70.8532 18.2917 70.2365 18.875C69.6199 19.4583 68.8782 19.9167 68.0115 20.25C67.1615 20.5833 66.2199 20.75 65.1865 20.75H60.1865V25.5H57.5615V8H65.1865C66.2199 8 67.1615 8.16667 68.0115 8.5C68.8782 8.83333 69.6199 9.29167 70.2365 9.875C70.8532 10.4583 71.3282 11.1417 71.6615 11.925C72.0115 12.6917 72.1865 13.5083 72.1865 14.375ZM86.8193 8H89.6943V25.5H87.0693V12.375H86.8193L78.3193 25.5H75.4443V8H78.0693V21.125H78.3193L86.8193 8ZM105.068 8H107.943V25.5H105.318V12.375H105.068L96.5684 25.5H93.6934V8H96.3184V21.125H96.5684L105.068 8Z" fill="white"/>
<g clip-path="url(#clip0_458_6720)">
<path fill-rule="evenodd" clip-rule="evenodd" d="M389.835 9.02801H391.379L390.817 6.99601H390.465L389.835 9.02801ZM391.697 10.085H389.53L389.069 11.643H387.904L389.706 5.86501H391.548L393.364 11.643H392.172L391.697 10.085ZM395.376 6.92801V11.629H394.171V5.85101H398.343V6.92801H395.376ZM403.646 10.552V11.629H399.304V5.85101H403.558V6.92801H400.503V8.14801H402.881V9.19801H400.503V10.552H403.646ZM409.75 5.85101V11.629H408.544V9.21101H405.977V11.629H404.771V5.85101H405.977V8.10701H408.544V5.85001H409.75V5.85101ZM415.209 6.91501H413.408V11.629H412.195V6.91501H410.393V5.85001H415.209V6.91401V6.91501ZM420.831 9.85501C420.754 10.4216 420.464 10.9374 420.019 11.2973C419.575 11.6572 419.01 11.8341 418.44 11.792C416.686 11.792 415.69 10.572 415.69 8.82501C415.69 7.07701 416.693 5.85101 418.44 5.85101C418.979 5.80922 419.515 5.96688 419.946 6.29408C420.377 6.62127 420.673 7.09523 420.777 7.62601H419.524C419.448 7.40633 419.299 7.21937 419.101 7.0962C418.904 6.97304 418.671 6.92109 418.44 6.94901C417.411 6.94901 416.923 7.78201 416.923 8.85201C416.923 9.92201 417.411 10.749 418.44 10.749C418.705 10.7739 418.969 10.6986 419.181 10.5381C419.393 10.3776 419.537 10.1435 419.585 9.88201L420.831 9.85501V9.85501ZM426.136 6.91501H424.328V11.629H423.122V6.91501H421.313V5.85001H426.136V6.91401V6.91501ZM430.505 9.88801C430.505 9.40801 430.207 9.15701 429.584 9.15701H428.154V10.6H429.563C430.173 10.6 430.505 10.376 430.505 9.92201V9.88801V9.88801ZM430.342 7.53101C430.342 7.10401 430.065 6.89401 429.516 6.89401H428.161V8.18101H429.516C430.065 8.18101 430.336 7.96401 430.336 7.50401L430.342 7.53101V7.53101ZM431.751 9.96301C431.751 10.925 431.121 11.636 429.719 11.636H426.908V5.85001H429.618C430.911 5.85001 431.534 6.52701 431.534 7.38001C431.551 7.61159 431.503 7.84326 431.395 8.04903C431.287 8.2548 431.125 8.42654 430.925 8.54501V8.70901C431.161 8.81957 431.36 8.99599 431.498 9.21703C431.637 9.43808 431.708 9.69435 431.704 9.95501M436.947 8.82501C436.947 7.76101 436.452 6.92101 435.368 6.92101C434.285 6.92101 433.797 7.76101 433.797 8.82501C433.797 9.88801 434.298 10.721 435.368 10.721C436.439 10.721 436.947 9.88101 436.947 8.82501ZM438.18 8.82501C438.18 10.505 437.197 11.792 435.368 11.792C433.54 11.792 432.557 10.505 432.557 8.82501C432.557 7.14501 433.546 5.85101 435.368 5.85101C437.191 5.85101 438.18 7.13801 438.18 8.82501ZM389.49 16.445V20.483H389.652L391.799 16.445H393.364V22.217H392.24V18.09H392.084L389.882 22.216H388.379V16.444H389.49V16.445ZM399.786 16.445V22.217H398.58V19.798H396.02V22.217H394.807V16.445H396.02V18.695H398.58V16.445H399.786ZM406.051 16.445V22.217H404.845V19.798H402.278V22.217H401.072V16.445H402.278V18.695H404.845V16.445H406.051ZM411.403 19.412C411.403 18.356 410.908 17.509 409.831 17.509C408.754 17.509 408.253 18.356 408.253 19.412C408.253 20.469 408.754 21.316 409.831 21.316C410.908 21.316 411.403 20.469 411.403 19.412ZM412.642 19.412C412.642 21.099 411.653 22.379 409.831 22.379C408.009 22.379 407.02 21.099 407.02 19.412C407.02 17.726 408.002 16.479 409.831 16.479C411.66 16.479 412.642 17.759 412.642 19.446M417.336 20.483C417.336 19.995 417.031 19.744 416.408 19.744H414.979V21.221H416.394C416.997 21.221 417.336 20.991 417.336 20.544V20.483V20.483ZM417.167 18.146C417.167 17.719 416.889 17.509 416.34 17.509H414.986V18.796H416.34C416.889 18.796 417.153 18.586 417.153 18.119L417.167 18.146ZM418.589 20.544C418.589 21.505 417.959 22.217 416.557 22.217H413.753V16.479H416.462C417.756 16.479 418.386 17.157 418.386 18.003C418.402 18.2353 418.353 18.4675 418.244 18.6734C418.135 18.8792 417.971 19.0505 417.77 19.168V19.331C418.008 19.4335 418.212 19.6023 418.358 19.8173C418.503 20.0324 418.583 20.2846 418.589 20.544ZM421.001 19.602H422.545L421.949 17.57H421.597L421.001 19.602ZM422.863 20.659H420.696L420.235 22.217H419.063L420.872 16.479H422.707L424.523 22.25H423.331L422.863 20.659V20.659ZM429.793 22.244H425.329V16.445H426.521V21.16H428.946V16.445H430.138V21.16H430.951V23.666H429.793V22.244ZM433.031 16.445V20.483H433.187L435.335 16.445H436.899V22.217H435.775V18.09H435.619L433.418 22.216H431.914V16.444H433.031V16.445ZM442.338 14.996C442.282 15.254 442.162 15.4935 441.987 15.6917C441.813 15.8899 441.591 16.0401 441.342 16.1282C441.093 16.2162 440.826 16.239 440.566 16.1945C440.306 16.1501 440.061 16.0397 439.856 15.874C439.581 15.6516 439.391 15.3417 439.317 14.996H440.197C440.216 15.145 440.292 15.2809 440.409 15.375C440.468 15.4207 440.535 15.4544 440.607 15.4741C440.678 15.4938 440.753 15.4992 440.827 15.49C440.976 15.5057 441.124 15.4629 441.242 15.3707C441.36 15.2784 441.437 15.1441 441.457 14.996H442.338V14.996ZM439.452 16.513V20.503H439.588L441.742 16.513H443.3V22.216H442.182V18.152H442.02L439.825 22.216H438.321V16.513H439.452V16.513ZM388.379 27.196H390.269L391.21 29.499H391.373L392.307 27.196H394.163V32.974H393.039V28.462H392.876L391.827 31.036H390.722L389.672 28.462H389.51V32.974H388.379V27.196V27.196ZM399.514 30.027C399.514 28.97 399.026 28.13 397.943 28.13C396.859 28.13 396.364 28.97 396.364 30.027C396.364 31.083 396.866 31.93 397.943 31.93C399.02 31.93 399.514 31.09 399.514 30.027ZM400.754 30.027C400.754 31.713 399.765 33 397.943 33C396.121 33 395.132 31.713 395.132 30.027C395.132 28.34 396.114 27.06 397.943 27.06C399.772 27.06 400.754 28.347 400.754 30.027ZM406.696 31.036C406.619 31.6025 406.328 32.1181 405.884 32.478C405.44 32.8379 404.875 33.0149 404.305 32.973C402.55 32.973 401.554 31.753 401.554 29.999C401.554 28.245 402.564 27.033 404.305 27.033C404.844 26.9905 405.38 27.1478 405.811 27.4749C406.242 27.802 406.538 28.2761 406.642 28.807H405.388C405.312 28.5872 405.163 28.4 404.966 28.2768C404.769 28.1536 404.536 28.1018 404.305 28.13C403.275 28.13 402.787 28.963 402.787 30.026C402.787 31.09 403.275 31.93 404.305 31.93C404.57 31.9551 404.834 31.8799 405.046 31.7193C405.258 31.5588 405.402 31.3246 405.449 31.063L406.696 31.036V31.036ZM407.819 27.196H409.031V29.451H410.373L411.47 27.196H412.723L411.389 30L412.798 32.974H411.544L410.379 30.542H409.031V32.974H407.819V27.196V27.196ZM417.174 31.232C417.174 30.745 416.869 30.494 416.252 30.494H414.823V31.944H416.232C416.842 31.944 417.174 31.714 417.174 31.266V31.232ZM417.011 28.868C417.011 28.442 416.733 28.232 416.185 28.232H414.83V29.519H416.185C416.733 29.519 417.004 29.309 417.004 28.841L417.011 28.868ZM418.413 31.3C418.413 32.262 417.79 32.98 416.381 32.98H413.57V27.202H416.279C417.573 27.202 418.196 27.879 418.196 28.732C418.211 28.9627 418.162 29.193 418.055 29.3976C417.947 29.6023 417.785 29.7733 417.587 29.892V30.027C417.821 30.1391 418.019 30.3161 418.156 30.5369C418.292 30.7578 418.363 31.0132 418.359 31.273M424.604 32.967H425.81V27.196H424.604V32.966V32.967ZM422.715 31.063C422.715 30.522 422.423 30.21 421.617 30.21H420.621V31.91H421.644C422.45 31.91 422.742 31.612 422.742 31.063H422.715V31.063ZM419.416 32.967V27.196H420.621V29.153H421.834C423.189 29.153 423.981 29.871 423.981 31.05C423.981 32.228 423.189 32.967 421.834 32.967H419.416ZM340.481 33.928C340.391 34.0657 340.254 34.1659 340.096 34.2097C339.938 34.2535 339.769 34.238 339.621 34.166C339.522 34.0618 339.465 33.9256 339.458 33.7823C339.452 33.6391 339.498 33.4984 339.587 33.386C339.443 33.4196 339.315 33.5041 339.228 33.624C339.149 33.8025 339.135 34.003 339.187 34.1909C339.24 34.3789 339.357 34.5426 339.517 34.654C339.677 34.7654 339.871 34.8174 340.066 34.8011C340.261 34.7849 340.443 34.7014 340.583 34.565C340.657 34.4536 340.696 34.3228 340.696 34.189C340.696 34.0552 340.657 33.9245 340.583 33.813C340.562 33.8554 340.534 33.8942 340.501 33.928H340.481V33.928ZM353.25 11.907C353.113 11.7277 353.015 11.5221 352.961 11.303C352.908 11.084 352.9 10.8562 352.938 10.634C352.782 10.9112 352.697 11.2227 352.691 11.5407C352.685 11.8587 352.758 12.1732 352.904 12.456C353.365 13.133 353.785 13.201 354.151 13.906C354.177 13.7179 354.139 13.5265 354.042 13.363C353.9 13.079 353.839 12.835 354.184 12.74C355.139 12.456 356.034 13.844 356.562 13.817C356.768 13.8004 356.965 13.7225 357.127 13.5933C357.289 13.4641 357.408 13.2896 357.47 13.092C357.212 13.253 356.913 13.333 356.609 13.322C355.864 13.228 355.512 12.388 354.672 12.219C354.137 12.11 353.683 12.334 353.229 11.9L353.25 11.907V11.907ZM352.721 27.317C352.471 27.683 352.66 28.197 353.324 28.394C353.803 28.504 354.244 28.737 354.604 29.072C355.031 29.498 355.234 29.552 355.336 29.552L337.047 4.17901L336.803 4.35501C336.803 4.35501 347.37 19 352.064 25.515C352.24 25.759 352.952 27.026 352.742 27.351L352.721 27.317V27.317ZM352.667 28.509C351.99 28.509 351.177 28.774 350.371 28.029C350.097 27.7557 349.745 27.5753 349.363 27.5132C348.982 27.4511 348.59 27.5105 348.244 27.683C348.244 27.683 348.921 28.36 348.549 28.645C347.925 29.105 348.386 29.647 348.325 29.857C348.264 30.067 347.648 30.108 346.598 29.627C346.131 29.4107 345.609 29.34 345.101 29.424C344.83 29.464 344.918 29.668 344.979 29.722C345.04 29.776 345.419 30.122 345.588 30.237C345.758 30.352 346.076 30.617 346.212 30.521C346.347 30.426 346.063 29.911 346.063 29.911C346.968 30.2231 347.9 30.4501 348.847 30.589C349.687 30.589 348.901 29.194 349.558 29.126C349.897 29.126 350.31 29.613 350.994 29.708C351.476 29.722 351.955 29.637 352.403 29.458C352.904 29.336 353.08 29.952 353.162 30.501C353.172 30.668 353.216 30.831 353.29 30.981C353.453 30.196 353.67 28.469 352.667 28.496V28.509V28.509ZM357.896 30.108C357.625 29.376 357.104 29.695 356.874 29.613C356.643 29.533 356.338 29.241 356.237 28.462C356.135 27.683 355.478 28.103 355.478 28.103C355.478 28.103 356.244 29.641 356.555 30.46C356.867 31.28 357.124 30.643 357.504 31.09C357.883 31.537 357.835 33.84 357.619 34.586C357.372 35.432 356.868 36.1801 356.176 36.726C356.711 36.665 357.7 35.616 357.984 34.931C358.175 34.451 358.222 33.926 358.12 33.421L358.567 33.38L358.289 32.702L358.723 32.635C358.723 32.635 358.167 30.874 357.896 30.142V30.108V30.108ZM340.102 31.598C339.54 31.4522 338.956 31.4179 338.381 31.497C337.857 31.6282 337.322 31.7076 336.783 31.734C336.542 31.7337 336.303 31.6829 336.082 31.5847C335.861 31.4865 335.664 31.3432 335.502 31.164C335.369 30.9996 335.264 30.8145 335.191 30.616C335.545 29.9744 336.089 29.4584 336.749 29.139C339.689 27.5 338.713 25.658 338.53 23.524C338.45 23.0715 338.469 22.6069 338.586 22.1625C338.703 21.7181 338.915 21.3044 339.208 20.95C339.819 20.5031 340.566 20.2829 341.321 20.327C340.316 19.7936 339.152 19.6395 338.043 19.893C336.593 20.313 336.329 21.363 336.078 22.108C335.967 22.554 335.747 22.9654 335.437 23.3048C335.127 23.6442 334.737 23.901 334.303 24.052C332.149 24.953 332.271 26.653 332.271 26.653C332.271 26.653 331.492 24.973 333.585 23.565C336.241 21.769 335.218 20.388 336.105 19.561C336.783 18.925 337.629 19.026 338.903 19.371C338.672 19.101 335.306 17.685 334.913 20.686C334.581 23.239 332.143 22.88 331.723 25.286C331.425 26.986 333.037 28.415 333.037 28.415C333.037 28.415 331.75 25.834 334.283 24.791C336.031 24.073 337.033 23.239 337.291 22.42V23.266C337.291 24.425 337.866 25.299 337.697 26.945C337.609 27.839 335.977 28.733 335.062 29.655C335.087 29.2527 335.208 28.8622 335.414 28.516C335.706 28.161 335.963 27.777 336.18 27.371C336.352 26.997 336.406 26.579 336.336 26.173C336.288 25.9343 336.201 25.7052 336.078 25.495L335.956 25.542C336.08 25.8154 336.139 26.114 336.127 26.4141C336.115 26.7141 336.033 27.0073 335.888 27.27C335.65 27.6457 335.375 27.9973 335.069 28.32C334.744 28.77 334.556 29.303 334.527 29.857C334.517 30.046 334.53 30.235 334.568 30.42C334.442 30.8917 334.412 31.3837 334.478 31.8673C334.544 32.3509 334.706 32.8165 334.954 33.237C335.36 33.915 335.746 34.443 335.55 35.27C335.353 36.096 336.044 35.791 336.546 35.805H337.013C337.338 35.805 337.467 35.568 337.27 35.249C336.9 34.6162 336.444 34.0375 335.916 33.529C335.609 33.274 335.362 32.954 335.193 32.5921C335.024 32.2302 334.938 31.8353 334.94 31.436C335.157 31.7046 335.424 31.9273 335.728 32.0913C336.032 32.2552 336.365 32.3571 336.708 32.391C337.289 32.381 337.865 32.291 338.422 32.127C338.922 32.0494 339.433 32.0678 339.926 32.181C340.377 32.289 340.796 32.5 341.152 32.797C341.457 33.072 341.672 33.434 341.768 33.834C341.815 34.1657 341.773 34.5038 341.647 34.8141C341.521 35.1244 341.315 35.3959 341.05 35.601L341.131 35.676C341.478 35.4755 341.756 35.173 341.926 34.8095C342.095 34.446 342.149 34.0392 342.08 33.644C341.968 33.1542 341.717 32.7073 341.356 32.3574C340.995 32.0076 340.541 31.7699 340.048 31.673L340.102 31.598V31.598ZM339.472 18.091C340.339 19.006 341.267 18.641 341.68 18.687C342.093 18.735 342.574 19.798 342.324 20.835C342.176 21.3437 342 21.8435 341.795 22.332C341.578 23.152 342.588 23.734 342.357 24.486C342.29 24.696 342.147 24.994 342.324 25.224C342.594 25.59 343.035 25.109 343.597 25.224C343.946 25.274 344.301 25.204 344.606 25.028C344.539 24.709 343.285 24.906 343.001 24.391C342.879 24.161 342.547 21.817 343.279 20.774C344.01 19.731 343.326 19.507 342.865 18.742C343.563 18.3717 344.265 18.0104 344.972 17.658C345.427 18.108 345.811 18.624 346.11 19.188C346.276 19.516 346.362 19.878 346.361 20.245C346.356 20.625 346.23 20.993 346.002 21.295C346.306 21.248 346.591 20.699 346.679 20.279C346.746 19.8554 346.714 19.4219 346.584 19.013C346.283 18.1687 345.797 17.4024 345.162 16.77C344.273 17.086 343.408 17.467 342.574 17.909C342.181 17.17 341.782 17.306 341.294 17.346C341.133 17.3404 340.977 17.2939 340.839 17.211C340.702 17.128 340.588 17.0114 340.508 16.872C341.044 17.0187 341.615 16.9708 342.12 16.737C342.321 16.6903 342.509 16.6001 342.671 16.4727C342.833 16.3454 342.966 16.184 343.059 16C343.152 15.8159 343.203 15.6137 343.21 15.4076C343.216 15.2015 343.177 14.9965 343.096 14.807C343.104 15.0675 343.016 15.3219 342.849 15.5217C342.681 15.7214 342.446 15.8525 342.188 15.89C341.467 15.8731 340.751 15.7708 340.054 15.585C340.054 15.585 341.294 15.443 341.545 14.732C341.609 14.5315 341.736 14.3569 341.907 14.234C342.078 14.111 342.284 14.0462 342.495 14.049C342.635 14.051 342.773 14.083 342.899 14.142C342.73 13.9558 342.498 13.839 342.248 13.814C341.998 13.7891 341.747 13.8578 341.545 14.007C341.182 14.1865 340.779 14.2701 340.375 14.25C339.971 14.2299 339.578 14.1066 339.235 13.892C338.232 13.384 337.88 14.224 337.67 14.244C337.46 14.264 337.311 13.939 337.426 13.566C337.541 13.194 338.686 12.889 340.413 12.828C341.083 12.748 341.761 12.866 342.364 13.167C342.364 13.072 342.059 12.652 341.118 12.422C340.176 12.192 340.237 11.805 340.285 11.142C340.332 10.478 339.363 10.742 339.126 10.661C338.889 10.579 339.126 10.058 339.126 10.058C338.954 10.0983 338.802 10.1976 338.695 10.3386C338.589 10.4797 338.535 10.6536 338.544 10.83C338.544 11.1 338.815 11.297 339.072 11.426C339.33 11.555 339.37 11.785 338.91 12.056C338.378 12.356 337.831 12.628 337.27 12.869C335.658 13.546 337.67 14.745 336.959 15.111C336.727 15.2044 336.522 15.3533 336.361 15.5446C336.2 15.7358 336.089 15.9636 336.037 16.208C336.015 16.3914 336.03 16.5774 336.083 16.7546C336.135 16.9318 336.223 17.0963 336.342 17.238C337.731 16.486 338.652 17.014 339.512 17.915L339.472 18.091V18.091ZM347.702 15.809C347.702 15.219 347.858 14.935 348.02 14.928C348.515 14.928 348.623 15.605 348.63 15.802C348.638 15.9625 348.607 16.1226 348.538 16.268C348.47 16.4133 348.366 16.5394 348.237 16.635C348.589 16.669 348.874 16.175 348.914 15.863C348.948 15.7028 348.949 15.5376 348.917 15.377C348.886 15.2163 348.823 15.0637 348.731 14.928C349.309 15.488 349.645 16.251 349.666 17.055C349.538 18.322 348.108 18.992 348.108 18.992C348.564 19.067 349.031 19.0157 349.46 18.8439C349.889 18.672 350.262 18.386 350.54 18.017C350.974 17.468 351.163 16.662 350.635 15.307C350.161 14.108 349.28 13.092 350.222 10.789C350.402 10.3283 350.685 9.91477 351.049 9.57981C351.412 9.24484 351.848 8.9973 352.322 8.85601C352.796 8.71428 353.296 8.68231 353.784 8.76254C354.272 8.84276 354.735 9.03306 355.139 9.31901C355.225 9.37715 355.291 9.45973 355.329 9.55601C355.424 9.82101 354.726 10.173 355.031 10.329C355.283 10.414 355.525 10.523 355.756 10.654C355.973 10.816 356.013 10.959 356.128 11.06C356.153 11.0899 356.184 11.1139 356.219 11.1303C356.255 11.1468 356.293 11.1552 356.332 11.155C355.76 10.3893 355.445 9.46254 355.431 8.50701C354.715 8.22007 353.976 7.99328 353.222 7.82901C352.182 7.6946 351.124 7.859 350.174 8.30301C348.745 8.98101 347.235 10.335 347.235 13.533C347.209 14.313 347.367 15.087 347.695 15.795L347.702 15.809V15.809ZM331.811 23.253C332.018 23.2226 332.206 23.1191 332.343 22.9613C332.48 22.8034 332.555 22.6018 332.556 22.393C332.674 22.5505 332.731 22.7449 332.718 22.941C332.805 22.8045 332.86 22.6503 332.878 22.4897C332.897 22.3292 332.88 22.1664 332.827 22.0135C332.775 21.8607 332.688 21.7216 332.574 21.6068C332.461 21.4919 332.322 21.4041 332.17 21.35C332.17 21.35 332.217 22.311 331.601 22.65C330.984 22.989 330.856 23.226 330.822 23.578C330.806 23.748 330.844 23.918 330.93 24.066C331.017 24.1918 331.143 24.2848 331.289 24.33C331.099 24.073 331.059 23.456 331.811 23.253V23.253ZM347.194 9.77301C345.392 9.87501 344.762 9.22501 343.529 8.63501C342.296 8.04501 341.233 8.47301 341.05 8.75701C341.944 8.8883 342.791 9.24518 343.509 9.79401C346.008 11.358 347.194 9.79401 347.194 9.79401V9.77401V9.77301ZM346.388 5.96601C346.124 6.04101 345.494 6.14201 345.785 7.60601C346.076 9.06901 346.875 8.71001 347.085 8.52601C346.767 8.47502 346.478 8.30876 346.275 8.05889C346.071 7.80902 345.967 7.493 345.981 7.17101C345.981 5.89901 347.417 6.13601 347.417 6.13601C347.105 5.9595 346.737 5.90838 346.388 5.99301V5.96601ZM362.448 24.594C361.885 22.8436 361.126 21.1623 360.186 19.582C359.407 18.41 359.014 19.25 358.702 19.514C358.391 19.778 357.483 21.309 357.084 19.338C356.684 17.367 354.645 15.66 354.645 15.66C354.963 16.8061 355.033 18.007 354.848 19.182C354.819 19.8059 354.862 20.4311 354.977 21.045C354.977 21.62 353.25 22 353.162 22.44C353.073 22.88 355.729 24.703 358.262 22.88C359.021 22.332 359.495 24.459 359.739 25.035C359.983 25.61 359.495 25.793 360.071 26.457C360.647 27.121 360.206 27.683 360.206 28.097C360.206 28.509 361.351 29.451 361.561 29.247C361.934 28.882 361.1 26.701 360.768 25.942C360.437 25.183 359.901 22.752 359.529 22.088C359.312 21.708 358.174 21.973 358.174 21.973L358.093 21.682C358.093 21.682 358.249 21.485 358.391 21.336C359.549 20.137 359.454 20.659 360.653 22.088C361.852 23.518 360.409 24.12 361.446 24.878C362.482 25.638 362.801 25.854 362.428 24.594H362.448ZM343.462 4.95001C343.682 5.01001 343.91 5.03701 344.139 5.03201C344.268 5.02665 344.394 4.98827 344.504 4.92053C344.615 4.85279 344.706 4.75793 344.769 4.64501C344.276 4.65908 343.794 4.49308 343.414 4.17801C343.414 4.17801 344.403 4.13101 344.898 4.06301C345.392 3.99501 346.307 3.75101 346.307 3.75101C346.307 3.75101 346.273 4.56401 346.266 5.03801C346.259 5.51301 346.869 5.41101 347.072 5.34301C347.275 5.27501 347.37 4.32001 347.411 3.51401C347.444 2.90401 346.991 2.89801 346.733 3.00601C346.118 3.29801 345.487 3.55601 344.843 3.77801C344.175 3.91802 343.487 3.93867 342.811 3.83901L342.743 4.09701L343.773 4.72701L343.462 4.95001ZM345.155 8.81801L345.439 8.69601C345.312 8.31702 345.234 7.92302 345.209 7.52401C345.238 6.92601 345.308 6.33101 345.419 5.74301H345.155C345.155 5.74301 345.04 6.64301 344.884 7.42901C344.728 8.21501 344.315 8.06601 344.112 8.05301C343.909 8.03901 342.303 7.80201 342.303 7.80201V8.03901L343.218 8.17501C343.888 8.32311 344.538 8.55038 345.155 8.85201V8.81801V8.81801ZM346.157 12.327C345.61 12.5838 344.996 12.6598 344.403 12.544C344.8 12.823 345.272 12.976 345.758 12.984C345.934 12.9806 346.107 12.9396 346.266 12.8637C346.425 12.7878 346.566 12.6788 346.679 12.544C346.882 12.2827 347.008 11.9701 347.044 11.6412C347.08 11.3123 347.024 10.9799 346.882 10.681C346.882 10.681 346.821 11.914 346.171 12.327H346.157V12.327ZM344.64 31.517C343.116 30 343.671 30.162 344.64 28.807C345.358 27.805 348.853 26.917 350.615 26.525V26.362C349.72 26.402 348.379 26.45 347.038 26.45C344.735 26.45 343.807 25.57 343.211 25.678C340.921 26.111 342.534 28.733 339.865 28.388C337.196 28.042 337.236 30.704 337.236 30.704C337.995 29.16 338.781 29.349 339.39 29.349C340 29.349 340.779 29.837 341.761 29.011C341.978 28.828 342.96 27.243 342.818 28.035C342.664 28.546 342.387 29.011 342.012 29.39C341.788 29.654 341.653 29.85 342.12 30.115L342.798 30.495C343.888 31.117 343.705 31.849 342.994 31.795C342.493 31.795 341.897 31.517 341.396 31.469C341.192 31.469 340.962 31.53 341.287 31.686C341.48 31.776 341.656 31.897 341.809 32.046C342.608 32.845 341.653 32.526 343.936 32.404C344.298 32.3911 344.658 32.3503 345.013 32.282C345.92 32.086 344.85 31.666 344.654 31.462L344.64 31.517V31.517ZM356.393 32.817C356.206 32.4792 356.038 32.131 355.891 31.774C355.526 31.009 355.891 31.158 355.661 30.718C355.431 30.278 355.282 30.718 354.645 29.735C354.523 29.545 354.272 29.627 354.239 30.095C354.205 30.562 354.984 30.995 355.343 32.127C355.702 33.257 356.02 33.387 355.702 34.077C355.383 34.768 354.001 34.755 354.001 34.755C355.106 35.9 357.348 34.335 356.393 32.851" fill="#D2D6E3"/>
<path d="M381.315 0.747009L367.806 37.92L368.265 38.087L381.773 0.913009L381.315 0.747009ZM140.27 29.519C140.27 32.713 142.426 34.699 145.944 34.699H149.31C150.261 34.6604 151.211 34.8104 152.104 35.1402C152.998 35.4701 153.817 35.9733 154.515 36.621L154.799 36.897L155.082 36.621C155.773 35.9776 156.584 35.4768 157.469 35.1471C158.354 34.8175 159.295 34.6656 160.239 34.7H163.611C167.073 34.7 169.221 32.713 169.221 29.519V1.95401H140.27V29.52V29.519ZM140.876 2.58601H168.612V29.52C168.612 32.382 166.739 34.093 163.609 34.093H160.237C158.225 34.0136 156.261 34.7169 154.757 36.055C153.247 34.7204 151.281 34.0179 149.267 34.093H145.904C142.758 34.093 140.877 32.382 140.877 29.52V2.58601H140.876Z" fill="#D2D6E3"/>
<path d="M144.972 19.637C145.108 19.741 145.252 19.837 145.402 19.92C145.539 20.001 145.548 20.01 145.482 20.155L145.426 20.245C145.204 20.6328 145.069 21.0644 145.031 21.5098C144.993 21.9551 145.053 22.4033 145.207 22.823C145.264 22.985 145.337 23.147 145.417 23.35C145.499 22.969 145.564 22.644 145.637 22.328C145.672 22.1137 145.749 21.9085 145.865 21.7247C145.981 21.5409 146.132 21.3822 146.31 21.258C146.431 21.173 146.548 21.081 146.658 20.983C146.691 20.9606 146.727 20.9415 146.764 20.926C146.891 21.0769 146.968 21.2641 146.983 21.461C147.026 21.864 146.947 22.2706 146.756 22.628C146.618 22.888 146.48 23.148 146.366 23.439C146.238 23.6988 146.188 23.9899 146.221 24.2775C146.254 24.5651 146.369 24.8371 146.553 25.061C146.683 25.231 146.829 25.377 146.983 25.555L146.804 25.774C146.751 25.8311 146.721 25.9063 146.721 25.9845C146.721 26.0627 146.751 26.1379 146.804 26.195C146.854 26.259 146.908 26.318 146.966 26.374C147.054 26.467 147.126 26.574 147.177 26.69C147.309 26.996 147.346 27.335 147.283 27.663C147.255 27.7261 147.252 27.7971 147.272 27.8628C147.293 27.9284 147.337 27.9843 147.396 28.02C147.656 28.168 147.96 28.222 148.256 28.174C148.386 28.174 148.401 28.125 148.377 27.979C148.357 27.8023 148.29 27.6343 148.182 27.493L147.761 26.941C147.656 26.7953 147.594 26.6224 147.584 26.4428C147.574 26.2633 147.616 26.0846 147.704 25.928C148.115 26.1292 148.556 26.2633 149.009 26.325C149.013 26.3656 149.013 26.4064 149.009 26.447C148.979 26.717 148.979 26.988 149.009 27.257C149.032 27.4658 149.11 27.6646 149.235 27.8329C149.361 28.0013 149.529 28.1328 149.723 28.214C150.127 28.329 150.56 28.2824 150.931 28.084C151.138 27.9843 151.305 27.8189 151.408 27.6137C151.511 27.4085 151.542 27.1751 151.498 26.95C151.466 26.7856 151.426 26.6231 151.377 26.463C151.474 26.333 151.62 26.366 151.766 26.349C151.832 26.3402 151.899 26.3549 151.955 26.3906C152.012 26.4262 152.054 26.4805 152.074 26.544C152.139 26.706 152.196 26.86 152.268 27.014C152.288 27.0471 152.299 27.0852 152.299 27.124C152.299 27.1628 152.288 27.2009 152.268 27.234C152.147 27.452 152.05 27.687 151.928 27.906C151.897 27.9591 151.885 28.0217 151.895 28.0825C151.906 28.1433 151.938 28.1984 151.985 28.238C152.058 28.303 152.139 28.344 152.204 28.408C152.268 28.474 152.317 28.62 152.155 28.652C152.017 28.6844 151.872 28.6844 151.734 28.652C151.63 28.6183 151.516 28.6267 151.418 28.6752C151.319 28.7237 151.244 28.8087 151.207 28.912C151.193 28.9494 151.17 28.9828 151.141 29.0096C151.111 29.0364 151.076 29.0558 151.037 29.066C150.938 29.0869 150.846 29.1352 150.773 29.2054C150.7 29.2755 150.648 29.3648 150.623 29.463V29.593L150.85 29.487C151.3 29.323 151.79 29.303 152.252 29.43C152.736 29.542 153.197 29.736 153.614 30.006C153.641 30.016 153.669 30.016 153.695 30.006C153.73 29.911 153.728 29.8066 153.691 29.7126C153.654 29.6186 153.583 29.5415 153.493 29.496C153.435 29.4653 153.375 29.4379 153.314 29.414C153.023 29.317 152.723 29.236 152.431 29.147C152.35 29.147 152.261 29.147 152.244 28.977C152.418 28.936 152.598 28.936 152.771 28.977C153.217 29.074 153.663 29.195 154.109 29.301C154.247 29.301 154.385 29.39 154.53 29.438V29.308C154.517 29.107 154.462 28.9111 154.368 28.733C154.288 28.603 154.214 28.457 154.133 28.328C154.087 28.2464 154.063 28.1542 154.063 28.0605C154.063 27.9667 154.087 27.8746 154.133 27.793C154.505 27.809 154.871 27.883 155.22 28.012C155.584 28.109 155.933 28.238 156.322 28.36V27.906C156.376 27.8773 156.433 27.8555 156.492 27.841C156.687 27.768 156.687 27.768 156.842 27.939C157.236 28.379 157.752 28.695 158.325 28.847C158.457 28.8839 158.598 28.8839 158.73 28.847C158.64 28.774 158.568 28.725 158.511 28.668C158.454 28.612 158.365 28.547 158.373 28.449C158.381 28.352 158.373 28.449 158.43 28.449L159.079 28.652C159.257 28.701 159.306 28.652 159.379 28.506C159.451 28.34 159.479 28.159 159.459 27.979C159.455 27.9224 159.455 27.8656 159.459 27.809C159.596 27.8326 159.725 27.8911 159.833 27.979C160.125 28.149 160.125 28.149 160.384 27.914C160.409 27.8853 160.436 27.8586 160.465 27.834C160.925 27.317 161.238 26.687 161.373 26.009C161.393 25.909 161.423 25.811 161.463 25.717C161.624 25.717 161.77 25.79 161.883 25.717C161.883 25.587 161.681 25.571 161.722 25.417C161.94 25.434 162.16 25.397 162.362 25.312C162.336 25.283 162.306 25.2584 162.273 25.239C161.986 25.0858 161.747 24.8555 161.583 24.574L161.057 23.609C160.919 23.358 160.83 23.342 160.611 23.488H160.53C160.433 23.326 160.32 23.139 160.214 22.953C160.146 22.828 160.107 22.6892 160.1 22.547C160.096 22.4326 160.056 22.3223 159.987 22.231C159.914 22.126 159.849 22.126 159.727 22.231L159.581 22.321C159.581 22.158 159.581 22.021 159.525 21.858H159.257C159.214 21.8629 159.171 21.8557 159.132 21.8371C159.094 21.8185 159.061 21.7894 159.038 21.753C158.958 21.615 158.868 21.485 158.795 21.347C158.722 21.209 158.795 21.177 158.892 21.153H158.982C159.73 21.1548 160.468 20.9739 161.13 20.626C161.409 20.414 161.714 20.24 162.038 20.106C162.099 20.0805 162.166 20.0731 162.23 20.0848C162.295 20.0966 162.355 20.1268 162.403 20.172L163.051 20.861C163.103 20.9167 163.141 20.9838 163.162 21.0569C163.183 21.1301 163.187 21.2072 163.173 21.282C163.165 21.342 163.171 21.4032 163.193 21.46C163.214 21.5167 163.249 21.5673 163.295 21.607C163.391 21.723 163.48 21.845 163.562 21.972C163.609 22.0442 163.639 22.1269 163.647 22.213C163.656 22.299 163.643 22.3858 163.611 22.466C163.571 22.58 163.546 22.685 163.497 22.79C163.478 22.8214 163.465 22.8563 163.46 22.8926C163.454 22.929 163.456 22.9661 163.465 23.0017C163.474 23.0373 163.491 23.0707 163.513 23.1C163.535 23.1292 163.563 23.1537 163.595 23.172C163.771 23.305 163.958 23.425 164.154 23.528C164.3 23.609 164.381 23.528 164.405 23.39C164.447 23.1113 164.396 22.8266 164.259 22.58C164.067 22.2651 163.966 21.903 163.967 21.534C163.958 21.1935 163.815 20.8702 163.57 20.634C163.389 20.4302 163.224 20.2133 163.076 19.985C162.981 19.8318 162.897 19.6721 162.824 19.507C162.678 19.264 162.508 19.061 162.184 19.093C162.033 19.1012 161.881 19.1012 161.73 19.093H161.608V19.053C161.86 18.948 162.078 18.777 162.241 18.558C162.459 18.315 162.678 18.08 162.905 17.853C163.132 17.626 163.051 17.731 163.173 17.853C163.212 17.884 163.247 17.919 163.278 17.958C163.448 18.145 163.618 18.331 163.798 18.51C163.854 18.5546 163.898 18.6131 163.925 18.6797C163.952 18.7464 163.961 18.8188 163.951 18.89C163.939 18.9621 163.955 19.0361 163.996 19.0966C164.037 19.1571 164.1 19.1995 164.171 19.215C164.231 19.239 164.281 19.282 164.316 19.337C164.359 19.3839 164.392 19.4394 164.413 19.4999C164.433 19.5604 164.44 19.6245 164.434 19.6881C164.428 19.7516 164.409 19.8131 164.377 19.8686C164.345 19.9241 164.303 19.9723 164.251 20.01L164.194 20.074C164.136 20.1279 164.099 20.2004 164.089 20.2789C164.078 20.3574 164.096 20.437 164.138 20.504C164.185 20.6092 164.253 20.7037 164.338 20.7817C164.423 20.8598 164.523 20.9197 164.632 20.958C164.819 21.023 164.916 20.958 164.932 20.788C164.961 20.627 164.961 20.462 164.932 20.302C164.827 19.9357 164.786 19.5542 164.811 19.174C164.821 19.07 164.807 18.9651 164.769 18.8679C164.73 18.7707 164.669 18.684 164.591 18.615C164.355 18.3694 164.125 18.118 163.902 17.861C163.664 17.6222 163.491 17.326 163.4 17.001C163.385 16.945 163.363 16.891 163.335 16.84C163.313 16.7779 163.269 16.7259 163.211 16.6936C163.154 16.6612 163.087 16.6507 163.022 16.664C162.979 16.6725 162.939 16.691 162.905 16.718C162.776 16.805 162.659 16.908 162.557 17.026C162.395 17.2292 162.186 17.3904 161.949 17.496C161.924 17.5141 161.896 17.5259 161.865 17.5303C161.835 17.5347 161.804 17.5316 161.775 17.5212C161.746 17.5109 161.72 17.4936 161.7 17.4708C161.679 17.4481 161.665 17.4207 161.657 17.391C161.621 17.3113 161.596 17.2268 161.584 17.14C161.515 16.7318 161.351 16.3457 161.105 16.013C161 15.867 160.878 15.737 160.773 15.591C160.558 15.3488 160.38 15.0758 160.246 14.781C160.036 14.172 159.808 13.581 159.598 12.972C159.548 12.8455 159.507 12.7155 159.476 12.583H159.857C160.125 12.6 160.382 12.69 160.603 12.843C160.708 12.923 160.806 13.021 160.919 13.094C161.004 13.154 161.101 13.196 161.203 13.216C161.235 13.2205 161.267 13.2169 161.296 13.2056C161.326 13.1942 161.353 13.1754 161.373 13.151C161.373 13.151 161.373 13.053 161.324 13.005C161.323 12.9807 161.323 12.9563 161.324 12.932C161.39 12.9468 161.452 12.9778 161.503 13.022C161.533 13.0579 161.574 13.0828 161.62 13.0927C161.665 13.1027 161.713 13.0972 161.755 13.077C161.783 13.0638 161.807 13.0447 161.827 13.021C161.872 12.9505 161.897 12.8694 161.9 12.786V12.381C161.901 12.3152 161.882 12.2506 161.846 12.1956C161.809 12.1406 161.758 12.0976 161.697 12.072C161.609 12.0237 161.532 11.9576 161.47 11.878C161.195 11.505 160.935 11.116 160.66 10.735C160.606 10.6655 160.567 10.5854 160.546 10.5C160.518 10.3377 160.442 10.1877 160.327 10.07V9.97999H160.562C160.5 9.82888 160.427 9.68277 160.343 9.54299C160.277 9.44237 160.181 9.36558 160.068 9.324C159.929 9.29144 159.785 9.29144 159.646 9.324C159.527 9.35399 159.401 9.35024 159.284 9.31316C159.166 9.27608 159.062 9.20713 158.981 9.114C158.868 9.01634 158.746 8.92931 158.617 8.85399C158.577 8.84432 158.535 8.84432 158.495 8.85399V9.114L157.757 9.02399C157.757 9.21899 157.944 9.27599 157.977 9.43799C157.915 9.44575 157.852 9.44575 157.79 9.43799C157.482 9.43102 157.175 9.4609 156.874 9.527C156.874 9.527 156.768 9.52699 156.72 9.47799C156.651 9.4262 156.572 9.39117 156.487 9.37572C156.403 9.36027 156.316 9.36481 156.233 9.38899C155.969 9.45632 155.717 9.56572 155.487 9.713C155.429 9.75082 155.367 9.78107 155.301 9.803C155.284 9.67924 155.284 9.55375 155.301 9.43C155.447 8.97371 155.447 8.48328 155.301 8.027C155.244 7.832 155.147 7.64599 155.074 7.43499C155.09 7.41141 155.109 7.38962 155.13 7.36999C155.218 7.29479 155.289 7.20162 155.338 7.09675C155.387 6.99188 155.413 6.87774 155.414 6.76199C155.412 6.63319 155.376 6.50727 155.309 6.39699C155.26 6.29999 155.139 6.39699 155.049 6.39699C154.951 6.38782 154.855 6.36071 154.766 6.31699C154.653 6.24562 154.522 6.20773 154.389 6.20773C154.256 6.20773 154.125 6.24562 154.012 6.31699C153.694 6.48399 153.352 6.60199 152.998 6.66499C152.733 6.74058 152.453 6.74058 152.188 6.66499C152.123 6.66499 152.05 6.66499 151.952 6.60799C152.039 6.89833 152.233 7.14485 152.495 7.29799C152.423 7.43499 152.277 7.29799 152.204 7.38599C152.131 7.47599 152.204 7.38599 152.204 7.43599C152.312 7.53691 152.44 7.61421 152.579 7.66294C152.719 7.71167 152.867 7.73076 153.014 7.71899C153.081 7.70248 153.15 7.70248 153.217 7.71899C153.299 7.75524 153.387 7.77396 153.477 7.77396C153.566 7.77396 153.654 7.75524 153.736 7.71899C153.801 7.71899 153.858 7.66199 153.906 7.71899V7.77599C153.77 7.88832 153.663 8.03157 153.594 8.19372C153.525 8.35588 153.496 8.53223 153.509 8.70799C153.516 8.90331 153.477 9.0975 153.395 9.27499C153.395 9.34799 153.395 9.42999 153.331 9.50199C153.315 9.55577 153.293 9.60772 153.266 9.65699C153.12 9.65699 152.974 9.56699 152.836 9.55099C152.74 9.52661 152.64 9.52661 152.544 9.55099C152.497 9.5804 152.442 9.59597 152.386 9.59597C152.33 9.59597 152.275 9.5804 152.228 9.55099C152.123 9.47817 151.999 9.43913 151.872 9.43913C151.744 9.43913 151.62 9.47817 151.515 9.55099C151.36 9.64099 151.215 9.746 151.06 9.843C150.906 9.94 150.842 10.013 150.728 10.078C150.615 10.143 150.558 10.135 150.509 10.021C150.461 9.90799 150.323 9.59099 150.225 9.37299C150.128 9.15299 150.08 8.99199 149.82 8.99999C149.707 8.99999 149.674 8.93499 149.674 8.82999V8.66699C149.561 8.559 149.487 8.41654 149.464 8.26199C149.464 8.18099 149.399 8.13199 149.326 8.16499C149.253 8.19699 149.326 8.33499 149.326 8.36699C149.326 8.39999 149.406 8.59399 149.456 8.70799C149.553 8.70799 149.569 8.81299 149.504 8.86999C149.426 8.95354 149.336 9.0244 149.236 9.07999C149.179 9.10333 149.115 9.10333 149.058 9.07999C148.936 8.95099 148.758 8.83799 148.88 8.60299C148.868 8.55965 148.865 8.51421 148.872 8.46972C148.879 8.42524 148.895 8.38273 148.92 8.34505C148.944 8.30737 148.977 8.27538 149.015 8.25122C149.053 8.22707 149.095 8.21131 149.14 8.20499L148.945 7.95399C148.677 7.59699 148.425 7.23199 148.134 6.86799C148.076 6.79808 148.008 6.73768 147.931 6.68899C147.892 6.65733 147.843 6.64004 147.793 6.64004C147.743 6.64004 147.694 6.65733 147.655 6.68899C147.623 6.72475 147.605 6.77103 147.605 6.81899C147.605 6.86696 147.623 6.91324 147.655 6.94899C147.691 7.01099 147.732 7.07099 147.777 7.12699C148.069 7.54899 148.361 7.97799 148.669 8.39999C148.669 8.46499 148.759 8.52999 148.718 8.60999C148.677 8.69199 148.718 8.81299 148.718 8.90299C148.718 8.99199 148.872 9.08099 148.936 9.16999C149.011 9.25606 149.064 9.35901 149.09 9.47C149.143 9.686 149.23 9.89099 149.35 10.078C149.415 10.184 149.472 10.288 149.528 10.402C149.581 10.4804 149.602 10.5759 149.587 10.6693C149.572 10.7627 149.523 10.8469 149.448 10.905C149.347 10.988 149.252 11.0775 149.163 11.173C149.05 11.3172 148.947 11.4689 148.855 11.627C148.814 11.6774 148.792 11.7402 148.792 11.805C148.792 11.8697 148.814 11.9325 148.855 11.983C148.995 11.956 149.133 11.921 149.269 11.878C149.316 11.8579 149.369 11.8519 149.42 11.8608C149.47 11.8697 149.517 11.8932 149.555 11.9283C149.593 11.9634 149.62 12.0087 149.632 12.0586C149.645 12.1086 149.643 12.1612 149.626 12.21C149.618 12.2823 149.589 12.3507 149.543 12.4068C149.497 12.463 149.435 12.5044 149.366 12.526C149.292 12.546 149.218 12.57 149.147 12.6C148.88 12.697 148.62 12.786 148.337 12.891C148.255 12.9294 148.183 12.9855 148.125 13.0553C148.068 13.1252 148.027 13.207 148.005 13.2947C147.983 13.3825 147.981 13.474 147.999 13.5626C148.017 13.6512 148.055 13.7347 148.109 13.807C148.288 14.027 148.255 14.148 148.029 14.334C147.923 14.416 147.818 14.48 147.712 14.554C147.65 14.591 147.601 14.645 147.569 14.7096C147.538 14.7742 147.525 14.8466 147.534 14.918C147.539 14.961 147.532 15.0045 147.515 15.0442C147.498 15.084 147.471 15.1187 147.437 15.145C147.304 15.265 147.206 15.42 147.153 15.591C147.129 15.627 147.116 15.6692 147.116 15.7125C147.116 15.7557 147.129 15.798 147.153 15.834C147.226 15.899 147.291 15.834 147.356 15.834C147.505 15.766 147.659 15.709 147.818 15.664C148.202 15.571 148.598 15.53 148.993 15.543C149.318 15.535 149.637 15.626 149.909 15.802C150.112 15.956 150.307 16.126 150.501 16.296C150.58 16.371 150.667 16.436 150.761 16.491C150.866 16.54 151.011 16.491 151.101 16.581C151.191 16.669 151.231 16.783 151.296 16.881C151.332 16.9157 151.357 16.9611 151.365 17.0106C151.374 17.0601 151.366 17.111 151.344 17.156C151.344 17.253 151.231 17.245 151.158 17.253C150.734 17.2951 150.316 17.3792 149.909 17.504C149.881 17.5238 149.847 17.5344 149.812 17.5344C149.777 17.5344 149.743 17.5238 149.715 17.504L149.382 17.261C148.953 16.9435 148.446 16.7476 147.915 16.694C147.725 16.6791 147.534 16.7037 147.354 16.7664C147.174 16.829 147.009 16.9283 146.869 17.058C146.528 17.387 146.252 17.778 146.059 18.21C145.955 18.4142 145.88 18.6325 145.839 18.858C145.791 19.093 145.726 19.32 145.661 19.548C145.596 19.775 145.571 19.702 145.475 19.637C145.218 19.5067 144.994 19.3209 144.818 19.093C144.615 18.769 144.608 18.607 144.923 18.283C144.98 18.2408 145.043 18.2077 145.11 18.185C145.167 18.323 145.11 18.453 145.223 18.55C145.308 18.636 145.381 18.73 145.443 18.834C145.509 18.7863 145.561 18.7226 145.596 18.6489C145.63 18.5752 145.645 18.494 145.639 18.4129C145.633 18.3318 145.607 18.2535 145.563 18.1855C145.518 18.1174 145.457 18.0618 145.385 18.024C145.324 18.0093 145.26 18.0093 145.199 18.024C145.034 18.0149 144.871 18.0654 144.74 18.1664C144.609 18.2674 144.519 18.412 144.486 18.574C144.403 18.7916 144.394 19.03 144.458 19.2537C144.522 19.4774 144.657 19.6743 144.842 19.815L144.972 19.637V19.637ZM148.669 8.1L147.859 6.89999C147.801 6.82699 147.712 6.72999 147.801 6.65699C147.891 6.58399 147.947 6.72999 147.988 6.79499L148.798 7.91299C148.846 7.98299 148.886 8.056 148.92 8.133C148.79 8.197 148.734 8.133 148.693 8.133L148.67 8.1H148.669ZM147.299 24.97C147.136 24.7595 146.997 24.5314 146.885 24.29L147.039 24.419L147.266 24.662C147.38 24.792 147.388 24.784 147.266 25.002L147.299 24.97V24.97ZM147.785 27.5L147.607 27.556C147.558 27.67 147.607 27.726 147.68 27.8C147.689 27.8483 147.689 27.8977 147.68 27.946C147.629 27.9538 147.577 27.9538 147.526 27.946C147.489 27.9298 147.456 27.906 147.429 27.8761C147.402 27.8461 147.382 27.8108 147.369 27.7724C147.357 27.734 147.353 27.6934 147.358 27.6533C147.362 27.6132 147.375 27.5746 147.396 27.54C147.441 27.4283 147.441 27.3037 147.396 27.192C147.334 27.0383 147.334 26.8666 147.396 26.713C147.585 26.948 147.711 27.227 147.761 27.524L147.785 27.5V27.5ZM147.453 24.5C147.366 24.4677 147.287 24.4179 147.219 24.3538C147.152 24.2896 147.099 24.2125 147.063 24.127C147.057 24.0557 147.074 23.9843 147.113 23.924C147.21 23.697 147.331 23.479 147.42 23.244C147.639 22.662 147.711 22.035 147.631 21.419C147.57 21.0687 147.406 20.7444 147.161 20.487C147.128 20.4608 147.104 20.4247 147.092 20.384C147.08 20.3432 147.082 20.2999 147.096 20.26C147.226 19.838 147.339 19.45 147.469 19.003C147.54 18.7521 147.677 18.5245 147.865 18.3436C148.053 18.1627 148.286 18.0348 148.539 17.973C148.771 17.893 149.018 17.868 149.261 17.901C149.31 17.8966 149.358 17.8966 149.407 17.901C149.383 17.954 149.356 18.005 149.326 18.055C149.01 18.506 148.815 19.031 148.758 19.579C148.693 20.046 148.668 20.519 148.685 20.989V21.549C148.714 21.7831 148.714 22.0199 148.685 22.254C148.67 22.3826 148.629 22.5067 148.563 22.6185C148.498 22.7302 148.41 22.8271 148.305 22.903C148.179 23.0016 148.046 23.0911 147.907 23.171C147.84 23.213 147.782 23.2684 147.737 23.3338C147.693 23.3992 147.662 23.4732 147.647 23.551C147.591 23.843 147.517 24.127 147.445 24.46L147.453 24.5V24.5ZM148.839 25.903C148.499 25.817 148.173 25.6801 147.874 25.497C147.753 25.424 147.753 25.384 147.874 25.197L149.155 25.627C149.155 25.83 149.018 25.943 148.847 25.903H148.84H148.839ZM154.733 20.722L155.317 21.444C155.397 21.543 155.467 21.648 155.527 21.76C155.527 21.816 155.577 21.906 155.527 21.938C155.505 21.963 155.477 21.9825 155.446 21.9952C155.416 22.0078 155.382 22.0133 155.349 22.011C155.186 22.002 155.027 21.9539 154.886 21.8707C154.745 21.7875 154.626 21.6717 154.539 21.533C154.474 21.411 154.409 21.338 154.255 21.379C154.215 21.3902 154.173 21.3902 154.133 21.379L153.858 21.144C153.839 21.1258 153.826 21.1023 153.821 21.0766C153.815 21.0509 153.818 21.0242 153.828 21C153.909 20.8876 153.979 20.7673 154.036 20.641C154.159 20.379 154.262 20.108 154.344 19.831C154.466 19.376 154.554 18.914 154.66 18.428L155.39 18.225C155.396 18.309 155.396 18.393 155.39 18.476C155.236 18.963 155.066 19.441 154.903 19.919C154.839 20.098 154.782 20.284 154.717 20.471C154.693 20.5086 154.681 20.5521 154.681 20.5965C154.681 20.6409 154.693 20.6844 154.717 20.722H154.733V20.722ZM155.438 20.098C155.576 19.652 155.714 19.206 155.852 18.728L155.99 18.841C156.136 18.995 156.29 19.165 156.436 19.336C156.497 19.4268 156.523 19.5365 156.51 19.6451C156.497 19.7537 156.444 19.8538 156.363 19.927C156.07 20.05 155.755 20.107 155.438 20.097V20.098ZM153.72 20.333C153.355 20.398 152.99 20.479 152.625 20.56C152.26 20.641 152.155 20.609 152.106 20.195C152.106 20.057 152.106 19.919 152.05 19.79C152.123 19.311 152.187 18.825 152.268 18.347C152.293 18.197 152.326 18.047 152.366 17.901C152.406 17.763 152.439 17.747 152.585 17.763L154.141 17.966C154.189 17.977 154.235 17.9931 154.279 18.014C154.316 18.0251 154.348 18.0493 154.369 18.0822C154.39 18.1151 154.399 18.1544 154.393 18.193C154.317 18.8185 154.2 19.4385 154.044 20.049C154.032 20.1248 153.995 20.1946 153.94 20.2474C153.884 20.3002 153.812 20.3331 153.736 20.341L153.72 20.333V20.333ZM154.782 17.673C154.244 17.5476 153.72 17.3687 153.217 17.139C153.127 17.139 153.007 17.057 153.014 16.944C153.023 16.83 153.16 16.79 153.25 16.79C153.476 16.7736 153.704 16.7736 153.93 16.79C153.982 16.796 154.03 16.819 154.068 16.855C154.383 17.077 154.657 17.351 154.879 17.665H154.782V17.674V17.673ZM153.428 16.044C153.16 16.182 152.909 16.32 152.618 16.441C152.478 16.507 152.331 16.556 152.179 16.587C152.088 16.6039 151.995 16.5964 151.908 16.5651C151.821 16.5338 151.744 16.4799 151.685 16.409C151.595 16.319 151.595 16.239 151.685 16.166C151.78 16.074 151.897 16.0066 152.024 15.9698C152.151 15.9331 152.285 15.928 152.415 15.955C152.529 15.9947 152.651 16.0066 152.771 15.9897C152.891 15.9729 153.005 15.9277 153.104 15.858L153.217 15.785C153.436 15.639 153.468 15.647 153.598 15.923C153.534 15.9692 153.466 16.0097 153.395 16.044H153.428ZM152.171 22.774C152.341 22.554 152.455 22.53 152.698 22.684L152.779 22.749V22.806C152.504 23.162 152.058 23.3 151.733 23.616C151.636 23.446 151.644 23.373 151.733 23.252L152.131 22.773H152.171V22.774ZM151.523 23.211C151.425 23.341 151.303 23.438 151.207 23.56C151.146 23.6144 151.1 23.6833 151.072 23.7603C151.045 23.8372 151.037 23.9199 151.05 24.0006C151.063 24.0812 151.096 24.1574 151.146 24.2219C151.197 24.2865 151.262 24.3374 151.337 24.37C151.491 24.4499 151.612 24.5822 151.677 24.743C151.689 24.7909 151.689 24.8411 151.677 24.889H150.971C150.484 24.8665 150.002 24.9969 149.593 25.262C149.54 25.2952 149.477 25.3093 149.415 25.302C149.052 25.2632 148.698 25.1617 148.369 25.002L148.012 24.832C148.058 24.565 148.186 24.319 148.377 24.127C148.644 23.8795 148.981 23.7209 149.342 23.673C149.562 23.6346 149.776 23.5723 149.982 23.487C150.51 23.3086 151.021 23.0806 151.506 22.806C151.533 22.7977 151.561 22.7977 151.588 22.806H151.652C151.709 22.984 151.596 23.114 151.498 23.243L151.523 23.211V23.211ZM150.59 27.297C150.49 27.336 150.379 27.3387 150.277 27.3048C150.174 27.2708 150.087 27.2023 150.03 27.111C150.018 27.0856 150.012 27.0579 150.012 27.03C150.012 27.002 150.018 26.9744 150.03 26.949C150.09 26.861 150.161 26.782 150.242 26.713C150.399 26.593 150.582 26.513 150.777 26.478C150.819 26.5444 150.847 26.6187 150.859 26.6963C150.871 26.7739 150.867 26.8531 150.847 26.9291C150.827 27.0051 150.792 27.0762 150.744 27.1381C150.695 27.2 150.635 27.2514 150.566 27.289L150.59 27.297V27.297ZM154.004 28.789C153.837 28.8396 153.661 28.8549 153.488 28.8339C153.315 28.8129 153.148 28.756 152.998 28.667C152.834 28.5817 152.691 28.4598 152.582 28.3106C152.472 28.1615 152.398 27.9892 152.366 27.807C152.624 27.817 152.876 27.891 153.096 28.027C153.331 28.197 153.541 28.384 153.768 28.562C153.851 28.633 153.929 28.709 154.004 28.789V28.789ZM155.625 27.386H155.479C155.233 27.3045 154.976 27.2636 154.717 27.265H153.703C153.429 27.2819 153.155 27.2487 152.893 27.167C152.654 27.083 152.449 26.9237 152.309 26.713C152.244 26.6085 152.205 26.4895 152.197 26.3666C152.188 26.2437 152.21 26.1205 152.26 26.008C152.325 25.813 152.31 25.748 152.106 25.7C151.903 25.6536 151.697 25.6235 151.49 25.61C151.118 25.5732 150.743 25.6009 150.38 25.692C150.054 25.782 149.769 25.9793 149.569 26.252C149.422 26.4673 149.333 26.7163 149.309 26.9757C149.285 27.2351 149.327 27.4963 149.431 27.735V27.865C149.382 27.808 149.317 27.775 149.269 27.719C149.14 27.544 149.053 27.3422 149.014 27.1286C148.974 26.915 148.984 26.6953 149.042 26.486C149.092 26.28 149.174 26.083 149.285 25.903C149.505 25.57 149.84 25.331 150.225 25.23C150.633 25.06 151.082 25.018 151.515 25.108C151.725 25.108 151.936 25.198 152.147 25.23C152.495 25.286 152.851 25.27 153.193 25.181H153.29C153.389 25.1393 153.5 25.1343 153.603 25.1669C153.705 25.1995 153.793 25.2676 153.85 25.359C154.045 25.562 154.25 25.754 154.466 25.935L154.579 26.04V26.09H154.328C154.344 26.133 154.363 26.177 154.385 26.219C154.615 26.554 154.939 26.814 155.317 26.965L155.503 27.054C155.714 27.151 155.714 27.167 155.673 27.419L155.625 27.386V27.386ZM157.935 26.876C157.757 27.223 157.495 27.521 157.174 27.743H157.068L157.449 26.933C157.335 27.0107 157.215 27.0808 157.092 27.143C156.964 27.2055 156.828 27.2493 156.687 27.273C156.874 26.993 157.001 26.679 157.06 26.348C156.893 26.4405 156.716 26.5142 156.533 26.568C156.249 26.612 155.961 26.637 155.673 26.64C155.678 26.6245 155.678 26.6075 155.673 26.592C155.673 26.592 155.747 26.511 155.795 26.494C155.99 26.397 156.192 26.308 156.403 26.219L156.557 26.129L156.071 26.073C155.925 26.0642 155.78 26.037 155.641 25.992C155.829 25.918 156.013 25.834 156.192 25.74C156.374 25.629 156.547 25.504 156.712 25.368H156.565C155.999 25.4158 155.429 25.3523 154.887 25.181C154.805 25.153 154.729 25.1121 154.66 25.06C155.215 25.0748 155.767 24.9754 156.282 24.768C156.009 24.7798 155.736 24.7525 155.471 24.687C155.198 24.6063 154.928 24.5169 154.661 24.419V24.37C154.709 24.3621 154.758 24.3621 154.806 24.37C155.287 24.4 155.77 24.348 156.233 24.216C156.46 24.16 156.695 24.111 156.923 24.03C157.384 23.876 157.579 24.297 157.538 24.597C157.498 24.897 157.465 25.181 157.425 25.473C157.411 25.5545 157.423 25.6384 157.459 25.7126C157.496 25.7869 157.555 25.8476 157.628 25.886C157.806 25.999 157.942 26.167 158.017 26.365C158.065 26.4578 158.09 26.5607 158.09 26.665C158.09 26.7693 158.065 26.8722 158.017 26.965L157.936 26.875L157.935 26.876ZM157.903 24.443C157.952 24.249 158 24.046 158.041 23.843C158.099 23.8354 158.158 23.8472 158.209 23.8767C158.259 23.9062 158.299 23.9517 158.321 24.006C158.336 24.0418 158.343 24.0803 158.341 24.119C158.357 24.2156 158.357 24.3144 158.341 24.411C158.257 24.6396 158.162 24.8642 158.057 25.084C158.057 25.132 157.992 25.164 157.936 25.23C157.867 24.964 157.867 24.685 157.936 24.419L157.903 24.443V24.443ZM160.546 26.535C160.338 26.9504 159.978 27.2698 159.541 27.427C159.43 27.4282 159.318 27.4202 159.208 27.403C159.128 27.67 159.046 27.929 158.958 28.213C158.743 28.1628 158.546 28.0533 158.39 27.897C158.359 27.8676 158.335 27.8323 158.319 27.7933C158.302 27.7543 158.293 27.7124 158.293 27.67C158.293 27.6276 158.302 27.5856 158.319 27.5466C158.335 27.5076 158.359 27.4724 158.39 27.443C158.55 27.28 158.726 27.133 158.916 27.005C159.33 26.778 159.727 26.584 160.181 26.373L160.538 26.195C160.603 26.284 160.538 26.34 160.538 26.405L160.546 26.535V26.535ZM160.019 22.733C160.229 23.041 160.279 23.406 160.489 23.713L160.7 23.576C160.729 23.5494 160.766 23.5346 160.805 23.5346C160.844 23.5346 160.882 23.5494 160.91 23.576C160.922 23.5866 160.932 23.5997 160.938 23.6143C160.945 23.629 160.949 23.6449 160.949 23.661C160.949 23.6771 160.945 23.693 160.938 23.7077C160.932 23.7223 160.922 23.7354 160.91 23.746C160.781 23.941 160.862 24.111 161.114 24.127C161.162 24.1265 161.209 24.1411 161.248 24.1688C161.287 24.1964 161.316 24.2357 161.332 24.281C161.405 24.492 161.487 24.703 161.576 24.93L161.422 24.995V25.295C161.422 25.392 161.284 25.295 161.235 25.295C161.049 25.116 160.855 24.938 160.684 24.751C160.514 24.565 160.489 24.508 160.376 24.371C160.376 24.321 160.441 24.297 160.456 24.265C160.578 24.095 160.546 23.981 160.343 23.892C160.287 23.8696 160.236 23.8345 160.195 23.7894C160.154 23.7443 160.125 23.6905 160.108 23.632C160.108 23.462 159.995 23.308 159.946 23.146C159.905 23.0894 159.883 23.0213 159.883 22.9515C159.883 22.8817 159.905 22.8136 159.946 22.757L160.019 22.733ZM159.444 23.163C159.509 23.1979 159.561 23.251 159.596 23.3157C159.63 23.3805 159.645 23.454 159.638 23.527L159.492 23.447C159.445 23.4097 159.386 23.3894 159.326 23.3894C159.266 23.3894 159.207 23.4097 159.16 23.447C159.142 23.4514 159.125 23.4606 159.112 23.4736C159.098 23.4866 159.088 23.5029 159.083 23.521C159.078 23.5392 159.078 23.5585 159.083 23.5769C159.088 23.5952 159.097 23.6118 159.111 23.625C159.183 23.748 159.261 23.867 159.346 23.981C159.583 24.235 159.753 24.545 159.841 24.881C159.849 25.016 159.849 25.151 159.841 25.286C159.838 25.373 159.862 25.4587 159.91 25.5314C159.958 25.6041 160.027 25.6602 160.108 25.692C160.108 25.692 160.148 25.692 160.198 25.757C160.116 25.862 160.052 25.967 159.962 26.065C159.863 26.1897 159.758 26.3089 159.646 26.422C159.55 26.5155 159.427 26.576 159.294 26.5949C159.161 26.6138 159.026 26.59 158.908 26.527C158.778 26.4819 158.665 26.3959 158.588 26.2818C158.511 26.1678 158.472 26.0317 158.478 25.894L158.528 25.335C158.576 24.897 158.608 24.451 158.658 24.005C158.67 23.9355 158.67 23.8645 158.658 23.795C158.66 23.7277 158.647 23.6608 158.62 23.599C158.594 23.5371 158.554 23.4819 158.503 23.4371C158.453 23.3924 158.394 23.3591 158.329 23.3398C158.265 23.3204 158.197 23.3153 158.13 23.325C157.889 23.341 157.65 23.3815 157.417 23.446C157.263 23.446 157.117 23.536 156.963 23.568C156.889 23.5922 156.81 23.5922 156.736 23.568C156.492 23.43 156.257 23.268 156.022 23.122L155.212 22.652H155.155C155.219 22.828 155.265 23.01 155.293 23.195C155.277 23.385 155.239 23.573 155.179 23.755C155.179 23.755 155.228 23.803 155.244 23.835C155.26 23.868 155.334 23.957 155.317 23.965C155.273 24.0174 155.214 24.0542 155.147 24.07C154.991 24.0862 154.833 24.0862 154.677 24.07C154.287 24.005 153.866 23.916 153.517 23.843C153.331 23.843 153.152 23.787 152.957 23.77C153.295 24.086 153.585 24.45 153.817 24.849H153.76C153.446 24.8755 153.138 24.9462 152.844 25.059C152.799 25.0787 152.748 25.0805 152.701 25.064C152.654 25.0475 152.616 25.0139 152.593 24.97L152.325 24.557C152.262 24.4546 152.238 24.3334 152.256 24.2146C152.274 24.0959 152.333 23.9873 152.423 23.908C152.496 23.8196 152.58 23.7406 152.673 23.673C152.966 23.446 153.218 23.172 153.42 22.863C153.464 22.79 153.516 22.723 153.574 22.66C153.615 22.6104 153.673 22.5782 153.736 22.57C154.275 22.4773 154.815 22.3939 155.357 22.32C156.161 22.1772 156.945 21.9375 157.692 21.606C157.729 21.5846 157.772 21.5785 157.813 21.589C157.855 21.5995 157.89 21.6257 157.912 21.662C158.032 21.816 158.154 21.962 158.292 22.108C158.328 22.1467 158.347 22.1974 158.347 22.25C158.347 22.3026 158.328 22.3533 158.292 22.392C158.187 22.579 158.195 22.587 158.382 22.676C158.706 22.854 159.046 23.025 159.379 23.186L159.443 23.162L159.444 23.163ZM161.219 18.323C161.245 18.2218 161.295 18.1287 161.366 18.052C161.436 17.9753 161.525 17.9176 161.624 17.884C161.851 17.795 162.07 17.674 162.289 17.576C162.509 17.479 162.435 17.511 162.629 17.576C162.5 17.73 162.395 17.884 162.265 18.022C162.111 18.198 161.94 18.3584 161.755 18.501C161.654 18.5694 161.536 18.6059 161.414 18.606C161.235 18.606 161.162 18.476 161.219 18.314V18.322V18.323ZM156.769 11.885C156.817 11.4899 156.956 11.1113 157.175 10.7793C157.395 10.4472 157.688 10.1708 158.033 9.97199C158.113 9.92999 158.198 9.89399 158.284 9.86599C158.35 9.83588 158.422 9.8203 158.495 9.8203C158.568 9.8203 158.64 9.83588 158.706 9.86599C158.779 9.86599 158.868 9.86599 158.949 9.93099C158.982 9.9467 159.018 9.95485 159.054 9.95485C159.09 9.95485 159.126 9.9467 159.159 9.93099C159.201 9.89912 159.253 9.88187 159.306 9.88187C159.358 9.88187 159.41 9.89912 159.452 9.93099C159.598 10.045 159.768 10.142 159.914 10.247C160.001 10.31 160.08 10.383 160.149 10.467C160.254 10.58 160.214 10.677 160.068 10.726H159.857C159.857 10.726 159.808 10.726 159.752 10.799H159.97C160.009 10.8752 160.058 10.9459 160.116 11.009H160.368C160.413 11.019 160.458 11.035 160.498 11.059C160.529 11.0901 160.556 11.1251 160.578 11.163C160.771 11.553 161.048 11.893 161.389 12.161L161.454 12.226C161.45 12.2418 161.45 12.2582 161.454 12.274C161.454 12.355 161.365 12.347 161.3 12.347C161.122 12.3326 160.942 12.3547 160.773 12.412C160.707 12.4322 160.636 12.4322 160.57 12.412L159.606 12.104C159.484 12.104 159.346 12.031 159.216 11.982C159.121 11.9588 159.032 11.9127 158.959 11.8478C158.885 11.7829 158.828 11.7011 158.793 11.6095C158.758 11.5178 158.746 11.419 158.758 11.3215C158.769 11.2241 158.804 11.1309 158.86 11.05L158.957 10.84V10.8C158.855 10.8644 158.768 10.9509 158.703 11.0532C158.639 11.1555 158.598 11.2709 158.584 11.391C158.568 11.706 158.644 12.019 158.803 12.291C158.963 12.553 159.106 12.823 159.233 13.102C159.403 13.516 159.525 13.953 159.671 14.375C159.709 14.483 159.739 14.595 159.76 14.707C159.885 15.2427 159.868 15.8018 159.711 16.329C159.646 16.6035 159.565 16.874 159.468 17.139C159.378 17.35 159.346 17.35 159.119 17.294C158.892 17.237 158.673 17.172 158.454 17.131C158.276 17.0708 158.082 17.0708 157.904 17.131C158.03 17.223 158.178 17.281 158.333 17.301C158.639 17.353 158.936 17.446 159.217 17.577C159.27 17.5992 159.318 17.6335 159.356 17.6772C159.394 17.721 159.421 17.7729 159.435 17.829C159.467 17.99 159.508 18.149 159.557 18.307C159.568 18.3257 159.574 18.3468 159.575 18.3685C159.576 18.3902 159.571 18.4117 159.561 18.431C159.551 18.4501 159.537 18.4665 159.519 18.4787C159.502 18.4909 159.481 18.4986 159.46 18.501C159.273 18.501 159.079 18.575 158.884 18.591C158.671 18.6032 158.457 18.6032 158.244 18.591V18.64C158.279 18.6765 158.32 18.7066 158.365 18.729C158.738 18.866 159.111 18.989 159.485 19.118C159.527 19.138 159.565 19.165 159.598 19.198C159.64 19.252 159.694 19.2955 159.756 19.3252C159.818 19.3548 159.886 19.3698 159.954 19.369C160.385 19.392 160.817 19.37 161.244 19.304C161.549 19.256 161.861 19.256 162.168 19.304C162.246 19.3158 162.321 19.3436 162.388 19.3856C162.455 19.4275 162.512 19.4828 162.557 19.548C162.605 19.637 162.662 19.726 162.703 19.815C162.71 19.8302 162.714 19.8467 162.714 19.8635C162.714 19.8803 162.71 19.8968 162.703 19.912C162.688 19.9207 162.671 19.9253 162.654 19.9253C162.637 19.9253 162.62 19.9207 162.605 19.912C162.55 19.8731 162.499 19.8296 162.451 19.782C162.38 19.7399 162.299 19.7178 162.216 19.7178C162.133 19.7178 162.052 19.7399 161.981 19.782L160.895 20.252C160.545 20.402 160.163 20.461 159.784 20.423C159.295 20.3961 158.811 20.3119 158.341 20.172C157.968 20.0615 157.637 19.8408 157.392 19.539C157.052 19.093 156.712 18.648 156.379 18.194C156.281 18.0698 156.214 17.9243 156.183 17.7693C156.152 17.6143 156.158 17.4542 156.201 17.302C156.301 16.795 156.375 16.284 156.419 15.77C156.492 15.243 156.582 14.716 156.655 14.197C156.655 13.953 156.655 13.71 156.711 13.467C156.711 12.916 156.776 12.381 156.865 11.845L156.768 11.886L156.769 11.885ZM156.776 11.309C156.833 11.374 156.776 11.447 156.776 11.512C156.383 12.1417 156.198 12.8794 156.249 13.62C156.249 13.936 156.289 14.252 156.289 14.569C156.294 14.775 156.234 14.9774 156.118 15.1476C156.002 15.3177 155.835 15.447 155.641 15.517C155.521 15.5626 155.395 15.5951 155.268 15.614C155.188 15.614 155.13 15.614 155.155 15.484C155.182 15.151 155.336 14.841 155.585 14.617C155.635 14.5807 155.672 14.5307 155.694 14.4731C155.715 14.4155 155.72 14.3529 155.706 14.293C155.706 14.139 155.657 13.969 155.641 13.806C155.621 13.57 155.654 13.331 155.739 13.109C155.803 12.89 155.909 12.688 155.989 12.477C155.992 12.4501 155.992 12.4229 155.989 12.396C155.779 12.469 155.641 12.647 155.398 12.688C155.391 12.6504 155.391 12.6116 155.398 12.574C155.57 12.212 155.8 11.881 156.079 11.594C156.211 11.474 156.355 11.368 156.509 11.277C156.523 11.2615 156.54 11.249 156.558 11.2405C156.577 11.232 156.598 11.2276 156.619 11.2276C156.639 11.2276 156.66 11.232 156.679 11.2405C156.697 11.249 156.714 11.2615 156.728 11.277L156.776 11.309ZM156.266 9.74499H156.33C156.315 9.77927 156.296 9.8118 156.274 9.84199C156.114 9.99899 155.987 10.187 155.901 10.393C155.869 10.4731 155.815 10.5432 155.747 10.596C155.343 10.8807 155.056 11.3009 154.936 11.78C154.814 12.177 154.774 12.59 154.668 13.004C154.618 13.174 154.545 13.334 154.449 13.482C154.4 13.544 154.335 13.5912 154.26 13.6184C154.186 13.6455 154.106 13.6516 154.028 13.636C154.108 13.812 154.231 13.966 154.385 14.082C154.533 14.181 154.687 14.27 154.847 14.35C154.749 14.544 154.652 14.763 154.539 14.99L153.639 13.782C153.833 13.498 154.004 13.255 154.174 12.972C154.387 12.6278 154.505 12.2328 154.514 11.828C154.526 11.637 154.576 11.449 154.66 11.277C155.002 10.5823 155.576 10.0288 156.282 9.71199L156.265 9.74499H156.266ZM154.368 8.78799C154.547 8.78799 154.571 8.78799 154.53 8.99799C154.49 9.20999 154.474 9.185 154.644 9.218L154.693 8.845C155.114 8.78 155.187 8.845 155.082 9.218C155.02 9.42358 154.929 9.61971 154.814 9.80099C154.741 9.93899 154.668 9.93099 154.53 9.80099C154.339 9.63847 154.203 9.42036 154.141 9.17699C154.085 9.02299 154.061 8.853 154.004 8.699C153.985 8.65327 153.981 8.60275 153.993 8.55463C154.004 8.50651 154.03 8.46324 154.068 8.43099C154.133 8.36538 154.211 8.31333 154.297 8.27781C154.383 8.2423 154.474 8.22401 154.567 8.22401C154.66 8.22401 154.751 8.2423 154.837 8.27781C154.923 8.31333 155.001 8.36538 155.066 8.43099C155.007 8.50078 154.925 8.54844 154.836 8.56624C154.746 8.58403 154.652 8.5709 154.571 8.529C154.482 8.48733 154.385 8.46517 154.287 8.46399C154.23 8.46399 154.174 8.521 154.117 8.553C154.136 8.6026 154.171 8.64453 154.217 8.67235C154.262 8.70017 154.315 8.71234 154.368 8.70699V8.78799V8.78799ZM154.782 7.26399C154.85 7.40399 154.909 7.54699 154.96 7.69399C154.96 7.79899 155.017 7.90399 155.05 8.04199H154.571C154.538 8.04394 154.505 8.03772 154.475 8.02387C154.445 8.01003 154.418 7.98898 154.398 7.9626C154.378 7.93622 154.365 7.90531 154.36 7.87259C154.354 7.83987 154.357 7.80635 154.368 7.77499C154.392 7.59599 154.458 7.42599 154.563 7.27999C154.653 7.15799 154.717 7.14999 154.782 7.27999V7.26399V7.26399ZM152.779 7.32899V7.27999L153.517 6.95599C153.449 7.08263 153.345 7.18596 153.218 7.2525C153.091 7.31904 152.947 7.3457 152.804 7.32899H152.779V7.32899ZM153.728 6.66399C153.508 6.80899 153.268 6.91899 153.014 6.98799C152.826 7.01615 152.634 6.96949 152.479 6.85799C152.479 6.85799 152.431 6.78599 152.382 6.72099H152.755C152.963 6.75465 153.177 6.71128 153.355 6.59899L154.004 6.21799C154.078 6.17455 154.16 6.14767 154.246 6.13921C154.331 6.13075 154.417 6.14091 154.498 6.16899C154.533 6.19314 154.565 6.22024 154.595 6.24999C154.595 6.24999 154.595 6.30699 154.547 6.30699C154.255 6.35099 153.977 6.46199 153.736 6.63199L153.728 6.66399ZM152.171 9.87399C152.415 10.061 152.65 10.264 152.877 10.466C153.074 10.677 153.315 10.843 153.582 10.953C153.739 10.995 153.899 11.024 154.06 11.042C153.915 11.1403 153.741 11.1887 153.566 11.18C153.395 11.1567 153.227 11.1185 153.063 11.066C153.233 11.2269 153.438 11.3463 153.662 11.4152C153.885 11.4841 154.122 11.5004 154.353 11.463C154.365 11.5274 154.365 11.5936 154.353 11.658C154.291 11.811 154.215 11.958 154.125 12.096C154.059 12.1999 153.96 12.2787 153.844 12.3198C153.728 12.3609 153.602 12.3621 153.485 12.323C153.015 12.2104 152.577 11.9908 152.206 11.6813C151.835 11.3719 151.54 10.981 151.345 10.539C151.304 10.4459 151.277 10.3476 151.263 10.247C151.262 10.1796 151.244 10.1134 151.212 10.0543C151.179 9.99508 151.133 9.94456 151.077 9.90699C151.077 9.90699 151.028 9.84199 150.996 9.79299C151.182 9.70358 151.388 9.66404 151.594 9.67824C151.8 9.69243 151.999 9.75989 152.171 9.87399V9.87399ZM149.812 9.161L150.266 9.777L153.185 13.831L155.268 16.717C155.998 17.73 156.744 18.736 157.482 19.741L158.868 21.671C158.893 21.7251 158.932 21.7719 158.98 21.8072C159.028 21.8425 159.085 21.8651 159.144 21.873C159.241 21.873 159.274 21.954 159.281 22.035C159.29 22.116 159.321 22.416 159.354 22.66L158.641 22.538C158.657 22.4843 158.678 22.4326 158.706 22.384C158.744 22.34 158.764 22.2839 158.764 22.226C158.764 22.1681 158.744 22.112 158.706 22.068C158.203 21.371 157.709 20.673 157.206 19.984C156.541 19.044 155.868 18.112 155.203 17.179C154.653 16.4268 154.112 15.6674 153.582 14.901L150.039 9.96399L149.812 9.65599C149.792 9.6393 149.775 9.61826 149.764 9.59439C149.752 9.57052 149.746 9.54442 149.746 9.51799C149.746 9.49157 149.752 9.46547 149.764 9.4416C149.775 9.41773 149.792 9.39669 149.812 9.37999V9.161V9.161ZM150.72 15.136C150.239 15.0873 149.769 14.9641 149.326 14.771C149.092 14.6742 148.84 14.6334 148.587 14.6518C148.335 14.6702 148.091 14.7473 147.874 14.877H147.81C147.72 14.779 147.753 14.698 147.81 14.617C147.964 14.436 148.17 14.306 148.401 14.244L150.128 13.717L150.461 13.587C150.518 13.5606 150.57 13.5252 150.615 13.482C149.877 13.3593 149.119 13.4434 148.425 13.725C148.231 13.393 148.264 13.231 148.555 13.02C148.794 12.857 149.077 12.772 149.366 12.777C149.79 12.772 150.213 12.823 150.623 12.931L151.733 13.271C151.628 13.393 151.466 13.401 151.344 13.474C151.223 13.547 151.084 13.612 150.964 13.677L150.558 13.871L150.168 14.05C150.031 14.106 149.885 14.147 149.748 14.22C149.854 14.26 149.972 14.26 150.08 14.22H150.444L150.809 14.163L151.166 14.083C151.101 14.293 150.971 14.374 150.453 14.593H150.533C150.923 14.612 151.309 14.525 151.653 14.342C151.743 14.282 151.837 14.231 151.936 14.187H152.05C152.058 14.2049 152.062 14.2243 152.062 14.244C152.062 14.2637 152.058 14.2831 152.05 14.301C151.966 14.515 151.819 14.699 151.628 14.828C151.327 15.028 150.966 15.117 150.607 15.079L150.72 15.136V15.136ZM150.404 17.982C150.747 17.8436 151.107 17.7534 151.474 17.714C151.628 17.714 151.652 17.714 151.669 17.893C151.685 18.071 151.709 18.436 151.733 18.703C151.766 19.3765 151.565 20.0407 151.166 20.584C150.943 20.949 150.641 21.2592 150.282 21.492C150.14 21.5856 150.005 21.6885 149.877 21.8C149.82 21.849 149.78 21.906 149.699 21.987C149.957 22.089 150.231 22.147 150.509 22.157C150.518 22.1731 150.524 22.1911 150.525 22.2096C150.526 22.2281 150.523 22.2467 150.516 22.2638C150.509 22.281 150.498 22.2963 150.484 22.3086C150.47 22.321 150.454 22.33 150.436 22.335C150.282 22.392 150.128 22.457 149.974 22.505C149.82 22.555 149.431 22.684 149.164 22.789C148.659 23.0051 148.241 23.3862 147.98 23.87C147.915 23.991 147.842 24.105 147.777 24.234C147.712 24.364 147.687 24.364 147.615 24.324C147.572 24.2807 147.546 24.2231 147.542 24.162C147.553 23.9393 147.616 23.7223 147.728 23.5291C147.839 23.3359 147.995 23.172 148.182 23.051C148.392 22.9195 148.57 22.7415 148.7 22.5307C148.831 22.3199 148.912 22.0819 148.936 21.835C149.002 20.945 149.138 20.061 149.342 19.192C149.407 18.9254 149.533 18.6776 149.711 18.468C149.888 18.2584 150.111 18.0927 150.363 17.984H150.403L150.404 17.982ZM145.824 20.925C146.042 20.7 146.186 20.414 146.237 20.105C146.26 19.539 146.409 18.985 146.674 18.485L147.08 17.747C147.038 17.7646 146.997 17.786 146.958 17.811L146.456 18.249C146.404 18.286 146.35 18.319 146.293 18.347V18.241C146.588 17.6582 147.051 17.178 147.623 16.863C147.781 16.7736 147.961 16.7339 148.142 16.749C148.694 16.795 149.207 17.05 149.577 17.463C149.606 17.4828 149.627 17.5126 149.636 17.5468C149.645 17.581 149.642 17.6173 149.626 17.649C149.61 17.6903 149.58 17.7248 149.542 17.747C149.504 17.7692 149.459 17.7777 149.415 17.771C149.18 17.771 148.953 17.722 148.709 17.706C148.428 17.6865 148.147 17.7537 147.905 17.8985C147.663 18.0433 147.472 18.2589 147.356 18.516C147.119 18.898 146.962 19.322 146.893 19.766C146.813 20.286 146.545 20.759 146.139 21.095C146.094 21.1308 146.045 21.161 145.993 21.185C145.989 21.1524 145.989 21.1196 145.993 21.087" fill="#D2D6E3"/>
<path d="M154.814 9.50999C154.7 9.38899 154.57 9.41299 154.408 9.44599C154.522 9.68899 154.643 9.70499 154.814 9.50999ZM176.485 6.93999H179.371V7.94599H180.288V6.07999H179.672V2.26999H176.793V3.07999C176.793 4.77499 176.469 5.60199 175.869 6.09599H175.513V7.94499H176.461V6.93999H176.485V6.93999ZM177.734 3.16299H178.755V6.07999H176.947C177.545 5.22999 177.831 4.19899 177.758 3.16199M184.543 6.08099H182.281V4.90599H183.878V4.10299H182.281V3.16299H184.454V2.30299H181.34V6.94099H184.542V6.08099H184.543ZM186.611 3.16299H188.509V6.93999H189.449V2.30299H185.663V6.94099H186.612V3.16299H186.611ZM191.638 6.32399H193.535L193.802 6.93199H194.88L192.813 2.20599H192.448L190.373 6.93199H191.394L191.638 6.32399ZM192.586 3.98099L193.202 5.54599H191.97L192.586 3.98099V3.98099ZM196.712 5.30299H197.523C197.733 5.32471 197.945 5.30209 198.146 5.2366C198.347 5.17111 198.531 5.06421 198.688 4.92281C198.845 4.78142 198.97 4.60868 199.056 4.41578C199.142 4.22288 199.186 4.01411 199.186 3.80299C199.186 3.59188 199.142 3.38311 199.056 3.19021C198.97 2.99731 198.845 2.82457 198.688 2.68317C198.531 2.54178 198.347 2.43487 198.146 2.36938C197.945 2.30389 197.733 2.28128 197.523 2.30299H195.78V6.93999H196.728V5.31999L196.712 5.30399V5.30299ZM196.712 3.13799H197.523C197.617 3.1277 197.712 3.13733 197.802 3.16626C197.892 3.19518 197.975 3.24276 198.045 3.30588C198.116 3.369 198.172 3.44625 198.211 3.53259C198.249 3.61893 198.269 3.71243 198.269 3.80699C198.269 3.90155 198.249 3.99505 198.211 4.0814C198.172 4.16774 198.116 4.24499 198.045 4.30811C197.975 4.37123 197.892 4.41881 197.802 4.44773C197.712 4.47666 197.617 4.48629 197.523 4.47599H196.713V3.13799H196.712ZM201.383 6.93999H202.331V3.16399H203.815V2.30399H199.899V3.16399H201.383V6.93999V6.93999ZM204.796 6.93999L205.063 6.33199H206.96L207.22 6.93999H208.233L206.174 2.21299H205.858L203.798 6.93999H204.796V6.93999ZM206.012 3.98899L206.628 5.55399H205.42L206.012 3.98899ZM210.106 4.46699L211.274 5.92699H211.582L212.749 4.46699V6.93999H213.698V2.22199H213.39L211.428 4.72699L209.474 2.22199H209.166V6.93999H210.106V4.46699ZM218.279 6.08099H216.017V4.90599H217.614V4.10299H216.017V3.16299H218.189V2.30299H215.069V6.94099H218.279V6.08099V6.08099ZM220.345 4.93799H222.396V6.94099H223.344V2.30299H222.396V4.07999H220.345V2.30299H219.396V6.94099H220.345V4.93799ZM225.753 6.93999H226.702V3.16399H228.193V2.30399H224.27V3.16399H225.754V6.93999H225.753ZM179.711 15.372V10.726H175.917V15.372H176.874V11.594H178.763V15.372H179.711V15.372ZM182.022 13.735H182.833C183.044 13.7543 183.256 13.7299 183.456 13.6631C183.657 13.5963 183.842 13.4887 183.998 13.347C184.155 13.2053 184.281 13.0326 184.368 12.8398C184.455 12.6471 184.501 12.4384 184.503 12.227C184.502 12.016 184.456 11.8076 184.369 11.6153C184.283 11.423 184.156 11.251 183.999 11.1104C183.842 10.9699 183.657 10.8638 183.456 10.7992C183.255 10.7345 183.043 10.7126 182.833 10.735H181.098V15.365H182.047V13.743L182.022 13.735ZM182.022 11.57H182.833C182.923 11.5607 183.015 11.571 183.101 11.6002C183.187 11.6294 183.266 11.6767 183.332 11.7391C183.398 11.8014 183.45 11.8772 183.484 11.9614C183.518 12.0456 183.534 12.1362 183.53 12.227C183.536 12.3194 183.522 12.412 183.489 12.4984C183.456 12.5849 183.405 12.6631 183.338 12.7278C183.272 12.7924 183.193 12.8419 183.105 12.8729C183.018 12.9038 182.925 12.9154 182.833 12.907H182.023V11.57H182.022ZM188.679 14.504H186.425V13.337H188.022V12.526H186.425V11.594H188.598V10.726H185.476V15.372H188.679V14.504V14.504ZM190.453 15.364H193.34V16.353H194.288V14.504H193.672V10.726H190.826V11.488C190.826 13.191 190.502 14.009 189.902 14.504H189.545V16.353H190.494V15.363H190.454L190.453 15.364ZM191.702 11.585H192.724V14.505H190.916C191.514 13.654 191.801 12.623 191.726 11.585M196.25 11.594H198.147V15.372H199.096V10.726H195.31V15.372H196.25V11.594ZM202.176 10.726H200.433V15.363H201.382V13.742H202.192C202.402 13.7637 202.614 13.7411 202.815 13.6756C203.016 13.6101 203.2 13.5032 203.357 13.3618C203.514 13.2204 203.639 13.0477 203.725 12.8548C203.811 12.6619 203.855 12.4531 203.855 12.242C203.855 12.0309 203.811 11.8221 203.725 11.6292C203.639 11.4363 203.514 11.2636 203.357 11.1222C203.2 10.9808 203.016 10.8739 202.815 10.8084C202.614 10.7429 202.402 10.7203 202.192 10.742L202.176 10.726V10.726ZM202.193 12.923H201.382V11.57H202.192C202.287 11.5584 202.383 11.567 202.474 11.5954C202.565 11.6237 202.649 11.671 202.721 11.7343C202.792 11.7975 202.849 11.8752 202.888 11.9622C202.928 12.0492 202.948 12.1436 202.948 12.239C202.948 12.3344 202.928 12.4288 202.888 12.5158C202.849 12.6028 202.792 12.6805 202.721 12.7437C202.649 12.807 202.565 12.8543 202.474 12.8826C202.383 12.911 202.287 12.9196 202.192 12.908M205.809 10.727H204.86V15.453H205.168L207.925 12.518V15.372H208.874V10.646H208.565L205.809 13.556V10.726V10.727ZM213.235 12.51H211.185V10.726H210.244V15.372H211.184V13.369H213.235V15.372H214.184V10.726H213.235V12.51ZM216.494 13.556V10.726H215.546V15.453H215.862L218.618 12.518V15.372H219.567V10.646H219.251L216.494 13.556V13.556ZM223.2 13.159L221.237 10.645H220.929V15.364H221.878V12.891L223.046 14.351H223.353L224.521 12.891V15.364H225.461V10.645H225.153L223.2 13.16V13.159ZM227.415 15.364L227.674 14.764H229.571L229.831 15.364H230.852L228.785 10.645H228.477L226.4 15.364H227.414H227.415ZM228.622 12.413L229.239 13.978H227.999L228.623 12.413H228.622ZM232.304 15.372H233.252V11.594H234.736V10.726H230.82V11.594H232.304V15.372V15.372ZM238.87 14.504H236.608V13.337H238.205V12.526H236.608V11.594H238.781V10.726H235.66V15.372H238.87V14.504V14.504ZM242.787 15.364H243.743V10.734H240.727V11.594C240.727 13.621 240.363 14.424 239.625 14.512V15.404C240.792 15.324 241.603 14.594 241.627 11.594H242.787V15.364V15.364ZM248.696 13.84C248.695 13.6257 248.65 13.4139 248.562 13.2184C248.474 13.0229 248.346 12.848 248.186 12.7051C248.027 12.5621 247.839 12.4544 247.635 12.3887C247.431 12.3231 247.215 12.301 247.002 12.324H246.053V10.702H245.145V15.332H247.042C247.364 15.3657 247.688 15.2969 247.969 15.1352C248.249 14.9736 248.472 14.7275 248.604 14.432C248.692 14.235 248.737 14.022 248.737 13.807L248.696 13.84ZM247.042 14.496H246.094V13.118H247.042C247.225 13.1185 247.4 13.1914 247.529 13.3207C247.659 13.45 247.731 13.6252 247.732 13.808C247.731 13.9906 247.659 14.1656 247.529 14.2946C247.4 14.4236 247.225 14.496 247.042 14.496V14.496ZM252.02 15.453C252.433 15.4605 252.841 15.3567 253.2 15.1527C253.56 14.9486 253.858 14.6517 254.063 14.293L253.35 13.791C253.224 14.0351 253.033 14.2398 252.799 14.3827C252.564 14.5256 252.295 14.6011 252.02 14.601C251.719 14.6136 251.422 14.5315 251.17 14.3663C250.918 14.2011 250.724 13.9611 250.616 13.68C250.544 13.4934 250.511 13.2939 250.52 13.094C250.511 12.8926 250.543 12.6915 250.615 12.5031C250.686 12.3147 250.796 12.1431 250.937 11.999C251.078 11.8547 251.246 11.7407 251.432 11.664C251.619 11.5873 251.819 11.5495 252.02 11.553C252.294 11.5545 252.563 11.6309 252.798 11.7737C253.032 11.9166 253.223 12.1207 253.35 12.364L254.063 11.854C253.856 11.4972 253.558 11.2023 253.198 10.9997C252.839 10.7971 252.432 10.6944 252.02 10.702C251.673 10.649 251.32 10.6715 250.982 10.7679C250.645 10.8643 250.333 11.0324 250.067 11.2607C249.801 11.489 249.587 11.7721 249.441 12.0906C249.294 12.409 249.218 12.7554 249.218 13.106C249.217 13.4567 249.293 13.8034 249.439 14.1221C249.586 14.4408 249.8 14.7239 250.066 14.952C250.332 15.1804 250.645 15.3485 250.982 15.4449C251.319 15.5412 251.673 15.5634 252.02 15.51M254.834 11.594H256.317V15.372H257.258V11.594H258.75V10.726H254.834V11.594V11.594ZM263.266 14.002C263.276 13.7486 263.201 13.4992 263.055 13.2924C262.908 13.0855 262.697 12.9329 262.455 12.858C262.671 12.644 262.794 12.352 262.796 12.048C262.794 11.8656 262.754 11.6855 262.68 11.5189C262.606 11.3523 262.498 11.2026 262.364 11.079C262.229 10.9558 262.071 10.8615 261.898 10.8022C261.726 10.7428 261.543 10.7196 261.361 10.734H259.739V15.364H261.798C261.989 15.383 262.182 15.362 262.365 15.3025C262.548 15.2429 262.716 15.1461 262.86 15.018C263.003 14.89 263.118 14.7335 263.198 14.5586C263.278 14.3838 263.32 14.1942 263.323 14.002H263.266V14.002ZM260.647 11.569H261.304C261.693 11.569 261.904 11.772 261.904 12.096C261.904 12.421 261.693 12.623 261.304 12.623H260.647V11.57V11.569ZM260.647 14.577V13.386H261.734C261.817 13.3744 261.901 13.3809 261.981 13.405C262.061 13.4292 262.134 13.4704 262.197 13.5258C262.259 13.5813 262.309 13.6496 262.342 13.7262C262.375 13.8027 262.392 13.8855 262.39 13.969C262.39 14.334 262.147 14.553 261.734 14.553L260.647 14.577V14.577ZM265.916 10.646L263.841 15.364H264.862L265.122 14.764H267.035L267.294 15.364H268.316L266.224 10.645H265.916V10.646ZM265.454 13.978L266.07 12.413L266.686 13.978H265.454ZM179.946 23.795V19.077H179.622L176.874 21.979V19.158H175.917V23.876H176.233L178.99 20.95V23.795H179.946V23.795ZM183.717 19.158V23.876H184.025L186.781 20.95V23.795H187.73V19.077H187.413L184.665 21.979V19.158H183.717ZM190.04 21.793H192.091V23.796H193.04V19.158H192.091V20.934H190.041V19.158H189.091V23.796H190.041V21.793H190.04ZM198.35 23.796V19.158H197.402V20.934H195.35V19.158H194.401V23.796H195.35V21.793H197.4V23.796H198.35ZM204.366 21.477C204.373 21.1534 204.314 20.8318 204.195 20.5309C204.076 20.23 203.898 19.956 203.671 19.7248C203.445 19.4936 203.174 19.31 202.876 19.1846C202.578 19.0592 202.257 18.9947 201.933 18.9947C201.61 18.9947 201.289 19.0592 200.991 19.1846C200.693 19.31 200.422 19.4936 200.196 19.7248C199.969 19.956 199.791 20.23 199.672 20.5309C199.552 20.8318 199.494 21.1534 199.501 21.477C199.514 22.1136 199.776 22.7198 200.231 23.1654C200.685 23.6111 201.297 23.8607 201.933 23.8607C202.57 23.8607 203.182 23.6111 203.636 23.1654C204.091 22.7198 204.353 22.1136 204.366 21.477V21.477ZM200.418 21.477C200.424 21.1832 200.517 20.8978 200.685 20.6566C200.853 20.4155 201.089 20.2294 201.362 20.1217C201.636 20.014 201.935 19.9896 202.222 20.0514C202.51 20.1132 202.772 20.2586 202.977 20.4692C203.182 20.6798 203.32 20.9463 203.374 21.2352C203.428 21.5241 203.396 21.8225 203.281 22.093C203.165 22.3634 202.973 22.5938 202.727 22.7551C202.482 22.9165 202.194 23.0017 201.9 23C201.7 23.0048 201.502 22.9683 201.317 22.8929C201.132 22.8175 200.965 22.7047 200.826 22.5616C200.687 22.4186 200.578 22.2483 200.508 22.0615C200.438 21.8747 200.407 21.6754 200.417 21.476L200.418 21.477ZM208.216 21.29C208.325 21.185 208.412 21.0593 208.472 20.9202C208.533 20.7811 208.564 20.6315 208.566 20.48C208.561 20.2965 208.519 20.1159 208.441 19.9496C208.364 19.7833 208.252 19.6349 208.114 19.5137C207.976 19.3925 207.815 19.3012 207.64 19.2455C207.465 19.1898 207.281 19.1709 207.098 19.19H205.476V23.828H207.544C207.735 23.847 207.928 23.826 208.111 23.7665C208.294 23.7069 208.462 23.61 208.605 23.482C208.749 23.3539 208.864 23.1975 208.943 23.0226C209.023 22.8477 209.065 22.6582 209.068 22.466C209.075 22.2123 209 21.963 208.854 21.7553C208.708 21.5477 208.499 21.3929 208.258 21.314L208.217 21.29H208.216ZM206.4 19.993H207.041C207.431 19.993 207.641 20.203 207.641 20.52C207.643 20.5965 207.628 20.6724 207.598 20.7426C207.567 20.8128 207.522 20.8755 207.465 20.9264C207.408 20.9773 207.34 21.0152 207.267 21.0374C207.194 21.0596 207.117 21.0656 207.041 21.055H206.384L206.4 19.993V19.993ZM207.487 23H206.4V21.808H207.487C207.9 21.808 208.152 22.035 208.152 22.392C208.152 22.748 207.9 22.975 207.487 22.975M211.687 19.077L209.611 23.795H210.633L210.893 23.195H212.789L213.057 23.795H214.07L212.011 19.077H211.687V19.077ZM211.225 22.409L211.841 20.844L212.457 22.409H211.225ZM218.765 19.158H217.816V22.936H215.943V19.158H214.995V23.796H218.432V24.785H219.381V22.936H218.765V19.158ZM220.418 19.158V23.876H220.726L223.482 20.95V23.795H224.431V19.077H224.115L221.366 21.979V19.158H220.418V19.158ZM227.967 19.077C227.648 19.0822 227.332 19.1504 227.039 19.2774C226.746 19.4045 226.481 19.588 226.259 19.8176C226.037 20.0471 225.862 20.3182 225.745 20.6153C225.627 20.9123 225.57 21.2296 225.575 21.549C225.58 21.8684 225.648 22.1836 225.775 22.4766C225.902 22.7697 226.086 23.0348 226.316 23.257C226.545 23.4791 226.816 23.6538 227.113 23.7712C227.41 23.8885 227.728 23.9462 228.047 23.941C228.692 23.9304 229.306 23.664 229.755 23.2004C230.204 22.7368 230.45 22.114 230.439 21.469C230.428 20.824 230.162 20.2096 229.698 19.761C229.235 19.3124 228.612 19.0664 227.967 19.077V19.077ZM227.967 23.001C227.664 23.0094 227.365 22.927 227.109 22.7646C226.852 22.6021 226.65 22.3669 226.528 22.089C226.407 21.8112 226.37 21.5033 226.424 21.2047C226.479 20.9061 226.62 20.6305 226.832 20.413C227.044 20.1956 227.315 20.0462 227.612 19.984C227.909 19.9218 228.218 19.9495 228.499 20.0638C228.78 20.178 229.021 20.3735 229.19 20.6253C229.36 20.877 229.45 21.1736 229.45 21.477C229.46 21.6763 229.429 21.8755 229.358 22.0622C229.288 22.2488 229.18 22.419 229.04 22.562C228.901 22.705 228.734 22.8178 228.549 22.8933C228.365 22.9688 228.166 23.0055 227.967 23.001V23.001ZM235.466 23.796V19.158H234.517V20.934H232.466V19.158H231.517V23.796H232.466V21.793H234.517V23.796H235.466ZM239.828 20.934H237.776V19.158H236.828V23.796H237.776V21.793H239.828V23.796H240.776V19.158H239.828V20.934ZM244.335 19.077C244.016 19.077 243.7 19.1399 243.405 19.262C243.11 19.3842 242.842 19.5633 242.616 19.789C242.39 20.0148 242.211 20.2827 242.089 20.5777C241.967 20.8726 241.904 21.1888 241.904 21.508C241.904 21.8272 241.967 22.1434 242.089 22.4383C242.211 22.7332 242.39 23.0012 242.616 23.227C242.842 23.4527 243.11 23.6318 243.405 23.7539C243.7 23.8761 244.016 23.939 244.335 23.939C244.98 23.939 245.598 23.6829 246.054 23.227C246.51 22.7711 246.766 22.1527 246.766 21.508C246.766 20.8633 246.51 20.2449 246.054 19.789C245.598 19.3331 244.98 19.077 244.335 19.077V19.077ZM244.335 23.001C244.135 23.0014 243.936 22.9622 243.751 22.8858C243.566 22.8093 243.398 22.6971 243.256 22.5555C243.115 22.4139 243.003 22.2457 242.926 22.0607C242.85 21.8756 242.811 21.6772 242.811 21.477C242.811 21.1755 242.9 20.8808 243.067 20.63C243.235 20.3793 243.473 20.1838 243.751 20.0683C244.03 19.9528 244.336 19.9225 244.632 19.9812C244.927 20.0398 245.199 20.1849 245.412 20.398C245.626 20.6111 245.771 20.8827 245.83 21.1783C245.889 21.474 245.858 21.7804 245.743 22.059C245.628 22.3375 245.432 22.5756 245.182 22.7431C244.931 22.9106 244.636 23 244.335 23V23.001ZM247.878 23.796H248.826V20.018H250.861V19.158H247.878V23.796V23.796ZM253.925 19.077C253.606 19.077 253.29 19.1399 252.995 19.262C252.7 19.3842 252.432 19.5633 252.206 19.789C251.98 20.0148 251.801 20.2827 251.679 20.5777C251.557 20.8726 251.494 21.1888 251.494 21.508C251.494 21.8272 251.557 22.1434 251.679 22.4383C251.801 22.7332 251.98 23.0012 252.206 23.227C252.432 23.4527 252.7 23.6318 252.995 23.7539C253.29 23.8761 253.606 23.939 253.925 23.939C254.57 23.939 255.188 23.6829 255.644 23.227C256.1 22.7711 256.356 22.1527 256.356 21.508C256.356 20.8633 256.1 20.2449 255.644 19.789C255.188 19.3331 254.57 19.077 253.925 19.077V19.077ZM253.925 23.001C253.521 23.001 253.133 22.8403 252.847 22.5543C252.561 22.2683 252.4 21.8804 252.4 21.476C252.4 21.0715 252.561 20.6836 252.847 20.3977C253.133 20.1117 253.521 19.951 253.925 19.951C254.329 19.951 254.717 20.1117 255.003 20.3977C255.289 20.6836 255.45 21.0715 255.45 21.476C255.45 21.8804 255.289 22.2683 255.003 22.5543C254.717 22.8403 254.329 23.001 253.925 23.001V23.001ZM261.652 19.158H259.909V23.796H260.857V22.174H261.668C261.878 22.1963 262.091 22.1741 262.292 22.1089C262.493 22.0436 262.678 21.9368 262.835 21.7953C262.992 21.6538 263.117 21.4808 263.203 21.2876C263.288 21.0944 263.332 20.8853 263.332 20.674C263.332 20.4627 263.288 20.2536 263.203 20.0604C263.117 19.8672 262.992 19.6942 262.835 19.5527C262.678 19.4112 262.493 19.3044 262.292 19.2391C262.091 19.1738 261.878 19.1517 261.668 19.174L261.652 19.158ZM261.668 21.339H260.857V19.993H261.668C261.755 19.993 261.842 20.0102 261.922 20.0436C262.003 20.077 262.076 20.126 262.138 20.1878C262.2 20.2495 262.249 20.3228 262.282 20.4035C262.316 20.4842 262.333 20.5707 262.333 20.658C262.333 20.7453 262.316 20.8318 262.282 20.9125C262.249 20.9932 262.2 21.0665 262.138 21.1282C262.076 21.19 262.003 21.239 261.922 21.2724C261.842 21.3058 261.755 21.323 261.668 21.323M265.576 19.077L263.501 23.795H264.522L264.782 23.195H266.679L266.938 23.795H267.96L265.892 19.077H265.576V19.077ZM265.106 22.409L265.722 20.844L266.338 22.409H265.106ZM271.478 21.347C271.615 21.2408 271.725 21.1041 271.799 20.9479C271.874 20.7916 271.911 20.6201 271.908 20.447C271.896 20.2489 271.844 20.0552 271.755 19.8778C271.666 19.7004 271.542 19.5429 271.39 19.4148C271.239 19.2867 271.063 19.1907 270.873 19.1327C270.683 19.0746 270.483 19.0557 270.286 19.077C269.946 19.0833 269.615 19.1827 269.327 19.3643C269.04 19.5459 268.808 19.8028 268.657 20.107L269.313 20.577C269.418 20.402 269.565 20.2557 269.741 20.1511C269.916 20.0464 270.115 19.9866 270.319 19.977C270.716 19.977 270.975 20.204 270.975 20.52C270.976 20.5961 270.961 20.6716 270.93 20.7412C270.899 20.8107 270.853 20.8728 270.796 20.923C270.74 20.9742 270.673 21.0126 270.6 21.0354C270.527 21.0582 270.451 21.0649 270.375 21.055H269.662V21.865H270.57C270.652 21.8531 270.735 21.8589 270.814 21.8819C270.893 21.905 270.966 21.9449 271.028 21.9987C271.091 22.0526 271.141 22.1193 271.175 22.1942C271.209 22.2692 271.227 22.3506 271.227 22.433C271.227 22.831 270.854 23.058 270.416 23.058C270.181 23.0577 269.95 22.9954 269.746 22.8772C269.543 22.759 269.374 22.5892 269.257 22.385L268.584 22.855C268.759 23.1886 269.024 23.4661 269.35 23.6554C269.675 23.8447 270.048 23.9382 270.424 23.925C270.849 23.9635 271.272 23.8327 271.602 23.5611C271.931 23.2894 272.14 22.8988 272.183 22.474C272.188 22.2473 272.126 22.0241 272.005 21.8324C271.884 21.6407 271.709 21.4889 271.502 21.396M276.026 21.29C276.135 21.1848 276.222 21.059 276.282 20.9199C276.342 20.7809 276.373 20.6314 276.375 20.48C276.37 20.2966 276.328 20.1161 276.25 19.95C276.172 19.7838 276.061 19.6355 275.923 19.5144C275.785 19.3933 275.624 19.302 275.449 19.2461C275.274 19.1903 275.09 19.1712 274.907 19.19H273.286V23.828H275.353C275.544 23.8476 275.738 23.8271 275.921 23.7678C276.104 23.7084 276.272 23.6116 276.416 23.4834C276.559 23.3552 276.674 23.1985 276.754 23.0234C276.833 22.8482 276.875 22.6583 276.877 22.466C276.886 22.2119 276.812 21.9619 276.666 21.7539C276.519 21.5459 276.309 21.3915 276.067 21.314L276.026 21.29ZM274.218 19.993H274.867C275.264 19.993 275.475 20.203 275.475 20.52C275.475 20.836 275.264 21.055 274.867 21.055H274.218V19.993ZM275.297 23H274.17V21.808H275.256C275.339 21.796 275.423 21.8023 275.503 21.8264C275.584 21.8504 275.658 21.8917 275.72 21.9473C275.783 22.0029 275.832 22.0716 275.866 22.1484C275.899 22.2252 275.915 22.3083 275.913 22.392C275.913 22.765 275.669 22.975 275.256 22.975M278.855 21.98V19.158H277.915V23.876H278.223L280.979 20.95V23.795H281.928V19.077H281.612L278.855 21.979V21.98ZM282.853 20.018H284.337V23.796H285.285V20.018H286.769V19.158H282.853V20.018V20.018ZM288.642 21.98V19.158H287.701V23.876H288.009L290.766 20.95V23.795H291.722V19.077H291.398L288.642 21.979V21.98ZM294.819 19.158C294.592 19.1342 294.363 19.1586 294.146 19.2294C293.929 19.3002 293.73 19.4158 293.561 19.5689C293.392 19.7219 293.257 19.9089 293.165 20.1175C293.073 20.3262 293.026 20.5519 293.027 20.78C293.022 21.0489 293.089 21.3142 293.22 21.549C293.351 21.7838 293.542 21.9798 293.773 22.117L292.671 23.812H293.733L294.673 22.377H295.484V23.804H296.432V19.158H294.819V19.158ZM295.508 21.534H294.811C294.703 21.5457 294.594 21.5346 294.491 21.5014C294.388 21.4682 294.293 21.4136 294.213 21.3413C294.132 21.269 294.068 21.1806 294.024 21.0817C293.98 20.9828 293.957 20.8758 293.957 20.7675C293.957 20.6592 293.98 20.5522 294.024 20.4533C294.068 20.3544 294.132 20.266 294.213 20.1937C294.293 20.1214 294.388 20.0668 294.491 20.0336C294.594 20.0004 294.703 19.9893 294.811 20.001H295.508V21.534ZM175.917 32.227H176.874V28.449H178.908V27.589H175.917V32.227ZM181.974 27.5C181.655 27.5 181.338 27.5629 181.043 27.6851C180.748 27.8073 180.48 27.9865 180.254 28.2123C180.028 28.4381 179.849 28.7062 179.727 29.0013C179.605 29.2964 179.542 29.6126 179.542 29.932C179.542 30.2514 179.605 30.5676 179.727 30.8627C179.849 31.1577 180.028 31.4258 180.254 31.6517C180.48 31.8775 180.748 32.0566 181.043 32.1789C181.338 32.3011 181.655 32.364 181.974 32.364C182.61 32.3511 183.216 32.0892 183.662 31.6347C184.107 31.1801 184.357 30.569 184.357 29.9325C184.357 29.296 184.107 28.6849 183.662 28.2303C183.216 27.7757 182.61 27.5139 181.974 27.501V27.5ZM181.974 31.424C181.59 31.3961 181.231 31.2239 180.968 30.9419C180.706 30.6599 180.56 30.2891 180.56 29.904C180.56 29.5189 180.706 29.1481 180.968 28.8661C181.231 28.5841 181.59 28.4119 181.974 28.384C182.358 28.4119 182.717 28.5841 182.98 28.8661C183.242 29.1481 183.388 29.5189 183.388 29.904C183.388 30.2891 183.242 30.6599 182.98 30.9419C182.717 31.2239 182.358 31.3961 181.974 31.424V31.424ZM187.267 27.59H185.524V32.267H186.473V30.647H187.283C187.599 30.6787 187.917 30.6098 188.192 30.4503C188.466 30.2908 188.684 30.0487 188.813 29.7585C188.942 29.4682 188.977 29.1447 188.911 28.8338C188.846 28.523 188.684 28.2406 188.449 28.027C188.292 27.8855 188.107 27.7786 187.906 27.7131C187.705 27.6477 187.493 27.6251 187.283 27.647L187.267 27.59V27.59ZM187.283 29.811H186.473V28.473H187.283C187.376 28.4642 187.47 28.4749 187.559 28.5045C187.648 28.5341 187.729 28.5819 187.799 28.6449C187.868 28.7079 187.923 28.7846 187.961 28.8702C187.999 28.9558 188.018 29.0484 188.018 29.142C188.018 29.2356 187.999 29.3282 187.961 29.4138C187.923 29.4994 187.868 29.5761 187.799 29.6391C187.729 29.7021 187.648 29.7499 187.559 29.7795C187.47 29.8091 187.376 29.8198 187.283 29.811V29.811ZM192.229 27.5C191.91 27.5 191.593 27.5629 191.298 27.6851C191.003 27.8073 190.735 27.9865 190.509 28.2123C190.283 28.4381 190.104 28.7062 189.982 29.0013C189.86 29.2964 189.797 29.6126 189.797 29.932C189.797 30.2514 189.86 30.5676 189.982 30.8627C190.104 31.1577 190.283 31.4258 190.509 31.6517C190.735 31.8775 191.003 32.0566 191.298 32.1789C191.593 32.3011 191.91 32.364 192.229 32.364C192.865 32.3511 193.471 32.0892 193.917 31.6347C194.362 31.1801 194.612 30.569 194.612 29.9325C194.612 29.296 194.362 28.6849 193.917 28.2303C193.471 27.7757 192.865 27.5139 192.229 27.501V27.5ZM192.229 31.424C191.845 31.3961 191.486 31.2239 191.223 30.9419C190.961 30.6599 190.815 30.2891 190.815 29.904C190.815 29.5189 190.961 29.1481 191.223 28.8661C191.486 28.5841 191.845 28.4119 192.229 28.384C192.613 28.4119 192.972 28.5841 193.235 28.8661C193.497 29.1481 193.643 29.5189 193.643 29.904C193.643 30.2891 193.497 30.6599 193.235 30.9419C192.972 31.2239 192.613 31.3961 192.229 31.424V31.424ZM199.477 27.59H196.599V28.352C196.599 30.046 196.274 30.873 195.666 31.368H195.31V33.208H196.258V32.268H199.144V33.248H200.093V31.408H199.477V27.59ZM198.537 31.368H196.728C197.328 30.518 197.615 29.486 197.539 28.449H198.569V31.368H198.536H198.537ZM202.923 27.5L200.855 32.268H201.877L202.128 31.66H204.025L204.293 32.268H205.314L203.247 27.541L202.923 27.501V27.5ZM202.461 30.84L203.077 29.276L203.685 30.841H202.46L202.461 30.84ZM210.916 30.014L208.954 27.5H208.646V32.227H209.595V29.747L210.762 31.214H211.07L212.238 29.746V32.227H213.178V27.501H212.87L210.916 30.014V30.014ZM216.77 27.5C216.451 27.5 216.134 27.5629 215.839 27.6851C215.544 27.8073 215.276 27.9865 215.05 28.2123C214.824 28.4381 214.645 28.7062 214.523 29.0013C214.401 29.2964 214.338 29.6126 214.338 29.932C214.338 30.2514 214.401 30.5676 214.523 30.8627C214.645 31.1577 214.824 31.4258 215.05 31.6517C215.276 31.8775 215.544 32.0566 215.839 32.1789C216.134 32.3011 216.451 32.364 216.77 32.364C217.406 32.3511 218.012 32.0892 218.458 31.6347C218.903 31.1801 219.153 30.569 219.153 29.9325C219.153 29.296 218.903 28.6849 218.458 28.2303C218.012 27.7757 217.406 27.5139 216.77 27.501V27.5ZM216.77 31.424C216.386 31.3961 216.027 31.2239 215.764 30.9419C215.502 30.6599 215.356 30.2891 215.356 29.904C215.356 29.5189 215.502 29.1481 215.764 28.8661C216.027 28.5841 216.386 28.4119 216.77 28.384C217.154 28.4119 217.513 28.5841 217.776 28.8661C218.038 29.1481 218.184 29.5189 218.184 29.904C218.184 30.2891 218.038 30.6599 217.776 30.9419C217.513 31.2239 217.154 31.3961 216.77 31.424V31.424ZM222.567 28.384C222.842 28.3843 223.111 28.4601 223.345 28.6029C223.58 28.7457 223.771 28.9502 223.897 29.194L224.61 28.692C224.406 28.3324 224.108 28.0348 223.748 27.8306C223.389 27.6264 222.98 27.5232 222.567 27.532C222.219 27.475 221.863 27.4943 221.523 27.5887C221.183 27.6831 220.868 27.8502 220.599 28.0785C220.33 28.3068 220.115 28.5908 219.967 28.9109C219.818 29.2309 219.742 29.5794 219.742 29.932C219.742 30.2846 219.818 30.6331 219.967 30.9531C220.115 31.2732 220.33 31.5572 220.599 31.7855C220.868 32.0138 221.183 32.1809 221.523 32.2753C221.863 32.3697 222.219 32.389 222.567 32.332C222.98 32.3414 223.389 32.2396 223.75 32.0373C224.11 31.8351 224.41 31.5397 224.618 31.182L223.905 30.67C223.778 30.9135 223.587 31.1177 223.353 31.2607C223.119 31.4036 222.85 31.4798 222.575 31.481C222.191 31.4531 221.832 31.2809 221.569 30.9989C221.307 30.7169 221.161 30.3461 221.161 29.961C221.161 29.5759 221.307 29.2051 221.569 28.9231C221.832 28.6411 222.191 28.4689 222.575 28.441M229.49 27.59H228.363L226.596 29.738V27.59H225.647V32.227H226.596V29.803L228.582 32.227H229.725L227.715 29.779L229.49 27.589V27.59ZM233.415 29.714C233.525 29.6092 233.612 29.4833 233.672 29.344C233.731 29.2046 233.763 29.0546 233.763 28.903C233.759 28.7195 233.716 28.539 233.639 28.3727C233.561 28.2064 233.45 28.0579 233.312 27.9367C233.174 27.8156 233.013 27.7242 232.838 27.6685C232.663 27.6128 232.479 27.5939 232.296 27.613H230.674V32.267H232.742C232.933 32.2857 233.126 32.265 233.308 32.206C233.49 32.147 233.659 32.051 233.803 31.924C233.946 31.7971 234.062 31.6419 234.143 31.4681C234.225 31.2943 234.269 31.1057 234.274 30.914C234.283 30.6589 234.209 30.4078 234.063 30.1986C233.917 29.9893 233.707 29.8333 233.464 29.754L233.414 29.714H233.415ZM231.615 28.441H232.272C232.661 28.441 232.872 28.644 232.872 28.968C232.874 29.0444 232.859 29.1203 232.828 29.1904C232.798 29.2605 232.753 29.3232 232.696 29.374C232.638 29.4249 232.571 29.4628 232.498 29.485C232.425 29.5073 232.348 29.5134 232.272 29.503H231.615V28.44V28.441ZM232.701 31.449H231.615V30.24H232.7C232.806 30.2215 232.916 30.2326 233.016 30.272C233.117 30.3114 233.204 30.3775 233.27 30.4633C233.335 30.5491 233.376 30.6513 233.388 30.7586C233.399 30.8659 233.381 30.9743 233.335 31.072C233.28 31.1896 233.189 31.286 233.074 31.3465C232.959 31.407 232.828 31.4283 232.7 31.407M237.184 29.187H236.228V27.565H235.279V32.268H237.176C237.392 32.2963 237.612 32.2782 237.821 32.2148C238.03 32.1514 238.222 32.0442 238.386 31.9003C238.55 31.7564 238.682 31.5792 238.772 31.3805C238.862 31.1818 238.908 30.9661 238.908 30.748C238.908 30.5299 238.862 30.3142 238.772 30.1155C238.682 29.9168 238.55 29.7396 238.386 29.5957C238.222 29.4518 238.03 29.3446 237.821 29.2812C237.612 29.2178 237.392 29.1996 237.176 29.228L237.184 29.187ZM237.176 31.424H236.228V30.054H237.176C237.271 30.0451 237.367 30.0561 237.458 30.0865C237.549 30.1169 237.633 30.1658 237.703 30.2303C237.774 30.2948 237.831 30.3733 237.869 30.4609C237.908 30.5485 237.928 30.6432 237.928 30.739C237.928 30.8348 237.908 30.9295 237.869 31.0171C237.831 31.1046 237.774 31.1832 237.703 31.2477C237.633 31.3121 237.549 31.3611 237.458 31.3915C237.367 31.4219 237.271 31.4329 237.176 31.424V31.424ZM240.63 27.59H239.681V32.227H240.63V27.59Z" fill="#D2D6E3"/>
</g>
<defs>
<clipPath id="clip0_458_6720">
<rect width="304" height="39" fill="white" transform="translate(140)"/>
</clipPath>
</defs>
</svg>
