<svg width="157" height="29" viewBox="0 0 157 29" fill="none" xmlns="http://www.w3.org/2000/svg">
<path d="M9.01641 22.33C7.31641 22.33 5.69641 22.13 4.15641 21.73C2.63641 21.31 1.35641 20.75 0.316406 20.05L1.87641 15.76C2.53641 16.18 3.25641 16.54 4.03641 16.84C4.81641 17.14 5.62641 17.38 6.46641 17.56C7.32641 17.72 8.19641 17.8 9.07641 17.8C10.3964 17.8 11.3064 17.63 11.8064 17.29C12.3264 16.95 12.5864 16.51 12.5864 15.97C12.5864 15.49 12.4164 15.12 12.0764 14.86C11.7364 14.58 11.0964 14.34 10.1564 14.14L6.49641 13.39C4.55641 12.99 3.10641 12.3 2.14641 11.32C1.18641 10.32 0.706406 9.02002 0.706406 7.42002C0.706406 6.02002 1.07641 4.81002 1.81641 3.79002C2.57641 2.75002 3.63641 1.95002 4.99641 1.39002C6.35641 0.810019 7.94641 0.52002 9.76641 0.52002C11.2664 0.52002 12.6764 0.730019 13.9964 1.15002C15.3164 1.55002 16.3964 2.11002 17.2364 2.83002L15.6764 6.85002C14.8764 6.27002 13.9764 5.83002 12.9764 5.53002C11.9764 5.21002 10.8664 5.05002 9.64641 5.05002C8.48641 5.05002 7.60641 5.23002 7.00641 5.59002C6.42641 5.93002 6.13641 6.42002 6.13641 7.06002C6.13641 7.50002 6.30641 7.88002 6.64641 8.20002C7.00641 8.50002 7.65641 8.75002 8.59641 8.95002L12.1964 9.67002C14.1364 10.05 15.5864 10.73 16.5464 11.71C17.5264 12.69 18.0164 13.97 18.0164 15.55C18.0164 16.91 17.6364 18.1 16.8764 19.12C16.1364 20.14 15.0964 20.93 13.7564 21.49C12.4164 22.05 10.8364 22.33 9.01641 22.33Z" fill="url(#paint0_linear_265_2347)"/>
<path d="M20.5934 28.48V10.9C20.5934 10.22 20.5734 9.53002 20.5334 8.83002C20.4934 8.13002 20.4334 7.44002 20.3534 6.76002H25.5134L25.8434 9.46002H25.5434C25.8234 8.56002 26.4434 7.83002 27.4034 7.27002C28.3634 6.71002 29.4334 6.43002 30.6134 6.43002C31.9334 6.43002 33.0934 6.75002 34.0934 7.39002C35.0934 8.01002 35.8734 8.92002 36.4334 10.12C37.0134 11.3 37.3034 12.72 37.3034 14.38C37.3034 16.02 37.0134 17.44 36.4334 18.64C35.8734 19.84 35.0934 20.76 34.0934 21.4C33.0934 22.02 31.9334 22.33 30.6134 22.33C29.4534 22.33 28.4034 22.07 27.4634 21.55C26.5234 21.01 25.9034 20.3 25.6034 19.42H25.9334V28.48H20.5934ZM28.9034 18.37C29.8234 18.37 30.5534 18.06 31.0934 17.44C31.6534 16.8 31.9334 15.78 31.9334 14.38C31.9334 12.98 31.6534 11.97 31.0934 11.35C30.5534 10.71 29.8234 10.39 28.9034 10.39C28.0034 10.39 27.2734 10.71 26.7134 11.35C26.1534 11.97 25.8734 12.98 25.8734 14.38C25.8734 15.78 26.1534 16.8 26.7134 17.44C27.2734 18.06 28.0034 18.37 28.9034 18.37Z" fill="url(#paint1_linear_265_2347)"/>
<path d="M45.6 22.33C44.28 22.33 43.12 22.02 42.12 21.4C41.12 20.76 40.33 19.84 39.75 18.64C39.19 17.44 38.91 16.02 38.91 14.38C38.91 12.72 39.19 11.3 39.75 10.12C40.33 8.92002 41.12 8.01002 42.12 7.39002C43.12 6.75002 44.28 6.43002 45.6 6.43002C46.78 6.43002 47.84 6.71002 48.78 7.27002C49.74 7.83002 50.37 8.56002 50.67 9.46002H50.37L50.7 6.76002H55.83C55.77 7.44002 55.71 8.13002 55.65 8.83002C55.61 9.53002 55.59 10.22 55.59 10.9V22H50.31L50.25 19.42H50.61C50.31 20.3 49.68 21.01 48.72 21.55C47.78 22.07 46.74 22.33 45.6 22.33ZM47.31 18.37C48.21 18.37 48.94 18.06 49.5 17.44C50.06 16.8 50.34 15.78 50.34 14.38C50.34 12.98 50.06 11.97 49.5 11.35C48.94 10.71 48.21 10.39 47.31 10.39C46.41 10.39 45.68 10.71 45.12 11.35C44.56 11.97 44.28 12.98 44.28 14.38C44.28 15.78 44.55 16.8 45.09 17.44C45.65 18.06 46.39 18.37 47.31 18.37Z" fill="url(#paint2_linear_265_2347)"/>
<path d="M66.3166 22.33C64.6366 22.33 63.1666 22.01 61.9066 21.37C60.6466 20.73 59.6666 19.82 58.9666 18.64C58.2666 17.44 57.9166 16.01 57.9166 14.35C57.9166 12.69 58.2666 11.27 58.9666 10.09C59.6666 8.91002 60.6466 8.01002 61.9066 7.39002C63.1666 6.75002 64.6366 6.43002 66.3166 6.43002C67.3566 6.43002 68.3766 6.57002 69.3766 6.85002C70.3766 7.13002 71.1866 7.53002 71.8066 8.05002L70.3066 11.68C69.8266 11.28 69.2766 10.98 68.6566 10.78C68.0566 10.56 67.4666 10.45 66.8866 10.45C65.7866 10.45 64.9266 10.78 64.3066 11.44C63.7066 12.1 63.4066 13.07 63.4066 14.35C63.4066 15.63 63.7066 16.61 64.3066 17.29C64.9266 17.95 65.7866 18.28 66.8866 18.28C67.4466 18.28 68.0366 18.18 68.6566 17.98C69.2766 17.76 69.8266 17.46 70.3066 17.08L71.8066 20.71C71.1666 21.21 70.3466 21.61 69.3466 21.91C68.3666 22.19 67.3566 22.33 66.3166 22.33Z" fill="url(#paint3_linear_265_2347)"/>
<path d="M81.4638 22.33C78.7038 22.33 76.5538 21.62 75.0138 20.2C73.4938 18.78 72.7338 16.83 72.7338 14.35C72.7338 12.81 73.0538 11.44 73.6938 10.24C74.3338 9.04002 75.2338 8.11002 76.3938 7.45002C77.5538 6.77002 78.9138 6.43002 80.4738 6.43002C82.0138 6.43002 83.2938 6.77002 84.3138 7.45002C85.3538 8.11002 86.1338 9.03002 86.6538 10.21C87.1738 11.37 87.4338 12.72 87.4338 14.26V15.4H77.2038V12.88H83.5038L82.9938 13.3C82.9938 12.16 82.7738 11.32 82.3338 10.78C81.9138 10.22 81.3138 9.94002 80.5338 9.94002C79.6338 9.94002 78.9438 10.28 78.4638 10.96C78.0038 11.62 77.7738 12.62 77.7738 13.96V14.5C77.7738 15.84 78.1038 16.82 78.7638 17.44C79.4238 18.06 80.3738 18.37 81.6138 18.37C82.4138 18.37 83.1638 18.28 83.8638 18.1C84.5838 17.92 85.2638 17.63 85.9038 17.23L87.2838 20.71C86.5238 21.23 85.6438 21.63 84.6438 21.91C83.6438 22.19 82.5838 22.33 81.4638 22.33Z" fill="url(#paint4_linear_265_2347)"/>
<path d="M89.9766 22V0.850019H100.237C102.597 0.850019 104.407 1.34002 105.667 2.32002C106.947 3.30002 107.587 4.63002 107.587 6.31002C107.587 7.55002 107.217 8.61002 106.477 9.49002C105.757 10.37 104.767 10.97 103.507 11.29V10.81C105.007 11.07 106.157 11.65 106.957 12.55C107.777 13.43 108.187 14.58 108.187 16C108.187 17.86 107.507 19.33 106.147 20.41C104.787 21.47 102.927 22 100.567 22H89.9766ZM95.2866 17.95H99.8466C100.887 17.95 101.657 17.76 102.157 17.38C102.677 17 102.937 16.41 102.937 15.61C102.937 14.79 102.677 14.2 102.157 13.84C101.657 13.48 100.887 13.3 99.8466 13.3H95.2866V17.95ZM95.2866 9.25002H99.2166C100.277 9.25002 101.047 9.07002 101.527 8.71002C102.027 8.35002 102.277 7.80002 102.277 7.06002C102.277 6.32002 102.027 5.78002 101.527 5.44002C101.047 5.08002 100.277 4.90002 99.2166 4.90002H95.2866V9.25002Z" fill="url(#paint5_linear_265_2347)"/>
<path d="M118.452 22.33C115.692 22.33 113.542 21.62 112.002 20.2C110.482 18.78 109.722 16.83 109.722 14.35C109.722 12.81 110.042 11.44 110.682 10.24C111.322 9.04002 112.222 8.11002 113.382 7.45002C114.542 6.77002 115.902 6.43002 117.462 6.43002C119.002 6.43002 120.282 6.77002 121.302 7.45002C122.342 8.11002 123.122 9.03002 123.642 10.21C124.162 11.37 124.422 12.72 124.422 14.26V15.4H114.192V12.88H120.492L119.982 13.3C119.982 12.16 119.762 11.32 119.322 10.78C118.902 10.22 118.302 9.94002 117.522 9.94002C116.622 9.94002 115.932 10.28 115.452 10.96C114.992 11.62 114.762 12.62 114.762 13.96V14.5C114.762 15.84 115.092 16.82 115.752 17.44C116.412 18.06 117.362 18.37 118.602 18.37C119.402 18.37 120.152 18.28 120.852 18.1C121.572 17.92 122.252 17.63 122.892 17.23L124.272 20.71C123.512 21.23 122.632 21.63 121.632 21.91C120.632 22.19 119.572 22.33 118.452 22.33Z" fill="url(#paint6_linear_265_2347)"/>
<path d="M132.664 22.33C131.344 22.33 130.184 22.02 129.184 21.4C128.184 20.76 127.394 19.84 126.814 18.64C126.254 17.44 125.974 16.02 125.974 14.38C125.974 12.72 126.254 11.3 126.814 10.12C127.394 8.92002 128.184 8.01002 129.184 7.39002C130.184 6.75002 131.344 6.43002 132.664 6.43002C133.844 6.43002 134.904 6.71002 135.844 7.27002C136.804 7.83002 137.434 8.56002 137.734 9.46002H137.434L137.764 6.76002H142.894C142.834 7.44002 142.774 8.13002 142.714 8.83002C142.674 9.53002 142.654 10.22 142.654 10.9V22H137.374L137.314 19.42H137.674C137.374 20.3 136.744 21.01 135.784 21.55C134.844 22.07 133.804 22.33 132.664 22.33ZM134.374 18.37C135.274 18.37 136.004 18.06 136.564 17.44C137.124 16.8 137.404 15.78 137.404 14.38C137.404 12.98 137.124 11.97 136.564 11.35C136.004 10.71 135.274 10.39 134.374 10.39C133.474 10.39 132.744 10.71 132.184 11.35C131.624 11.97 131.344 12.98 131.344 14.38C131.344 15.78 131.614 16.8 132.154 17.44C132.714 18.06 133.454 18.37 134.374 18.37Z" fill="url(#paint7_linear_265_2347)"/>
<path d="M145.671 22V10.93C145.671 10.23 145.651 9.53002 145.611 8.83002C145.571 8.13002 145.511 7.44002 145.431 6.76002H150.591L151.161 11.44H150.351C150.551 10.3 150.871 9.36002 151.311 8.62002C151.751 7.88002 152.301 7.33002 152.961 6.97002C153.621 6.61002 154.401 6.43002 155.301 6.43002C155.721 6.43002 156.031 6.45002 156.231 6.49002C156.451 6.51002 156.681 6.57002 156.921 6.67002V11.35C156.421 11.13 156.021 10.99 155.721 10.93C155.421 10.87 155.031 10.84 154.551 10.84C153.731 10.84 153.061 10.99 152.541 11.29C152.021 11.57 151.641 12.01 151.401 12.61C151.181 13.21 151.071 13.98 151.071 14.92V22H145.671Z" fill="url(#paint8_linear_265_2347)"/>
<defs>
<linearGradient id="paint0_linear_265_2347" x1="0.316406" y1="0.52002" x2="196.789" y2="51.8083" gradientUnits="userSpaceOnUse">
<stop stop-color="#FF9700"/>
<stop offset="1" stop-color="#FD1A26"/>
</linearGradient>
<linearGradient id="paint1_linear_265_2347" x1="0.316406" y1="0.52002" x2="196.789" y2="51.8083" gradientUnits="userSpaceOnUse">
<stop stop-color="#FF9700"/>
<stop offset="1" stop-color="#FD1A26"/>
</linearGradient>
<linearGradient id="paint2_linear_265_2347" x1="0.316406" y1="0.52002" x2="196.789" y2="51.8083" gradientUnits="userSpaceOnUse">
<stop stop-color="#FF9700"/>
<stop offset="1" stop-color="#FD1A26"/>
</linearGradient>
<linearGradient id="paint3_linear_265_2347" x1="0.316406" y1="0.52002" x2="196.789" y2="51.8083" gradientUnits="userSpaceOnUse">
<stop stop-color="#FF9700"/>
<stop offset="1" stop-color="#FD1A26"/>
</linearGradient>
<linearGradient id="paint4_linear_265_2347" x1="0.316406" y1="0.52002" x2="196.789" y2="51.8083" gradientUnits="userSpaceOnUse">
<stop stop-color="#FF9700"/>
<stop offset="1" stop-color="#FD1A26"/>
</linearGradient>
<linearGradient id="paint5_linear_265_2347" x1="0.316406" y1="0.52002" x2="196.789" y2="51.8083" gradientUnits="userSpaceOnUse">
<stop stop-color="#FF9700"/>
<stop offset="1" stop-color="#FD1A26"/>
</linearGradient>
<linearGradient id="paint6_linear_265_2347" x1="0.316406" y1="0.52002" x2="196.789" y2="51.8083" gradientUnits="userSpaceOnUse">
<stop stop-color="#FF9700"/>
<stop offset="1" stop-color="#FD1A26"/>
</linearGradient>
<linearGradient id="paint7_linear_265_2347" x1="0.316406" y1="0.52002" x2="196.789" y2="51.8083" gradientUnits="userSpaceOnUse">
<stop stop-color="#FF9700"/>
<stop offset="1" stop-color="#FD1A26"/>
</linearGradient>
<linearGradient id="paint8_linear_265_2347" x1="0.316406" y1="0.52002" x2="196.789" y2="51.8083" gradientUnits="userSpaceOnUse">
<stop stop-color="#FF9700"/>
<stop offset="1" stop-color="#FD1A26"/>
</linearGradient>
</defs>
</svg>
