<svg width="24" height="24" viewBox="0 0 24 24" fill="none" xmlns="http://www.w3.org/2000/svg">
<path fill-rule="evenodd" clip-rule="evenodd" d="M9 7.00001C9 5.95007 9.31087 5.22792 9.76939 4.76939C10.2279 4.31086 10.9501 4 12 4C13.0499 4 13.7721 4.31086 14.2306 4.76939C14.6891 5.22792 15 5.95007 15 7V7.00822V7.01643V7.02463V7.03282V7.04101V7.04918V7.05734V7.06549V7.07363V7.08176V7.08988V7.09799V7.10609V7.11418V7.12226V7.13033V7.13839V7.14644V7.15448V7.16251V7.17054V7.17855V7.18655V7.19454V7.20252V7.21049V7.21845V7.2264V7.23435V7.24228V7.2502V7.25811V7.26601V7.27391V7.28179V7.28966V7.29752V7.30538V7.31322V7.32105V7.32888V7.33669V7.34449V7.35229V7.36007V7.36785V7.37561V7.38336V7.39111V7.39884V7.40657V7.41428V7.42199V7.42969V7.43737V7.44505V7.45271V7.46037V7.46802V7.47566V7.48328V7.4909V7.49851V7.50611V7.5137V7.52127V7.52884V7.5364V7.54395V7.55149V7.55902V7.56654V7.57405V7.58155V7.58905V7.59653V7.604V7.61146V7.61892V7.62636V7.63379V7.64122V7.64863V7.65603V7.66343V7.67081V7.67819V7.68556V7.69291V7.70026V7.7076V7.71492V7.72224V7.72955V7.73685V7.74414V7.75142V7.75869V7.76595V7.7732V7.78044V7.78767V7.79489V7.80211V7.80931V7.8165V7.82369V7.83086V7.83803V7.84518V7.85233V7.85946V7.86659V7.87371V7.88082V7.88791V7.895V7.90208V7.90915V7.91621V7.92326V7.9303V7.93734V7.94436V7.95137V7.95838V7.96537V7.97235V7.97933V7.9863V7.99325V8.0002V8.00714V8.01407V8.02098V8.02789V8.03479V8.04168V8.04856V8.05544V8.0623V8.06915V8.076V8.08283V8.08965V8.09647V8.10328V8.11007V8.11686V8.12364V8.13041V8.13717V8.14392V8.15066V8.15739V8.16411V8.17083V8.17753V8.18422V8.19091V8.19758V8.20425V8.21091V8.21756V8.22419V8.23082V8.23744V8.24405V8.25066V8.25725V8.26383V8.2704V8.27697V8.28352V8.29007V8.29661V8.30314V8.30965V8.31616V8.32266V8.32915V8.33564V8.34211V8.34857V8.35503V8.36147V8.36791V8.37433V8.38075V8.38716V8.39356V8.39995V8.40633V8.4127V8.41906V8.42542V8.43176V8.4381V8.44442V8.45074V8.45705V8.46335V8.46964V8.47592V8.48219V8.48845V8.4947V8.50095V8.50718V8.51341V8.51963V8.52583V8.53203V8.53822V8.5444V8.55057V8.55674V8.56289V8.56904V8.57517V8.5813V8.58742V8.59352V8.59962V8.60571V8.6118V8.61787V8.62393V8.62999V8.63603V8.64207V8.6481V8.65412V8.66013V8.66613V8.67212V8.6781V8.68408V8.69004V8.696V8.70195V8.70788V8.71381V8.71973V8.72565V8.73155V8.73744V8.74333V8.7492V8.75507V8.76093V8.76678V8.77262V8.77845V8.78427V8.79009V8.79589V8.80169V8.80748V8.81325V8.81902V8.82479V8.83054V8.83628V8.84202V8.84774V8.85346V8.85917V8.86487V8.87056V8.87624V8.88191V8.88757V8.89323V8.89888V8.90451V8.91014V8.91576V8.92138V8.92698V8.93257V8.93816V8.94373V8.9493V8.95486V8.96041V8.96595V8.97149V8.97701V8.98253V8.98803V8.99353V8.99902V9.0045V9.00997V9.01544V9.02089V9.02634V9.03178V9.03721V9.04263V9.04804V9.05344V9.05883V9.06422V9.0696V9.07497V9.08033V9.08568V9.09102V9.09635V9.10168V9.107V9.1123V9.1176V9.12289V9.12818V9.13345V9.13872V9.14397V9.14922V9.15446V9.15969V9.16491V9.17013V9.17533V9.18053V9.18572V9.1909V9.19607V9.20123V9.20639V9.21153V9.21667V9.2218V9.22692V9.23203V9.23714V9.24223V9.24732V9.2524V9.25746V9.26253V9.26758V9.27262V9.27766V9.28269V9.2877V9.29272V9.29772V9.30271V9.3077V9.31267V9.31764V9.3226V9.32755V9.3325V9.33743V9.34236V9.34727V9.35218V9.35709V9.36198V9.36686V9.37174V9.37661V9.38147V9.38632V9.39116V9.396V9.40082V9.40564V9.41045V9.41525V9.42004V9.42483V9.4296V9.43437V9.43913V9.44388V9.44863V9.45336V9.45809V9.46281V9.46752V9.47222V9.47691V9.4816V9.48627V9.49094V9.4956V9.50026V9.5049V9.50954V9.51416V9.51878V9.52339V9.528V9.53259V9.53718V9.54176V9.54633V9.55089V9.55544V9.55999V9.56453V9.56906V9.57358V9.57809V9.58259V9.58709V9.59158V9.59606V9.60053V9.605V9.60945V9.6139V9.61834V9.62277V9.6272V9.63161V9.63602V9.64042V9.64481V9.64919V9.65357V9.65794V9.66229V9.66665V9.67099V9.67532V9.67965V9.68397V9.68828V9.69258V9.69688V9.70116V9.70544V9.70971V9.71397V9.71823V9.72248V9.72671V9.73094V9.73517V9.73938V9.74359V9.74779V9.75198V9.75616V9.76033V9.7645V9.76866V9.77281V9.77695V9.78109V9.78522V9.78934V9.79345V9.79755V9.80165V9.80573V9.80981V9.81388V9.81795V9.822V9.82605V9.83009V9.83412V9.83815V9.84216V9.84617V9.85017V9.85417V9.85815V9.86213V9.8661V9.87006V9.87401V9.87796V9.8819V9.88583V9.88975V9.89366V9.89757V9.90147V9.90536V9.90924V9.91312V9.91699V9.92085V9.9247V9.92854V9.93238V9.93621V9.94003V9.94384V9.94765V9.95145V9.95524V9.95902V9.96279V9.96656V9.97032V9.97407V9.97782V9.98155V9.98528V9.989V9.99271V9.99642V10H9L9 7.00001ZM7 10L7 7C7 5.54936 7.43885 4.27151 8.35518 3.35518C9.27151 2.43885 10.5494 2 12 2C13.4506 2 14.7285 2.43885 15.6448 3.35518C16.5612 4.27151 17 5.54936 17 7V7.00822V7.01643V7.02463V7.03282V7.04101V7.04918V7.05734V7.06549V7.07363V7.08176V7.08988V7.09799V7.10609V7.11418V7.12226V7.13033V7.13839V7.14644V7.15448V7.16251V7.17054V7.17855V7.18655V7.19454V7.20252V7.21049V7.21845V7.2264V7.23435V7.24228V7.2502V7.25811V7.26601V7.27391V7.28179V7.28966V7.29752V7.30538V7.31322V7.32105V7.32888V7.33669V7.34449V7.35229V7.36007V7.36785V7.37561V7.38336V7.39111V7.39884V7.40657V7.41428V7.42199V7.42969V7.43737V7.44505V7.45271V7.46037V7.46802V7.47566V7.48328V7.4909V7.49851V7.50611V7.5137V7.52127V7.52884V7.5364V7.54395V7.55149V7.55902V7.56654V7.57405V7.58155V7.58905V7.59653V7.604V7.61146V7.61892V7.62636V7.63379V7.64122V7.64863V7.65603V7.66343V7.67081V7.67819V7.68556V7.69291V7.70026V7.7076V7.71492V7.72224V7.72955V7.73685V7.74414V7.75142V7.75869V7.76595V7.7732V7.78044V7.78767V7.79489V7.80211V7.80931V7.8165V7.82369V7.83086V7.83803V7.84518V7.85233V7.85946V7.86659V7.87371V7.88082V7.88791V7.895V7.90208V7.90915V7.91621V7.92326V7.9303V7.93734V7.94436V7.95137V7.95838V7.96537V7.97235V7.97933V7.9863V7.99325V8.0002V8.00714V8.01407V8.02098V8.02789V8.03479V8.04168V8.04856V8.05544V8.0623V8.06915V8.076V8.08283V8.08965V8.09647V8.10328V8.11007V8.11686V8.12364V8.13041V8.13717V8.14392V8.15066V8.15739V8.16411V8.17083V8.17753V8.18422V8.19091V8.19758V8.20425V8.21091V8.21756V8.22419V8.23082V8.23744V8.24405V8.25066V8.25725V8.26383V8.2704V8.27697V8.28352V8.29007V8.29661V8.30314V8.30965V8.31616V8.32266V8.32915V8.33564V8.34211V8.34857V8.35503V8.36147V8.36791V8.37433V8.38075V8.38716V8.39356V8.39995V8.40633V8.4127V8.41906V8.42542V8.43176V8.4381V8.44442V8.45074V8.45705V8.46335V8.46964V8.47592V8.48219V8.48845V8.4947V8.50095V8.50718V8.51341V8.51963V8.52583V8.53203V8.53822V8.5444V8.55057V8.55674V8.56289V8.56904V8.57517V8.5813V8.58742V8.59352V8.59962V8.60571V8.6118V8.61787V8.62393V8.62999V8.63603V8.64207V8.6481V8.65412V8.66013V8.66613V8.67212V8.6781V8.68408V8.69004V8.696V8.70195V8.70788V8.71381V8.71973V8.72565V8.73155V8.73744V8.74333V8.7492V8.75507V8.76093V8.76678V8.77262V8.77845V8.78427V8.79009V8.79589V8.80169V8.80748V8.81325V8.81902V8.82479V8.83054V8.83628V8.84202V8.84774V8.85346V8.85917V8.86487V8.87056V8.87624V8.88191V8.88757V8.89323V8.89888V8.90451V8.91014V8.91576V8.92138V8.92698V8.93257V8.93816V8.94373V8.9493V8.95486V8.96041V8.96595V8.97149V8.97701V8.98253V8.98803V8.99353V8.99902V9.0045V9.00997V9.01544V9.02089V9.02634V9.03178V9.03721V9.04263V9.04804V9.05344V9.05883V9.06422V9.0696V9.07497V9.08033V9.08568V9.09102V9.09635V9.10168V9.107V9.1123V9.1176V9.12289V9.12818V9.13345V9.13872V9.14397V9.14922V9.15446V9.15969V9.16491V9.17013V9.17533V9.18053V9.18572V9.1909V9.19607V9.20123V9.20639V9.21153V9.21667V9.2218V9.22692V9.23203V9.23714V9.24223V9.24732V9.2524V9.25746V9.26253V9.26758V9.27262V9.27766V9.28269V9.2877V9.29272V9.29772V9.30271V9.3077V9.31267V9.31764V9.3226V9.32755V9.3325V9.33743V9.34236V9.34727V9.35218V9.35709V9.36198V9.36686V9.37174V9.37661V9.38147V9.38632V9.39116V9.396V9.40082V9.40564V9.41045V9.41525V9.42004V9.42483V9.4296V9.43437V9.43913V9.44388V9.44863V9.45336V9.45809V9.46281V9.46752V9.47222V9.47691V9.4816V9.48627V9.49094V9.4956V9.50026V9.5049V9.50954V9.51416V9.51878V9.52339V9.528V9.53259V9.53718V9.54176V9.54633V9.55089V9.55544V9.55999V9.56453V9.56906V9.57358V9.57809V9.58259V9.58709V9.59158V9.59606V9.60053V9.605V9.60945V9.6139V9.61834V9.62277V9.6272V9.63161V9.63602V9.64042V9.64481V9.64919V9.65357V9.65794V9.66229V9.66665V9.67099V9.67532V9.67965V9.68397V9.68828V9.69258V9.69688V9.70116V9.70544V9.70971V9.71397V9.71823V9.72248V9.72671V9.73094V9.73517V9.73938V9.74359V9.74779V9.75198V9.75616V9.76033V9.7645V9.76866V9.77281V9.77695V9.78109V9.78522V9.78934V9.79345V9.79755V9.80165V9.80573V9.80981V9.81388V9.81795V9.822V9.82605V9.83009V9.83412V9.83815V9.84216V9.84617V9.85017V9.85417V9.85815V9.86213V9.8661V9.87006V9.87401V9.87796V9.8819V9.88583V9.88975V9.89366V9.89757V9.90147V9.90536V9.90924V9.91312V9.91699V9.92085V9.9247V9.92854V9.93238V9.93621V9.94003V9.94384V9.94765V9.95145V9.95524V9.95902V9.96279V9.96656V9.97032V9.97407V9.97782V9.98155V9.98528V9.989V9.99271V9.99642V10H19C20.6569 10 22 11.3431 22 13V19C22 20.6569 20.6569 22 19 22H5C3.34315 22 2 20.6569 2 19V13C2 11.3431 3.34315 10 5 10H7ZM8.99605 12H5C4.44772 12 4 12.4477 4 13V19C4 19.5523 4.44772 20 5 20H19C19.5523 20 20 19.5523 20 19V13C20 12.4477 19.5523 12 19 12H15.0039C15.0026 12 15.0013 12 15 12H9C8.99868 12 8.99737 12 8.99605 12Z" fill="#7C7B7B"/>
</svg>
