<svg width="47" height="46" viewBox="0 0 47 46" fill="none" xmlns="http://www.w3.org/2000/svg">
<path fill-rule="evenodd" clip-rule="evenodd" d="M17.7497 13.4168C17.7497 11.4045 18.3455 10.0203 19.2243 9.1415C20.1032 8.26265 21.4873 7.66683 23.4997 7.66683C25.5121 7.66683 26.8962 8.26265 27.775 9.1415C28.6539 10.0203 29.2497 11.4045 29.2497 13.4168V13.4326V13.4483V13.464V13.4797V13.4954V13.5111V13.5267V13.5423V13.5579V13.5735V13.5891V13.6046V13.6202V13.6357V13.6512V13.6666V13.6821V13.6975V13.7129V13.7283V13.7437V13.759V13.7744V13.7897V13.805V13.8203V13.8355V13.8508V13.866V13.8812V13.8964V13.9115V13.9267V13.9418V13.9569V13.972V13.9871V14.0021V14.0172V14.0322V14.0472V14.0622V14.0771V14.092V14.107V14.1219V14.1367V14.1516V14.1665V14.1813V14.1961V14.2109V14.2256V14.2404V14.2551V14.2698V14.2845V14.2992V14.3139V14.3285V14.3431V14.3577V14.3723V14.3869V14.4014V14.4159V14.4304V14.4449V14.4594V14.4739V14.4883V14.5027V14.5171V14.5315V14.5458V14.5602V14.5745V14.5888V14.6031V14.6174V14.6316V14.6458V14.66V14.6742V14.6884V14.7026V14.7167V14.7308V14.7449V14.759V14.7731V14.7871V14.8011V14.8151V14.8291V14.8431V14.857V14.871V14.8849V14.8988V14.9127V14.9265V14.9404V14.9542V14.968V14.9818V14.9956V15.0093V15.023V15.0368V15.0505V15.0641V15.0778V15.0914V15.1051V15.1187V15.1323V15.1458V15.1594V15.1729V15.1864V15.1999V15.2134V15.2269V15.2403V15.2537V15.2671V15.2805V15.2939V15.3072V15.3206V15.3339V15.3472V15.3605V15.3737V15.387V15.4002V15.4134V15.4266V15.4398V15.4529V15.466V15.4792V15.4923V15.5053V15.5184V15.5314V15.5445V15.5575V15.5705V15.5834V15.5964V15.6093V15.6223V15.6352V15.648V15.6609V15.6738V15.6866V15.6994V15.7122V15.725V15.7377V15.7505V15.7632V15.7759V15.7886V15.8013V15.8139V15.8266V15.8392V15.8518V15.8644V15.8769V15.8895V15.902V15.9145V15.927V15.9395V15.9519V15.9644V15.9768V15.9892V16.0016V16.014V16.0263V16.0387V16.051V16.0633V16.0756V16.0878V16.1001V16.1123V16.1245V16.1367V16.1489V16.161V16.1732V16.1853V16.1974V16.2095V16.2216V16.2336V16.2457V16.2577V16.2697V16.2817V16.2936V16.3056V16.3175V16.3294V16.3413V16.3532V16.3651V16.3769V16.3888V16.4006V16.4124V16.4241V16.4359V16.4477V16.4594V16.4711V16.4828V16.4944V16.5061V16.5177V16.5294V16.541V16.5526V16.5641V16.5757V16.5872V16.5987V16.6102V16.6217V16.6332V16.6446V16.6561V16.6675V16.6789V16.6903V16.7016V16.713V16.7243V16.7356V16.7469V16.7582V16.7695V16.7807V16.7919V16.8032V16.8143V16.8255V16.8367V16.8478V16.859V16.8701V16.8812V16.8922V16.9033V16.9143V16.9254V16.9364V16.9474V16.9583V16.9693V16.9802V16.9912V17.0021V17.013V17.0238V17.0347V17.0455V17.0563V17.0671V17.0779V17.0887V17.0995V17.1102V17.1209V17.1316V17.1423V17.153V17.1636V17.1743V17.1849V17.1955V17.2061V17.2167V17.2272V17.2378V17.2483V17.2588V17.2693V17.2798V17.2902V17.3006V17.3111V17.3215V17.3319V17.3422V17.3526V17.3629V17.3733V17.3836V17.3938V17.4041V17.4144V17.4246V17.4348V17.445V17.4552V17.4654V17.4756V17.4857V17.4958V17.5059V17.516V17.5261V17.5362V17.5462V17.5562V17.5662V17.5762V17.5862V17.5962V17.6061V17.6161V17.626V17.6359V17.6457V17.6556V17.6654V17.6753V17.6851V17.6949V17.7047V17.7144V17.7242V17.7339V17.7436V17.7533V17.763V17.7727V17.7823V17.792V17.8016V17.8112V17.8208V17.8304V17.8399V17.8495V17.859V17.8685V17.878V17.8874V17.8969V17.9063V17.9158V17.9252V17.9346V17.944V17.9533V17.9627V17.972V17.9813V17.9906V17.9999V18.0092V18.0184V18.0276V18.0369V18.0461V18.0552V18.0644V18.0736V18.0827V18.0918V18.1009V18.11V18.1191V18.1282V18.1372V18.1462V18.1552V18.1642V18.1732V18.1822V18.1911V18.2001V18.209V18.2179V18.2268V18.2356V18.2445V18.2533V18.2622V18.271V18.2798V18.2885V18.2973V18.306V18.3148V18.3235V18.3322V18.3409V18.3495V18.3582V18.3668V18.3754V18.384V18.3926V18.4012V18.4097V18.4183V18.4268V18.4353V18.4438V18.4523V18.4608V18.4692V18.4776V18.486V18.4945V18.5028V18.5112V18.5196V18.5279V18.5362V18.5445V18.5528V18.5611V18.5694V18.5776V18.5858V18.5941V18.6023V18.6104V18.6186V18.6268V18.6349V18.643V18.6511V18.6592V18.6673V18.6754V18.6834V18.6915V18.6995V18.7075V18.7155V18.7234V18.7314V18.7393V18.7473V18.7552V18.7631V18.7709V18.7788V18.7867V18.7945V18.8023V18.8101V18.8179V18.8257V18.8334V18.8412V18.8489V18.8566V18.8643V18.872V18.8797V18.8873V18.895V18.9026V18.9102V18.9178V18.9254V18.9329V18.9405V18.948V18.9555V18.963V18.9705V18.978V18.9854V18.9929V19.0003V19.0077V19.0151V19.0225V19.0299V19.0372V19.0446V19.0519V19.0592V19.0665V19.0738V19.081V19.0883V19.0955V19.1027V19.1099V19.1171V19.1243V19.1315V19.1386V19.1457V19.1529V19.16V19.1668H17.7497L17.7497 13.4168ZM13.9163 19.1668L13.9163 13.4168C13.9163 10.6364 14.7575 8.18722 16.5138 6.43092C18.2701 4.67463 20.7193 3.8335 23.4997 3.8335C26.2801 3.8335 28.7293 4.67463 30.4856 6.43092C32.2419 8.18722 33.083 10.6364 33.083 13.4168V13.4326V13.4483V13.464V13.4797V13.4954V13.5111V13.5267V13.5423V13.5579V13.5735V13.5891V13.6046V13.6202V13.6357V13.6512V13.6666V13.6821V13.6975V13.7129V13.7283V13.7437V13.759V13.7744V13.7897V13.805V13.8203V13.8355V13.8508V13.866V13.8812V13.8964V13.9115V13.9267V13.9418V13.9569V13.972V13.9871V14.0021V14.0172V14.0322V14.0472V14.0622V14.0771V14.092V14.107V14.1219V14.1367V14.1516V14.1665V14.1813V14.1961V14.2109V14.2256V14.2404V14.2551V14.2698V14.2845V14.2992V14.3139V14.3285V14.3431V14.3577V14.3723V14.3869V14.4014V14.4159V14.4304V14.4449V14.4594V14.4739V14.4883V14.5027V14.5171V14.5315V14.5458V14.5602V14.5745V14.5888V14.6031V14.6174V14.6316V14.6458V14.66V14.6742V14.6884V14.7026V14.7167V14.7308V14.7449V14.759V14.7731V14.7871V14.8011V14.8151V14.8291V14.8431V14.857V14.871V14.8849V14.8988V14.9127V14.9265V14.9404V14.9542V14.968V14.9818V14.9956V15.0093V15.023V15.0368V15.0505V15.0641V15.0778V15.0914V15.1051V15.1187V15.1323V15.1458V15.1594V15.1729V15.1864V15.1999V15.2134V15.2269V15.2403V15.2537V15.2671V15.2805V15.2939V15.3072V15.3206V15.3339V15.3472V15.3605V15.3737V15.387V15.4002V15.4134V15.4266V15.4398V15.4529V15.466V15.4792V15.4923V15.5053V15.5184V15.5314V15.5445V15.5575V15.5705V15.5834V15.5964V15.6093V15.6223V15.6352V15.648V15.6609V15.6738V15.6866V15.6994V15.7122V15.725V15.7377V15.7505V15.7632V15.7759V15.7886V15.8013V15.8139V15.8266V15.8392V15.8518V15.8644V15.8769V15.8895V15.902V15.9145V15.927V15.9395V15.9519V15.9644V15.9768V15.9892V16.0016V16.014V16.0263V16.0387V16.051V16.0633V16.0756V16.0878V16.1001V16.1123V16.1245V16.1367V16.1489V16.161V16.1732V16.1853V16.1974V16.2095V16.2216V16.2336V16.2457V16.2577V16.2697V16.2817V16.2936V16.3056V16.3175V16.3294V16.3413V16.3532V16.3651V16.3769V16.3888V16.4006V16.4124V16.4241V16.4359V16.4477V16.4594V16.4711V16.4828V16.4944V16.5061V16.5177V16.5294V16.541V16.5526V16.5641V16.5757V16.5872V16.5987V16.6102V16.6217V16.6332V16.6446V16.6561V16.6675V16.6789V16.6903V16.7016V16.713V16.7243V16.7356V16.7469V16.7582V16.7695V16.7807V16.7919V16.8032V16.8143V16.8255V16.8367V16.8478V16.859V16.8701V16.8812V16.8922V16.9033V16.9143V16.9254V16.9364V16.9474V16.9583V16.9693V16.9802V16.9912V17.0021V17.013V17.0238V17.0347V17.0455V17.0563V17.0671V17.0779V17.0887V17.0995V17.1102V17.1209V17.1316V17.1423V17.153V17.1636V17.1743V17.1849V17.1955V17.2061V17.2167V17.2272V17.2378V17.2483V17.2588V17.2693V17.2798V17.2902V17.3006V17.3111V17.3215V17.3319V17.3422V17.3526V17.3629V17.3733V17.3836V17.3938V17.4041V17.4144V17.4246V17.4348V17.445V17.4552V17.4654V17.4756V17.4857V17.4958V17.5059V17.516V17.5261V17.5362V17.5462V17.5562V17.5662V17.5762V17.5862V17.5962V17.6061V17.6161V17.626V17.6359V17.6457V17.6556V17.6654V17.6753V17.6851V17.6949V17.7047V17.7144V17.7242V17.7339V17.7436V17.7533V17.763V17.7727V17.7823V17.792V17.8016V17.8112V17.8208V17.8304V17.8399V17.8495V17.859V17.8685V17.878V17.8874V17.8969V17.9063V17.9158V17.9252V17.9346V17.944V17.9533V17.9627V17.972V17.9813V17.9906V17.9999V18.0092V18.0184V18.0276V18.0369V18.0461V18.0552V18.0644V18.0736V18.0827V18.0918V18.1009V18.11V18.1191V18.1282V18.1372V18.1462V18.1552V18.1642V18.1732V18.1822V18.1911V18.2001V18.209V18.2179V18.2268V18.2356V18.2445V18.2533V18.2622V18.271V18.2798V18.2885V18.2973V18.306V18.3148V18.3235V18.3322V18.3409V18.3495V18.3582V18.3668V18.3754V18.384V18.3926V18.4012V18.4097V18.4183V18.4268V18.4353V18.4438V18.4523V18.4608V18.4692V18.4776V18.486V18.4945V18.5028V18.5112V18.5196V18.5279V18.5362V18.5445V18.5528V18.5611V18.5694V18.5776V18.5858V18.5941V18.6023V18.6104V18.6186V18.6268V18.6349V18.643V18.6511V18.6592V18.6673V18.6754V18.6834V18.6915V18.6995V18.7075V18.7155V18.7234V18.7314V18.7393V18.7473V18.7552V18.7631V18.7709V18.7788V18.7867V18.7945V18.8023V18.8101V18.8179V18.8257V18.8334V18.8412V18.8489V18.8566V18.8643V18.872V18.8797V18.8873V18.895V18.9026V18.9102V18.9178V18.9254V18.9329V18.9405V18.948V18.9555V18.963V18.9705V18.978V18.9854V18.9929V19.0003V19.0077V19.0151V19.0225V19.0299V19.0372V19.0446V19.0519V19.0592V19.0665V19.0738V19.081V19.0883V19.0955V19.1027V19.1099V19.1171V19.1243V19.1315V19.1386V19.1457V19.1529V19.16V19.1668H36.9163C40.092 19.1668 42.6663 21.7412 42.6663 24.9168V36.4168C42.6663 39.5925 40.092 42.1668 36.9163 42.1668H10.083C6.90737 42.1668 4.33301 39.5925 4.33301 36.4168V24.9168C4.33301 21.7412 6.90737 19.1668 10.083 19.1668H13.9163ZM17.7421 23.0002H10.083C9.02446 23.0002 8.16634 23.8583 8.16634 24.9168V36.4168C8.16634 37.4754 9.02446 38.3335 10.083 38.3335H36.9163C37.9749 38.3335 38.833 37.4754 38.833 36.4168V24.9168C38.833 23.8583 37.9749 23.0002 36.9163 23.0002H29.2572C29.2547 23.0002 29.2522 23.0002 29.2497 23.0002H17.7497C17.7471 23.0002 17.7446 23.0002 17.7421 23.0002Z" fill="url(#paint0_linear_360_1895)"/>
<defs>
<linearGradient id="paint0_linear_360_1895" x1="4.33301" y1="3.8335" x2="55.5909" y2="6.22247" gradientUnits="userSpaceOnUse">
<stop stop-color="#FF9700"/>
<stop offset="1" stop-color="#FD1A26"/>
</linearGradient>
</defs>
</svg>
