<svg width="12" height="12" viewBox="0 0 12 12" fill="none" xmlns="http://www.w3.org/2000/svg">
<path fill-rule="evenodd" clip-rule="evenodd" d="M3.13256 2.39886C2.92736 2.19685 2.59846 2.20096 2.39794 2.40802C2.19742 2.61509 2.20122 2.9467 2.40642 3.14871L5.3029 6L2.40642 8.85129C2.20122 9.0533 2.19742 9.38491 2.39794 9.59198C2.59846 9.79904 2.92736 9.80315 3.13256 9.60114L6.04683 6.73233L8.86744 9.50894C9.07264 9.71094 9.40154 9.70683 9.60206 9.49977C9.80258 9.2927 9.79878 8.96109 9.59358 8.75909L6.79077 6L9.59358 3.24091C9.79878 3.03891 9.80258 2.70729 9.60206 2.50023C9.40154 2.29316 9.07264 2.28906 8.86744 2.49106L6.04683 5.26767L3.13256 2.39886Z" fill="#1E1E1E"/>
</svg>
