<svg width="24" height="24" viewBox="0 0 24 24" fill="none" xmlns="http://www.w3.org/2000/svg">
<path d="M8.90942 14.8133L9.44668 15.3366L8.90942 14.8133ZM7.02033 16.7527L6.48307 16.2294L7.02033 16.7527ZM5.23794 13.8695L4.77311 14.4581H4.77311L5.23794 13.8695ZM19.0477 17.5919L19.5126 18.1805L19.0477 17.5919ZM16.2235 18.3179L15.6863 18.8412L15.6863 18.8412L16.2235 18.3179ZM17.6767 19.8098L18.2139 19.2865L17.6767 19.8098ZM10.75 14.6C10.75 14.1858 10.4142 13.85 10 13.85C9.58578 13.85 9.25 14.1858 9.25 14.6H10.75ZM17 9.25C16.5858 9.25 16.25 9.58578 16.25 10C16.25 10.4142 16.5858 10.75 17 10.75V9.25ZM4.75 7.25158C4.75 5.86985 5.86984 4.75 7.25092 4.75V3.25C5.04113 3.25 3.25 5.04171 3.25 7.25158H4.75ZM4.75 11.3161V7.25158H3.25V11.3161H4.75ZM5.70277 13.2809C5.12115 12.8215 4.75 12.1124 4.75 11.3161H3.25C3.25 12.5907 3.84673 13.7264 4.77311 14.4581L5.70277 13.2809ZM6.37546 16.1855V14.6015H4.87546V16.1855H6.37546ZM8.37216 14.29L6.48307 16.2294L7.55759 17.276L9.44668 15.3366L8.37216 14.29ZM13.7491 13.8176H9.49155V15.3176H13.7491V13.8176ZM16.25 11.3161C16.25 12.6978 15.1302 13.8176 13.7491 13.8176V15.3176C15.9589 15.3176 17.75 13.5259 17.75 11.3161H16.25ZM16.25 7.25158V11.3161H17.75V7.25158H16.25ZM13.7491 4.75C15.1302 4.75 16.25 5.86985 16.25 7.25158H17.75C17.75 5.04171 15.9589 3.25 13.7491 3.25V4.75ZM7.25092 4.75H13.7491V3.25H7.25092V4.75ZM9.44668 15.3366C9.4585 15.3245 9.47468 15.3176 9.49155 15.3176V13.8176C9.06997 13.8176 8.6663 13.988 8.37216 14.29L9.44668 15.3366ZM4.87546 16.1855C4.87546 17.5874 6.57897 18.2807 7.55759 17.276L6.48307 16.2294C6.47296 16.2398 6.46586 16.2441 6.46259 16.2458C6.45912 16.2477 6.45606 16.2487 6.45274 16.2493C6.4453 16.2506 6.43144 16.2506 6.41461 16.2438C6.39779 16.2369 6.38779 16.2273 6.38337 16.221C6.3814 16.2183 6.3799 16.2154 6.37869 16.2116C6.37755 16.208 6.37546 16.2 6.37546 16.1855H4.87546ZM4.77311 14.4581C4.8165 14.4923 4.84469 14.5279 4.86009 14.5559C4.87459 14.5822 4.87546 14.5968 4.87546 14.6015H6.37546C6.37546 14.027 6.06267 13.5651 5.70277 13.2809L4.77311 14.4581ZM20.75 12.5012C20.75 10.7058 19.2947 9.25 17.4993 9.25V10.75C18.466 10.75 19.25 11.5339 19.25 12.5012H20.75ZM20.75 15.6277V12.5012H19.25V15.6277H20.75ZM19.5126 18.1805C20.2649 17.5863 20.75 16.6634 20.75 15.6277H19.25C19.25 16.1851 18.9905 16.6814 18.5829 17.0033L19.5126 18.1805ZM19.4996 19.3734V18.155H17.9996V19.3734H19.4996ZM15.6863 18.8412L17.1394 20.3331L18.2139 19.2865L16.7608 17.7946L15.6863 18.8412ZM12.5007 18.879H15.7757V17.379H12.5007V18.879ZM9.25 15.6277C9.25 17.4232 10.7052 18.879 12.5007 18.879V17.379C11.534 17.379 10.75 16.5951 10.75 15.6277H9.25ZM9.25 14.6V15.6277H10.75V14.6H9.25ZM16.7608 17.7946C16.5019 17.5289 16.1467 17.379 15.7757 17.379V18.879C15.742 18.879 15.7097 18.8653 15.6863 18.8412L16.7608 17.7946ZM17.9996 19.3734C17.9996 19.3564 18.0065 19.3274 18.0255 19.3006C18.0421 19.2772 18.0613 19.2645 18.0774 19.2579C18.0935 19.2514 18.1162 19.2471 18.1444 19.2523C18.1769 19.2582 18.202 19.2742 18.2139 19.2865L17.1394 20.3331C18.0006 21.2172 19.4996 20.6071 19.4996 19.3734H17.9996ZM18.5829 17.0033C18.2755 17.2461 17.9996 17.6475 17.9996 18.155H19.4996C19.4996 18.1685 19.4977 18.1802 19.4953 18.1891C19.493 18.1977 19.4905 18.2024 19.49 18.2034C19.4895 18.2042 19.4907 18.2019 19.4947 18.1973C19.4987 18.1926 19.5046 18.1868 19.5126 18.1805L18.5829 17.0033ZM17.4993 9.25H17V10.75H17.4993V9.25Z" fill="url(#paint0_linear_285_2545)"/>
<defs>
<linearGradient id="paint0_linear_285_2545" x1="4" y1="4" x2="25.3946" y2="4.99714" gradientUnits="userSpaceOnUse">
<stop stop-color="#FF9700"/>
<stop offset="1" stop-color="#FD1A26"/>
</linearGradient>
</defs>
</svg>
