<svg width="24" height="24" viewBox="0 0 24 24" fill="none" xmlns="http://www.w3.org/2000/svg">
<path fill-rule="evenodd" clip-rule="evenodd" d="M12.927 22C13.3794 22 13.781 21.7118 13.9241 21.2845L16.6977 13L16.7018 13H16.7073H16.7127H16.7182H16.7237H16.7292H16.7347H16.7402H16.7457H16.7513H16.7568H16.7624H16.768H16.7736H16.7792H16.7848H16.7904H16.796H16.8016H16.8073H16.8129H16.8186H16.8243H16.83H16.8357H16.8414H16.8471H16.8528H16.8586H16.8643H16.8701H16.8758H16.8816H16.8874H16.8932H16.899H16.9048H16.9106H16.9165H16.9223H16.9282H16.934H16.9399H16.9458H16.9517H16.9576H16.9635H16.9694H16.9753H16.9813H16.9872H16.9932H16.9991H17.0051H17.0111H17.0171H17.0231H17.0291H17.0351H17.0412H17.0472H17.0532H17.0593H17.0653H17.0714H17.0775H17.0836H17.0897H17.0958H17.1019H17.108H17.1141H17.1203H17.1264H17.1326H17.1387H17.1449H17.1511H17.1573H17.1634H17.1696H17.1758H17.1821H17.1883H17.1945H17.2008H17.207H17.2132H17.2195H17.2258H17.2321H17.2383H17.2446H17.2509H17.2572H17.2635H17.2699H17.2762H17.2825H17.2888H17.2952H17.3015H17.3079H17.3143H17.3206H17.327H17.3334H17.3398H17.3462H17.3526H17.359H17.3654H17.3719H17.3783H17.3847H17.3912H17.3976H17.4041H17.4106H17.417H17.4235H17.43H17.4365H17.443H17.4495H17.456H17.4625H17.469H17.4755H17.482H17.4886H17.4951H17.5017H17.5082H17.5148H17.5213H17.5279H17.5345H17.541H17.5476H17.5542H17.5608H17.5674H17.574H17.5806H17.5872H17.5938H17.6005H17.6071H17.6137H17.6204H17.627H17.6337H17.6403H17.647H17.6536H17.6603H17.667H17.6736H17.6803H17.687H17.6937H17.7004H17.7071H17.7138H17.7205H17.7272H17.7339H17.7406H17.7473H17.7541H17.7608H17.7675H17.7743H17.781H17.7877H17.7945H17.8012H17.808H17.8148H17.8215H17.8283H17.8351H17.8418H17.8486H17.8554H17.8622H17.8689H17.8757H17.8825H17.8893H17.8961H17.9029H17.9097H17.9165H17.9233H17.9301H17.937H17.9438H17.9506H17.9574H17.9643H17.9711H17.9779H17.9847H17.9916H17.9984H18.0053H18.0121H18.0189H18.0258H18.0326H18.0395H18.0463H18.0532H18.0601H18.0669H18.0738H18.0806H18.0875H18.0944H18.1012H18.1081H18.115H18.1219H18.1287H18.1356H18.1425H18.1494H18.1563H18.1631H18.17H18.1769H18.1838H18.1907H18.1976H18.2045H18.2114H18.2182H18.2251H18.232H18.2389H18.2458H18.2527H18.2596H18.2665H18.2734H18.2803H18.2872H18.2941H18.301H18.3079H18.3148H18.3217H18.3286H18.3355H18.3424H18.3493H18.3562H18.3631H18.37H18.377H18.3839H18.3908H18.3977H18.4046H18.4115H18.4184H18.4253H18.4322H18.4391H18.446H18.4529H18.4598H18.4667H18.4736H18.4805H18.4874H18.4943H18.5012H18.5081H18.515H18.5219H18.5288H18.5357H18.5426H18.5495H18.5563H18.5632H18.5701H18.577H18.5839H18.5908H18.5977H18.6045H18.6114H18.6183H18.6252H18.6321H18.6389H18.6458H18.6527H18.6595H18.6664H18.6733H18.6801H18.687H18.6939H18.7007H18.7076H18.7144H18.7213H18.7281H18.735H18.7418H18.7487H18.7555H18.7624H18.7692H18.776H18.7829H18.7897H18.7965H18.8033H18.8102H18.817H18.8238H18.8306H18.8374H18.8442H18.851H18.8578H18.8646H18.8714H18.8782H18.885H18.8918H18.8986H18.9054H18.9121H18.9189H18.9257H18.9324H18.9392H18.946H18.9527H18.9595H18.9662H18.973H18.9797H18.9865H18.9932H18.9999H19.0066H19.0134H19.0201H19.0268H19.0335H19.0402H19.0469H19.0536H19.0603H19.067H19.0737H19.0804H19.087H19.0937H19.1004H19.107H19.1137H19.1204H19.127H19.1337H19.1403H19.1469H19.1536H19.1602H19.1668H19.1734H19.18H19.1866H19.1932H19.1998H19.2064H19.213H19.2196H19.2262H19.2327H19.2393H19.2459H19.2524H19.259H19.2655H19.272H19.2786H19.2851H19.2916H19.2981H19.3046H19.3111H19.3176H19.3241H19.3306H19.3371H19.3435H19.35H19.3565H19.3629H19.3694H19.3758H19.3823H19.3887H19.3951H19.4015H19.4079H19.4143H19.4207H19.4271H19.4335H19.4399H19.4462H19.4526H19.459H19.4653H19.4717H19.478H19.4843H19.4906H19.4969H19.5033H19.5096H19.5158H19.5221H19.5284H19.5347H19.5409H19.5472H19.5534H19.5597H19.5659H19.5721H19.5784H19.5846H19.5908H19.597H19.6032H19.6093H19.6155H19.6217H19.6278H19.634H19.6401H19.6462H19.6524H19.6585H19.6646H19.6707H19.6768H19.6829H19.6889H19.695H19.7011H19.7071H19.7131H19.7192H19.7252H19.7312H19.7372H19.7432H19.7492H19.7552H19.7611H19.7671H19.773H19.779H19.7849H19.7908H19.7968H19.8027H19.8086H19.8145H19.8203H19.8262H19.8321H19.8379H19.8437H19.8496H19.8554H19.8612H19.867H19.8728H19.8786H19.8844H19.8901H19.8959H19.9016H19.9073H19.9131H19.9188H19.9245H19.9302H19.9358H19.9415H19.9472H19.9528H19.9585H19.9641H19.9697H19.9753H19.9809H19.9865H19.9921C21.1026 13 22 12.1035 22 11V4.00002C22 2.89546 21.1007 2.00002 19.9913 2.00002H6.20381C5.2897 2.00002 4.49085 2.61452 4.26011 3.49518L2.09916 11.7427C1.60114 13.6435 3.04175 15.5 5.01471 15.5H9.18715L8.86031 16.9102C8.25679 19.514 10.2431 22 12.927 22ZM14.792 12.3676L12.2703 19.8997C11.2307 19.5717 10.5563 18.4871 10.8176 17.3599L11.4065 14.8191C11.5629 14.1443 11.0482 13.5 10.3526 13.5H5.01471C4.35706 13.5 3.87685 12.8812 4.04286 12.2476L6.20381 4.00002H14.9694V11.9803C14.8976 12.1011 14.8379 12.2306 14.792 12.3676ZM16.9781 11H16.9813H16.9872H16.9932H16.9991H17.0051H17.0111H17.0171H17.0231H17.0291H17.0351H17.0412H17.0472H17.0532H17.0593H17.0653H17.0714H17.0775H17.0836H17.0897H17.0958H17.1019H17.108H17.1141H17.1203H17.1264H17.1326H17.1387H17.1449H17.1511H17.1573H17.1634H17.1696H17.1758H17.1821H17.1883H17.1945H17.2008H17.207H17.2132H17.2195H17.2258H17.2321H17.2383H17.2446H17.2509H17.2572H17.2635H17.2699H17.2762H17.2825H17.2888H17.2952H17.3015H17.3079H17.3143H17.3206H17.327H17.3334H17.3398H17.3462H17.3526H17.359H17.3654H17.3719H17.3783H17.3847H17.3912H17.3976H17.4041H17.4106H17.417H17.4235H17.43H17.4365H17.443H17.4495H17.456H17.4625H17.469H17.4755H17.482H17.4886H17.4951H17.5017H17.5082H17.5148H17.5213H17.5279H17.5345H17.541H17.5476H17.5542H17.5608H17.5674H17.574H17.5806H17.5872H17.5938H17.6005H17.6071H17.6137H17.6204H17.627H17.6337H17.6403H17.647H17.6536H17.6603H17.667H17.6736H17.6803H17.687H17.6937H17.7004H17.7071H17.7138H17.7205H17.7272H17.7339H17.7406H17.7473H17.7541H17.7608H17.7675H17.7743H17.781H17.7877H17.7945H17.8012H17.808H17.8148H17.8215H17.8283H17.8351H17.8418H17.8486H17.8554H17.8622H17.8689H17.8757H17.8825H17.8893H17.8961H17.9029H17.9097H17.9165H17.9233H17.9301H17.937H17.9438H17.9506H17.9574H17.9643H17.9711H17.9779H17.9847H17.9916H17.9984H18.0053H18.0121H18.0189H18.0258H18.0326H18.0395H18.0463H18.0532H18.0601H18.0669H18.0738H18.0806H18.0875H18.0944H18.1012H18.1081H18.115H18.1219H18.1287H18.1356H18.1425H18.1494H18.1563H18.1631H18.17H18.1769H18.1838H18.1907H18.1976H18.2045H18.2114H18.2182H18.2251H18.232H18.2389H18.2458H18.2527H18.2596H18.2665H18.2734H18.2803H18.2872H18.2941H18.301H18.3079H18.3148H18.3217H18.3286H18.3355H18.3424H18.3493H18.3562H18.3631H18.37H18.377H18.3839H18.3908H18.3977H18.4046H18.4115H18.4184H18.4253H18.4322H18.4391H18.446H18.4529H18.4598H18.4667H18.4736H18.4805H18.4874H18.4943H18.5012H18.5081H18.515H18.5219H18.5288H18.5357H18.5426H18.5495H18.5563H18.5632H18.5701H18.577H18.5839H18.5908H18.5977H18.6045H18.6114H18.6183H18.6252H18.6321H18.6389H18.6458H18.6527H18.6595H18.6664H18.6733H18.6801H18.687H18.6939H18.7007H18.7076H18.7144H18.7213H18.7281H18.735H18.7418H18.7487H18.7555H18.7624H18.7692H18.776H18.7829H18.7897H18.7965H18.8033H18.8102H18.817H18.8238H18.8306H18.8374H18.8442H18.851H18.8578H18.8646H18.8714H18.8782H18.885H18.8918H18.8986H18.9054H18.9121H18.9189H18.9257H18.9324H18.9392H18.946H18.9527H18.9595H18.9662H18.973H18.9797H18.9865H18.9932H18.9999H19.0066H19.0134H19.0201H19.0268H19.0335H19.0402H19.0469H19.0536H19.0603H19.067H19.0737H19.0804H19.087H19.0937H19.1004H19.107H19.1137H19.1204H19.127H19.1337H19.1403H19.1469H19.1536H19.1602H19.1668H19.1734H19.18H19.1866H19.1932H19.1998H19.2064H19.213H19.2196H19.2262H19.2327H19.2393H19.2459H19.2524H19.259H19.2655H19.272H19.2786H19.2851H19.2916H19.2981H19.3046H19.3111H19.3176H19.3241H19.3306H19.3371H19.3435H19.35H19.3565H19.3629H19.3694H19.3758H19.3823H19.3887H19.3951H19.4015H19.4079H19.4143H19.4207H19.4271H19.4335H19.4399H19.4462H19.4526H19.459H19.4653H19.4717H19.478H19.4843H19.4906H19.4969H19.5033H19.5096H19.5158H19.5221H19.5284H19.5347H19.5409H19.5472H19.5534H19.5597H19.5659H19.5721H19.5784H19.5846H19.5908H19.597H19.6032H19.6093H19.6155H19.6217H19.6278H19.634H19.6401H19.6462H19.6524H19.6585H19.6646H19.6707H19.6768H19.6829H19.6889H19.695H19.7011H19.7071H19.7131H19.7192H19.7252H19.7312H19.7372H19.7432H19.7492H19.7552H19.7611H19.7671H19.773H19.779H19.7849H19.7908H19.7968H19.8027H19.8086H19.8145H19.8203H19.8262H19.8321H19.8379H19.8437H19.8496H19.8554H19.8612H19.867H19.8728H19.8786H19.8844H19.8901H19.8959H19.9016H19.9073H19.9131H19.9188H19.9245H19.9302H19.9358H19.9415H19.9472H19.9528H19.9585H19.9641H19.9697H19.9753H19.9809H19.9865H19.9913V4.00002H16.9781V11Z" fill="#FF7351"/>
</svg>
