<svg width="28" height="28" viewBox="0 0 28 28" fill="none" xmlns="http://www.w3.org/2000/svg">
<path d="M21 14L21.5587 14.5003C21.8138 14.2155 21.8138 13.7845 21.5587 13.4997L21 14ZM7 14L6.44125 13.4997C6.18625 13.7845 6.18625 14.2155 6.44125 14.5003L7 14ZM14 11.25C15.7148 11.25 17.3138 12.0315 18.5235 12.8671C19.1213 13.28 19.6059 13.6936 19.9402 14.0033C20.107 14.1578 20.2354 14.2855 20.3206 14.373C20.3632 14.4167 20.3949 14.4503 20.4153 14.4721C20.4254 14.483 20.4327 14.4909 20.4371 14.4957C20.4393 14.4981 20.4407 14.4997 20.4414 14.5005C20.4417 14.5009 20.4419 14.501 20.4419 14.501C20.4419 14.501 20.4418 14.5009 20.4417 14.5008C20.4417 14.5008 20.4415 14.5006 20.4415 14.5006C20.4414 14.5005 20.4413 14.5003 21 14C21.5587 13.4997 21.5586 13.4995 21.5584 13.4993C21.5583 13.4992 21.5581 13.499 21.558 13.4989C21.5577 13.4985 21.5574 13.4982 21.557 13.4977C21.5562 13.4968 21.5552 13.4958 21.554 13.4945C21.5517 13.4919 21.5486 13.4884 21.5447 13.4842C21.537 13.4757 21.5262 13.464 21.5125 13.4493C21.485 13.4198 21.4456 13.3782 21.395 13.3262C21.2937 13.2223 21.147 13.0765 20.9596 12.9029C20.5855 12.5563 20.0451 12.095 19.376 11.6329C18.0523 10.7185 16.1513 9.75 14 9.75V11.25ZM21 14C20.4413 13.4997 20.4414 13.4995 20.4415 13.4994C20.4415 13.4994 20.4417 13.4992 20.4417 13.4992C20.4418 13.4991 20.4419 13.499 20.4419 13.499C20.4419 13.499 20.4417 13.4991 20.4414 13.4995C20.4407 13.5003 20.4393 13.5019 20.4371 13.5043C20.4327 13.5091 20.4254 13.517 20.4153 13.5279C20.3949 13.5497 20.3632 13.5833 20.3206 13.627C20.2354 13.7145 20.107 13.8422 19.9402 13.9967C19.6059 14.3063 19.1213 14.72 18.5235 15.1329C17.3138 15.9685 15.7148 16.75 14 16.75V18.25C16.1513 18.25 18.0523 17.2815 19.376 16.3671C20.0451 15.905 20.5855 15.4436 20.9596 15.0971C21.147 14.9234 21.2937 14.7777 21.395 14.6738C21.4456 14.6218 21.485 14.5802 21.5125 14.5507C21.5262 14.536 21.537 14.5243 21.5447 14.5158C21.5486 14.5116 21.5517 14.5081 21.554 14.5055C21.5552 14.5042 21.5562 14.5032 21.557 14.5023C21.5574 14.5018 21.5577 14.5015 21.558 14.5011C21.5581 14.501 21.5583 14.5008 21.5584 14.5007C21.5586 14.5005 21.5587 14.5003 21 14ZM14 16.75C12.2852 16.75 10.6862 15.9685 9.47647 15.1329C8.87874 14.72 8.39406 14.3063 8.05976 13.9967C7.89298 13.8422 7.76464 13.7145 7.6794 13.627C7.63681 13.5833 7.60506 13.5497 7.58474 13.5279C7.57458 13.517 7.56728 13.5091 7.56292 13.5043C7.56075 13.5019 7.5593 13.5003 7.5586 13.4995C7.55825 13.4991 7.55809 13.499 7.55811 13.499C7.55812 13.499 7.55818 13.4991 7.55829 13.4992C7.55834 13.4992 7.55846 13.4994 7.55848 13.4994C7.55861 13.4995 7.55875 13.4997 7 14C6.44125 14.5003 6.44142 14.5005 6.44159 14.5007C6.44166 14.5008 6.44185 14.501 6.442 14.5011C6.44229 14.5015 6.44264 14.5018 6.44303 14.5023C6.44382 14.5032 6.4448 14.5042 6.44597 14.5055C6.44831 14.5081 6.45142 14.5116 6.45529 14.5158C6.46303 14.5243 6.4738 14.536 6.48754 14.5507C6.51502 14.5802 6.55437 14.6218 6.60502 14.6738C6.70627 14.7777 6.85297 14.9234 7.0404 15.0971C7.41452 15.4436 7.95494 15.905 8.62395 16.3671C9.9477 17.2815 11.8487 18.25 14 18.25V16.75ZM7 14C7.55875 14.5003 7.55861 14.5005 7.55848 14.5006C7.55846 14.5006 7.55834 14.5008 7.55829 14.5008C7.55818 14.5009 7.55812 14.501 7.55811 14.501C7.55809 14.501 7.55825 14.5009 7.5586 14.5005C7.5593 14.4997 7.56075 14.4981 7.56292 14.4957C7.56728 14.4909 7.57458 14.483 7.58474 14.4721C7.60506 14.4503 7.63681 14.4167 7.6794 14.373C7.76464 14.2855 7.89298 14.1578 8.05976 14.0033C8.39406 13.6936 8.87874 13.28 9.47647 12.8671C10.6862 12.0315 12.2852 11.25 14 11.25V9.75C11.8487 9.75 9.9477 10.7185 8.62395 11.6329C7.95494 12.095 7.41452 12.5563 7.0404 12.9029C6.85297 13.0765 6.70627 13.2223 6.60502 13.3262C6.55437 13.3782 6.51502 13.4198 6.48754 13.4493C6.4738 13.464 6.46303 13.4757 6.45529 13.4842C6.45142 13.4884 6.44831 13.4919 6.44597 13.4945C6.4448 13.4958 6.44382 13.4968 6.44303 13.4977C6.44264 13.4982 6.44229 13.4985 6.442 13.4989C6.44185 13.499 6.44166 13.4992 6.44159 13.4993C6.44142 13.4995 6.44125 13.4997 7 14ZM14 17.0833C14.6098 17.0833 15.2059 16.9025 15.713 16.5637L14.8796 15.3165C14.6192 15.4905 14.3131 15.5833 14 15.5833V17.0833ZM15.713 16.5637C16.22 16.2249 16.6152 15.7434 16.8486 15.18L15.4628 14.6059C15.343 14.8952 15.14 15.1425 14.8796 15.3165L15.713 16.5637ZM16.8486 15.18C17.082 14.6165 17.1431 13.9965 17.0241 13.3984L15.5529 13.6911C15.614 13.9982 15.5826 14.3166 15.4628 14.6059L16.8486 15.18ZM17.0241 13.3984C16.9051 12.8003 16.6114 12.2509 16.1802 11.8197L15.1196 12.8804C15.341 13.1019 15.4918 13.384 15.5529 13.6911L17.0241 13.3984ZM16.1802 11.8197C15.749 11.3885 15.1996 11.0949 14.6015 10.9759L14.3089 12.4471C14.616 12.5082 14.8981 12.659 15.1196 12.8804L16.1802 11.8197ZM14.6015 10.9759C14.0034 10.8569 13.3834 10.9181 12.82 11.1514L13.3941 12.5372C13.6834 12.4174 14.0018 12.386 14.3089 12.4471L14.6015 10.9759ZM12.82 11.1514C12.2567 11.3848 11.7751 11.7799 11.4363 12.287L12.6835 13.1203C12.8575 12.86 13.1047 12.6571 13.3941 12.5372L12.82 11.1514ZM11.4363 12.287C11.0975 12.794 10.9167 13.3902 10.9167 14H12.4167C12.4167 13.6869 12.5095 13.3807 12.6835 13.1203L11.4363 12.287ZM10.9167 14C10.9167 14.8177 11.2415 15.602 11.8197 16.1803L12.8804 15.1196C12.5835 14.8227 12.4167 14.4199 12.4167 14H10.9167ZM11.8197 16.1803C12.398 16.7585 13.1823 17.0833 14 17.0833V15.5833C13.58 15.5833 13.1773 15.4165 12.8804 15.1196L11.8197 16.1803Z" fill="#FE0046"/>
</svg>
