<svg width="24" height="24" viewBox="0 0 24 24" fill="none" xmlns="http://www.w3.org/2000/svg">
<path fill-rule="evenodd" clip-rule="evenodd" d="M11.073 2C10.6206 2 10.219 2.28821 10.0759 2.7155L7.30233 11L7.29818 11H7.29273H7.28727H7.28179H7.2763H7.27081H7.2653H7.25978H7.25425H7.24871H7.24316H7.2376H7.23203H7.22644H7.22085H7.21524H7.20963H7.204H7.19837H7.19272H7.18707H7.1814H7.17572H7.17003H7.16434H7.15863H7.15291H7.14718H7.14145H7.1357H7.12994H7.12417H7.1184H7.11261H7.10681H7.10101H7.09519H7.08936H7.08353H7.07768H7.07183H7.06597H7.06009H7.05421H7.04832H7.04242H7.03651H7.03059H7.02466H7.01872H7.01277H7.00682H7.00085H6.99488H6.98889H6.9829H6.9769H6.97089H6.96487H6.95885H6.95281H6.94677H6.94072H6.93466H6.92859H6.92251H6.91642H6.91033H6.90422H6.89811H6.89199H6.88587H6.87973H6.87359H6.86744H6.86128H6.85511H6.84893H6.84275H6.83656H6.83036H6.82415H6.81794H6.81172H6.80549H6.79925H6.793H6.78675H6.78049H6.77422H6.76795H6.76167H6.75538H6.74908H6.74278H6.73647H6.73015H6.72382H6.71749H6.71115H6.70481H6.69846H6.6921H6.68573H6.67936H6.67298H6.66659H6.6602H6.6538H6.64739H6.64098H6.63456H6.62813H6.6217H6.61526H6.60882H6.60237H6.59591H6.58945H6.58298H6.5765H6.57002H6.56354H6.55704H6.55054H6.54404H6.53753H6.53101H6.52449H6.51796H6.51143H6.50489H6.49834H6.49179H6.48524H6.47867H6.47211H6.46553H6.45896H6.45237H6.44579H6.43919H6.4326H6.42599H6.41938H6.41277H6.40615H6.39953H6.3929H6.38627H6.37963H6.37299H6.36634H6.35969H6.35303H6.34637H6.33971H6.33304H6.32636H6.31968H6.313H6.30631H6.29962H6.29292H6.28622H6.27952H6.27281H6.2661H6.25938H6.25266H6.24593H6.23921H6.23247H6.22574H6.219H6.21225H6.20551H6.19876H6.192H6.18524H6.17848H6.17172H6.16495H6.15818H6.1514H6.14462H6.13784H6.13105H6.12427H6.11747H6.11068H6.10388H6.09708H6.09028H6.08347H6.07666H6.06985H6.06304H6.05622H6.0494H6.04258H6.03575H6.02892H6.02209H6.01526H6.00842H6.00158H5.99474H5.9879H5.98106H5.97421H5.96736H5.96051H5.95365H5.9468H5.93994H5.93308H5.92622H5.91936H5.91249H5.90562H5.89876H5.89188H5.88501H5.87814H5.87126H5.86439H5.85751H5.85063H5.84375H5.83686H5.82998H5.82309H5.81621H5.80932H5.80243H5.79554H5.78865H5.78176H5.77486H5.76797H5.76107H5.75418H5.74728H5.74038H5.73348H5.72659H5.71969H5.71279H5.70589H5.69898H5.69208H5.68518H5.67828H5.67137H5.66447H5.65757H5.65066H5.64376H5.63685H5.62995H5.62305H5.61614H5.60924H5.60233H5.59543H5.58853H5.58162H5.57472H5.56782H5.56091H5.55401H5.54711H5.54021H5.53331H5.5264H5.5195H5.51261H5.50571H5.49881H5.49191H5.48502H5.47812H5.47123H5.46433H5.45744H5.45055H5.44366H5.43677H5.42988H5.42299H5.41611H5.40922H5.40234H5.39546H5.38857H5.3817H5.37482H5.36794H5.36107H5.35419H5.34732H5.34045H5.33358H5.32672H5.31985H5.31299H5.30613H5.29927H5.29242H5.28556H5.27871H5.27186H5.26501H5.25816H5.25132H5.24448H5.23764H5.2308H5.22397H5.21714H5.21031H5.20348H5.19666H5.18984H5.18302H5.1762H5.16939H5.16258H5.15577H5.14897H5.14216H5.13537H5.12857H5.12178H5.11499H5.1082H5.10142H5.09464H5.08786H5.08109H5.07432H5.06755H5.06079H5.05403H5.04727H5.04052H5.03377H5.02702H5.02028H5.01354H5.00681H5.00008H4.99335H4.98663H4.97991H4.9732H4.96649H4.95978H4.95308H4.94638H4.93969H4.933H4.92631H4.91963H4.91296H4.90628H4.89962H4.89295H4.88629H4.87964H4.87299H4.86635H4.85971H4.85307H4.84644H4.83982H4.8332H4.82658H4.81997H4.81336H4.80676H4.80017H4.79358H4.78699H4.78041H4.77384H4.76727H4.76071H4.75415H4.74759H4.74105H4.73451H4.72797H4.72144H4.71491H4.70839H4.70188H4.69537H4.68887H4.68238H4.67589H4.6694H4.66292H4.65645H4.64999H4.64353H4.63707H4.63062H4.62418H4.61775H4.61132H4.6049H4.59848H4.59207H4.58567H4.57928H4.57289H4.5665H4.56013H4.55376H4.5474H4.54104H4.53469H4.52835H4.52201H4.51569H4.50937H4.50305H4.49674H4.49045H4.48415H4.47787H4.47159H4.46532H4.45906H4.4528H4.44655H4.44031H4.43408H4.42785H4.42164H4.41543H4.40922H4.40303H4.39684H4.39066H4.38449H4.37833H4.37217H4.36603H4.35989H4.35375H4.34763H4.34152H4.33541H4.32931H4.32322H4.31714H4.31107H4.305H4.29895H4.2929H4.28686H4.28083H4.27481H4.26879H4.26279H4.25679H4.25081H4.24483H4.23886H4.2329H4.22695H4.22101H4.21508H4.20915H4.20324H4.19733H4.19144H4.18555H4.17967H4.1738H4.16794H4.1621H4.15626H4.15043H4.14461H4.13879H4.13299H4.1272H4.12142H4.11565H4.10989H4.10413H4.09839H4.09266H4.08694H4.08123H4.07552H4.06983H4.06415H4.05848H4.05282H4.04717H4.04153H4.0359H4.03028H4.02467H4.01907H4.01348H4.00791C2.89741 11 2 11.8965 2 13V20C2 21.1045 2.89935 22 4.00875 22H17.7962C18.7103 22 19.5091 21.3855 19.7399 20.5048L21.9008 12.2573C22.3989 10.3565 20.9582 8.5 18.9853 8.5H14.8128L15.1397 7.08983C15.7432 4.48596 13.7569 2 11.073 2ZM9.208 11.6324L11.7297 4.1003C12.7693 4.42829 13.4437 5.5129 13.1824 6.64011L12.5935 9.18094C12.4371 9.85575 12.9518 10.5 13.6474 10.5H18.9853C19.6429 10.5 20.1231 11.1188 19.9571 11.7524L17.7962 20H9.03062V12.0197C9.1024 11.8989 9.16214 11.7694 9.208 11.6324ZM7.02187 13H7.01872H7.01277H7.00682H7.00085H6.99488H6.98889H6.9829H6.9769H6.97089H6.96487H6.95885H6.95281H6.94677H6.94072H6.93466H6.92859H6.92251H6.91642H6.91033H6.90422H6.89811H6.89199H6.88587H6.87973H6.87359H6.86744H6.86128H6.85511H6.84893H6.84275H6.83656H6.83036H6.82415H6.81794H6.81172H6.80549H6.79925H6.793H6.78675H6.78049H6.77422H6.76795H6.76167H6.75538H6.74908H6.74278H6.73647H6.73015H6.72382H6.71749H6.71115H6.70481H6.69846H6.6921H6.68573H6.67936H6.67298H6.66659H6.6602H6.6538H6.64739H6.64098H6.63456H6.62813H6.6217H6.61526H6.60882H6.60237H6.59591H6.58945H6.58298H6.5765H6.57002H6.56354H6.55704H6.55054H6.54404H6.53753H6.53101H6.52449H6.51796H6.51143H6.50489H6.49834H6.49179H6.48524H6.47867H6.47211H6.46553H6.45896H6.45237H6.44579H6.43919H6.4326H6.42599H6.41938H6.41277H6.40615H6.39953H6.3929H6.38627H6.37963H6.37299H6.36634H6.35969H6.35303H6.34637H6.33971H6.33304H6.32636H6.31968H6.313H6.30631H6.29962H6.29292H6.28622H6.27952H6.27281H6.2661H6.25938H6.25266H6.24593H6.23921H6.23247H6.22574H6.219H6.21225H6.20551H6.19876H6.192H6.18524H6.17848H6.17172H6.16495H6.15818H6.1514H6.14462H6.13784H6.13105H6.12427H6.11747H6.11068H6.10388H6.09708H6.09028H6.08347H6.07666H6.06985H6.06304H6.05622H6.0494H6.04258H6.03575H6.02892H6.02209H6.01526H6.00842H6.00158H5.99474H5.9879H5.98106H5.97421H5.96736H5.96051H5.95365H5.9468H5.93994H5.93308H5.92622H5.91936H5.91249H5.90562H5.89876H5.89188H5.88501H5.87814H5.87126H5.86439H5.85751H5.85063H5.84375H5.83686H5.82998H5.82309H5.81621H5.80932H5.80243H5.79554H5.78865H5.78176H5.77486H5.76797H5.76107H5.75418H5.74728H5.74038H5.73348H5.72659H5.71969H5.71279H5.70589H5.69898H5.69208H5.68518H5.67828H5.67137H5.66447H5.65757H5.65066H5.64376H5.63685H5.62995H5.62305H5.61614H5.60924H5.60233H5.59543H5.58853H5.58162H5.57472H5.56782H5.56091H5.55401H5.54711H5.54021H5.53331H5.5264H5.5195H5.51261H5.50571H5.49881H5.49191H5.48502H5.47812H5.47123H5.46433H5.45744H5.45055H5.44366H5.43677H5.42988H5.42299H5.41611H5.40922H5.40234H5.39546H5.38857H5.3817H5.37482H5.36794H5.36107H5.35419H5.34732H5.34045H5.33358H5.32672H5.31985H5.31299H5.30613H5.29927H5.29242H5.28556H5.27871H5.27186H5.26501H5.25816H5.25132H5.24448H5.23764H5.2308H5.22397H5.21714H5.21031H5.20348H5.19666H5.18984H5.18302H5.1762H5.16939H5.16258H5.15577H5.14897H5.14216H5.13537H5.12857H5.12178H5.11499H5.1082H5.10142H5.09464H5.08786H5.08109H5.07432H5.06755H5.06079H5.05403H5.04727H5.04052H5.03377H5.02702H5.02028H5.01354H5.00681H5.00008H4.99335H4.98663H4.97991H4.9732H4.96649H4.95978H4.95308H4.94638H4.93969H4.933H4.92631H4.91963H4.91296H4.90628H4.89962H4.89295H4.88629H4.87964H4.87299H4.86635H4.85971H4.85307H4.84644H4.83982H4.8332H4.82658H4.81997H4.81336H4.80676H4.80017H4.79358H4.78699H4.78041H4.77384H4.76727H4.76071H4.75415H4.74759H4.74105H4.73451H4.72797H4.72144H4.71491H4.70839H4.70188H4.69537H4.68887H4.68238H4.67589H4.6694H4.66292H4.65645H4.64999H4.64353H4.63707H4.63062H4.62418H4.61775H4.61132H4.6049H4.59848H4.59207H4.58567H4.57928H4.57289H4.5665H4.56013H4.55376H4.5474H4.54104H4.53469H4.52835H4.52201H4.51569H4.50937H4.50305H4.49674H4.49045H4.48415H4.47787H4.47159H4.46532H4.45906H4.4528H4.44655H4.44031H4.43408H4.42785H4.42164H4.41543H4.40922H4.40303H4.39684H4.39066H4.38449H4.37833H4.37217H4.36603H4.35989H4.35375H4.34763H4.34152H4.33541H4.32931H4.32322H4.31714H4.31107H4.305H4.29895H4.2929H4.28686H4.28083H4.27481H4.26879H4.26279H4.25679H4.25081H4.24483H4.23886H4.2329H4.22695H4.22101H4.21508H4.20915H4.20324H4.19733H4.19144H4.18555H4.17967H4.1738H4.16794H4.1621H4.15626H4.15043H4.14461H4.13879H4.13299H4.1272H4.12142H4.11565H4.10989H4.10413H4.09839H4.09266H4.08694H4.08123H4.07552H4.06983H4.06415H4.05848H4.05282H4.04717H4.04153H4.0359H4.03028H4.02467H4.01907H4.01348H4.00875V20H7.02187V13Z" fill="#FF7351"/>
</svg>
