<svg width="24" height="24" viewBox="0 0 24 24" fill="none" xmlns="http://www.w3.org/2000/svg">
<path d="M11.25 13C11.25 13.4142 11.5858 13.75 12 13.75C12.4142 13.75 12.75 13.4142 12.75 13H11.25ZM12 6L12.4685 5.41435C12.1946 5.19522 11.8054 5.19522 11.5315 5.41435L12 6ZM6.53148 9.41435C6.20803 9.67311 6.15559 10.1451 6.41435 10.4685C6.67311 10.792 7.14507 10.8444 7.46852 10.5857L6.53148 9.41435ZM16.5315 10.5857C16.8549 10.8444 17.3269 10.792 17.5857 10.4685C17.8444 10.1451 17.792 9.67311 17.4685 9.41435L16.5315 10.5857ZM11.25 18C11.25 18.4142 11.5858 18.75 12 18.75C12.4142 18.75 12.75 18.4142 12.75 18H11.25ZM12.75 16C12.75 15.5858 12.4142 15.25 12 15.25C11.5858 15.25 11.25 15.5858 11.25 16H12.75ZM12.75 13L12.75 6L11.25 6L11.25 13H12.75ZM7.46852 10.5857L12.4685 6.58565L11.5315 5.41435L6.53148 9.41435L7.46852 10.5857ZM11.5315 6.58565L16.5315 10.5857L17.4685 9.41435L12.4685 5.41435L11.5315 6.58565ZM12.75 18L12.75 16H11.25L11.25 18H12.75Z" fill="#FE0046"/>
</svg>
