<svg width="25" height="24" viewBox="0 0 25 24" fill="none" xmlns="http://www.w3.org/2000/svg">
<path d="M11.5002 11.2495C11.086 11.2495 10.7502 11.5853 10.7502 11.9995C10.7502 12.4137 11.086 12.7495 11.5002 12.7495V11.2495ZM18.5002 11.9995L19.0859 12.468C19.305 12.1941 19.305 11.8049 19.0859 11.531L18.5002 11.9995ZM15.0859 6.53099C14.8271 6.20754 14.3552 6.1551 14.0317 6.41386C13.7083 6.67262 13.6558 7.14459 13.9146 7.46803L15.0859 6.53099ZM13.9146 16.531C13.6558 16.8544 13.7083 17.3264 14.0317 17.5852C14.3552 17.8439 14.8271 17.7915 15.0859 17.468L13.9146 16.531ZM6.50024 11.2495C6.08603 11.2495 5.75024 11.5853 5.75024 11.9995C5.75024 12.4137 6.08603 12.7495 6.50024 12.7495L6.50024 11.2495ZM8.50024 12.7495C8.91446 12.7495 9.25024 12.4137 9.25024 11.9995C9.25024 11.5853 8.91446 11.2495 8.50024 11.2495L8.50024 12.7495ZM11.5002 12.7495L18.5002 12.7495V11.2495L11.5002 11.2495V12.7495ZM13.9146 7.46803L17.9146 12.468L19.0859 11.531L15.0859 6.53099L13.9146 7.46803ZM17.9146 11.531L13.9146 16.531L15.0859 17.468L19.0859 12.468L17.9146 11.531ZM6.50024 12.7495L8.50024 12.7495L8.50024 11.2495L6.50024 11.2495L6.50024 12.7495Z" fill="#FE0046"/>
</svg>
