<svg width="25" height="24" viewBox="0 0 25 24" fill="none" xmlns="http://www.w3.org/2000/svg">
<path d="M11.5 11.2497C11.0858 11.2497 10.75 11.5854 10.75 11.9997C10.75 12.4139 11.0858 12.7497 11.5 12.7497V11.2497ZM18.5 11.9997L19.0856 12.4682C19.3048 12.1943 19.3048 11.805 19.0856 11.5311L18.5 11.9997ZM15.0857 6.53113C14.8269 6.20768 14.3549 6.15524 14.0315 6.414C13.708 6.67275 13.6556 7.14472 13.9143 7.46817L15.0857 6.53113ZM13.9143 16.5311C13.6556 16.8546 13.708 17.3265 14.0315 17.5853C14.3549 17.8441 14.8269 17.7916 15.0857 17.4682L13.9143 16.5311ZM6.5 11.2497C6.08579 11.2497 5.75 11.5854 5.75 11.9997C5.75 12.4139 6.08579 12.7497 6.5 12.7497L6.5 11.2497ZM8.5 12.7497C8.91421 12.7497 9.25 12.4139 9.25 11.9997C9.25 11.5854 8.91421 11.2497 8.5 11.2497L8.5 12.7497ZM11.5 12.7497L18.5 12.7497V11.2497L11.5 11.2497V12.7497ZM13.9143 7.46817L17.9143 12.4682L19.0856 11.5311L15.0857 6.53113L13.9143 7.46817ZM17.9143 11.5311L13.9143 16.5311L15.0857 17.4682L19.0856 12.4682L17.9143 11.5311ZM6.5 12.7497L8.5 12.7497L8.5 11.2497L6.5 11.2497L6.5 12.7497Z" fill="#FF7351"/>
</svg>
