<svg width="24" height="24" viewBox="0 0 24 24" fill="none" xmlns="http://www.w3.org/2000/svg">
<path fill-rule="evenodd" clip-rule="evenodd" d="M14.1654 2.04308C14.5868 2.17097 14.875 2.55956 14.875 3V9.71429H18C18.369 9.71429 18.708 9.91751 18.882 10.243C19.0559 10.5684 19.0364 10.9632 18.8314 11.27L11.9564 21.5557C11.7116 21.9219 11.2561 22.0848 10.8346 21.9569C10.4132 21.829 10.125 21.4404 10.125 21V14.2857H7C6.63099 14.2857 6.29197 14.0825 6.11804 13.757C5.94412 13.4316 5.96356 13.0368 6.16862 12.73L13.0436 2.4443C13.2884 2.07812 13.7439 1.9152 14.1654 2.04308ZM8.87122 12.2857H11.125C11.6773 12.2857 12.125 12.7334 12.125 13.2857V17.7044L16.1288 11.7143H13.875C13.3227 11.7143 12.875 11.2666 12.875 10.7143V6.29564L8.87122 12.2857Z" fill="white"/>
</svg>
