<svg width="24" height="24" viewBox="0 0 24 24" fill="none" xmlns="http://www.w3.org/2000/svg">
<path fill-rule="evenodd" clip-rule="evenodd" d="M14.1654 2.04316C14.5868 2.17105 14.875 2.55963 14.875 3.00008V9.71436H18C18.369 9.71436 18.708 9.91758 18.882 10.243C19.0559 10.5685 19.0364 10.9633 18.8314 11.2701L11.9564 21.5558C11.7116 21.922 11.2561 22.0849 10.8346 21.957C10.4132 21.8291 10.125 21.4405 10.125 21.0001V14.2858H7C6.63099 14.2858 6.29197 14.0826 6.11804 13.7571C5.94412 13.4317 5.96356 13.0369 6.16862 12.7301L13.0436 2.44438C13.2884 2.0782 13.7439 1.91527 14.1654 2.04316ZM8.87122 12.2858H11.125C11.6773 12.2858 12.125 12.7335 12.125 13.2858V17.7044L16.1288 11.7144H13.875C13.3227 11.7144 12.875 11.2666 12.875 10.7144V6.29572L8.87122 12.2858Z" fill="url(#paint0_linear_266_2377)"/>
<defs>
<linearGradient id="paint0_linear_266_2377" x1="6" y1="2" x2="23.4049" y2="2.52727" gradientUnits="userSpaceOnUse">
<stop stop-color="#FF9700"/>
<stop offset="1" stop-color="#FD1A26"/>
</linearGradient>
</defs>
</svg>
